<svg xmlns="http://www.w3.org/2000/svg" version="1.1" xmlns:xlink="http://www.w3.org/1999/xlink" width="5.28059in" height="3.93701in" viewBox="168.92 601.14 5280.59 3937.0099999999998" stroke-linecap="round" stroke-linejoin="round" stroke-width="0" stroke="#000"><defs><rect x="-12" y="-31" width="24" height="62" id="tool-D24-pad-1054"/></defs><g fill="currentColor" stroke="currentColor" transform="translate(0,5139.29) scale(1,-1)"><path stroke-width="0" fill="none" d="M 840.71 601.14 L 840.71 4538.15 L 4777.72 4538.15 L 4777.72 601.14 L 840.71 601.14 M 1401.73 837.36 L 1401.75 839.05 L 1401.81 840.74 L 1401.92 842.43 L 1402.06 844.11 L 1402.25 845.79 L 1402.48 847.47 L 1402.74 849.14 L 1403.05 850.8 L 1403.4 852.46 L 1403.79 854.1 L 1404.23 855.74 L 1404.7 857.36 L 1405.21 858.97 L 1405.76 860.57 L 1406.35 862.16 L 1406.97 863.73 L 1407.64 865.28 L 1408.35 866.82 L 1409.09 868.34 L 1409.87 869.84 L 1410.68 871.32 L 1411.53 872.78 L 1412.42 874.22 L 1413.34 875.64 L 1414.3 877.03 L 1415.29 878.4 L 1416.31 879.75 L 1417.37 881.07 L 1418.46 882.36 L 1419.58 883.63 L 1420.73 884.87 L 1421.91 886.08 L 1423.12 887.26 L 1424.36 888.41 L 1425.63 889.53 L 1426.92 890.62 L 1428.24 891.68 L 1429.59 892.7 L 1430.96 893.69 L 1432.35 894.65 L 1433.77 895.57 L 1435.21 896.46 L 1436.67 897.31 L 1438.15 898.12 L 1439.65 898.9 L 1441.17 899.64 L 1442.71 900.35 L 1444.26 901.02 L 1445.83 901.64 L 1447.42 902.23 L 1449.02 902.78 L 1450.63 903.29 L 1452.25 903.76 L 1453.89 904.2 L 1455.53 904.59 L 1457.19 904.94 L 1458.85 905.25 L 1460.52 905.51 L 1462.2 905.74 L 1463.88 905.93 L 1465.56 906.07 L 1467.25 906.18 L 1468.94 906.24 L 1470.63 906.26 L 1472.32 906.24 L 1474.01 906.18 L 1475.7 906.07 L 1477.38 905.93 L 1479.06 905.74 L 1480.74 905.51 L 1482.41 905.25 L 1484.07 904.94 L 1485.73 904.59 L 1487.37 904.2 L 1489.01 903.76 L 1490.63 903.29 L 1492.24 902.78 L 1493.84 902.23 L 1495.43 901.64 L 1497 901.02 L 1498.55 900.35 L 1500.09 899.64 L 1501.61 898.9 L 1503.11 898.12 L 1504.59 897.31 L 1506.05 896.46 L 1507.49 895.57 L 1508.91 894.65 L 1510.3 893.69 L 1511.67 892.7 L 1513.02 891.68 L 1514.34 890.62 L 1515.63 889.53 L 1516.9 888.41 L 1518.14 887.26 L 1519.35 886.08 L 1520.53 884.87 L 1521.68 883.63 L 1522.8 882.36 L 1523.89 881.07 L 1524.95 879.75 L 1525.97 878.4 L 1526.96 877.03 L 1527.92 875.64 L 1528.84 874.22 L 1529.73 872.78 L 1530.58 871.32 L 1531.39 869.84 L 1532.17 868.34 L 1532.91 866.82 L 1533.62 865.28 L 1534.29 863.73 L 1534.91 862.16 L 1535.5 860.57 L 1536.05 858.97 L 1536.56 857.36 L 1537.03 855.74 L 1537.47 854.1 L 1537.86 852.46 L 1538.21 850.8 L 1538.52 849.14 L 1538.78 847.47 L 1539.01 845.79 L 1539.2 844.11 L 1539.34 842.43 L 1539.45 840.74 L 1539.51 839.05 L 1539.53 837.36 L 1539.51 835.67 L 1539.45 833.98 L 1539.34 832.29 L 1539.2 830.61 L 1539.01 828.93 L 1538.78 827.25 L 1538.52 825.58 L 1538.21 823.92 L 1537.86 822.26 L 1537.47 820.62 L 1537.03 818.98 L 1536.56 817.36 L 1536.05 815.75 L 1535.5 814.15 L 1534.91 812.56 L 1534.29 810.99 L 1533.62 809.44 L 1532.91 807.9 L 1532.17 806.38 L 1531.39 804.88 L 1530.58 803.4 L 1529.73 801.94 L 1528.84 800.5 L 1527.92 799.08 L 1526.96 797.69 L 1525.97 796.32 L 1524.95 794.97 L 1523.89 793.65 L 1522.8 792.36 L 1521.68 791.09 L 1520.53 789.85 L 1519.35 788.64 L 1518.14 787.46 L 1516.9 786.31 L 1515.63 785.19 L 1514.34 784.1 L 1513.02 783.04 L 1511.67 782.02 L 1510.3 781.03 L 1508.91 780.07 L 1507.49 779.15 L 1506.05 778.26 L 1504.59 777.41 L 1503.11 776.6 L 1501.61 775.82 L 1500.09 775.08 L 1498.55 774.37 L 1497 773.7 L 1495.43 773.08 L 1493.84 772.49 L 1492.24 771.94 L 1490.63 771.43 L 1489.01 770.96 L 1487.37 770.52 L 1485.73 770.13 L 1484.07 769.78 L 1482.41 769.47 L 1480.74 769.21 L 1479.06 768.98 L 1477.38 768.79 L 1475.7 768.65 L 1474.01 768.54 L 1472.32 768.48 L 1470.63 768.46 L 1468.94 768.48 L 1467.25 768.54 L 1465.56 768.65 L 1463.88 768.79 L 1462.2 768.98 L 1460.52 769.21 L 1458.85 769.47 L 1457.19 769.78 L 1455.53 770.13 L 1453.89 770.52 L 1452.25 770.96 L 1450.63 771.43 L 1449.02 771.94 L 1447.42 772.49 L 1445.83 773.08 L 1444.26 773.7 L 1442.71 774.37 L 1441.17 775.08 L 1439.65 775.82 L 1438.15 776.6 L 1436.67 777.41 L 1435.21 778.26 L 1433.77 779.15 L 1432.35 780.07 L 1430.96 781.03 L 1429.59 782.02 L 1428.24 783.04 L 1426.92 784.1 L 1425.63 785.19 L 1424.36 786.31 L 1423.12 787.46 L 1421.91 788.64 L 1420.73 789.85 L 1419.58 791.09 L 1418.46 792.36 L 1417.37 793.65 L 1416.31 794.97 L 1415.29 796.32 L 1414.3 797.69 L 1413.34 799.08 L 1412.42 800.5 L 1411.53 801.94 L 1410.68 803.4 L 1409.87 804.88 L 1409.09 806.38 L 1408.35 807.9 L 1407.64 809.44 L 1406.97 810.99 L 1406.35 812.56 L 1405.76 814.15 L 1405.21 815.75 L 1404.7 817.36 L 1404.23 818.98 L 1403.79 820.62 L 1403.4 822.26 L 1403.05 823.92 L 1402.74 825.58 L 1402.48 827.25 L 1402.25 828.93 L 1402.06 830.61 L 1401.92 832.29 L 1401.81 833.98 L 1401.75 835.67 L 1401.73 837.36 M 4551.34 837.36 L 4551.36 839.05 L 4551.42 840.74 L 4551.53 842.43 L 4551.67 844.11 L 4551.86 845.79 L 4552.09 847.47 L 4552.35 849.14 L 4552.66 850.8 L 4553.01 852.46 L 4553.4 854.1 L 4553.84 855.74 L 4554.31 857.36 L 4554.82 858.97 L 4555.37 860.57 L 4555.96 862.16 L 4556.58 863.73 L 4557.25 865.28 L 4557.96 866.82 L 4558.7 868.34 L 4559.48 869.84 L 4560.29 871.32 L 4561.14 872.78 L 4562.03 874.22 L 4562.95 875.64 L 4563.91 877.03 L 4564.9 878.4 L 4565.92 879.75 L 4566.98 881.07 L 4568.07 882.36 L 4569.19 883.63 L 4570.34 884.87 L 4571.52 886.08 L 4572.73 887.26 L 4573.97 888.41 L 4575.24 889.53 L 4576.53 890.62 L 4577.85 891.68 L 4579.2 892.7 L 4580.57 893.69 L 4581.96 894.65 L 4583.38 895.57 L 4584.82 896.46 L 4586.28 897.31 L 4587.76 898.12 L 4589.26 898.9 L 4590.78 899.64 L 4592.32 900.35 L 4593.87 901.02 L 4595.44 901.64 L 4597.03 902.23 L 4598.63 902.78 L 4600.24 903.29 L 4601.86 903.76 L 4603.5 904.2 L 4605.14 904.59 L 4606.8 904.94 L 4608.46 905.25 L 4610.13 905.51 L 4611.81 905.74 L 4613.49 905.93 L 4615.17 906.07 L 4616.86 906.18 L 4618.55 906.24 L 4620.24 906.26 L 4621.93 906.24 L 4623.62 906.18 L 4625.31 906.07 L 4626.99 905.93 L 4628.67 905.74 L 4630.35 905.51 L 4632.02 905.25 L 4633.68 904.94 L 4635.34 904.59 L 4636.98 904.2 L 4638.62 903.76 L 4640.24 903.29 L 4641.85 902.78 L 4643.45 902.23 L 4645.04 901.64 L 4646.61 901.02 L 4648.16 900.35 L 4649.7 899.64 L 4651.22 898.9 L 4652.72 898.12 L 4654.2 897.31 L 4655.66 896.46 L 4657.1 895.57 L 4658.52 894.65 L 4659.91 893.69 L 4661.28 892.7 L 4662.63 891.68 L 4663.95 890.62 L 4665.24 889.53 L 4666.51 888.41 L 4667.75 887.26 L 4668.96 886.08 L 4670.14 884.87 L 4671.29 883.63 L 4672.41 882.36 L 4673.5 881.07 L 4674.56 879.75 L 4675.58 878.4 L 4676.57 877.03 L 4677.53 875.64 L 4678.45 874.22 L 4679.34 872.78 L 4680.19 871.32 L 4681 869.84 L 4681.78 868.34 L 4682.52 866.82 L 4683.23 865.28 L 4683.9 863.73 L 4684.52 862.16 L 4685.11 860.57 L 4685.66 858.97 L 4686.17 857.36 L 4686.64 855.74 L 4687.08 854.1 L 4687.47 852.46 L 4687.82 850.8 L 4688.13 849.14 L 4688.39 847.47 L 4688.62 845.79 L 4688.81 844.11 L 4688.95 842.43 L 4689.06 840.74 L 4689.12 839.05 L 4689.14 837.36 L 4689.12 835.67 L 4689.06 833.98 L 4688.95 832.29 L 4688.81 830.61 L 4688.62 828.93 L 4688.39 827.25 L 4688.13 825.58 L 4687.82 823.92 L 4687.47 822.26 L 4687.08 820.62 L 4686.64 818.98 L 4686.17 817.36 L 4685.66 815.75 L 4685.11 814.15 L 4684.52 812.56 L 4683.9 810.99 L 4683.23 809.44 L 4682.52 807.9 L 4681.78 806.38 L 4681 804.88 L 4680.19 803.4 L 4679.34 801.94 L 4678.45 800.5 L 4677.53 799.08 L 4676.57 797.69 L 4675.58 796.32 L 4674.56 794.97 L 4673.5 793.65 L 4672.41 792.36 L 4671.29 791.09 L 4670.14 789.85 L 4668.96 788.64 L 4667.75 787.46 L 4666.51 786.31 L 4665.24 785.19 L 4663.95 784.1 L 4662.63 783.04 L 4661.28 782.02 L 4659.91 781.03 L 4658.52 780.07 L 4657.1 779.15 L 4655.66 778.26 L 4654.2 777.41 L 4652.72 776.6 L 4651.22 775.82 L 4649.7 775.08 L 4648.16 774.37 L 4646.61 773.7 L 4645.04 773.08 L 4643.45 772.49 L 4641.85 771.94 L 4640.24 771.43 L 4638.62 770.96 L 4636.98 770.52 L 4635.34 770.13 L 4633.68 769.78 L 4632.02 769.47 L 4630.35 769.21 L 4628.67 768.98 L 4626.99 768.79 L 4625.31 768.65 L 4623.62 768.54 L 4621.93 768.48 L 4620.24 768.46 L 4618.55 768.48 L 4616.86 768.54 L 4615.17 768.65 L 4613.49 768.79 L 4611.81 768.98 L 4610.13 769.21 L 4608.46 769.47 L 4606.8 769.78 L 4605.14 770.13 L 4603.5 770.52 L 4601.86 770.96 L 4600.24 771.43 L 4598.63 771.94 L 4597.03 772.49 L 4595.44 773.08 L 4593.87 773.7 L 4592.32 774.37 L 4590.78 775.08 L 4589.26 775.82 L 4587.76 776.6 L 4586.28 777.41 L 4584.82 778.26 L 4583.38 779.15 L 4581.96 780.07 L 4580.57 781.03 L 4579.2 782.02 L 4577.85 783.04 L 4576.53 784.1 L 4575.24 785.19 L 4573.97 786.31 L 4572.73 787.46 L 4571.52 788.64 L 4570.34 789.85 L 4569.19 791.09 L 4568.07 792.36 L 4566.98 793.65 L 4565.92 794.97 L 4564.9 796.32 L 4563.91 797.69 L 4562.95 799.08 L 4562.03 800.5 L 4561.14 801.94 L 4560.29 803.4 L 4559.48 804.88 L 4558.7 806.38 L 4557.96 807.9 L 4557.25 809.44 L 4556.58 810.99 L 4555.96 812.56 L 4555.37 814.15 L 4554.82 815.75 L 4554.31 817.36 L 4553.84 818.98 L 4553.4 820.62 L 4553.01 822.26 L 4552.66 823.92 L 4552.35 825.58 L 4552.09 827.25 L 4551.86 828.93 L 4551.67 830.61 L 4551.53 832.29 L 4551.42 833.98 L 4551.36 835.67 L 4551.34 837.36 M 4551.34 4380.67 L 4551.36 4382.36 L 4551.42 4384.05 L 4551.53 4385.74 L 4551.67 4387.42 L 4551.86 4389.1 L 4552.09 4390.78 L 4552.35 4392.45 L 4552.66 4394.11 L 4553.01 4395.77 L 4553.4 4397.41 L 4553.84 4399.05 L 4554.31 4400.67 L 4554.82 4402.28 L 4555.37 4403.88 L 4555.96 4405.47 L 4556.58 4407.04 L 4557.25 4408.59 L 4557.96 4410.13 L 4558.7 4411.65 L 4559.48 4413.15 L 4560.29 4414.63 L 4561.14 4416.09 L 4562.03 4417.53 L 4562.95 4418.95 L 4563.91 4420.34 L 4564.9 4421.71 L 4565.92 4423.06 L 4566.98 4424.38 L 4568.07 4425.67 L 4569.19 4426.94 L 4570.34 4428.18 L 4571.52 4429.39 L 4572.73 4430.57 L 4573.97 4431.72 L 4575.24 4432.84 L 4576.53 4433.93 L 4577.85 4434.99 L 4579.2 4436.01 L 4580.57 4437 L 4581.96 4437.96 L 4583.38 4438.88 L 4584.82 4439.77 L 4586.28 4440.62 L 4587.76 4441.43 L 4589.26 4442.21 L 4590.78 4442.95 L 4592.32 4443.66 L 4593.87 4444.33 L 4595.44 4444.95 L 4597.03 4445.54 L 4598.63 4446.09 L 4600.24 4446.6 L 4601.86 4447.07 L 4603.5 4447.51 L 4605.14 4447.9 L 4606.8 4448.25 L 4608.46 4448.56 L 4610.13 4448.82 L 4611.81 4449.05 L 4613.49 4449.24 L 4615.17 4449.38 L 4616.86 4449.49 L 4618.55 4449.55 L 4620.24 4449.57 L 4621.93 4449.55 L 4623.62 4449.49 L 4625.31 4449.38 L 4626.99 4449.24 L 4628.67 4449.05 L 4630.35 4448.82 L 4632.02 4448.56 L 4633.68 4448.25 L 4635.34 4447.9 L 4636.98 4447.51 L 4638.62 4447.07 L 4640.24 4446.6 L 4641.85 4446.09 L 4643.45 4445.54 L 4645.04 4444.95 L 4646.61 4444.33 L 4648.16 4443.66 L 4649.7 4442.95 L 4651.22 4442.21 L 4652.72 4441.43 L 4654.2 4440.62 L 4655.66 4439.77 L 4657.1 4438.88 L 4658.52 4437.96 L 4659.91 4437 L 4661.28 4436.01 L 4662.63 4434.99 L 4663.95 4433.93 L 4665.24 4432.84 L 4666.51 4431.72 L 4667.75 4430.57 L 4668.96 4429.39 L 4670.14 4428.18 L 4671.29 4426.94 L 4672.41 4425.67 L 4673.5 4424.38 L 4674.56 4423.06 L 4675.58 4421.71 L 4676.57 4420.34 L 4677.53 4418.95 L 4678.45 4417.53 L 4679.34 4416.09 L 4680.19 4414.63 L 4681 4413.15 L 4681.78 4411.65 L 4682.52 4410.13 L 4683.23 4408.59 L 4683.9 4407.04 L 4684.52 4405.47 L 4685.11 4403.88 L 4685.66 4402.28 L 4686.17 4400.67 L 4686.64 4399.05 L 4687.08 4397.41 L 4687.47 4395.77 L 4687.82 4394.11 L 4688.13 4392.45 L 4688.39 4390.78 L 4688.62 4389.1 L 4688.81 4387.42 L 4688.95 4385.74 L 4689.06 4384.05 L 4689.12 4382.36 L 4689.14 4380.67 L 4689.12 4378.98 L 4689.06 4377.29 L 4688.95 4375.6 L 4688.81 4373.92 L 4688.62 4372.24 L 4688.39 4370.56 L 4688.13 4368.89 L 4687.82 4367.23 L 4687.47 4365.57 L 4687.08 4363.93 L 4686.64 4362.29 L 4686.17 4360.67 L 4685.66 4359.06 L 4685.11 4357.46 L 4684.52 4355.87 L 4683.9 4354.3 L 4683.23 4352.75 L 4682.52 4351.21 L 4681.78 4349.69 L 4681 4348.19 L 4680.19 4346.71 L 4679.34 4345.25 L 4678.45 4343.81 L 4677.53 4342.39 L 4676.57 4341 L 4675.58 4339.63 L 4674.56 4338.28 L 4673.5 4336.96 L 4672.41 4335.67 L 4671.29 4334.4 L 4670.14 4333.16 L 4668.96 4331.95 L 4667.75 4330.77 L 4666.51 4329.62 L 4665.24 4328.5 L 4663.95 4327.41 L 4662.63 4326.35 L 4661.28 4325.33 L 4659.91 4324.34 L 4658.52 4323.38 L 4657.1 4322.46 L 4655.66 4321.57 L 4654.2 4320.72 L 4652.72 4319.91 L 4651.22 4319.13 L 4649.7 4318.39 L 4648.16 4317.68 L 4646.61 4317.01 L 4645.04 4316.39 L 4643.45 4315.8 L 4641.85 4315.25 L 4640.24 4314.74 L 4638.62 4314.27 L 4636.98 4313.83 L 4635.34 4313.44 L 4633.68 4313.09 L 4632.02 4312.78 L 4630.35 4312.52 L 4628.67 4312.29 L 4626.99 4312.1 L 4625.31 4311.96 L 4623.62 4311.85 L 4621.93 4311.79 L 4620.24 4311.77 L 4618.55 4311.79 L 4616.86 4311.85 L 4615.17 4311.96 L 4613.49 4312.1 L 4611.81 4312.29 L 4610.13 4312.52 L 4608.46 4312.78 L 4606.8 4313.09 L 4605.14 4313.44 L 4603.5 4313.83 L 4601.86 4314.27 L 4600.24 4314.74 L 4598.63 4315.25 L 4597.03 4315.8 L 4595.44 4316.39 L 4593.87 4317.01 L 4592.32 4317.68 L 4590.78 4318.39 L 4589.26 4319.13 L 4587.76 4319.91 L 4586.28 4320.72 L 4584.82 4321.57 L 4583.38 4322.46 L 4581.96 4323.38 L 4580.57 4324.34 L 4579.2 4325.33 L 4577.85 4326.35 L 4576.53 4327.41 L 4575.24 4328.5 L 4573.97 4329.62 L 4572.73 4330.77 L 4571.52 4331.95 L 4570.34 4333.16 L 4569.19 4334.4 L 4568.07 4335.67 L 4566.98 4336.96 L 4565.92 4338.28 L 4564.9 4339.63 L 4563.91 4341 L 4562.95 4342.39 L 4562.03 4343.81 L 4561.14 4345.25 L 4560.29 4346.71 L 4559.48 4348.19 L 4558.7 4349.69 L 4557.96 4351.21 L 4557.25 4352.75 L 4556.58 4354.3 L 4555.96 4355.87 L 4555.37 4357.46 L 4554.82 4359.06 L 4554.31 4360.67 L 4553.84 4362.29 L 4553.4 4363.93 L 4553.01 4365.57 L 4552.66 4367.23 L 4552.35 4368.89 L 4552.09 4370.56 L 4551.86 4372.24 L 4551.67 4373.92 L 4551.53 4375.6 L 4551.42 4377.29 L 4551.36 4378.98 L 4551.34 4380.67 M 1008.03 4380.67 L 1008.05 4382.36 L 1008.11 4384.05 L 1008.22 4385.74 L 1008.36 4387.42 L 1008.55 4389.1 L 1008.78 4390.78 L 1009.04 4392.45 L 1009.35 4394.11 L 1009.7 4395.77 L 1010.09 4397.41 L 1010.53 4399.05 L 1011 4400.67 L 1011.51 4402.28 L 1012.06 4403.88 L 1012.65 4405.47 L 1013.27 4407.04 L 1013.94 4408.59 L 1014.65 4410.13 L 1015.39 4411.65 L 1016.17 4413.15 L 1016.98 4414.63 L 1017.83 4416.09 L 1018.72 4417.53 L 1019.64 4418.95 L 1020.6 4420.34 L 1021.59 4421.71 L 1022.61 4423.06 L 1023.67 4424.38 L 1024.76 4425.67 L 1025.88 4426.94 L 1027.03 4428.18 L 1028.21 4429.39 L 1029.42 4430.57 L 1030.66 4431.72 L 1031.93 4432.84 L 1033.22 4433.93 L 1034.54 4434.99 L 1035.89 4436.01 L 1037.26 4437 L 1038.65 4437.96 L 1040.07 4438.88 L 1041.51 4439.77 L 1042.97 4440.62 L 1044.45 4441.43 L 1045.95 4442.21 L 1047.47 4442.95 L 1049.01 4443.66 L 1050.56 4444.33 L 1052.13 4444.95 L 1053.72 4445.54 L 1055.32 4446.09 L 1056.93 4446.6 L 1058.55 4447.07 L 1060.19 4447.51 L 1061.83 4447.9 L 1063.49 4448.25 L 1065.15 4448.56 L 1066.82 4448.82 L 1068.5 4449.05 L 1070.18 4449.24 L 1071.86 4449.38 L 1073.55 4449.49 L 1075.24 4449.55 L 1076.93 4449.57 L 1078.62 4449.55 L 1080.31 4449.49 L 1082 4449.38 L 1083.68 4449.24 L 1085.36 4449.05 L 1087.04 4448.82 L 1088.71 4448.56 L 1090.37 4448.25 L 1092.03 4447.9 L 1093.67 4447.51 L 1095.31 4447.07 L 1096.93 4446.6 L 1098.54 4446.09 L 1100.14 4445.54 L 1101.73 4444.95 L 1103.3 4444.33 L 1104.85 4443.66 L 1106.39 4442.95 L 1107.91 4442.21 L 1109.41 4441.43 L 1110.89 4440.62 L 1112.35 4439.77 L 1113.79 4438.88 L 1115.21 4437.96 L 1116.6 4437 L 1117.97 4436.01 L 1119.32 4434.99 L 1120.64 4433.93 L 1121.93 4432.84 L 1123.2 4431.72 L 1124.44 4430.57 L 1125.65 4429.39 L 1126.83 4428.18 L 1127.98 4426.94 L 1129.1 4425.67 L 1130.19 4424.38 L 1131.25 4423.06 L 1132.27 4421.71 L 1133.26 4420.34 L 1134.22 4418.95 L 1135.14 4417.53 L 1136.03 4416.09 L 1136.88 4414.63 L 1137.69 4413.15 L 1138.47 4411.65 L 1139.21 4410.13 L 1139.92 4408.59 L 1140.59 4407.04 L 1141.21 4405.47 L 1141.8 4403.88 L 1142.35 4402.28 L 1142.86 4400.67 L 1143.33 4399.05 L 1143.77 4397.41 L 1144.16 4395.77 L 1144.51 4394.11 L 1144.82 4392.45 L 1145.08 4390.78 L 1145.31 4389.1 L 1145.5 4387.42 L 1145.64 4385.74 L 1145.75 4384.05 L 1145.81 4382.36 L 1145.83 4380.67 L 1145.81 4378.98 L 1145.75 4377.29 L 1145.64 4375.6 L 1145.5 4373.92 L 1145.31 4372.24 L 1145.08 4370.56 L 1144.82 4368.89 L 1144.51 4367.23 L 1144.16 4365.57 L 1143.77 4363.93 L 1143.33 4362.29 L 1142.86 4360.67 L 1142.35 4359.06 L 1141.8 4357.46 L 1141.21 4355.87 L 1140.59 4354.3 L 1139.92 4352.75 L 1139.21 4351.21 L 1138.47 4349.69 L 1137.69 4348.19 L 1136.88 4346.71 L 1136.03 4345.25 L 1135.14 4343.81 L 1134.22 4342.39 L 1133.26 4341 L 1132.27 4339.63 L 1131.25 4338.28 L 1130.19 4336.96 L 1129.1 4335.67 L 1127.98 4334.4 L 1126.83 4333.16 L 1125.65 4331.95 L 1124.44 4330.77 L 1123.2 4329.62 L 1121.93 4328.5 L 1120.64 4327.41 L 1119.32 4326.35 L 1117.97 4325.33 L 1116.6 4324.34 L 1115.21 4323.38 L 1113.79 4322.46 L 1112.35 4321.57 L 1110.89 4320.72 L 1109.41 4319.91 L 1107.91 4319.13 L 1106.39 4318.39 L 1104.85 4317.68 L 1103.3 4317.01 L 1101.73 4316.39 L 1100.14 4315.8 L 1098.54 4315.25 L 1096.93 4314.74 L 1095.31 4314.27 L 1093.67 4313.83 L 1092.03 4313.44 L 1090.37 4313.09 L 1088.71 4312.78 L 1087.04 4312.52 L 1085.36 4312.29 L 1083.68 4312.1 L 1082 4311.96 L 1080.31 4311.85 L 1078.62 4311.79 L 1076.93 4311.77 L 1075.24 4311.79 L 1073.55 4311.85 L 1071.86 4311.96 L 1070.18 4312.1 L 1068.5 4312.29 L 1066.82 4312.52 L 1065.15 4312.78 L 1063.49 4313.09 L 1061.83 4313.44 L 1060.19 4313.83 L 1058.55 4314.27 L 1056.93 4314.74 L 1055.32 4315.25 L 1053.72 4315.8 L 1052.13 4316.39 L 1050.56 4317.01 L 1049.01 4317.68 L 1047.47 4318.39 L 1045.95 4319.13 L 1044.45 4319.91 L 1042.97 4320.72 L 1041.51 4321.57 L 1040.07 4322.46 L 1038.65 4323.38 L 1037.26 4324.34 L 1035.89 4325.33 L 1034.54 4326.35 L 1033.22 4327.41 L 1031.93 4328.5 L 1030.66 4329.62 L 1029.42 4330.77 L 1028.21 4331.95 L 1027.03 4333.16 L 1025.88 4334.4 L 1024.76 4335.67 L 1023.67 4336.96 L 1022.61 4338.28 L 1021.59 4339.63 L 1020.6 4341 L 1019.64 4342.39 L 1018.72 4343.81 L 1017.83 4345.25 L 1016.98 4346.71 L 1016.17 4348.19 L 1015.39 4349.69 L 1014.65 4351.21 L 1013.94 4352.75 L 1013.27 4354.3 L 1012.65 4355.87 L 1012.06 4357.46 L 1011.51 4359.06 L 1011 4360.67 L 1010.53 4362.29 L 1010.09 4363.93 L 1009.7 4365.57 L 1009.35 4367.23 L 1009.04 4368.89 L 1008.78 4370.56 L 1008.55 4372.24 L 1008.36 4373.92 L 1008.22 4375.6 L 1008.11 4377.29 L 1008.05 4378.98 L 1008.03 4380.67"/><path stroke-width="15.75" fill="none" d="M 919.45 4420.04 L 889.92 4351.14 L 899.76 4410.2 L 870.24 4429.88 L 909.61 4508.62 L 889.92 4439.72 L 919.45 4420.04 M 912.84 4424.44 L 878.39 4424.44 M 875.38 4440.18 L 890.05 4440.18 M 894.55 4455.91 L 883.25 4455.91 M 891.12 4471.64 L 899.04 4471.64 M 898.98 4487.38 L 903.54 4487.38 M 906.85 4503.11 L 908.03 4503.11 M 914.59 4408.71 L 899.52 4408.71 M 896.89 4392.98 L 907.85 4392.98 M 901.11 4377.25 L 894.27 4377.25 M 894.37 4361.51 L 891.65 4361.51 M 1106.46 2195.63 L 1086.77 2126.73 L 1116.3 2107.05 L 1086.77 2038.15 L 1096.61 2097.2 L 1067.09 2116.89 L 1106.46 2195.63 M 1104.94 2190.34 L 1103.81 2190.34 M 1100.45 2174.61 L 1095.94 2174.61 M 1095.95 2158.87 L 1088.08 2158.87 M 1091.46 2143.14 L 1080.21 2143.14 M 1086.96 2127.41 L 1072.34 2127.41 M 1074.91 2111.67 L 1109.36 2111.67 M 1111.54 2095.94 L 1096.4 2095.94 M 1093.78 2080.21 L 1104.8 2080.21 M 1098.05 2064.47 L 1091.16 2064.47 M 1091.31 2048.74 L 1088.54 2048.74 M 1079.75 2018.46 L 1036.16 2018.46 M 996.79 2018.46 L 953.2 2018.46 M 913.83 2018.46 L 870.24 2018.46 M 1119.12 2018.46 L 1162.7 2018.46 M 1202.07 2018.46 L 1245.66 2018.46 M 1285.03 2018.46 L 1328.62 2018.46 M 1367.99 2018.46 L 1411.58 2018.46 M 1431.26 2038.15 L 1460.79 2107.05 L 1431.26 2126.73 L 1450.94 2195.63 L 1411.57 2116.89 L 1441.1 2097.2 L 1431.26 2038.15 M 1433.02 2048.74 L 1435.8 2048.74 M 1435.65 2064.47 L 1442.54 2064.47 M 1438.27 2080.21 L 1449.28 2080.21 M 1456.03 2095.94 L 1440.89 2095.94 M 1453.85 2111.67 L 1419.4 2111.67 M 1416.83 2127.41 L 1431.45 2127.41 M 1435.95 2143.14 L 1424.7 2143.14 M 1432.57 2158.87 L 1440.44 2158.87 M 1440.43 2174.61 L 1444.94 2174.61 M 1448.3 2190.34 L 1449.43 2190.34 M 1450.95 2018.46 L 1494.54 2018.46 M 1533.91 2018.46 L 1577.5 2018.46 M 1616.87 2018.46 L 1660.46 2018.46 M 1699.83 2018.46 L 1743.42 2018.46 M 1882.62 1960.81 L 1912.74 1930.68 M 1940.58 1902.84 L 1970.7 1872.72 M 1998.54 1844.88 L 2028.67 1814.76 M 2056.51 1786.92 L 2086.63 1756.79 M 2114.47 1728.95 L 2144.6 1698.83 M 2172.43 1670.99 L 2202.56 1640.87 M 2230.4 1613.03 L 2260.52 1582.9 M 2288.36 1555.06 L 2318.49 1524.94 M 2457.68 1467.28 L 2506.09 1467.28 M 2545.46 1467.28 L 2593.88 1467.28 M 2633.25 1467.28 L 2681.66 1467.28 M 2721.03 1467.28 L 2769.44 1467.28 M 2808.81 1467.28 L 2857.23 1467.28 M 2896.6 1467.28 L 2945.01 1467.28 M 2984.38 1467.28 L 3032.79 1467.28 M 3171.99 1524.94 L 3188.99 1541.95 M 3216.83 1569.79 L 3233.84 1586.79 M 3291.5 1654.29 L 3321.02 1723.19 L 3291.5 1742.87 L 3311.18 1811.77 L 3271.81 1733.03 L 3301.34 1713.35 L 3291.5 1654.29 M 3291.68 1655.41 L 3291.98 1655.41 M 3294.3 1671.14 L 3298.72 1671.14 M 3296.93 1686.88 L 3305.46 1686.88 M 3299.55 1702.61 L 3312.2 1702.61 M 3318.95 1718.34 L 3293.84 1718.34 M 3304.69 1734.08 L 3272.33 1734.08 M 3280.2 1749.81 L 3293.48 1749.81 M 3297.97 1765.54 L 3288.07 1765.54 M 3295.93 1781.28 L 3302.47 1781.28 M 3303.8 1797.01 L 3306.96 1797.01 M 3373.03 1644.45 L 3413.82 1644.45 M 3453.19 1644.45 L 3493.98 1644.45 M 3533.35 1644.45 L 3574.13 1644.45 M 3645.83 1654.29 L 3675.35 1723.19 L 3645.83 1742.87 L 3665.51 1811.77 L 3626.14 1733.03 L 3655.67 1713.35 L 3645.83 1654.29 M 3646.01 1655.41 L 3646.31 1655.41 M 3648.64 1671.14 L 3653.05 1671.14 M 3651.26 1686.88 L 3659.79 1686.88 M 3653.88 1702.61 L 3666.53 1702.61 M 3673.28 1718.34 L 3648.17 1718.34 M 3659.02 1734.08 L 3626.66 1734.08 M 3634.53 1749.81 L 3647.81 1749.81 M 3652.3 1765.54 L 3642.4 1765.54 M 3650.26 1781.28 L 3656.8 1781.28 M 3658.13 1797.01 L 3661.29 1797.01 M 3713.33 1586.79 L 3730.33 1569.79 M 3758.17 1541.95 L 3775.18 1524.94 M 3914.37 1467.28 L 3965.93 1467.28 M 4005.3 1467.28 L 4056.86 1467.28 M 4096.23 1467.28 L 4147.8 1467.28 M 4187.17 1467.28 L 4238.73 1467.28 M 4278.1 1467.28 L 4329.66 1467.28 M 4369.03 1467.28 L 4420.59 1467.28 M 4559.78 1524.94 L 4584.74 1549.9 M 4612.58 1577.73 L 4637.53 1602.69 M 4637.54 1602.69 L 4640.28 1605.21 L 4643.09 1607.66 L 4645.96 1610.04 L 4648.88 1612.35 L 4651.86 1614.6 L 4654.89 1616.76 L 4657.98 1618.86 L 4661.11 1620.88 L 4664.29 1622.82 L 4667.51 1624.69 L 4670.79 1626.48 M 4707.52 1640.34 L 4711.16 1641.16 L 4714.81 1641.89 L 4718.48 1642.53 L 4722.17 1643.08 L 4725.87 1643.55 L 4729.57 1643.92 L 4733.29 1644.21 L 4737.01 1644.4 L 4740.74 1644.51 L 4744.46 1644.53 L 4748.19 1644.45 M 4477.39 1475.65 L 4472.77 1474.32 L 4468.13 1473.11 L 4463.46 1472 L 4458.76 1471.02 L 4454.04 1470.14 L 4449.3 1469.38 L 4444.54 1468.74 L 4439.77 1468.22 L 4434.98 1467.81 L 4430.19 1467.51 L 4425.39 1467.34 L 4420.59 1467.28 M 4513.7 1490.69 L 4517.9 1493.02 L 4522.05 1495.44 L 4526.13 1497.96 L 4530.15 1500.59 L 4534.11 1503.31 L 4538 1506.13 L 4541.82 1509.04 L 4545.56 1512.04 L 4549.23 1515.13 L 4552.83 1518.31 L 4556.35 1521.58 L 4559.78 1524.94 M 3914.37 1467.28 L 3909.57 1467.34 L 3904.77 1467.51 L 3899.98 1467.81 L 3895.19 1468.22 L 3890.42 1468.74 L 3885.66 1469.38 L 3880.92 1470.14 L 3876.2 1471.02 L 3871.5 1472 L 3866.83 1473.11 L 3862.19 1474.32 L 3857.57 1475.65 M 3821.26 1490.69 L 3817.06 1493.02 L 3812.91 1495.44 L 3808.83 1497.96 L 3804.81 1500.59 L 3800.85 1503.31 L 3796.96 1506.13 L 3793.14 1509.04 L 3789.4 1512.04 L 3785.73 1515.13 L 3782.13 1518.31 L 3778.61 1521.58 L 3775.18 1524.94 M 3713.32 1586.79 L 3709.89 1590.15 L 3706.37 1593.42 L 3702.77 1596.6 L 3699.1 1599.69 L 3695.36 1602.69 L 3691.54 1605.6 L 3687.65 1608.42 L 3683.69 1611.14 L 3679.67 1613.77 L 3675.59 1616.29 L 3671.44 1618.71 L 3667.24 1621.04 M 3630.93 1636.08 L 3626.31 1637.41 L 3621.67 1638.62 L 3617 1639.73 L 3612.3 1640.71 L 3607.58 1641.59 L 3602.84 1642.35 L 3598.08 1642.99 L 3593.31 1643.51 L 3588.52 1643.92 L 3583.73 1644.22 L 3578.93 1644.39 L 3574.13 1644.45 M 3373.03 1644.45 L 3368.23 1644.39 L 3363.43 1644.22 L 3358.64 1643.92 L 3353.85 1643.51 L 3349.08 1642.99 L 3344.32 1642.35 L 3339.58 1641.59 L 3334.86 1640.71 L 3330.16 1639.73 L 3325.49 1638.62 L 3320.85 1637.41 L 3316.23 1636.08 M 3279.92 1621.04 L 3275.72 1618.71 L 3271.57 1616.29 L 3267.49 1613.77 L 3263.47 1611.14 L 3259.51 1608.42 L 3255.62 1605.6 L 3251.8 1602.69 L 3248.06 1599.69 L 3244.39 1596.6 L 3240.79 1593.42 L 3237.27 1590.15 L 3233.84 1586.79 M 3171.98 1524.94 L 3168.55 1521.58 L 3165.03 1518.31 L 3161.43 1515.13 L 3157.76 1512.04 L 3154.02 1509.04 L 3150.2 1506.13 L 3146.31 1503.31 L 3142.35 1500.59 L 3138.33 1497.96 L 3134.25 1495.44 L 3130.1 1493.02 L 3125.9 1490.69 M 3089.59 1475.65 L 3084.97 1474.32 L 3080.33 1473.11 L 3075.66 1472 L 3070.96 1471.02 L 3066.24 1470.14 L 3061.5 1469.38 L 3056.74 1468.74 L 3051.97 1468.22 L 3047.18 1467.81 L 3042.39 1467.51 L 3037.59 1467.34 L 3032.79 1467.28 M 2457.68 1467.28 L 2452.88 1467.34 L 2448.08 1467.51 L 2443.29 1467.81 L 2438.5 1468.22 L 2433.73 1468.74 L 2428.97 1469.38 L 2424.23 1470.14 L 2419.51 1471.02 L 2414.81 1472 L 2410.14 1473.11 L 2405.5 1474.32 L 2400.88 1475.65 M 2364.57 1490.69 L 2360.37 1493.02 L 2356.22 1495.44 L 2352.14 1497.96 L 2348.12 1500.59 L 2344.16 1503.31 L 2340.27 1506.13 L 2336.45 1509.04 L 2332.71 1512.04 L 2329.04 1515.13 L 2325.44 1518.31 L 2321.92 1521.58 L 2318.49 1524.94 M 1882.61 1960.8 L 1879.18 1964.16 L 1875.66 1967.43 L 1872.06 1970.61 L 1868.39 1973.7 L 1864.65 1976.7 L 1860.83 1979.61 L 1856.94 1982.43 L 1852.98 1985.15 L 1848.96 1987.78 L 1844.88 1990.3 L 1840.73 1992.72 L 1836.53 1995.05 M 1800.22 2010.09 L 1795.6 2011.42 L 1790.96 2012.63 L 1786.29 2013.74 L 1781.59 2014.72 L 1776.87 2015.6 L 1772.13 2016.36 L 1767.37 2017 L 1762.6 2017.52 L 1757.81 2017.93 L 1753.02 2018.23 L 1748.22 2018.4 L 1743.42 2018.46 M 4728.5 4351.14 L 4758.03 4420.04 L 4728.5 4439.72 L 4748.19 4508.62 L 4708.82 4429.88 L 4738.35 4410.2 L 4728.5 4351.14 M 4730.23 4361.51 L 4732.95 4361.51 M 4732.85 4377.25 L 4739.69 4377.25 M 4735.48 4392.98 L 4746.43 4392.98 M 4753.18 4408.71 L 4738.1 4408.71 M 4751.42 4424.44 L 4716.97 4424.44 M 4713.97 4440.18 L 4728.63 4440.18 M 4733.13 4455.91 L 4721.83 4455.91 M 4729.7 4471.64 L 4737.62 4471.64 M 4737.57 4487.38 L 4742.12 4487.38 M 4745.43 4503.11 L 4746.61 4503.11"/><path stroke-width="18" fill="none" d="M 3564.14 1783.17 L 3564.14 1716.38 L 3530.74 1682.98 L 3497.35 1716.38 L 3497.35 1783.17 M 3455.39 1783.17 L 3455.39 1682.98 M 3455.39 1733.07 L 3388.59 1733.07 M 3388.59 1682.98 L 3388.59 1783.17 M 3408.28 1606.01 L 3475.07 1606.01 M 3441.68 1606.01 L 3441.68 1505.81 M 3517.03 1505.81 L 3517.03 1606.01 L 3567.13 1606.01 L 3583.83 1589.31 L 3583.83 1555.91 L 3567.13 1539.21 L 3517.03 1539.21 M 3550.43 1539.21 L 3583.83 1505.81 M 3625.79 1505.81 L 3692.58 1505.81 M 3625.79 1505.81 L 3625.79 1606.01 M 3366.32 1589.31 L 3349.62 1606.01 L 3316.22 1606.01 L 3299.52 1589.31 L 3299.52 1522.51 L 3316.22 1505.81 L 3349.62 1505.81 L 3366.32 1522.51 M 1478.02 1879.83 L 1411.22 1879.83 L 1411.22 1980.02 M 1369.26 1963.32 L 1369.26 1929.92 L 1352.56 1913.23 L 1302.46 1913.23 M 1335.86 1913.23 L 1369.26 1879.83 M 1302.46 1879.83 L 1302.46 1980.02 L 1352.56 1980.02 L 1369.26 1963.32 M 1316.18 2056.99 L 1349.58 2090.39 L 1349.58 2157.19 M 1282.78 2157.19 L 1282.78 2090.39 L 1316.18 2056.99 M 1260.51 1980.02 L 1193.71 1980.02 M 1227.11 1980.02 L 1227.11 1879.83 M 1151.75 1896.53 L 1135.05 1879.83 L 1101.66 1879.83 L 1084.96 1896.53 L 1084.96 1963.32 L 1101.66 1980.02 L 1135.05 1980.02 L 1151.75 1963.32 M 1174.03 2056.99 L 1174.03 2157.19 M 1174.03 2107.09 L 1240.82 2107.09 M 1240.82 2157.19 L 1240.82 2056.99"/><path stroke-width="21" fill="none" d="M 1323.65 2835.07 L 1323.65 2913 L 1343.13 2913 L 1362.61 2893.51 L 1382.1 2913 L 1401.58 2893.51 L 1401.58 2835.07 M 1362.61 2835.07 L 1362.61 2893.51 M 1450.53 2854.55 L 1470.01 2874.03 L 1528.46 2874.03 M 1528.46 2893.51 L 1528.46 2835.07 L 1470.01 2835.07 L 1450.53 2854.55 M 1508.98 2913 L 1528.46 2893.51 M 1508.98 2913 L 1470.01 2913 M 1577.41 2913 L 1596.89 2913 L 1596.89 2835.07 M 1577.41 2835.07 L 1616.37 2835.07 M 1662 2835.07 L 1662 2913 L 1720.44 2913 L 1739.93 2893.51 L 1739.93 2835.07 M 1788.88 2835.07 L 1847.32 2835.07 L 1866.81 2854.55 L 1847.32 2874.03 L 1808.36 2874.03 L 1788.88 2893.51 L 1808.36 2913 L 1866.81 2913 M 1718.78 3014.2 L 1718.78 3072.65 L 1699.3 3092.13 L 1679.81 3072.65 L 1679.81 3014.2 M 1640.85 3014.2 L 1640.85 3092.13 L 1660.33 3092.13 L 1679.81 3072.65 M 1591.9 3072.65 L 1591.9 3033.68 L 1572.42 3014.2 L 1533.45 3014.2 L 1513.97 3033.68 L 1513.97 3072.65 L 1533.45 3092.13 L 1572.42 3092.13 L 1591.9 3072.65 M 1596.89 2971.44 L 1596.89 2951.96 M 1466.68 3092.13 L 1447.2 3092.13 L 1408.24 3053.17 M 1408.24 3092.13 L 1408.24 3014.2 M 1343.13 3014.2 L 1343.13 3111.61 L 1362.61 3131.1 M 1362.61 3072.65 L 1323.65 3072.65 M 3571.26 2395.28 L 3649.19 2317.35 M 3717.62 2317.35 L 3717.62 2414.76 L 3737.1 2434.25 M 3737.1 2375.8 L 3698.14 2375.8 M 3649.19 2395.28 L 3571.26 2317.35 M 3782.72 2336.83 L 3802.21 2317.35 L 3841.17 2317.35 L 3860.65 2336.83 L 3860.65 2375.8 L 3841.17 2395.28 L 3802.21 2395.28 L 3782.72 2375.8 L 3782.72 2336.83 M 3909.6 2317.35 L 3909.6 2395.28 M 3909.6 2356.32 L 3948.57 2395.28 L 3968.05 2395.28 M 4015.34 2395.28 L 4015.34 2317.35 M 4054.3 2317.35 L 4054.3 2375.8 L 4073.78 2395.28 L 4093.27 2375.8 L 4093.27 2317.35 M 4142.22 2336.83 L 4142.22 2375.8 L 4161.7 2395.28 L 4200.66 2395.28 L 4220.15 2375.8 L 4220.15 2356.32 L 4142.22 2356.32 M 4142.22 2336.83 L 4161.7 2317.35 L 4200.66 2317.35 M 4269.1 2317.35 L 4269.1 2395.28 M 4269.1 2356.32 L 4308.06 2395.28 L 4327.54 2395.28 M 4306.4 2468.93 L 4267.43 2468.93 L 4247.95 2488.41 L 4247.95 2527.37 L 4267.43 2546.86 L 4306.4 2546.86 L 4325.88 2527.37 L 4325.88 2488.41 L 4306.4 2468.93 M 4202.33 2468.93 L 4182.85 2488.41 L 4182.85 2566.34 M 4202.33 2546.86 L 4163.36 2546.86 M 4034.82 2395.28 L 4015.34 2395.28 M 4034.82 2395.28 L 4054.3 2375.8"/><path stroke-width="12" fill="none" d="M 3112.04 2002.68 L 3067.51 2002.68 L 3067.51 1935.88 M 3039.54 1947.01 L 3028.41 1935.88 L 3006.14 1935.88 L 2995.01 1947.01 L 2995.01 1991.55 L 3006.14 2002.68 L 3028.41 2002.68 L 3039.54 1991.55 M 3067.51 1969.28 L 3089.78 1969.28 M 2811.56 870.79 L 2811.56 803.99 M 2833.82 803.99 L 2789.29 803.99 M 2789.29 848.52 L 2811.56 870.79 M 2761.32 870.79 L 2716.79 870.79 M 2739.05 870.79 L 2739.05 803.99 M 2688.82 815.13 L 2688.82 859.66 L 2677.68 870.79 L 2644.28 870.79 L 2644.28 803.99 L 2677.68 803.99 L 2688.82 815.13 M 2616.31 815.13 L 2616.31 837.39 L 2594.05 837.39 M 2616.31 815.13 L 2605.18 803.99 L 2582.91 803.99 L 2571.78 815.13 L 2571.78 859.66 L 2582.91 870.79 L 2605.18 870.79 L 2616.31 859.66 M 4018.63 859.66 L 4018.63 815.13 L 4029.76 803.99 L 4052.03 803.99 L 4063.16 815.13 L 4063.16 837.39 L 4040.9 837.39 M 4063.16 859.66 L 4052.03 870.79 L 4029.76 870.79 L 4018.63 859.66 M 4091.13 870.79 L 4091.13 803.99 L 4124.53 803.99 L 4135.67 815.13 L 4135.67 859.66 L 4124.53 870.79 L 4091.13 870.79 M 4163.64 870.79 L 4208.17 870.79 M 4185.9 870.79 L 4185.9 803.99 M 4236.14 803.99 L 4280.67 848.52 L 4280.67 859.66 L 4269.54 870.79 L 4247.27 870.79 L 4236.14 859.66 M 4236.14 803.99 L 4280.67 803.99 M 1173.07 1010.69 L 1128.54 1010.69 L 1173.07 1055.22 L 1173.07 1066.35 L 1161.94 1077.48 L 1139.67 1077.48 L 1128.54 1066.35 M 1128.54 1217.38 L 1173.07 1217.38 M 1150.8 1217.38 L 1150.8 1284.18 L 1128.54 1261.91 M 1394.28 4071.71 L 1427.68 4071.71 L 1438.82 4082.84 L 1438.82 4093.97 L 1427.68 4105.11 L 1394.28 4105.11 M 1394.28 4071.71 L 1394.28 4138.51 L 1427.68 4138.51 L 1438.82 4127.37 L 1438.82 4116.24 L 1427.68 4105.11 M 1466.79 4093.97 L 1500.19 4093.97 L 1511.32 4105.11 L 1511.32 4127.37 L 1500.19 4138.51 L 1466.79 4138.51 L 1466.79 4071.71 M 1489.05 4093.97 L 1511.32 4071.71 M 2265.3 4071.71 L 2287.57 4071.71 M 2276.43 4071.71 L 2276.43 4138.51 M 2265.3 4138.51 L 2287.57 4138.51 M 2313.63 4127.37 L 2313.63 4082.84 L 2324.77 4071.71 L 2347.03 4071.71 L 2358.17 4082.84 L 2358.17 4105.11 L 2335.9 4105.11 M 2313.63 4127.37 L 2324.77 4138.51 L 2347.03 4138.51 L 2358.17 4127.37 M 2386.14 4138.51 L 2386.14 4071.71 L 2419.54 4071.71 L 2430.67 4082.84 L 2430.67 4093.97 L 2419.54 4105.11 L 2386.14 4105.11 M 2386.14 4138.51 L 2419.54 4138.51 L 2430.67 4127.37 L 2430.67 4116.24 L 2419.54 4105.11 M 2458.64 4138.51 L 2503.17 4138.51 M 2480.91 4138.51 L 2480.91 4071.71 M 2531.14 4071.71 L 2575.67 4071.71 M 2553.41 4071.71 L 2553.41 4138.51 L 2531.14 4116.24 M 2603.65 4105.11 L 2648.18 4105.11 M 2648.18 4138.51 L 2648.18 4071.71 M 2603.65 4071.71 L 2603.65 4138.51 M 2767.27 4138.51 L 2789.53 4138.51 M 2778.4 4138.51 L 2778.4 4071.71 M 2767.27 4071.71 L 2789.53 4071.71 M 2815.6 4082.84 L 2826.74 4071.71 L 2849 4071.71 L 2860.13 4082.84 L 2860.13 4105.11 L 2837.87 4105.11 M 2860.13 4127.37 L 2849 4138.51 L 2826.74 4138.51 L 2815.6 4127.37 L 2815.6 4082.84 M 2888.11 4071.71 L 2888.11 4138.51 L 2921.5 4138.51 L 2932.64 4127.37 L 2932.64 4116.24 L 2921.5 4105.11 L 2888.11 4105.11 M 2921.5 4105.11 L 2932.64 4093.97 L 2932.64 4082.84 L 2921.5 4071.71 L 2888.11 4071.71 M 2960.61 4138.51 L 3005.14 4138.51 M 2982.87 4138.51 L 2982.87 4071.71 M 3033.11 4071.71 L 3077.64 4071.71 M 3055.38 4071.71 L 3055.38 4138.51 L 3033.11 4116.24 M 3105.61 4138.51 L 3105.61 4071.71 L 3150.15 4071.71 M 3702.31 4071.71 L 3724.57 4071.71 M 3713.44 4071.71 L 3713.44 4138.51 M 3702.31 4138.51 L 3724.57 4138.51 M 3750.64 4127.37 L 3750.64 4082.84 L 3761.78 4071.71 L 3784.04 4071.71 L 3795.17 4082.84 L 3795.17 4105.11 L 3772.91 4105.11 M 3795.17 4127.37 L 3784.04 4138.51 L 3761.78 4138.51 L 3750.64 4127.37 M 3823.15 4138.51 L 3823.15 4071.71 L 3856.54 4071.71 L 3867.68 4082.84 L 3867.68 4093.97 L 3856.54 4105.11 L 3823.15 4105.11 M 3856.54 4105.11 L 3867.68 4116.24 L 3867.68 4127.37 L 3856.54 4138.51 L 3823.15 4138.51 M 3895.65 4138.51 L 3940.18 4138.51 M 3917.91 4138.51 L 3917.91 4071.71 M 3968.15 4071.71 L 4012.68 4116.24 L 4012.68 4127.37 L 4001.55 4138.51 L 3979.28 4138.51 L 3968.15 4127.37 M 3968.15 4071.71 L 4012.68 4071.71 M 4040.65 4071.71 L 4040.65 4138.51 M 4040.65 4105.11 L 4085.19 4105.11 M 4085.19 4138.51 L 4085.19 4071.71 M 4204.28 4071.71 L 4226.54 4071.71 M 4215.41 4071.71 L 4215.41 4138.51 M 4204.28 4138.51 L 4226.54 4138.51 M 4252.61 4127.37 L 4252.61 4082.84 L 4263.74 4071.71 L 4286.01 4071.71 L 4297.14 4082.84 L 4297.14 4105.11 L 4274.88 4105.11 M 4297.14 4127.37 L 4286.01 4138.51 L 4263.74 4138.51 L 4252.61 4127.37 M 4325.11 4138.51 L 4325.11 4071.71 L 4358.51 4071.71 L 4369.65 4082.84 L 4369.65 4093.97 L 4358.51 4105.11 L 4325.11 4105.11 M 4325.11 4138.51 L 4358.51 4138.51 L 4369.65 4127.37 L 4369.65 4116.24 L 4358.51 4105.11 M 4397.62 4138.51 L 4442.15 4138.51 M 4419.88 4138.51 L 4419.88 4071.71 M 4470.12 4071.71 L 4514.65 4116.24 L 4514.65 4127.37 L 4503.52 4138.51 L 4481.25 4138.51 L 4470.12 4127.37 M 4470.12 4071.71 L 4514.65 4071.71 M 4542.62 4071.71 L 4587.15 4071.71 M 4542.62 4071.71 L 4542.62 4138.51"/><path stroke-width="11.81" fill="none" d="M 2011.97 4046.02 L 811.18 4046.02 M 1150.75 1664.13 L 1150.75 1605.08 M 1121.22 1634.61 L 1180.28 1634.61 M 1150.75 1555.87 L 1150.75 1516.5 M 1121.22 1516.5 L 1180.28 1516.5 L 1180.28 1506.65 L 1121.22 1506.65 L 1121.22 1516.5 M 1121.22 1513.57 L 1180.28 1513.57 M 1150.75 1172.01 L 1150.75 1132.64 M 1121.22 1132.64 L 1180.28 1132.64 L 1180.28 1122.8 L 1121.22 1122.8 L 1121.22 1132.64 M 1121.22 1124.3 L 1180.28 1124.3 M 1150.75 975.16 L 1150.75 935.79 M 1121.22 935.79 L 1180.28 935.79 L 1180.28 925.94 L 1121.22 925.94 L 1121.22 935.79 M 1121.22 935.56 L 1180.28 935.56 M 1116.3 689.72 L 1116.3 650.35 M 1086.77 650.35 L 1145.83 650.35 L 1145.83 640.51 L 1086.77 640.51 L 1086.77 650.35 M 1086.77 640.66 L 1145.83 640.66 M 2198.98 729.09 L 2198.98 738.94 L 2258.03 738.94 L 2258.03 729.09 L 2198.98 729.09 M 2198.98 735.03 L 2258.03 735.03 M 2228.5 738.94 L 2228.5 778.31 M 3744.25 738.94 L 3803.31 738.94 L 3803.31 729.09 L 3744.25 729.09 L 3744.25 738.94 M 3744.25 735.03 L 3803.31 735.03 M 3773.78 738.94 L 3773.78 778.31"/><path stroke-width="24" fill="none" d="M 4211.64 1981.25 L 4300.7 1981.25 M 4256.17 1981.25 L 4256.17 2114.85 L 4211.64 2070.31 M 4211.64 2768.65 L 4300.7 2857.72 L 4300.7 2879.98 L 4278.44 2902.25 L 4233.91 2902.25 L 4211.64 2879.98 M 4211.64 2768.65 L 4300.7 2768.65 M 1414.21 2633.92 L 1391.95 2656.19 L 1347.42 2656.19 L 1325.15 2633.92 M 1414.21 2633.92 L 1414.21 2611.65 L 1325.15 2522.59 L 1414.21 2522.59 M 1414.21 3309.99 L 1325.15 3309.99 M 1369.68 3309.99 L 1369.68 3443.59 L 1325.15 3399.06"/><path stroke-width="7" fill="none" d="M 889.4 1701.94 L 889.4 1676.4 M 895.78 1676.4 L 883.02 1676.4 L 876.63 1682.78 L 876.63 1695.55 L 883.02 1701.94 L 889.4 1701.94 M 902.17 1695.55 L 902.17 1682.78 L 895.78 1676.4 M 902.17 1660.25 L 902.17 1641.09 L 895.78 1634.71 L 883.02 1634.71 L 876.63 1641.09 L 876.63 1660.25 L 908.55 1660.25 L 914.94 1653.86 L 914.94 1647.48 M 902.17 1618.56 L 902.17 1599.4 L 895.78 1593.02 L 889.4 1599.4 L 889.4 1618.56 M 883.02 1618.56 L 902.17 1618.56 M 883.02 1618.56 L 876.63 1612.17 L 876.63 1599.4 M 876.63 1578 L 876.63 1565.23 M 870.25 1571.61 L 895.78 1571.61 L 902.17 1578 M 895.78 1549.08 L 889.4 1542.69 L 889.4 1529.92 L 883.02 1523.54 L 876.63 1529.92 L 876.63 1549.08 M 895.78 1549.08 L 902.17 1542.69 L 902.17 1523.54 M 925.39 1522.97 L 931.77 1522.97 M 944.54 1522.97 L 970.08 1522.97 M 970.08 1516.59 L 970.08 1529.36 M 970.08 1544.38 L 944.54 1544.38 L 944.54 1563.54 L 950.93 1569.92 L 970.08 1569.92 M 963.7 1586.07 L 970.08 1592.45 L 970.08 1611.61 M 976.47 1611.61 L 944.54 1611.61 L 944.54 1592.45 L 950.93 1586.07 L 963.7 1586.07 M 982.85 1598.84 L 982.85 1605.22 L 976.47 1611.61 M 944.54 1522.97 L 944.54 1516.59 M 944.54 1500.44 L 944.54 1481.28 L 950.93 1474.9 L 963.7 1474.9 L 970.08 1481.28 L 970.08 1500.44 L 931.77 1500.44 M 950.93 1458.75 L 944.54 1452.36 L 944.54 1439.59 L 950.93 1433.21 L 963.7 1433.21 L 970.08 1439.59 L 970.08 1452.36 M 957.31 1458.75 L 957.31 1433.21 M 950.93 1417.06 L 970.08 1417.06 M 970.08 1404.29 L 950.93 1404.29 L 944.54 1410.68 L 950.93 1417.06 M 950.93 1404.29 L 944.54 1397.91 L 944.54 1391.52 L 970.08 1391.52 M 963.7 1375.37 L 970.08 1368.99 L 970.08 1356.22 L 963.7 1349.83 M 950.93 1356.22 L 950.93 1368.99 L 957.31 1375.37 L 963.7 1375.37 M 950.93 1356.22 L 944.54 1349.83 L 938.16 1349.83 L 931.77 1356.22 L 931.77 1368.99 L 938.16 1375.37 M 902.17 1370.11 L 895.78 1376.5 L 902.17 1382.88 L 895.78 1389.27 L 876.63 1389.27 M 883.02 1405.42 L 876.63 1411.8 L 876.63 1424.57 L 883.02 1430.96 L 889.4 1430.96 L 889.4 1405.42 M 895.78 1405.42 L 883.02 1405.42 M 895.78 1405.42 L 902.17 1411.8 L 902.17 1424.57 M 902.17 1447.11 L 876.63 1447.11 M 889.4 1447.11 L 876.63 1459.88 L 876.63 1466.26 M 950.93 1458.75 L 957.31 1458.75 M 902.17 1370.11 L 895.78 1363.73 L 876.63 1363.73 M 883.02 1347.58 L 876.63 1341.19 L 876.63 1328.42 L 883.02 1322.04 L 895.78 1322.04 L 902.17 1328.42 L 902.17 1341.19 L 895.78 1347.58 L 883.02 1347.58 M 883.02 1305.89 L 895.78 1305.89 L 902.17 1299.5 L 902.17 1280.35 M 914.94 1280.35 L 876.63 1280.35 L 876.63 1299.5 L 883.02 1305.89 M 944.54 1291.99 L 976.47 1291.99 L 982.85 1285.61 L 982.85 1279.22 M 970.08 1272.84 L 970.08 1291.99 M 970.08 1272.84 L 963.7 1266.45 L 944.54 1266.45 M 950.93 1250.3 L 944.54 1243.92 L 944.54 1231.15 L 950.93 1224.76 L 963.7 1224.76 L 970.08 1231.15 L 970.08 1243.92 L 963.7 1250.3 L 950.93 1250.3 M 950.93 1208.61 L 957.31 1202.23 L 957.31 1183.08 M 957.31 1195.85 L 970.08 1208.61 M 950.93 1208.61 L 938.16 1208.61 L 931.77 1202.23 L 931.77 1183.08 L 970.08 1183.08 M 999.69 1174.44 L 999.69 1161.67 L 1006.07 1155.28 L 1031.61 1155.28 L 1038 1161.67 L 1038 1174.44 L 1031.61 1180.82 M 1018.84 1196.97 L 1018.84 1222.51 M 1018.84 1238.66 L 1018.84 1257.82 L 1025.23 1264.2 L 1031.61 1264.2 L 1038 1257.82 L 1038 1238.66 L 999.69 1238.66 L 999.69 1257.82 L 1006.07 1264.2 L 1012.46 1264.2 L 1018.84 1257.82 M 1006.07 1280.35 L 1018.84 1293.12 L 1038 1293.12 M 1018.84 1293.12 L 1006.07 1305.89 L 999.69 1305.89 M 999.69 1280.35 L 1006.07 1280.35 M 1006.07 1180.82 L 999.69 1174.44 M 1006.07 1139.13 L 999.69 1132.75 L 999.69 1119.98 L 1006.07 1113.59 L 1031.61 1113.59 L 1038 1119.98 L 1038 1132.75 L 1031.61 1139.13 M 982.85 1118.85 L 982.85 1112.47 M 982.85 1118.85 L 976.47 1125.24 L 944.54 1125.24 M 944.54 1099.7 L 963.7 1099.7 L 970.08 1106.08 L 970.08 1125.24 M 963.7 1083.55 L 950.93 1083.55 L 944.54 1077.16 L 944.54 1058.01 M 931.77 1058.01 L 970.08 1058.01 L 970.08 1077.16 L 963.7 1083.55 M 902.17 1070.21 L 902.17 1057.44 L 895.78 1051.06 L 883.02 1051.06 L 876.63 1057.44 L 876.63 1070.21 L 883.02 1076.6 L 889.4 1076.6 L 889.4 1051.06 M 883.02 1034.91 L 902.17 1034.91 M 883.02 1034.91 L 876.63 1028.53 L 876.63 1015.76 L 883.02 1009.37 M 902.17 1009.37 L 863.86 1009.37 M 931.77 987.4 L 970.08 987.4 M 970.08 974.63 L 970.08 1000.17 M 999.69 1002.42 L 1018.84 1002.42 L 1012.46 1015.19 L 1012.46 1021.58 L 1018.84 1027.96 L 1031.61 1027.96 L 1038 1021.58 L 1038 1008.81 L 1031.61 1002.42 M 1038 986.27 L 1038 960.73 M 1038 973.5 L 999.69 973.5 L 1012.46 960.73 M 1006.07 944.58 L 1031.61 919.04 L 1038 925.43 L 1038 938.2 L 1031.61 944.58 L 1006.07 944.58 L 999.69 938.2 L 999.69 925.43 L 1006.07 919.04 L 1031.61 919.04 M 1038 902.89 L 1038 877.36 L 1012.46 902.89 L 1006.07 902.89 L 999.69 896.51 L 999.69 883.74 L 1006.07 877.36 M 970.08 868.72 L 963.7 875.1 L 950.93 875.1 L 944.54 868.72 L 944.54 855.95 L 950.93 849.56 L 963.7 849.56 L 970.08 855.95 L 970.08 868.72 M 970.08 891.25 L 944.54 891.25 L 944.54 910.41 L 950.93 916.79 L 970.08 916.79 M 944.54 974.63 L 931.77 987.4 M 902.17 951.53 L 883.02 951.53 L 876.63 945.15 L 876.63 925.99 L 902.17 925.99 M 895.78 909.84 L 883.02 909.84 L 876.63 903.46 L 876.63 890.69 L 883.02 884.3 L 895.78 884.3 L 902.17 890.69 L 902.17 903.46 L 895.78 909.84 M 902.17 869.28 L 902.17 856.51 M 902.17 862.9 L 876.63 862.9 L 876.63 856.51 M 863.86 862.9 L 857.48 862.9 M 876.63 841.49 L 876.63 828.72 M 870.25 835.1 L 895.78 835.1 L 902.17 841.49 M 925.39 828.15 L 931.77 828.15 M 944.54 828.15 L 970.08 828.15 M 970.08 821.77 L 970.08 834.54 M 944.54 828.15 L 944.54 821.77 M 944.54 805.62 L 944.54 786.47 L 950.93 780.08 L 957.31 786.47 L 957.31 799.24 L 963.7 805.62 L 970.08 799.24 L 970.08 780.08 M 970.08 765.06 L 970.08 752.29 M 970.08 758.67 L 944.54 758.67 L 944.54 752.29 M 931.77 758.67 L 925.39 758.67 M 902.17 751.72 L 902.17 770.88 L 876.63 770.88 M 883.02 787.03 L 895.78 787.03 L 902.17 793.41 L 902.17 812.57 M 876.63 812.57 L 876.63 793.41 L 883.02 787.03 M 902.17 751.72 L 895.78 745.34 L 876.63 745.34 M 876.63 729.19 L 876.63 710.04 L 883.02 703.65 L 895.78 703.65 L 902.17 710.04 L 902.17 729.19 L 863.86 729.19 M 883.02 687.5 L 902.17 687.5 M 883.02 687.5 L 876.63 681.12 L 876.63 661.96 L 902.17 661.96 M 902.17 646.94 L 902.17 634.17 M 902.17 640.55 L 876.63 640.55 L 876.63 634.17 M 863.86 640.55 L 857.48 640.55 M 944.54 634.17 L 970.08 634.17 M 957.31 634.17 L 944.54 646.94 L 944.54 653.32 M 950.93 668.91 L 944.54 675.29 L 944.54 688.06 L 950.93 694.45 L 957.31 694.45 L 957.31 668.91 M 950.93 668.91 L 963.7 668.91 L 970.08 675.29 L 970.08 688.06 M 944.54 710.6 L 970.08 723.37 L 944.54 736.14 M 999.69 793.98 L 1038 793.98 M 1038 777.83 L 1038 758.67 L 1031.61 752.29 L 1018.84 752.29 L 1012.46 758.67 L 1012.46 777.83 M 1018.84 793.98 L 1012.46 800.36 L 1012.46 813.13 L 1018.84 819.52 L 1038 819.52 M 1012.46 736.7 L 1012.46 730.32 L 1025.23 717.55 M 1038 717.55 L 1012.46 717.55 M 1018.84 701.4 L 1038 701.4 L 1038 682.24 L 1031.61 675.86 L 1025.23 682.24 L 1025.23 701.4 M 1018.84 701.4 L 1012.46 695.01 L 1012.46 682.24 M 999.69 659.71 L 1038 659.71 M 1038 634.17 L 999.69 634.17 L 1012.46 646.94 L 999.69 659.71 M 999.69 1002.42 L 999.69 1027.96 M 1031.61 1050.5 L 1031.61 1056.88 L 1038 1056.88 L 1038 1050.5 L 1031.61 1050.5 M 1038 1056.88 L 1050.77 1044.11 M 902.17 1099.13 L 902.17 1118.29 L 883.02 1118.29 L 876.63 1111.9 L 876.63 1099.13 M 889.4 1099.13 L 889.4 1118.29 M 889.4 1099.13 L 895.78 1092.75 L 902.17 1099.13 M 895.78 1140.82 L 870.25 1140.82 M 876.63 1134.44 L 876.63 1147.21 M 883.02 1162.23 L 876.63 1168.62 L 876.63 1181.39 L 883.02 1187.77 L 889.4 1187.77 L 889.4 1162.23 M 895.78 1162.23 L 883.02 1162.23 M 895.78 1162.23 L 902.17 1168.62 L 902.17 1181.39 M 902.17 1203.92 L 876.63 1203.92 M 889.4 1203.92 L 876.63 1216.69 L 876.63 1223.07 M 902.17 1147.21 L 895.78 1140.82 M 3017.78 670.86 L 3017.78 644.01 M 3017.78 657.44 L 3031.2 670.86 L 3037.92 670.86 M 3054.03 664.15 L 3054.03 650.72 L 3060.74 644.01 L 3074.17 644.01 L 3080.88 650.72 L 3080.88 664.15 L 3074.17 670.86 L 3060.74 670.86 L 3054.03 664.15 M 3097.53 670.86 L 3097.53 650.72 L 3104.24 644.01 L 3124.38 644.01 M 3124.38 637.3 L 3117.67 630.59 L 3110.96 630.59 M 3124.38 637.3 L 3124.38 670.86 M 3141.03 664.15 L 3147.74 670.86 L 3167.88 670.86 M 3161.17 657.44 L 3147.74 657.44 L 3141.03 664.15 M 3141.03 644.01 L 3161.17 644.01 L 3167.88 650.72 L 3161.17 657.44 M 3184.53 670.86 L 3191.25 670.86 L 3197.96 664.15 L 3204.67 670.86 L 3211.39 664.15 L 3211.39 644.01 M 3197.96 644.01 L 3197.96 664.15 M 3184.53 670.86 L 3184.53 644.01 M 3228.04 650.72 L 3228.04 664.15 L 3234.75 670.86 L 3248.17 670.86 L 3254.89 664.15 L 3254.89 657.44 L 3228.04 657.44 M 3228.04 650.72 L 3234.75 644.01 L 3248.17 644.01 M 3271.54 650.72 L 3271.54 664.15 L 3278.25 670.86 L 3298.39 670.86 M 3298.39 684.29 L 3298.39 644.01 L 3278.25 644.01 L 3271.54 650.72 M 3315.04 644.01 L 3328.46 644.01 M 3321.75 644.01 L 3321.75 670.86 L 3315.04 670.86 M 3321.75 684.29 L 3321.75 691 M 3344.04 670.86 L 3364.18 670.86 L 3370.89 664.15 L 3370.89 644.01 M 3387.54 650.72 L 3387.54 664.15 L 3394.25 670.86 L 3414.39 670.86 L 3414.39 637.3 L 3407.68 630.59 L 3400.97 630.59 M 3394.25 644.01 L 3414.39 644.01 M 3431.04 644.01 L 3437.76 644.01 L 3437.76 650.72 L 3431.04 650.72 L 3431.04 644.01 M 3452.79 644.01 L 3452.79 670.86 L 3472.93 670.86 L 3479.65 664.15 L 3479.65 644.01 M 3496.3 644.01 L 3509.72 644.01 M 3503.01 644.01 L 3503.01 684.29 L 3496.3 684.29 M 3525.3 644.01 L 3552.15 684.29 M 3568.8 670.86 L 3568.8 630.59 M 3568.8 644.01 L 3588.94 644.01 L 3595.65 650.72 L 3595.65 664.15 L 3588.94 670.86 L 3568.8 670.86 M 3612.3 670.86 L 3612.3 644.01 M 3612.3 657.44 L 3625.73 670.86 L 3632.44 670.86 M 3648.55 664.15 L 3648.55 650.72 L 3655.26 644.01 L 3668.69 644.01 L 3675.4 650.72 L 3675.4 664.15 L 3668.69 670.86 L 3655.26 670.86 L 3648.55 664.15 M 3692.05 630.59 L 3698.77 630.59 L 3705.48 637.3 L 3705.48 670.86 M 3705.48 684.29 L 3705.48 691 M 3727.77 670.86 L 3741.19 670.86 L 3747.91 664.15 L 3747.91 657.44 L 3721.05 657.44 M 3721.05 664.15 L 3727.77 670.86 M 3721.05 664.15 L 3721.05 650.72 L 3727.77 644.01 L 3741.19 644.01 M 3764.56 650.72 L 3771.27 644.01 L 3791.41 644.01 M 3814.77 650.72 L 3814.77 677.58 M 3808.06 670.86 L 3821.48 670.86 M 3837.06 664.15 L 3843.77 670.86 L 3863.91 670.86 M 3857.2 657.44 L 3843.77 657.44 L 3837.06 664.15 M 3837.06 644.01 L 3857.2 644.01 L 3863.91 650.72 L 3857.2 657.44 M 3880.56 644.01 L 3907.41 684.29 M 3924.06 670.86 L 3930.78 670.86 L 3930.78 644.01 M 3937.49 644.01 L 3924.06 644.01 M 3953.06 644.01 L 3953.06 670.86 L 3973.2 670.86 L 3979.92 664.15 L 3979.92 644.01 M 3996.57 650.72 L 3996.57 664.15 L 4003.28 670.86 L 4023.42 670.86 M 4023.42 684.29 L 4023.42 644.01 L 4003.28 644.01 L 3996.57 650.72 M 4040.07 650.72 L 4040.07 670.86 M 4040.07 650.72 L 4046.78 644.01 L 4066.92 644.01 L 4066.92 670.86 M 4083.57 664.15 L 4083.57 650.72 L 4090.28 644.01 L 4110.42 644.01 M 4133.78 650.72 L 4140.5 644.01 M 4133.78 650.72 L 4133.78 677.58 M 4127.07 670.86 L 4140.5 670.86 M 4156.07 670.86 L 4162.78 670.86 L 4162.78 644.01 M 4156.07 644.01 L 4169.5 644.01 M 4185.07 650.72 L 4191.79 644.01 L 4205.21 644.01 L 4211.92 650.72 L 4211.92 664.15 L 4205.21 670.86 L 4191.79 670.86 L 4185.07 664.15 L 4185.07 650.72 M 4162.78 684.29 L 4162.78 691 M 4110.42 670.86 L 4090.28 670.86 L 4083.57 664.15 M 3930.78 684.29 L 3930.78 691 M 3821.48 644.01 L 3814.77 650.72 M 3791.41 670.86 L 3771.27 670.86 L 3764.56 664.15 L 3764.56 650.72 M 3394.25 644.01 L 3387.54 650.72 M 3344.04 644.01 L 3344.04 670.86 M 4228.57 670.86 L 4228.57 644.01 M 4228.57 670.86 L 4248.71 670.86 L 4255.43 664.15 L 4255.43 644.01 M 4272.08 664.15 L 4298.93 664.15 M 4315.58 664.15 L 4322.29 670.86 L 4335.72 670.86 L 4342.43 664.15 L 4342.43 644.01 M 4359.08 650.72 L 4359.08 664.15 L 4365.79 670.86 L 4379.22 670.86 L 4385.93 664.15 L 4385.93 657.44 L 4359.08 657.44 M 4359.08 650.72 L 4365.79 644.01 L 4379.22 644.01 M 4402.58 650.72 L 4409.29 657.44 L 4429.43 657.44 M 4429.43 664.15 L 4429.43 644.01 L 4409.29 644.01 L 4402.58 650.72 M 4409.29 670.86 L 4422.72 670.86 L 4429.43 664.15 M 4446.08 670.86 L 4459.51 670.86 M 4452.8 677.58 L 4452.8 650.72 L 4459.51 644.01 M 4475.08 650.72 L 4475.08 664.15 L 4481.8 670.86 L 4495.22 670.86 L 4501.94 664.15 L 4501.94 657.44 L 4475.08 657.44 M 4475.08 650.72 L 4481.8 644.01 L 4495.22 644.01 M 4518.59 644.01 L 4518.59 670.86 M 4532.01 670.86 L 4538.72 670.86 M 4532.01 670.86 L 4518.59 657.44 M 4315.58 644.01 L 4315.58 684.29"/><path stroke-width="5" fill="none" d="M 4541.5 955.47 L 3754.09 955.47 L 3754.09 1742.87 L 4541.5 1742.87 L 4541.5 955.47 M 4895.83 1752.72 L 4777.72 1870.83 L 4777.72 2225.16 L 4895.83 2343.27 L 5447.01 2343.27 L 5447.01 1752.72 L 4895.83 1752.72 M 4777.72 1870.83 L 4403.7 1870.83 L 4403.7 2225.16 L 4777.72 2225.16 M 4895.83 2540.12 L 4777.72 2658.23 L 4777.72 3012.56 L 4895.83 3130.67 L 5447.01 3130.67 L 5447.01 2540.12 L 4895.83 2540.12 M 4777.72 2658.23 L 4403.7 2658.23 L 4403.7 3012.56 L 4777.72 3012.56 M 4767.87 3219.25 L 4767.87 3573.58 L 4059.21 3573.58 L 4059.21 3219.25 L 4767.87 3219.25 M 4019.84 3219.25 L 4019.84 3573.58 L 3311.18 3573.58 L 3311.18 3219.25 L 4019.84 3219.25 M 3527.72 3170.04 L 3527.72 2047.99 L 1893.86 2047.99 L 1893.86 3170.04 L 3527.72 3170.04 M 3242.28 3219.25 L 3242.28 3573.58 L 2533.62 3573.58 L 2533.62 3219.25 L 3242.28 3219.25 M 2494.25 3219.25 L 2494.25 3573.58 L 1785.59 3573.58 L 1785.59 3219.25 L 2494.25 3219.25 M 1214.72 3199.57 L 1214.72 3553.9 L 840.71 3553.9 L 722.6 3672.01 L 171.42 3672.01 L 171.42 3081.46 L 722.6 3081.46 L 840.71 3199.57 L 840.71 3553.9 M 840.71 3199.57 L 1214.72 3199.57 M 1214.72 2766.5 L 840.71 2766.5 L 722.6 2884.61 L 171.42 2884.61 L 171.42 2294.06 L 722.6 2294.06 L 840.71 2412.17 L 840.71 2766.5 M 1214.72 2766.5 L 1214.72 2412.17 L 840.71 2412.17 M 2317.09 1742.87 L 2317.09 955.47 L 3104.49 955.47 L 3104.49 1742.87 L 2317.09 1742.87"/><path stroke-width="7.87" fill="none" d="M 2011.97 3849.17 L 811.18 3849.17 L 811.18 4036.18 L 811.18 4046.02 M 811.18 4036.18 L 2011.97 4036.18 L 2011.97 4046.02 M 2011.97 4036.18 L 2011.97 3849.17"/><path stroke-width="6" fill="none" d="M 2056.3 3833.82 L 2676.3 3833.82 L 2676.3 4042.48 L 2056.3 4042.48 L 2056.3 3833.82 M 2050.73 3767.46 L 2050.73 3734.06 M 2036.75 3734.06 L 2014.48 3734.06 M 2025.61 3734.06 L 2025.61 3767.46 L 2014.48 3756.33 M 2000.5 3761.9 L 2000.5 3750.76 L 1994.93 3745.2 L 1978.23 3745.2 M 1978.23 3734.06 L 1978.23 3767.46 L 1994.93 3767.46 L 2000.5 3761.9 M 1964.24 3761.9 L 1958.68 3767.46 L 1941.98 3767.46 L 1941.98 3734.06 L 1958.68 3734.06 L 1964.24 3739.63 L 1964.24 3761.9 M 2050.73 3750.76 L 2073 3750.76 M 2086.98 3750.76 L 2109.25 3750.76 M 2109.25 3756.33 L 2109.25 3734.06 M 2086.98 3734.06 L 2086.98 3756.33 L 2098.12 3767.46 L 2109.25 3756.33 M 2073 3767.46 L 2073 3734.06 M 2061.87 3649.35 L 2061.87 3615.95 M 2073 3615.95 L 2050.73 3615.95 M 2036.75 3632.65 L 2031.18 3627.09 L 2014.48 3627.09 M 2014.48 3615.95 L 2014.48 3649.35 L 2031.18 3649.35 L 2036.75 3643.78 L 2036.75 3632.65 M 2050.73 3638.22 L 2061.87 3649.35 M 2086.98 3649.35 L 2086.98 3615.95 M 2086.98 3632.65 L 2109.25 3632.65 M 2109.25 3649.35 L 2109.25 3615.95 M 2000.5 3615.95 L 1989.36 3627.09 M 1994.93 3627.09 L 1978.23 3627.09 M 1978.23 3615.95 L 1978.23 3649.35 L 1994.93 3649.35 L 2000.5 3643.78 L 2000.5 3632.65 L 1994.93 3627.09 M 2337.73 3665.17 L 2354.42 3665.17 L 2359.99 3670.73 L 2359.99 3693 L 2354.42 3698.56 L 2337.73 3698.56 L 2337.73 3665.17 M 2373.98 3665.17 L 2373.98 3698.56 L 2390.68 3698.56 L 2396.24 3693 L 2396.24 3681.86 L 2390.68 3676.3 L 2373.98 3676.3 M 2410.23 3687.43 L 2421.36 3698.56 L 2421.36 3665.17 M 2410.23 3665.17 L 2432.49 3665.17 M 2446.48 3665.17 L 2446.48 3698.56 M 2446.48 3681.86 L 2468.75 3681.86 M 2482.73 3681.86 L 2499.43 3681.86 L 2505 3676.3 L 2505 3670.73 L 2499.43 3665.17 L 2482.73 3665.17 L 2482.73 3698.56 L 2499.43 3698.56 L 2505 3693 L 2505 3687.43 L 2499.43 3681.86 M 2468.75 3665.17 L 2468.75 3698.56 M 2640.8 3714.38 L 2657.5 3714.38 L 2663.06 3719.94 L 2663.06 3742.21 L 2657.5 3747.78 L 2640.8 3747.78 L 2640.8 3714.38 M 2677.05 3714.38 L 2677.05 3747.78 L 2693.75 3747.78 L 2699.31 3742.21 L 2699.31 3731.08 L 2693.75 3725.51 L 2677.05 3725.51 M 2713.3 3714.38 L 2735.57 3714.38 M 2724.43 3714.38 L 2724.43 3747.78 L 2713.3 3736.64 M 2749.55 3747.78 L 2749.55 3714.38 L 2771.82 3714.38 M 2785.8 3714.38 L 2785.8 3736.64 L 2796.94 3747.78 L 2808.07 3736.64 L 2808.07 3714.38 M 2808.07 3731.08 L 2785.8 3731.08 M 2785.8 3659.19 L 2785.8 3625.8 L 2808.07 3625.8 M 2771.82 3625.8 L 2749.55 3625.8 M 2760.68 3625.8 L 2760.68 3659.19 L 2749.55 3648.06 M 2735.57 3642.49 L 2730 3636.93 L 2713.3 3636.93 M 2713.3 3625.8 L 2713.3 3659.19 L 2730 3659.19 L 2735.57 3653.63 L 2735.57 3642.49 M 2699.31 3642.49 L 2693.75 3636.93 L 2677.05 3636.93 M 2688.18 3636.93 L 2699.31 3625.8 M 2699.31 3642.49 L 2699.31 3653.63 L 2693.75 3659.19 L 2677.05 3659.19 L 2677.05 3625.8 M 2755.12 3833.82 L 3375.12 3833.82 L 3375.12 4042.48 L 2755.12 4042.48 L 2755.12 3833.82 M 2758.03 3983.43 L 2791.5 3983.43 M 2905.67 3983.43 L 3006.06 3983.43 M 3124.17 3983.43 L 3224.57 3983.43 M 3340.71 3983.43 L 3374.17 3983.43 M 3496.22 3983.43 L 3529.68 3983.43 M 3493.31 4042.48 L 3493.31 3833.82 L 4113.31 3833.82 L 4113.31 4042.48 L 3493.31 4042.48 M 3643.86 3983.43 L 3744.25 3983.43 M 3862.36 3983.43 L 3962.76 3983.43 M 4078.9 3983.43 L 4112.36 3983.43 M 4195.04 3983.43 L 4228.5 3983.43 M 4192.13 4042.48 L 4192.13 3833.82 L 4812.13 3833.82 L 4812.13 4042.48 L 4192.13 4042.48 M 4342.68 3983.43 L 4443.07 3983.43 M 4561.18 3983.43 L 4661.57 3983.43 M 4777.72 3983.43 L 4811.18 3983.43 M 4635.26 3698.56 L 4618.56 3698.56 L 4618.56 3665.17 L 4635.26 3665.17 L 4640.82 3670.73 L 4640.82 3676.3 L 4635.26 3681.86 L 4618.56 3681.86 M 4635.26 3681.86 L 4640.82 3687.43 L 4640.82 3693 L 4635.26 3698.56 M 4604.57 3665.17 L 4582.31 3665.17 L 4582.31 3698.56 M 4568.32 3693 L 4562.75 3698.56 L 4551.62 3698.56 L 4546.06 3693 M 4532.07 3693 L 4532.07 3681.86 L 4526.5 3676.3 L 4509.8 3676.3 M 4509.8 3665.17 L 4509.8 3698.56 L 4526.5 3698.56 L 4532.07 3693 M 4546.06 3665.17 L 4568.32 3687.43 L 4568.32 3693 M 4568.32 3665.17 L 4546.06 3665.17 M 4495.82 3670.73 L 4495.82 3693 L 4490.25 3698.56 L 4473.55 3698.56 L 4473.55 3665.17 L 4490.25 3665.17 L 4495.82 3670.73 M 4245.08 3635.64 L 4222.81 3635.64 L 4222.81 3669.04 M 4208.83 3663.47 L 4208.83 3657.9 L 4186.56 3635.64 L 4208.83 3635.64 M 4208.83 3663.47 L 4203.26 3669.04 L 4192.13 3669.04 L 4186.56 3663.47 M 4172.57 3663.47 L 4172.57 3652.34 L 4167.01 3646.77 L 4150.31 3646.77 M 4150.31 3635.64 L 4150.31 3669.04 L 4167.01 3669.04 L 4172.57 3663.47 M 4136.32 3663.47 L 4136.32 3652.34 L 4130.76 3646.77 L 4114.06 3646.77 M 4125.19 3646.77 L 4136.32 3635.64 M 4114.06 3635.64 L 4114.06 3669.04 L 4130.76 3669.04 L 4136.32 3663.47 M 4150.31 3734.06 L 4172.57 3756.33 L 4172.57 3761.9 L 4167.01 3767.46 L 4155.87 3767.46 L 4150.31 3761.9 M 4136.32 3761.9 L 4136.32 3750.76 L 4130.76 3745.2 L 4114.06 3745.2 M 4114.06 3734.06 L 4114.06 3767.46 L 4130.76 3767.46 L 4136.32 3761.9 M 4150.31 3734.06 L 4172.57 3734.06 M 4186.56 3734.06 L 4208.83 3734.06 M 4222.81 3734.06 L 4222.81 3756.33 L 4233.94 3767.46 L 4245.08 3756.33 L 4245.08 3734.06 M 4245.08 3750.76 L 4222.81 3750.76 M 4186.56 3767.46 L 4186.56 3734.06 M 4100.07 3739.63 L 4100.07 3761.9 L 4094.5 3767.46 L 4077.81 3767.46 L 4077.81 3734.06 L 4094.5 3734.06 L 4100.07 3739.63 M 3942 3693 L 3942 3687.43 L 3936.44 3681.86 L 3919.74 3681.86 M 3905.75 3681.86 L 3883.49 3681.86 M 3869.5 3687.43 L 3869.5 3693 L 3863.94 3698.56 L 3852.8 3698.56 L 3847.24 3693 M 3833.25 3693 L 3833.25 3681.86 L 3827.68 3676.3 L 3810.98 3676.3 M 3810.98 3665.17 L 3810.98 3698.56 L 3827.68 3698.56 L 3833.25 3693 M 3847.24 3665.17 L 3869.5 3687.43 M 3883.49 3698.56 L 3883.49 3665.17 M 3869.5 3665.17 L 3847.24 3665.17 M 3797 3670.73 L 3797 3693 L 3791.43 3698.56 L 3774.73 3698.56 L 3774.73 3665.17 L 3791.43 3665.17 L 3797 3670.73 M 3905.75 3665.17 L 3905.75 3698.56 M 3919.74 3698.56 L 3936.44 3698.56 L 3942 3693 M 3936.44 3681.86 L 3942 3676.3 L 3942 3670.73 L 3936.44 3665.17 L 3919.74 3665.17 L 3919.74 3698.56 M 3546.26 3669.04 L 3546.26 3635.64 M 3546.26 3652.34 L 3523.99 3652.34 M 3510.01 3657.9 L 3510.01 3663.47 L 3504.44 3669.04 L 3493.31 3669.04 L 3487.74 3663.47 M 3473.76 3663.47 L 3473.76 3652.34 L 3468.19 3646.77 L 3451.49 3646.77 M 3451.49 3635.64 L 3451.49 3669.04 L 3468.19 3669.04 L 3473.76 3663.47 M 3487.74 3635.64 L 3510.01 3657.9 M 3523.99 3669.04 L 3523.99 3635.64 M 3510.01 3635.64 L 3487.74 3635.64 M 3437.5 3635.64 L 3426.37 3646.77 M 3431.94 3646.77 L 3415.24 3646.77 M 3415.24 3635.64 L 3415.24 3669.04 L 3431.94 3669.04 L 3437.5 3663.47 L 3437.5 3652.34 L 3431.94 3646.77 M 3415.24 3753.75 L 3415.24 3787.15 L 3431.94 3787.15 L 3437.5 3781.58 L 3437.5 3770.45 L 3431.94 3764.88 L 3415.24 3764.88 M 3401.25 3759.31 L 3401.25 3781.58 L 3395.69 3787.15 L 3378.99 3787.15 L 3378.99 3753.75 L 3395.69 3753.75 L 3401.25 3759.31 M 3451.49 3753.75 L 3473.76 3776.01 L 3473.76 3781.58 L 3468.19 3787.15 L 3457.06 3787.15 L 3451.49 3781.58 M 3451.49 3753.75 L 3473.76 3753.75 M 3487.74 3753.75 L 3487.74 3787.15 M 3487.74 3770.45 L 3510.01 3770.45 M 3523.99 3770.45 L 3546.26 3770.45 M 3546.26 3776.01 L 3546.26 3753.75 M 3546.26 3776.01 L 3535.12 3787.15 L 3523.99 3776.01 L 3523.99 3753.75 M 3510.01 3753.75 L 3510.01 3787.15 M 3203.82 3693 L 3203.82 3687.43 L 3198.25 3681.86 L 3181.55 3681.86 M 3181.55 3665.17 L 3198.25 3665.17 L 3203.82 3670.73 L 3203.82 3676.3 L 3198.25 3681.86 M 3203.82 3693 L 3198.25 3698.56 L 3181.55 3698.56 L 3181.55 3665.17 M 3167.56 3665.17 L 3145.3 3665.17 L 3145.3 3698.56 M 3120.18 3698.56 L 3120.18 3665.17 M 3109.05 3665.17 L 3131.31 3665.17 M 3109.05 3687.43 L 3120.18 3698.56 M 3095.06 3693 L 3095.06 3681.86 L 3089.5 3676.3 L 3072.8 3676.3 M 3072.8 3665.17 L 3072.8 3698.56 L 3089.5 3698.56 L 3095.06 3693 M 3058.81 3693 L 3053.24 3698.56 L 3036.54 3698.56 L 3036.54 3665.17 L 3053.24 3665.17 L 3058.81 3670.73 L 3058.81 3693 M 2675.35 3983.43 L 2641.89 3983.43 M 2525.75 3983.43 L 2425.35 3983.43 M 2307.24 3983.43 L 2206.85 3983.43 M 2092.68 3983.43 L 2059.21 3983.43 M 2234.14 1917.07 L 2250.84 1917.07 L 2256.4 1911.5 L 2256.4 1900.37 L 2250.84 1894.8 L 2234.14 1894.8 M 2245.27 1894.8 L 2256.4 1883.67 M 2270.39 1889.24 L 2275.95 1883.67 L 2287.09 1883.67 L 2292.65 1889.24 L 2292.65 1900.37 L 2281.52 1900.37 M 2270.39 1911.5 L 2270.39 1889.24 M 2270.39 1911.5 L 2275.95 1917.07 L 2287.09 1917.07 L 2292.65 1911.5 M 2306.64 1905.94 L 2317.77 1917.07 L 2317.77 1883.67 M 2306.64 1883.67 L 2328.9 1883.67 M 2342.89 1883.67 L 2342.89 1917.07 M 2342.89 1900.37 L 2365.16 1900.37 M 2365.16 1917.07 L 2365.16 1883.67 M 2234.14 1883.67 L 2234.14 1917.07 M 2669.18 1917.07 L 2669.18 1883.67 M 2669.18 1894.8 L 2685.87 1894.8 L 2691.44 1900.37 L 2691.44 1911.5 L 2685.87 1917.07 L 2669.18 1917.07 M 2680.31 1894.8 L 2691.44 1883.67 M 2705.43 1889.24 L 2710.99 1883.67 L 2722.13 1883.67 L 2727.69 1889.24 L 2727.69 1900.37 L 2716.56 1900.37 M 2727.69 1911.5 L 2722.13 1917.07 L 2710.99 1917.07 L 2705.43 1911.5 L 2705.43 1889.24 M 2741.68 1883.67 L 2763.94 1883.67 M 2752.81 1883.67 L 2752.81 1917.07 L 2741.68 1905.94 M 2777.93 1917.07 L 2777.93 1883.67 L 2800.2 1883.67 M 3161.57 1316.67 L 3172.71 1316.67 M 3167.14 1316.67 L 3167.14 1283.28 M 3161.57 1283.28 L 3172.71 1283.28 M 3185.74 1288.84 L 3191.31 1283.28 L 3202.44 1283.28 L 3208.01 1288.84 M 3221.99 1283.28 L 3244.26 1305.54 L 3244.26 1311.11 L 3238.69 1316.67 L 3227.56 1316.67 L 3221.99 1311.11 M 3208.01 1311.11 L 3202.44 1316.67 L 3191.31 1316.67 L 3185.74 1311.11 L 3185.74 1288.84 M 3221.99 1283.28 L 3244.26 1283.28 M 3258.24 1283.28 L 3258.24 1316.67 M 3258.24 1299.97 L 3280.51 1299.97 M 3280.51 1283.28 L 3280.51 1316.67 M 3284.17 1139.51 L 3300.87 1139.51 L 3306.43 1133.94 L 3306.43 1128.38 L 3300.87 1122.81 L 3284.17 1122.81 M 3300.87 1122.81 L 3306.43 1117.24 L 3306.43 1111.68 L 3300.87 1106.11 L 3284.17 1106.11 L 3284.17 1139.51 M 3270.18 1133.94 L 3264.61 1139.51 L 3253.48 1139.51 L 3247.92 1133.94 L 3247.92 1111.68 L 3253.48 1106.11 L 3264.61 1106.11 L 3270.18 1111.68 M 3320.42 1106.11 L 3342.68 1128.38 L 3342.68 1133.94 L 3337.12 1139.51 L 3325.98 1139.51 L 3320.42 1133.94 M 3320.42 1106.11 L 3342.68 1106.11 M 3356.67 1106.11 L 3356.67 1139.51 M 3356.67 1122.81 L 3378.94 1122.81 M 3378.94 1139.51 L 3378.94 1106.11 M 3258.24 952.5 L 3258.24 919.1 L 3280.51 919.1 M 3244.26 919.1 L 3221.99 919.1 L 3244.26 941.37 L 3244.26 946.93 L 3238.69 952.5 L 3227.56 952.5 L 3221.99 946.93 M 3208.01 946.93 L 3202.44 952.5 L 3191.31 952.5 L 3185.74 946.93 L 3185.74 924.67 L 3191.31 919.1 L 3202.44 919.1 L 3208.01 924.67 M 3172.71 919.1 L 3161.57 919.1 M 3167.14 919.1 L 3167.14 952.5 M 3161.57 952.5 L 3172.71 952.5 M 3253.48 775.34 L 3247.92 769.77 L 3247.92 747.5 L 3253.48 741.94 L 3264.61 741.94 L 3270.18 747.5 M 3284.17 741.94 L 3300.87 741.94 L 3306.43 747.5 L 3306.43 753.07 L 3300.87 758.64 L 3284.17 758.64 M 3284.17 775.34 L 3300.87 775.34 L 3306.43 769.77 L 3306.43 764.2 L 3300.87 758.64 M 3320.42 769.77 L 3325.98 775.34 L 3337.12 775.34 L 3342.68 769.77 L 3342.68 764.2 L 3320.42 741.94 L 3342.68 741.94 M 3356.67 741.94 L 3378.94 741.94 M 3356.67 741.94 L 3356.67 775.34 M 3284.17 775.34 L 3284.17 741.94 M 3270.18 769.77 L 3264.61 775.34 L 3253.48 775.34 M 3631.58 883.33 L 3637.14 877.76 L 3648.28 877.76 L 3653.84 883.33 M 3667.83 883.33 L 3673.4 877.76 L 3684.53 877.76 L 3690.1 883.33 L 3690.1 894.46 L 3678.96 894.46 M 3667.83 905.6 L 3667.83 883.33 M 3667.83 905.6 L 3673.4 911.16 L 3684.53 911.16 L 3690.1 905.6 M 3704.08 905.6 L 3709.65 911.16 L 3720.78 911.16 L 3726.35 905.6 L 3726.35 900.03 L 3704.08 877.76 L 3726.35 877.76 M 3740.33 877.76 L 3751.47 877.76 M 3745.9 877.76 L 3745.9 911.16 M 3740.33 911.16 L 3751.47 911.16 M 3653.84 905.6 L 3648.28 911.16 L 3637.14 911.16 L 3631.58 905.6 L 3631.58 883.33 M 3631.58 1243.91 L 3631.58 1277.3 L 3648.28 1277.3 L 3653.84 1271.74 L 3653.84 1260.6 L 3648.28 1255.04 L 3631.58 1255.04 M 3642.71 1255.04 L 3653.84 1243.91 M 3667.83 1249.47 L 3673.4 1243.91 L 3684.53 1243.91 L 3690.1 1249.47 L 3690.1 1260.6 L 3678.96 1260.6 M 3667.83 1271.74 L 3667.83 1249.47 M 3667.83 1271.74 L 3673.4 1277.3 L 3684.53 1277.3 L 3690.1 1271.74 M 3704.08 1271.74 L 3709.65 1277.3 L 3720.78 1277.3 L 3726.35 1271.74 L 3726.35 1266.17 L 3704.08 1243.91 L 3726.35 1243.91 M 3740.33 1243.91 L 3751.47 1243.91 M 3745.9 1243.91 L 3745.9 1277.3 M 3740.33 1277.3 L 3751.47 1277.3 M 3743.65 1883.67 L 3765.91 1905.94 L 3765.91 1911.5 L 3760.35 1917.07 L 3749.21 1917.07 L 3743.65 1911.5 M 3729.66 1911.5 L 3724.09 1917.07 L 3712.96 1917.07 L 3707.4 1911.5 L 3707.4 1889.24 L 3712.96 1883.67 L 3724.09 1883.67 L 3729.66 1889.24 L 3729.66 1900.37 L 3718.53 1900.37 M 3693.41 1900.37 L 3687.84 1894.8 L 3671.14 1894.8 M 3671.14 1883.67 L 3671.14 1917.07 L 3687.84 1917.07 L 3693.41 1911.5 L 3693.41 1900.37 M 3682.28 1894.8 L 3693.41 1883.67 M 3743.65 1883.67 L 3765.91 1883.67 M 3779.9 1883.67 L 3779.9 1917.07 M 3779.9 1900.37 L 3802.16 1900.37 M 3802.16 1917.07 L 3802.16 1883.67 M 3938.86 1883.67 L 3938.86 1917.07 L 3955.56 1917.07 L 3961.13 1911.5 L 3961.13 1900.37 L 3955.56 1894.8 L 3938.86 1894.8 M 3949.99 1894.8 L 3961.13 1883.67 M 3975.11 1889.24 L 3975.11 1911.5 L 3980.68 1917.07 L 3991.81 1917.07 L 3997.38 1911.5 M 3997.38 1900.37 L 3986.24 1900.37 M 3997.38 1900.37 L 3997.38 1889.24 L 3991.81 1883.67 L 3980.68 1883.67 L 3975.11 1889.24 M 4011.36 1883.67 L 4033.63 1905.94 L 4033.63 1911.5 L 4028.06 1917.07 L 4016.93 1917.07 L 4011.36 1911.5 M 4011.36 1883.67 L 4033.63 1883.67 M 4047.61 1883.67 L 4069.88 1883.67 M 4047.61 1883.67 L 4047.61 1917.07 M 2255.4 1287.15 L 2244.27 1287.15 M 2249.84 1287.15 L 2249.84 1253.75 M 2255.4 1253.75 L 2244.27 1253.75 M 2230.28 1253.75 L 2208.02 1253.75 M 2219.15 1253.75 L 2219.15 1287.15 L 2208.02 1276.01 M 2194.03 1270.45 L 2182.9 1270.45 M 2194.03 1270.45 L 2194.03 1259.31 L 2188.47 1253.75 L 2177.33 1253.75 L 2171.77 1259.31 L 2171.77 1281.58 L 2177.33 1287.15 L 2188.47 1287.15 L 2194.03 1281.58 M 2157.78 1281.58 L 2157.78 1270.45 L 2152.21 1264.88 L 2135.52 1264.88 M 2146.65 1264.88 L 2157.78 1253.75 M 2135.52 1253.75 L 2135.52 1287.15 L 2152.21 1287.15 L 2157.78 1281.58 M 1833.66 1139.51 L 1833.66 1106.11 M 1833.66 1122.81 L 1811.39 1122.81 M 1811.39 1106.11 L 1811.39 1139.51 M 1786.28 1139.51 L 1786.28 1106.11 M 1797.41 1106.11 L 1775.14 1106.11 M 1761.16 1111.68 L 1755.59 1106.11 L 1738.89 1106.11 L 1738.89 1139.51 L 1755.59 1139.51 L 1761.16 1133.94 L 1761.16 1128.38 L 1755.59 1122.81 L 1738.89 1122.81 M 1755.59 1122.81 L 1761.16 1117.24 L 1761.16 1111.68 M 1775.14 1128.38 L 1786.28 1139.51 M 1724.91 1133.94 L 1719.34 1139.51 L 1708.21 1139.51 L 1702.64 1133.94 L 1702.64 1111.68 L 1708.21 1106.11 L 1719.34 1106.11 L 1724.91 1111.68 M 1735.23 1283.28 L 1735.23 1316.67 M 1735.23 1299.97 L 1712.97 1299.97 M 1712.97 1283.28 L 1712.97 1316.67 M 1687.85 1316.67 L 1687.85 1283.28 M 1676.72 1283.28 L 1698.98 1283.28 M 1676.72 1305.54 L 1687.85 1316.67 M 1662.73 1311.11 L 1657.17 1316.67 L 1646.03 1316.67 L 1640.47 1311.11 L 1640.47 1288.84 L 1646.03 1283.28 L 1657.17 1283.28 L 1662.73 1288.84 M 1627.43 1283.28 L 1616.3 1283.28 M 1621.86 1283.28 L 1621.86 1316.67 M 1616.3 1316.67 L 1627.43 1316.67 M 1569.07 1391.54 L 1552.37 1391.54 L 1552.37 1424.94 L 1569.07 1424.94 L 1574.64 1419.38 L 1574.64 1413.81 L 1569.07 1408.24 L 1552.37 1408.24 M 1569.07 1408.24 L 1574.64 1402.68 L 1574.64 1397.11 L 1569.07 1391.54 M 1538.38 1397.11 L 1532.82 1391.54 L 1521.69 1391.54 L 1516.12 1397.11 L 1516.12 1419.38 L 1521.69 1424.94 L 1532.82 1424.94 L 1538.38 1419.38 M 1414.37 1585.39 L 1414.41 1588.7 L 1414.53 1592.01 L 1414.74 1595.32 L 1415.02 1598.62 L 1415.39 1601.92 L 1415.83 1605.2 L 1416.36 1608.47 L 1416.96 1611.73 L 1417.65 1614.97 L 1418.42 1618.19 L 1419.26 1621.4 L 1420.18 1624.58 L 1421.18 1627.74 L 1422.26 1630.87 L 1423.42 1633.98 L 1424.65 1637.05 L 1425.95 1640.1 L 1427.33 1643.11 L 1428.78 1646.09 L 1430.31 1649.03 L 1431.91 1651.93 L 1433.58 1654.79 L 1435.31 1657.61 L 1437.12 1660.39 L 1439 1663.12 L 1440.94 1665.81 L 1442.94 1668.45 L 1445.01 1671.03 L 1447.15 1673.57 L 1449.34 1676.05 L 1451.6 1678.48 L 1453.91 1680.85 L 1456.28 1683.16 L 1458.71 1685.42 L 1461.19 1687.61 L 1463.73 1689.75 L 1466.31 1691.82 L 1468.95 1693.82 L 1471.64 1695.76 L 1474.37 1697.64 L 1477.15 1699.45 L 1479.97 1701.18 L 1482.83 1702.85 L 1485.73 1704.45 L 1488.67 1705.98 L 1491.65 1707.43 L 1494.66 1708.81 L 1497.71 1710.11 L 1500.78 1711.34 L 1503.89 1712.5 L 1507.02 1713.58 L 1510.18 1714.58 L 1513.36 1715.5 L 1516.57 1716.34 L 1519.79 1717.11 L 1523.03 1717.8 L 1526.29 1718.4 L 1529.56 1718.93 L 1532.84 1719.37 L 1536.14 1719.74 L 1539.44 1720.02 L 1542.75 1720.23 L 1546.06 1720.35 L 1549.37 1720.39 L 1552.68 1720.35 L 1555.99 1720.23 L 1559.3 1720.02 L 1562.6 1719.74 L 1565.9 1719.37 L 1569.18 1718.93 L 1572.45 1718.4 L 1575.71 1717.8 L 1578.95 1717.11 L 1582.17 1716.34 L 1585.38 1715.5 L 1588.56 1714.58 L 1591.72 1713.58 L 1594.85 1712.5 L 1597.96 1711.34 L 1601.03 1710.11 L 1604.08 1708.81 L 1607.09 1707.43 L 1610.07 1705.98 L 1613.01 1704.45 L 1615.91 1702.85 L 1618.77 1701.18 L 1621.59 1699.45 L 1624.37 1697.64 L 1627.1 1695.76 L 1629.79 1693.82 L 1632.43 1691.82 L 1635.01 1689.75 L 1637.55 1687.61 L 1640.03 1685.42 L 1642.46 1683.16 L 1644.83 1680.85 L 1647.14 1678.48 L 1649.4 1676.05 L 1651.59 1673.57 L 1653.73 1671.03 L 1655.8 1668.45 L 1657.8 1665.81 L 1659.74 1663.12 L 1661.62 1660.39 L 1663.43 1657.61 L 1665.16 1654.79 L 1666.83 1651.93 L 1668.43 1649.03 L 1669.96 1646.09 L 1671.41 1643.11 L 1672.79 1640.1 L 1674.09 1637.05 L 1675.32 1633.98 L 1676.48 1630.87 L 1677.56 1627.74 L 1678.56 1624.58 L 1679.48 1621.4 L 1680.32 1618.19 L 1681.09 1614.97 L 1681.78 1611.73 L 1682.38 1608.47 L 1682.91 1605.2 L 1683.35 1601.92 L 1683.72 1598.62 L 1684 1595.32 L 1684.21 1592.01 L 1684.33 1588.7 L 1684.37 1585.39 L 1684.33 1582.08 L 1684.21 1578.77 L 1684 1575.46 L 1683.72 1572.16 L 1683.35 1568.86 L 1682.91 1565.58 L 1682.38 1562.31 L 1681.78 1559.05 L 1681.09 1555.81 L 1680.32 1552.59 L 1679.48 1549.38 L 1678.56 1546.2 L 1677.56 1543.04 L 1676.48 1539.91 L 1675.32 1536.8 L 1674.09 1533.73 L 1672.79 1530.68 L 1671.41 1527.67 L 1669.96 1524.69 L 1668.43 1521.75 L 1666.83 1518.85 L 1665.16 1515.99 L 1663.43 1513.17 L 1661.62 1510.39 L 1659.74 1507.66 L 1657.8 1504.97 L 1655.8 1502.33 L 1653.73 1499.75 L 1651.59 1497.21 L 1649.4 1494.73 L 1647.14 1492.3 L 1644.83 1489.93 L 1642.46 1487.62 L 1640.03 1485.36 L 1637.55 1483.17 L 1635.01 1481.03 L 1632.43 1478.96 L 1629.79 1476.96 L 1627.1 1475.02 L 1624.37 1473.14 L 1621.59 1471.33 L 1618.77 1469.6 L 1615.91 1467.93 L 1613.01 1466.33 L 1610.07 1464.8 L 1607.09 1463.35 L 1604.08 1461.97 L 1601.03 1460.67 L 1597.96 1459.44 L 1594.85 1458.28 L 1591.72 1457.2 L 1588.56 1456.2 L 1585.38 1455.28 L 1582.17 1454.44 L 1578.95 1453.67 L 1575.71 1452.98 L 1572.45 1452.38 L 1569.18 1451.85 L 1565.9 1451.41 L 1562.6 1451.04 L 1559.3 1450.76 L 1555.99 1450.55 L 1552.68 1450.43 L 1549.37 1450.39 L 1546.06 1450.43 L 1542.75 1450.55 L 1539.44 1450.76 L 1536.14 1451.04 L 1532.84 1451.41 L 1529.56 1451.85 L 1526.29 1452.38 L 1523.03 1452.98 L 1519.79 1453.67 L 1516.57 1454.44 L 1513.36 1455.28 L 1510.18 1456.2 L 1507.02 1457.2 L 1503.89 1458.28 L 1500.78 1459.44 L 1497.71 1460.67 L 1494.66 1461.97 L 1491.65 1463.35 L 1488.67 1464.8 L 1485.73 1466.33 L 1482.83 1467.93 L 1479.97 1469.6 L 1477.15 1471.33 L 1474.37 1473.14 L 1471.64 1475.02 L 1468.95 1476.96 L 1466.31 1478.96 L 1463.73 1481.03 L 1461.19 1483.17 L 1458.71 1485.36 L 1456.28 1487.62 L 1453.91 1489.93 L 1451.6 1492.3 L 1449.34 1494.73 L 1447.15 1497.21 L 1445.01 1499.75 L 1442.94 1502.33 L 1440.94 1504.97 L 1439 1507.66 L 1437.12 1510.39 L 1435.31 1513.17 L 1433.58 1515.99 L 1431.91 1518.85 L 1430.31 1521.75 L 1428.78 1524.69 L 1427.33 1527.67 L 1425.95 1530.68 L 1424.65 1533.73 L 1423.42 1536.8 L 1422.26 1539.91 L 1421.18 1543.04 L 1420.18 1546.2 L 1419.26 1549.38 L 1418.42 1552.59 L 1417.65 1555.81 L 1416.96 1559.05 L 1416.36 1562.31 L 1415.83 1565.58 L 1415.39 1568.86 L 1415.02 1572.16 L 1414.74 1575.46 L 1414.53 1578.77 L 1414.41 1582.08 L 1414.37 1585.39 M 1323.78 1560.39 L 1323.78 1510.39 L 1298.78 1485.39 L 1248.78 1485.39 L 1223.78 1510.39 L 1223.78 1560.39 L 1248.78 1585.39 L 1223.78 1610.39 L 1223.78 1660.39 L 1248.78 1685.39 L 1298.78 1685.39 L 1323.78 1660.39 L 1323.78 1610.39 L 1298.78 1585.39 L 1323.78 1560.39 M 1298.78 1585.39 L 1248.78 1585.39 M 1258.65 1706.5 L 1258.65 1739.9 L 1275.35 1739.9 L 1280.92 1734.34 L 1280.92 1723.2 L 1275.35 1717.64 L 1258.65 1717.64 M 1239.1 1712.07 L 1239.1 1739.9 M 1233.54 1739.9 L 1244.67 1739.9 M 1239.1 1712.07 L 1233.54 1706.5 L 1227.97 1706.5 L 1222.4 1712.07 M 1294.91 1706.5 L 1317.17 1728.77 L 1317.17 1734.34 L 1311.6 1739.9 L 1300.47 1739.9 L 1294.91 1734.34 M 1294.91 1706.5 L 1317.17 1706.5 M 1534.37 1690.39 L 1564.37 1690.39 M 1549.37 1705.39 L 1549.37 1675.39 M 1306.04 1356.04 L 1306.04 1322.65 M 1294.91 1322.65 L 1317.17 1322.65 M 1298.78 1300.75 L 1323.78 1275.75 L 1323.78 1225.75 L 1298.78 1200.75 L 1323.78 1175.75 L 1323.78 1125.75 L 1298.78 1100.75 L 1248.78 1100.75 L 1223.78 1125.75 L 1223.78 1175.75 L 1248.78 1200.75 L 1223.78 1225.75 L 1223.78 1275.75 L 1248.78 1300.75 L 1298.78 1300.75 M 1275.35 1333.78 L 1258.65 1333.78 M 1258.65 1322.65 L 1258.65 1356.04 L 1275.35 1356.04 L 1280.92 1350.48 L 1280.92 1339.34 L 1275.35 1333.78 M 1294.91 1344.91 L 1306.04 1356.04 M 1244.67 1356.04 L 1233.54 1356.04 M 1239.1 1356.04 L 1239.1 1328.21 L 1233.54 1322.65 L 1227.97 1322.65 L 1222.4 1328.21 M 1248.78 1200.75 L 1298.78 1200.75 M 1298.78 1100.75 L 1323.78 1075.75 L 1323.78 1025.75 L 1298.78 1000.75 L 1323.78 975.75 L 1323.78 925.75 L 1298.78 900.75 L 1248.78 900.75 L 1223.78 925.75 L 1223.78 975.75 L 1248.78 1000.75 L 1223.78 1025.75 L 1223.78 1075.75 L 1248.78 1100.75 M 1248.78 1000.75 L 1298.78 1000.75 M 1616.3 952.5 L 1627.43 952.5 M 1621.86 952.5 L 1621.86 919.1 M 1616.3 919.1 L 1627.43 919.1 M 1640.47 924.67 L 1646.03 919.1 L 1657.17 919.1 L 1662.73 924.67 M 1676.72 919.1 L 1698.98 919.1 M 1687.85 919.1 L 1687.85 952.5 L 1676.72 941.37 M 1662.73 946.93 L 1657.17 952.5 L 1646.03 952.5 L 1640.47 946.93 L 1640.47 924.67 M 1712.97 919.1 L 1735.23 919.1 M 1712.97 919.1 L 1712.97 952.5 M 1708.21 775.34 L 1702.64 769.77 L 1702.64 747.5 L 1708.21 741.94 L 1719.34 741.94 L 1724.91 747.5 M 1738.89 741.94 L 1755.59 741.94 L 1761.16 747.5 L 1761.16 753.07 L 1755.59 758.64 L 1738.89 758.64 M 1738.89 775.34 L 1755.59 775.34 L 1761.16 769.77 L 1761.16 764.2 L 1755.59 758.64 M 1775.14 764.2 L 1786.28 775.34 L 1786.28 741.94 M 1797.41 741.94 L 1775.14 741.94 M 1738.89 741.94 L 1738.89 775.34 M 1724.91 769.77 L 1719.34 775.34 L 1708.21 775.34 M 1811.39 775.34 L 1811.39 741.94 L 1833.66 741.94 M 2135.52 883.33 L 2141.08 877.76 L 2152.21 877.76 L 2157.78 883.33 M 2171.77 883.33 L 2177.33 877.76 L 2188.47 877.76 L 2194.03 883.33 L 2194.03 894.46 L 2182.9 894.46 M 2171.77 905.6 L 2171.77 883.33 M 2171.77 905.6 L 2177.33 911.16 L 2188.47 911.16 L 2194.03 905.6 M 2208.02 900.03 L 2219.15 911.16 L 2219.15 877.76 M 2208.02 877.76 L 2230.28 877.76 M 2244.27 877.76 L 2255.4 877.76 M 2249.84 877.76 L 2249.84 911.16 M 2255.4 911.16 L 2244.27 911.16 M 2157.78 905.6 L 2152.21 911.16 L 2141.08 911.16 L 2135.52 905.6 L 2135.52 883.33"/><path stroke-width="2.5" fill="none" d="M 2307.24 3835.79 L 2307.24 3889.92 M 2307.24 3929.29 L 2307.24 3983.43 L 2307.24 4044.45 M 2425.35 4044.45 L 2425.35 3983.43 L 2425.35 3929.29 M 2425.35 3889.92 L 2425.35 3835.79 M 3006.06 3835.79 L 3006.06 3889.92 M 3006.06 3929.29 L 3006.06 3983.43 L 3006.06 4044.45 M 3124.17 4044.45 L 3124.17 3983.43 L 3124.17 3929.29 M 3124.17 3889.92 L 3124.17 3835.79 M 3744.25 3835.79 L 3744.25 3889.92 M 3744.25 3929.29 L 3744.25 3983.43 L 3744.25 4044.45 M 3862.36 4044.45 L 3862.36 3983.43 L 3862.36 3929.29 M 3862.36 3889.92 L 3862.36 3835.79 M 4443.07 3835.79 L 4443.07 3889.92 M 4443.07 3929.29 L 4443.07 3983.43 L 4443.07 4044.45 M 4561.18 4044.45 L 4561.18 3983.43 L 4561.18 3929.29 M 4561.18 3889.92 L 4561.18 3835.79"/><path stroke-width="9" fill="none" d="M 4560.23 3638.02 L 4543.53 3638.02 L 4535.18 3629.67 L 4535.18 3596.27 L 4543.53 3587.93 L 4560.23 3587.93 L 4568.58 3596.27 M 4589.56 3596.27 L 4597.91 3587.93 L 4614.61 3587.93 L 4622.96 3596.27 L 4622.96 3604.62 L 4614.61 3612.97 L 4597.91 3612.97 L 4589.56 3621.32 L 4589.56 3629.67 L 4597.91 3638.02 L 4614.61 3638.02 L 4622.96 3629.67 M 4643.93 3629.67 L 4652.28 3638.02 L 4668.98 3638.02 L 4677.33 3629.67 L 4677.33 3621.32 L 4643.93 3587.93 L 4677.33 3587.93 M 4698.31 3587.93 L 4698.31 3638.02 M 4698.31 3587.93 L 4731.71 3587.93 M 4568.58 3629.67 L 4560.23 3638.02 M 4003.36 3638.02 L 4003.36 3587.93 M 4003.36 3612.97 L 3969.96 3612.97 M 3948.99 3621.32 L 3915.59 3587.93 L 3948.99 3587.93 M 3969.96 3587.93 L 3969.96 3638.02 M 3948.99 3629.67 L 3940.64 3638.02 L 3923.94 3638.02 L 3915.59 3629.67 M 3894.61 3629.67 L 3886.26 3638.02 L 3869.56 3638.02 L 3861.21 3629.67 L 3861.21 3621.32 L 3869.56 3612.97 L 3886.26 3612.97 L 3894.61 3604.62 L 3894.61 3596.27 L 3886.26 3587.93 L 3869.56 3587.93 L 3861.21 3596.27 M 3840.23 3596.27 L 3831.88 3587.93 L 3815.18 3587.93 L 3806.83 3596.27 L 3806.83 3629.67 L 3815.18 3638.02 L 3831.88 3638.02 L 3840.23 3629.67 M 3948.99 3629.67 L 3948.99 3621.32 M 3225.8 3587.93 L 3192.41 3587.93 L 3192.41 3638.02 M 3154.73 3638.02 L 3154.73 3587.93 M 3138.03 3587.93 L 3171.43 3587.93 M 3138.03 3621.32 L 3154.73 3638.02 M 3117.05 3629.67 L 3108.7 3638.02 L 3092 3638.02 L 3083.65 3629.67 L 3083.65 3621.32 L 3092 3612.97 L 3108.7 3612.97 L 3117.05 3604.62 L 3117.05 3596.27 L 3108.7 3587.93 L 3092 3587.93 L 3083.65 3596.27 M 3062.67 3596.27 L 3054.32 3587.93 L 3037.62 3587.93 L 3029.27 3596.27 L 3029.27 3629.67 L 3037.62 3638.02 L 3054.32 3638.02 L 3062.67 3629.67 M 2487.62 3638.02 L 2487.62 3587.93 M 2487.62 3612.97 L 2454.22 3612.97 M 2454.22 3587.93 L 2454.22 3638.02 M 2416.54 3638.02 L 2416.54 3587.93 M 2399.84 3587.93 L 2433.24 3587.93 M 2399.84 3621.32 L 2416.54 3638.02 M 2378.86 3629.67 L 2370.51 3638.02 L 2353.81 3638.02 L 2345.46 3629.67 L 2345.46 3621.32 L 2353.81 3612.97 L 2370.51 3612.97 L 2378.86 3604.62 L 2378.86 3596.27 L 2370.51 3587.93 L 2353.81 3587.93 L 2345.46 3596.27 M 2324.48 3596.27 L 2316.13 3587.93 L 2299.44 3587.93 L 2291.09 3596.27 L 2291.09 3629.67 L 2299.44 3638.02 L 2316.13 3638.02 L 2324.48 3629.67"/><path stroke-width="8" fill="none" d="M 2253.19 3727.13 L 2253.19 3774.37 L 2213.82 3750.75 L 2253.19 3727.13 M 2400.67 3727.13 L 2400.67 3774.37 L 2440.04 3750.75 L 2400.67 3727.13 M 2912.64 3750.75 L 2952.01 3727.13 L 2952.01 3774.37 L 2912.64 3750.75 M 3099.49 3774.37 L 3099.49 3727.13 L 3138.86 3750.75 L 3099.49 3774.37 M 3650.83 3750.75 L 3690.2 3727.13 L 3690.2 3774.37 L 3650.83 3750.75 M 3837.68 3774.37 L 3837.68 3727.13 L 3877.05 3750.75 L 3837.68 3774.37 M 4349.65 3750.75 L 4389.02 3727.13 L 4389.02 3774.37 L 4349.65 3750.75 M 4536.5 3774.37 L 4536.5 3727.13 L 4575.87 3750.75 L 4536.5 3774.37"/><use x="4583.18" y="3750.75" xlink:href="#tool-D24-pad-1054"/><use x="4342.33" y="3750.75" xlink:href="#tool-D24-pad-1054"/><use x="3884.36" y="3750.75" xlink:href="#tool-D24-pad-1054"/><use x="3643.51" y="3750.75" xlink:href="#tool-D24-pad-1054"/><use x="3146.17" y="3750.75" xlink:href="#tool-D24-pad-1054"/><use x="2905.32" y="3750.75" xlink:href="#tool-D24-pad-1054"/><use x="2447.35" y="3750.75" xlink:href="#tool-D24-pad-1054"/><use x="2206.5" y="3750.75" xlink:href="#tool-D24-pad-1054"/></g></svg>