<svg xmlns="http://www.w3.org/2000/svg" version="1.1" xmlns:xlink="http://www.w3.org/1999/xlink" width="3.9370100000000003in" height="3.93701in" viewBox="840.71 601.14 3937.01 3937.0099999999998" stroke-linecap="round" stroke-linejoin="round" stroke-width="0" stroke="#000"><defs><circle cx="0" cy="0" r="70.9" id="tool-D12-pad-1057"/><circle cx="0" cy="0" r="31.685" id="tool-D13-pad-1058"/><circle cx="0" cy="0" r="37.435" id="tool-D14-pad-1059"/><rect x="-37.435" y="-37.435" width="74.87" height="74.87" id="tool-D15-pad-1060"/><circle cx="0" cy="0" r="27.75" id="tool-D17-pad-1062"/><rect x="-31.53" y="-27.59" width="63.06" height="55.18" id="tool-D18-pad-1063"/><rect x="-27.59" y="-31.53" width="55.18" height="63.06" id="tool-D19-pad-1064"/><rect x="-45.305" y="-13.81" width="90.61" height="27.62" id="tool-D20-pad-1065"/><rect x="-29.56" y="-37.435" width="59.12" height="74.87" id="tool-D21-pad-1066"/><polygon points="33.499931901028866,13.876126131981259 13.87612613198126,33.499931901028866 -13.876126131981255,33.499931901028866 -33.499931901028866,13.876126131981263 -33.49993190102887,-13.876126131981254 -13.876126131981279,-33.49993190102886 13.876126131981266,-33.499931901028866 33.49993190102886,-13.87612613198128" id="tool-D23-pad-1068"/><circle cx="0" cy="0" r="33.5" id="tool-D24-pad-1069"/><polygon points="44.49990954017267,18.432466055915402 18.432466055915405,44.49990954017267 -18.4324660559154,44.49990954017267 -44.49990954017267,18.43246605591541 -44.49990954017268,-18.4324660559154 -18.43246605591543,-44.499909540172666 18.432466055915413,-44.499909540172666 44.499909540172666,-18.43246605591543" id="tool-D25-pad-1070"/><rect x="-21.685" y="-21.685" width="43.37" height="43.37" id="tool-D26-pad-1071"/><circle cx="0" cy="0" r="25.62" id="tool-D27-pad-1072"/></defs><g fill="currentColor" stroke="currentColor" transform="translate(0,5139.29) scale(1,-1)"><path stroke-width="0" fill="none" d="M 840.71 601.14 L 840.71 4538.15 L 4777.72 4538.15 L 4777.72 601.14 L 840.71 601.14 M 1401.73 837.36 L 1401.75 839.05 L 1401.81 840.74 L 1401.92 842.43 L 1402.06 844.11 L 1402.25 845.79 L 1402.48 847.47 L 1402.74 849.14 L 1403.05 850.8 L 1403.4 852.46 L 1403.79 854.1 L 1404.23 855.74 L 1404.7 857.36 L 1405.21 858.97 L 1405.76 860.57 L 1406.35 862.16 L 1406.97 863.73 L 1407.64 865.28 L 1408.35 866.82 L 1409.09 868.34 L 1409.87 869.84 L 1410.68 871.32 L 1411.53 872.78 L 1412.42 874.22 L 1413.34 875.64 L 1414.3 877.03 L 1415.29 878.4 L 1416.31 879.75 L 1417.37 881.07 L 1418.46 882.36 L 1419.58 883.63 L 1420.73 884.87 L 1421.91 886.08 L 1423.12 887.26 L 1424.36 888.41 L 1425.63 889.53 L 1426.92 890.62 L 1428.24 891.68 L 1429.59 892.7 L 1430.96 893.69 L 1432.35 894.65 L 1433.77 895.57 L 1435.21 896.46 L 1436.67 897.31 L 1438.15 898.12 L 1439.65 898.9 L 1441.17 899.64 L 1442.71 900.35 L 1444.26 901.02 L 1445.83 901.64 L 1447.42 902.23 L 1449.02 902.78 L 1450.63 903.29 L 1452.25 903.76 L 1453.89 904.2 L 1455.53 904.59 L 1457.19 904.94 L 1458.85 905.25 L 1460.52 905.51 L 1462.2 905.74 L 1463.88 905.93 L 1465.56 906.07 L 1467.25 906.18 L 1468.94 906.24 L 1470.63 906.26 L 1472.32 906.24 L 1474.01 906.18 L 1475.7 906.07 L 1477.38 905.93 L 1479.06 905.74 L 1480.74 905.51 L 1482.41 905.25 L 1484.07 904.94 L 1485.73 904.59 L 1487.37 904.2 L 1489.01 903.76 L 1490.63 903.29 L 1492.24 902.78 L 1493.84 902.23 L 1495.43 901.64 L 1497 901.02 L 1498.55 900.35 L 1500.09 899.64 L 1501.61 898.9 L 1503.11 898.12 L 1504.59 897.31 L 1506.05 896.46 L 1507.49 895.57 L 1508.91 894.65 L 1510.3 893.69 L 1511.67 892.7 L 1513.02 891.68 L 1514.34 890.62 L 1515.63 889.53 L 1516.9 888.41 L 1518.14 887.26 L 1519.35 886.08 L 1520.53 884.87 L 1521.68 883.63 L 1522.8 882.36 L 1523.89 881.07 L 1524.95 879.75 L 1525.97 878.4 L 1526.96 877.03 L 1527.92 875.64 L 1528.84 874.22 L 1529.73 872.78 L 1530.58 871.32 L 1531.39 869.84 L 1532.17 868.34 L 1532.91 866.82 L 1533.62 865.28 L 1534.29 863.73 L 1534.91 862.16 L 1535.5 860.57 L 1536.05 858.97 L 1536.56 857.36 L 1537.03 855.74 L 1537.47 854.1 L 1537.86 852.46 L 1538.21 850.8 L 1538.52 849.14 L 1538.78 847.47 L 1539.01 845.79 L 1539.2 844.11 L 1539.34 842.43 L 1539.45 840.74 L 1539.51 839.05 L 1539.53 837.36 L 1539.51 835.67 L 1539.45 833.98 L 1539.34 832.29 L 1539.2 830.61 L 1539.01 828.93 L 1538.78 827.25 L 1538.52 825.58 L 1538.21 823.92 L 1537.86 822.26 L 1537.47 820.62 L 1537.03 818.98 L 1536.56 817.36 L 1536.05 815.75 L 1535.5 814.15 L 1534.91 812.56 L 1534.29 810.99 L 1533.62 809.44 L 1532.91 807.9 L 1532.17 806.38 L 1531.39 804.88 L 1530.58 803.4 L 1529.73 801.94 L 1528.84 800.5 L 1527.92 799.08 L 1526.96 797.69 L 1525.97 796.32 L 1524.95 794.97 L 1523.89 793.65 L 1522.8 792.36 L 1521.68 791.09 L 1520.53 789.85 L 1519.35 788.64 L 1518.14 787.46 L 1516.9 786.31 L 1515.63 785.19 L 1514.34 784.1 L 1513.02 783.04 L 1511.67 782.02 L 1510.3 781.03 L 1508.91 780.07 L 1507.49 779.15 L 1506.05 778.26 L 1504.59 777.41 L 1503.11 776.6 L 1501.61 775.82 L 1500.09 775.08 L 1498.55 774.37 L 1497 773.7 L 1495.43 773.08 L 1493.84 772.49 L 1492.24 771.94 L 1490.63 771.43 L 1489.01 770.96 L 1487.37 770.52 L 1485.73 770.13 L 1484.07 769.78 L 1482.41 769.47 L 1480.74 769.21 L 1479.06 768.98 L 1477.38 768.79 L 1475.7 768.65 L 1474.01 768.54 L 1472.32 768.48 L 1470.63 768.46 L 1468.94 768.48 L 1467.25 768.54 L 1465.56 768.65 L 1463.88 768.79 L 1462.2 768.98 L 1460.52 769.21 L 1458.85 769.47 L 1457.19 769.78 L 1455.53 770.13 L 1453.89 770.52 L 1452.25 770.96 L 1450.63 771.43 L 1449.02 771.94 L 1447.42 772.49 L 1445.83 773.08 L 1444.26 773.7 L 1442.71 774.37 L 1441.17 775.08 L 1439.65 775.82 L 1438.15 776.6 L 1436.67 777.41 L 1435.21 778.26 L 1433.77 779.15 L 1432.35 780.07 L 1430.96 781.03 L 1429.59 782.02 L 1428.24 783.04 L 1426.92 784.1 L 1425.63 785.19 L 1424.36 786.31 L 1423.12 787.46 L 1421.91 788.64 L 1420.73 789.85 L 1419.58 791.09 L 1418.46 792.36 L 1417.37 793.65 L 1416.31 794.97 L 1415.29 796.32 L 1414.3 797.69 L 1413.34 799.08 L 1412.42 800.5 L 1411.53 801.94 L 1410.68 803.4 L 1409.87 804.88 L 1409.09 806.38 L 1408.35 807.9 L 1407.64 809.44 L 1406.97 810.99 L 1406.35 812.56 L 1405.76 814.15 L 1405.21 815.75 L 1404.7 817.36 L 1404.23 818.98 L 1403.79 820.62 L 1403.4 822.26 L 1403.05 823.92 L 1402.74 825.58 L 1402.48 827.25 L 1402.25 828.93 L 1402.06 830.61 L 1401.92 832.29 L 1401.81 833.98 L 1401.75 835.67 L 1401.73 837.36 M 4551.34 837.36 L 4551.36 839.05 L 4551.42 840.74 L 4551.53 842.43 L 4551.67 844.11 L 4551.86 845.79 L 4552.09 847.47 L 4552.35 849.14 L 4552.66 850.8 L 4553.01 852.46 L 4553.4 854.1 L 4553.84 855.74 L 4554.31 857.36 L 4554.82 858.97 L 4555.37 860.57 L 4555.96 862.16 L 4556.58 863.73 L 4557.25 865.28 L 4557.96 866.82 L 4558.7 868.34 L 4559.48 869.84 L 4560.29 871.32 L 4561.14 872.78 L 4562.03 874.22 L 4562.95 875.64 L 4563.91 877.03 L 4564.9 878.4 L 4565.92 879.75 L 4566.98 881.07 L 4568.07 882.36 L 4569.19 883.63 L 4570.34 884.87 L 4571.52 886.08 L 4572.73 887.26 L 4573.97 888.41 L 4575.24 889.53 L 4576.53 890.62 L 4577.85 891.68 L 4579.2 892.7 L 4580.57 893.69 L 4581.96 894.65 L 4583.38 895.57 L 4584.82 896.46 L 4586.28 897.31 L 4587.76 898.12 L 4589.26 898.9 L 4590.78 899.64 L 4592.32 900.35 L 4593.87 901.02 L 4595.44 901.64 L 4597.03 902.23 L 4598.63 902.78 L 4600.24 903.29 L 4601.86 903.76 L 4603.5 904.2 L 4605.14 904.59 L 4606.8 904.94 L 4608.46 905.25 L 4610.13 905.51 L 4611.81 905.74 L 4613.49 905.93 L 4615.17 906.07 L 4616.86 906.18 L 4618.55 906.24 L 4620.24 906.26 L 4621.93 906.24 L 4623.62 906.18 L 4625.31 906.07 L 4626.99 905.93 L 4628.67 905.74 L 4630.35 905.51 L 4632.02 905.25 L 4633.68 904.94 L 4635.34 904.59 L 4636.98 904.2 L 4638.62 903.76 L 4640.24 903.29 L 4641.85 902.78 L 4643.45 902.23 L 4645.04 901.64 L 4646.61 901.02 L 4648.16 900.35 L 4649.7 899.64 L 4651.22 898.9 L 4652.72 898.12 L 4654.2 897.31 L 4655.66 896.46 L 4657.1 895.57 L 4658.52 894.65 L 4659.91 893.69 L 4661.28 892.7 L 4662.63 891.68 L 4663.95 890.62 L 4665.24 889.53 L 4666.51 888.41 L 4667.75 887.26 L 4668.96 886.08 L 4670.14 884.87 L 4671.29 883.63 L 4672.41 882.36 L 4673.5 881.07 L 4674.56 879.75 L 4675.58 878.4 L 4676.57 877.03 L 4677.53 875.64 L 4678.45 874.22 L 4679.34 872.78 L 4680.19 871.32 L 4681 869.84 L 4681.78 868.34 L 4682.52 866.82 L 4683.23 865.28 L 4683.9 863.73 L 4684.52 862.16 L 4685.11 860.57 L 4685.66 858.97 L 4686.17 857.36 L 4686.64 855.74 L 4687.08 854.1 L 4687.47 852.46 L 4687.82 850.8 L 4688.13 849.14 L 4688.39 847.47 L 4688.62 845.79 L 4688.81 844.11 L 4688.95 842.43 L 4689.06 840.74 L 4689.12 839.05 L 4689.14 837.36 L 4689.12 835.67 L 4689.06 833.98 L 4688.95 832.29 L 4688.81 830.61 L 4688.62 828.93 L 4688.39 827.25 L 4688.13 825.58 L 4687.82 823.92 L 4687.47 822.26 L 4687.08 820.62 L 4686.64 818.98 L 4686.17 817.36 L 4685.66 815.75 L 4685.11 814.15 L 4684.52 812.56 L 4683.9 810.99 L 4683.23 809.44 L 4682.52 807.9 L 4681.78 806.38 L 4681 804.88 L 4680.19 803.4 L 4679.34 801.94 L 4678.45 800.5 L 4677.53 799.08 L 4676.57 797.69 L 4675.58 796.32 L 4674.56 794.97 L 4673.5 793.65 L 4672.41 792.36 L 4671.29 791.09 L 4670.14 789.85 L 4668.96 788.64 L 4667.75 787.46 L 4666.51 786.31 L 4665.24 785.19 L 4663.95 784.1 L 4662.63 783.04 L 4661.28 782.02 L 4659.91 781.03 L 4658.52 780.07 L 4657.1 779.15 L 4655.66 778.26 L 4654.2 777.41 L 4652.72 776.6 L 4651.22 775.82 L 4649.7 775.08 L 4648.16 774.37 L 4646.61 773.7 L 4645.04 773.08 L 4643.45 772.49 L 4641.85 771.94 L 4640.24 771.43 L 4638.62 770.96 L 4636.98 770.52 L 4635.34 770.13 L 4633.68 769.78 L 4632.02 769.47 L 4630.35 769.21 L 4628.67 768.98 L 4626.99 768.79 L 4625.31 768.65 L 4623.62 768.54 L 4621.93 768.48 L 4620.24 768.46 L 4618.55 768.48 L 4616.86 768.54 L 4615.17 768.65 L 4613.49 768.79 L 4611.81 768.98 L 4610.13 769.21 L 4608.46 769.47 L 4606.8 769.78 L 4605.14 770.13 L 4603.5 770.52 L 4601.86 770.96 L 4600.24 771.43 L 4598.63 771.94 L 4597.03 772.49 L 4595.44 773.08 L 4593.87 773.7 L 4592.32 774.37 L 4590.78 775.08 L 4589.26 775.82 L 4587.76 776.6 L 4586.28 777.41 L 4584.82 778.26 L 4583.38 779.15 L 4581.96 780.07 L 4580.57 781.03 L 4579.2 782.02 L 4577.85 783.04 L 4576.53 784.1 L 4575.24 785.19 L 4573.97 786.31 L 4572.73 787.46 L 4571.52 788.64 L 4570.34 789.85 L 4569.19 791.09 L 4568.07 792.36 L 4566.98 793.65 L 4565.92 794.97 L 4564.9 796.32 L 4563.91 797.69 L 4562.95 799.08 L 4562.03 800.5 L 4561.14 801.94 L 4560.29 803.4 L 4559.48 804.88 L 4558.7 806.38 L 4557.96 807.9 L 4557.25 809.44 L 4556.58 810.99 L 4555.96 812.56 L 4555.37 814.15 L 4554.82 815.75 L 4554.31 817.36 L 4553.84 818.98 L 4553.4 820.62 L 4553.01 822.26 L 4552.66 823.92 L 4552.35 825.58 L 4552.09 827.25 L 4551.86 828.93 L 4551.67 830.61 L 4551.53 832.29 L 4551.42 833.98 L 4551.36 835.67 L 4551.34 837.36 M 4551.34 4380.67 L 4551.36 4382.36 L 4551.42 4384.05 L 4551.53 4385.74 L 4551.67 4387.42 L 4551.86 4389.1 L 4552.09 4390.78 L 4552.35 4392.45 L 4552.66 4394.11 L 4553.01 4395.77 L 4553.4 4397.41 L 4553.84 4399.05 L 4554.31 4400.67 L 4554.82 4402.28 L 4555.37 4403.88 L 4555.96 4405.47 L 4556.58 4407.04 L 4557.25 4408.59 L 4557.96 4410.13 L 4558.7 4411.65 L 4559.48 4413.15 L 4560.29 4414.63 L 4561.14 4416.09 L 4562.03 4417.53 L 4562.95 4418.95 L 4563.91 4420.34 L 4564.9 4421.71 L 4565.92 4423.06 L 4566.98 4424.38 L 4568.07 4425.67 L 4569.19 4426.94 L 4570.34 4428.18 L 4571.52 4429.39 L 4572.73 4430.57 L 4573.97 4431.72 L 4575.24 4432.84 L 4576.53 4433.93 L 4577.85 4434.99 L 4579.2 4436.01 L 4580.57 4437 L 4581.96 4437.96 L 4583.38 4438.88 L 4584.82 4439.77 L 4586.28 4440.62 L 4587.76 4441.43 L 4589.26 4442.21 L 4590.78 4442.95 L 4592.32 4443.66 L 4593.87 4444.33 L 4595.44 4444.95 L 4597.03 4445.54 L 4598.63 4446.09 L 4600.24 4446.6 L 4601.86 4447.07 L 4603.5 4447.51 L 4605.14 4447.9 L 4606.8 4448.25 L 4608.46 4448.56 L 4610.13 4448.82 L 4611.81 4449.05 L 4613.49 4449.24 L 4615.17 4449.38 L 4616.86 4449.49 L 4618.55 4449.55 L 4620.24 4449.57 L 4621.93 4449.55 L 4623.62 4449.49 L 4625.31 4449.38 L 4626.99 4449.24 L 4628.67 4449.05 L 4630.35 4448.82 L 4632.02 4448.56 L 4633.68 4448.25 L 4635.34 4447.9 L 4636.98 4447.51 L 4638.62 4447.07 L 4640.24 4446.6 L 4641.85 4446.09 L 4643.45 4445.54 L 4645.04 4444.95 L 4646.61 4444.33 L 4648.16 4443.66 L 4649.7 4442.95 L 4651.22 4442.21 L 4652.72 4441.43 L 4654.2 4440.62 L 4655.66 4439.77 L 4657.1 4438.88 L 4658.52 4437.96 L 4659.91 4437 L 4661.28 4436.01 L 4662.63 4434.99 L 4663.95 4433.93 L 4665.24 4432.84 L 4666.51 4431.72 L 4667.75 4430.57 L 4668.96 4429.39 L 4670.14 4428.18 L 4671.29 4426.94 L 4672.41 4425.67 L 4673.5 4424.38 L 4674.56 4423.06 L 4675.58 4421.71 L 4676.57 4420.34 L 4677.53 4418.95 L 4678.45 4417.53 L 4679.34 4416.09 L 4680.19 4414.63 L 4681 4413.15 L 4681.78 4411.65 L 4682.52 4410.13 L 4683.23 4408.59 L 4683.9 4407.04 L 4684.52 4405.47 L 4685.11 4403.88 L 4685.66 4402.28 L 4686.17 4400.67 L 4686.64 4399.05 L 4687.08 4397.41 L 4687.47 4395.77 L 4687.82 4394.11 L 4688.13 4392.45 L 4688.39 4390.78 L 4688.62 4389.1 L 4688.81 4387.42 L 4688.95 4385.74 L 4689.06 4384.05 L 4689.12 4382.36 L 4689.14 4380.67 L 4689.12 4378.98 L 4689.06 4377.29 L 4688.95 4375.6 L 4688.81 4373.92 L 4688.62 4372.24 L 4688.39 4370.56 L 4688.13 4368.89 L 4687.82 4367.23 L 4687.47 4365.57 L 4687.08 4363.93 L 4686.64 4362.29 L 4686.17 4360.67 L 4685.66 4359.06 L 4685.11 4357.46 L 4684.52 4355.87 L 4683.9 4354.3 L 4683.23 4352.75 L 4682.52 4351.21 L 4681.78 4349.69 L 4681 4348.19 L 4680.19 4346.71 L 4679.34 4345.25 L 4678.45 4343.81 L 4677.53 4342.39 L 4676.57 4341 L 4675.58 4339.63 L 4674.56 4338.28 L 4673.5 4336.96 L 4672.41 4335.67 L 4671.29 4334.4 L 4670.14 4333.16 L 4668.96 4331.95 L 4667.75 4330.77 L 4666.51 4329.62 L 4665.24 4328.5 L 4663.95 4327.41 L 4662.63 4326.35 L 4661.28 4325.33 L 4659.91 4324.34 L 4658.52 4323.38 L 4657.1 4322.46 L 4655.66 4321.57 L 4654.2 4320.72 L 4652.72 4319.91 L 4651.22 4319.13 L 4649.7 4318.39 L 4648.16 4317.68 L 4646.61 4317.01 L 4645.04 4316.39 L 4643.45 4315.8 L 4641.85 4315.25 L 4640.24 4314.74 L 4638.62 4314.27 L 4636.98 4313.83 L 4635.34 4313.44 L 4633.68 4313.09 L 4632.02 4312.78 L 4630.35 4312.52 L 4628.67 4312.29 L 4626.99 4312.1 L 4625.31 4311.96 L 4623.62 4311.85 L 4621.93 4311.79 L 4620.24 4311.77 L 4618.55 4311.79 L 4616.86 4311.85 L 4615.17 4311.96 L 4613.49 4312.1 L 4611.81 4312.29 L 4610.13 4312.52 L 4608.46 4312.78 L 4606.8 4313.09 L 4605.14 4313.44 L 4603.5 4313.83 L 4601.86 4314.27 L 4600.24 4314.74 L 4598.63 4315.25 L 4597.03 4315.8 L 4595.44 4316.39 L 4593.87 4317.01 L 4592.32 4317.68 L 4590.78 4318.39 L 4589.26 4319.13 L 4587.76 4319.91 L 4586.28 4320.72 L 4584.82 4321.57 L 4583.38 4322.46 L 4581.96 4323.38 L 4580.57 4324.34 L 4579.2 4325.33 L 4577.85 4326.35 L 4576.53 4327.41 L 4575.24 4328.5 L 4573.97 4329.62 L 4572.73 4330.77 L 4571.52 4331.95 L 4570.34 4333.16 L 4569.19 4334.4 L 4568.07 4335.67 L 4566.98 4336.96 L 4565.92 4338.28 L 4564.9 4339.63 L 4563.91 4341 L 4562.95 4342.39 L 4562.03 4343.81 L 4561.14 4345.25 L 4560.29 4346.71 L 4559.48 4348.19 L 4558.7 4349.69 L 4557.96 4351.21 L 4557.25 4352.75 L 4556.58 4354.3 L 4555.96 4355.87 L 4555.37 4357.46 L 4554.82 4359.06 L 4554.31 4360.67 L 4553.84 4362.29 L 4553.4 4363.93 L 4553.01 4365.57 L 4552.66 4367.23 L 4552.35 4368.89 L 4552.09 4370.56 L 4551.86 4372.24 L 4551.67 4373.92 L 4551.53 4375.6 L 4551.42 4377.29 L 4551.36 4378.98 L 4551.34 4380.67 M 1008.03 4380.67 L 1008.05 4382.36 L 1008.11 4384.05 L 1008.22 4385.74 L 1008.36 4387.42 L 1008.55 4389.1 L 1008.78 4390.78 L 1009.04 4392.45 L 1009.35 4394.11 L 1009.7 4395.77 L 1010.09 4397.41 L 1010.53 4399.05 L 1011 4400.67 L 1011.51 4402.28 L 1012.06 4403.88 L 1012.65 4405.47 L 1013.27 4407.04 L 1013.94 4408.59 L 1014.65 4410.13 L 1015.39 4411.65 L 1016.17 4413.15 L 1016.98 4414.63 L 1017.83 4416.09 L 1018.72 4417.53 L 1019.64 4418.95 L 1020.6 4420.34 L 1021.59 4421.71 L 1022.61 4423.06 L 1023.67 4424.38 L 1024.76 4425.67 L 1025.88 4426.94 L 1027.03 4428.18 L 1028.21 4429.39 L 1029.42 4430.57 L 1030.66 4431.72 L 1031.93 4432.84 L 1033.22 4433.93 L 1034.54 4434.99 L 1035.89 4436.01 L 1037.26 4437 L 1038.65 4437.96 L 1040.07 4438.88 L 1041.51 4439.77 L 1042.97 4440.62 L 1044.45 4441.43 L 1045.95 4442.21 L 1047.47 4442.95 L 1049.01 4443.66 L 1050.56 4444.33 L 1052.13 4444.95 L 1053.72 4445.54 L 1055.32 4446.09 L 1056.93 4446.6 L 1058.55 4447.07 L 1060.19 4447.51 L 1061.83 4447.9 L 1063.49 4448.25 L 1065.15 4448.56 L 1066.82 4448.82 L 1068.5 4449.05 L 1070.18 4449.24 L 1071.86 4449.38 L 1073.55 4449.49 L 1075.24 4449.55 L 1076.93 4449.57 L 1078.62 4449.55 L 1080.31 4449.49 L 1082 4449.38 L 1083.68 4449.24 L 1085.36 4449.05 L 1087.04 4448.82 L 1088.71 4448.56 L 1090.37 4448.25 L 1092.03 4447.9 L 1093.67 4447.51 L 1095.31 4447.07 L 1096.93 4446.6 L 1098.54 4446.09 L 1100.14 4445.54 L 1101.73 4444.95 L 1103.3 4444.33 L 1104.85 4443.66 L 1106.39 4442.95 L 1107.91 4442.21 L 1109.41 4441.43 L 1110.89 4440.62 L 1112.35 4439.77 L 1113.79 4438.88 L 1115.21 4437.96 L 1116.6 4437 L 1117.97 4436.01 L 1119.32 4434.99 L 1120.64 4433.93 L 1121.93 4432.84 L 1123.2 4431.72 L 1124.44 4430.57 L 1125.65 4429.39 L 1126.83 4428.18 L 1127.98 4426.94 L 1129.1 4425.67 L 1130.19 4424.38 L 1131.25 4423.06 L 1132.27 4421.71 L 1133.26 4420.34 L 1134.22 4418.95 L 1135.14 4417.53 L 1136.03 4416.09 L 1136.88 4414.63 L 1137.69 4413.15 L 1138.47 4411.65 L 1139.21 4410.13 L 1139.92 4408.59 L 1140.59 4407.04 L 1141.21 4405.47 L 1141.8 4403.88 L 1142.35 4402.28 L 1142.86 4400.67 L 1143.33 4399.05 L 1143.77 4397.41 L 1144.16 4395.77 L 1144.51 4394.11 L 1144.82 4392.45 L 1145.08 4390.78 L 1145.31 4389.1 L 1145.5 4387.42 L 1145.64 4385.74 L 1145.75 4384.05 L 1145.81 4382.36 L 1145.83 4380.67 L 1145.81 4378.98 L 1145.75 4377.29 L 1145.64 4375.6 L 1145.5 4373.92 L 1145.31 4372.24 L 1145.08 4370.56 L 1144.82 4368.89 L 1144.51 4367.23 L 1144.16 4365.57 L 1143.77 4363.93 L 1143.33 4362.29 L 1142.86 4360.67 L 1142.35 4359.06 L 1141.8 4357.46 L 1141.21 4355.87 L 1140.59 4354.3 L 1139.92 4352.75 L 1139.21 4351.21 L 1138.47 4349.69 L 1137.69 4348.19 L 1136.88 4346.71 L 1136.03 4345.25 L 1135.14 4343.81 L 1134.22 4342.39 L 1133.26 4341 L 1132.27 4339.63 L 1131.25 4338.28 L 1130.19 4336.96 L 1129.1 4335.67 L 1127.98 4334.4 L 1126.83 4333.16 L 1125.65 4331.95 L 1124.44 4330.77 L 1123.2 4329.62 L 1121.93 4328.5 L 1120.64 4327.41 L 1119.32 4326.35 L 1117.97 4325.33 L 1116.6 4324.34 L 1115.21 4323.38 L 1113.79 4322.46 L 1112.35 4321.57 L 1110.89 4320.72 L 1109.41 4319.91 L 1107.91 4319.13 L 1106.39 4318.39 L 1104.85 4317.68 L 1103.3 4317.01 L 1101.73 4316.39 L 1100.14 4315.8 L 1098.54 4315.25 L 1096.93 4314.74 L 1095.31 4314.27 L 1093.67 4313.83 L 1092.03 4313.44 L 1090.37 4313.09 L 1088.71 4312.78 L 1087.04 4312.52 L 1085.36 4312.29 L 1083.68 4312.1 L 1082 4311.96 L 1080.31 4311.85 L 1078.62 4311.79 L 1076.93 4311.77 L 1075.24 4311.79 L 1073.55 4311.85 L 1071.86 4311.96 L 1070.18 4312.1 L 1068.5 4312.29 L 1066.82 4312.52 L 1065.15 4312.78 L 1063.49 4313.09 L 1061.83 4313.44 L 1060.19 4313.83 L 1058.55 4314.27 L 1056.93 4314.74 L 1055.32 4315.25 L 1053.72 4315.8 L 1052.13 4316.39 L 1050.56 4317.01 L 1049.01 4317.68 L 1047.47 4318.39 L 1045.95 4319.13 L 1044.45 4319.91 L 1042.97 4320.72 L 1041.51 4321.57 L 1040.07 4322.46 L 1038.65 4323.38 L 1037.26 4324.34 L 1035.89 4325.33 L 1034.54 4326.35 L 1033.22 4327.41 L 1031.93 4328.5 L 1030.66 4329.62 L 1029.42 4330.77 L 1028.21 4331.95 L 1027.03 4333.16 L 1025.88 4334.4 L 1024.76 4335.67 L 1023.67 4336.96 L 1022.61 4338.28 L 1021.59 4339.63 L 1020.6 4341 L 1019.64 4342.39 L 1018.72 4343.81 L 1017.83 4345.25 L 1016.98 4346.71 L 1016.17 4348.19 L 1015.39 4349.69 L 1014.65 4351.21 L 1013.94 4352.75 L 1013.27 4354.3 L 1012.65 4355.87 L 1012.06 4357.46 L 1011.51 4359.06 L 1011 4360.67 L 1010.53 4362.29 L 1010.09 4363.93 L 1009.7 4365.57 L 1009.35 4367.23 L 1009.04 4368.89 L 1008.78 4370.56 L 1008.55 4372.24 L 1008.36 4373.92 L 1008.22 4375.6 L 1008.11 4377.29 L 1008.05 4378.98 L 1008.03 4380.67"/><path stroke-width="15.75" fill="none" d="M 971.96 4312.59 L 959.95 4317.56 L 947.31 4320.59 L 934.36 4321.61 L 909.61 4321.61 L 905.23 4321.12 L 901.07 4319.66 L 897.33 4317.32 L 894.22 4314.2 L 891.87 4310.47 L 890.41 4306.31 L 889.92 4301.93 L 889.92 4203.5 L 890.41 4199.12 L 891.87 4194.96 L 894.22 4191.23 L 897.33 4188.11 L 901.07 4185.77 L 905.23 4184.31 L 909.61 4183.82 L 1608.43 4183.82 L 1633.34 4182.31 L 1657.89 4177.81 L 1681.72 4170.39 L 1704.48 4160.14 L 1725.84 4147.23 L 1745.49 4131.84 L 1763.14 4114.19 L 1778.53 4094.54 L 1791.44 4073.18 L 1801.69 4050.42 L 1809.11 4026.59 L 1813.61 4002.04 L 1815.12 3977.13 L 1815.12 3878.7 L 1815.69 3872.94 L 1817.37 3867.4 L 1820.09 3862.3 L 1823.77 3857.82 L 1828.24 3854.15 L 1833.35 3851.42 L 1838.88 3849.74 L 1844.65 3849.17 L 1933.23 3849.17 L 1938.99 3849.74 L 1944.53 3851.42 L 1949.63 3854.15 L 1954.11 3857.82 L 1957.78 3862.3 L 1960.51 3867.4 L 1962.19 3872.94 L 1962.76 3878.7 L 1962.76 3986.97 L 1964.44 4012.66 L 1969.46 4037.92 L 1977.74 4062.3 L 1989.13 4085.39 L 2003.43 4106.8 L 2020.41 4126.16 L 2039.77 4143.14 L 2061.18 4157.45 L 2084.27 4168.83 L 2108.66 4177.11 L 2133.91 4182.13 L 2159.61 4183.82 L 3055.28 4183.82 L 3080.97 4182.13 L 3106.22 4177.11 L 3130.61 4168.83 L 3153.7 4157.45 L 3175.11 4143.14 L 3194.47 4126.16 L 3211.45 4106.8 L 3225.75 4085.39 L 3237.14 4062.3 L 3245.42 4037.92 L 3250.44 4012.66 L 3252.13 3986.97 L 3252.13 3868.86 L 3258.56 3862.53 L 3265.9 3857.28 L 3273.97 3853.24 L 3282.57 3850.52 L 3291.5 3849.17 L 3350.55 3849.17 L 3357.39 3849.77 L 3364.02 3851.55 L 3370.24 3854.45 L 3375.86 3858.38 L 3380.71 3863.24 L 3384.65 3868.86 L 3387.55 3875.08 L 3389.32 3881.71 L 3389.92 3888.54 L 3389.92 3986.97 L 3391.61 4012.66 L 3396.63 4037.92 L 3404.91 4062.3 L 3416.29 4085.39 L 3430.6 4106.8 L 3447.58 4126.16 L 3466.94 4143.14 L 3488.35 4157.45 L 3511.44 4168.83 L 3535.82 4177.11 L 3561.08 4182.13 L 3586.77 4183.82 L 4492.28 4183.82 L 4517.98 4182.13 L 4543.23 4177.11 L 4567.61 4168.83 L 4590.71 4157.45 L 4612.12 4143.14 L 4631.48 4126.16 L 4648.46 4106.8 L 4662.76 4085.39 L 4674.15 4062.3 L 4682.43 4037.92 L 4687.45 4012.66 L 4689.13 3986.97 L 4689.13 3878.7 L 4728.5 3878.7 L 4728.5 4154.29 L 4727.4 4169.7 L 4724.12 4184.79 L 4718.72 4199.27 L 4711.32 4212.83 L 4702.06 4225.19 L 4691.14 4236.11 L 4678.77 4245.37 L 4665.21 4252.78 L 4650.74 4258.17 L 4635.64 4261.46 L 4620.24 4262.56 L 4603.43 4263.76 L 4586.96 4267.34 L 4571.17 4273.23 L 4556.38 4281.31 L 4542.89 4291.41 L 4530.97 4303.32 L 4520.88 4316.81 L 4512.8 4331.6 L 4506.91 4347.39 L 4503.33 4363.86 L 4502.13 4380.67 L 4502.13 4449.57 L 4501.53 4456.4 L 4499.75 4463.03 L 4496.85 4469.25 L 4492.91 4474.87 L 4488.06 4479.73 L 4482.44 4483.66 L 4476.22 4486.56 L 4469.59 4488.34 L 4462.76 4488.94 L 1234.41 4488.94 L 1227.57 4488.34 L 1220.94 4486.56 L 1214.72 4483.66 L 1209.1 4479.73 L 1204.25 4474.87 L 1200.31 4469.25 L 1197.41 4463.03 L 1195.64 4456.4 L 1195.04 4449.57 L 1195.04 4380.67 L 1193.84 4363.86 L 1190.25 4347.39 L 1184.37 4331.6 L 1176.29 4316.81 L 1166.19 4303.32 L 1154.27 4291.41 L 1140.78 4281.31 L 1125.99 4273.23 L 1110.2 4267.34 L 1093.74 4263.76 L 1076.93 4262.56 L 1061.42 4263.58 L 1046.18 4266.61 L 1031.46 4271.6 L 1017.52 4278.48 L 1004.6 4287.11 L 992.92 4297.36 L 983.04 4305.8 L 971.96 4312.59 M 967.79 4314.31 L 894.33 4314.31 M 889.92 4298.58 L 991.49 4298.58 M 1010.98 4282.85 L 889.92 4282.85 M 889.92 4267.11 L 1044.69 4267.11 M 1109.15 4267.11 L 4588.02 4267.11 M 4554.33 4282.85 L 1142.84 4282.85 M 1161.45 4298.58 L 4535.72 4298.58 M 4522.75 4314.31 L 1174.42 4314.31 M 1183.51 4330.05 L 4513.65 4330.05 M 4507.51 4345.78 L 1189.65 4345.78 M 1193.33 4361.51 L 4503.84 4361.51 M 4502.37 4377.25 L 1194.79 4377.25 M 1195.04 4392.98 L 4502.13 4392.98 M 4502.13 4408.71 L 1195.04 4408.71 M 1195.04 4424.44 L 4502.13 4424.44 M 4502.13 4440.18 L 1195.04 4440.18 M 1195.59 4455.91 L 4501.57 4455.91 M 4495.18 4471.64 L 1201.99 4471.64 M 1223.98 4487.38 L 4473.18 4487.38 M 4667.77 4251.38 L 889.92 4251.38 M 889.92 4235.65 L 4691.6 4235.65 M 4706.01 4219.91 L 889.92 4219.91 M 889.92 4204.18 L 4716.04 4204.18 M 4722.76 4188.45 L 897 4188.45 M 899.76 3652.32 L 894 3651.76 L 888.46 3650.08 L 883.36 3647.35 L 878.88 3643.67 L 875.21 3639.2 L 872.48 3634.09 L 870.8 3628.56 L 870.24 3622.8 L 870.24 3130.67 L 870.8 3124.91 L 872.48 3119.37 L 875.21 3114.26 L 878.88 3109.79 L 883.36 3106.12 L 888.46 3103.39 L 894 3101.71 L 899.76 3101.14 L 1204.88 3101.14 L 1217.2 3102.11 L 1229.21 3105 L 1240.63 3109.72 L 1251.16 3116.18 L 1260.56 3124.2 L 1268.58 3133.6 L 1275.04 3144.13 L 1279.77 3155.55 L 1282.65 3167.56 L 1283.62 3179.88 L 1283.62 3622.8 L 1283.05 3628.56 L 1281.37 3634.09 L 1278.65 3639.2 L 1274.97 3643.67 L 1270.5 3647.35 L 1265.39 3650.08 L 1259.85 3651.76 L 1254.09 3652.32 L 899.76 3652.32 M 874.46 3637.79 L 1279.4 3637.79 M 1283.62 3622.05 L 870.24 3622.05 M 870.24 3606.32 L 1283.62 3606.32 M 1283.62 3590.59 L 870.24 3590.59 M 870.24 3574.85 L 1283.62 3574.85 M 1283.62 3559.12 L 870.24 3559.12 M 870.24 3543.39 L 1283.62 3543.39 M 1283.62 3527.66 L 870.24 3527.66 M 870.24 3511.92 L 1283.62 3511.92 M 1283.62 3496.19 L 870.24 3496.19 M 870.24 3480.46 L 1283.62 3480.46 M 1283.62 3464.72 L 870.24 3464.72 M 870.24 3448.99 L 1283.62 3448.99 M 1283.62 3433.26 L 870.24 3433.26 M 870.24 3417.52 L 1283.62 3417.52 M 1283.62 3401.79 L 870.24 3401.79 M 870.24 3386.06 L 1283.62 3386.06 M 1283.62 3370.32 L 870.24 3370.32 M 870.24 3354.59 L 1283.62 3354.59 M 1283.62 3338.86 L 870.24 3338.86 M 870.24 3323.12 L 1283.62 3323.12 M 1283.62 3307.39 L 870.24 3307.39 M 870.24 3291.66 L 1283.62 3291.66 M 1283.62 3275.93 L 870.24 3275.93 M 870.24 3260.19 L 1283.62 3260.19 M 1283.62 3244.46 L 870.24 3244.46 M 870.24 3228.73 L 1283.62 3228.73 M 1283.62 3212.99 L 870.24 3212.99 M 870.24 3197.26 L 1283.62 3197.26 M 1283.62 3181.53 L 870.24 3181.53 M 870.24 3165.79 L 1282.23 3165.79 M 1277.49 3150.06 L 870.24 3150.06 M 870.24 3134.33 L 1269.03 3134.33 M 1253.99 3118.59 L 872.9 3118.59 M 890.21 3102.86 L 1220.32 3102.86 M 1254.09 2864.92 L 899.76 2864.92 L 894 2864.35 L 888.46 2862.67 L 883.36 2859.95 L 878.88 2856.27 L 875.21 2851.8 L 872.48 2846.69 L 870.8 2841.15 L 870.24 2835.39 L 870.24 2343.27 L 870.8 2337.51 L 872.48 2331.97 L 875.21 2326.86 L 878.88 2322.39 L 883.36 2318.72 L 888.46 2315.99 L 894 2314.31 L 899.76 2313.74 L 1254.09 2313.74 L 1259.85 2314.31 L 1265.39 2315.99 L 1270.5 2318.72 L 1274.97 2322.39 L 1278.65 2326.86 L 1281.37 2331.97 L 1283.05 2337.51 L 1283.62 2343.27 L 1283.62 2835.39 L 1283.05 2841.15 L 1281.37 2846.69 L 1278.65 2851.8 L 1274.97 2856.27 L 1270.5 2859.95 L 1265.39 2862.67 L 1259.85 2864.35 L 1254.09 2864.92 M 1279 2851.13 L 874.86 2851.13 M 870.24 2835.4 L 1283.62 2835.4 M 1283.62 2819.66 L 870.24 2819.66 M 870.24 2803.93 L 1283.62 2803.93 M 1283.62 2788.2 L 870.24 2788.2 M 870.24 2772.46 L 1283.62 2772.46 M 1283.62 2756.73 L 870.24 2756.73 M 870.24 2741 L 1283.62 2741 M 1283.62 2725.27 L 870.24 2725.27 M 870.24 2709.53 L 1283.62 2709.53 M 1283.62 2693.8 L 870.24 2693.8 M 870.24 2678.07 L 1283.62 2678.07 M 1283.62 2662.33 L 870.24 2662.33 M 870.24 2646.6 L 1283.62 2646.6 M 1283.62 2630.87 L 870.24 2630.87 M 870.24 2615.13 L 1283.62 2615.13 M 1283.62 2599.4 L 870.24 2599.4 M 870.24 2583.67 L 1283.62 2583.67 M 1283.62 2567.93 L 870.24 2567.93 M 870.24 2552.2 L 1283.62 2552.2 M 1283.62 2536.47 L 870.24 2536.47 M 870.24 2520.73 L 1283.62 2520.73 M 1283.62 2505 L 870.24 2505 M 870.24 2489.27 L 1283.62 2489.27 M 1283.62 2473.53 L 870.24 2473.53 M 870.24 2457.8 L 1283.62 2457.8 M 1283.62 2442.07 L 870.24 2442.07 M 870.24 2426.34 L 1283.62 2426.34 M 1283.62 2410.6 L 870.24 2410.6 M 870.24 2394.87 L 1283.62 2394.87 M 1283.62 2379.14 L 870.24 2379.14 M 870.24 2363.4 L 1283.62 2363.4 M 1283.62 2347.67 L 870.24 2347.67 M 872.5 2331.94 L 1281.36 2331.94 M 1265.8 2316.2 L 888.06 2316.2 M 1823.58 3858.05 L 1954.3 3858.05 M 1962.27 3873.78 L 1815.6 3873.78 M 1815.12 3889.52 L 1962.76 3889.52 M 1962.76 3905.25 L 1815.12 3905.25 M 1815.12 3920.98 L 1962.76 3920.98 M 1962.76 3936.72 L 1815.12 3936.72 M 1815.12 3952.45 L 1962.76 3952.45 M 1962.76 3968.18 L 1815.12 3968.18 M 1814.71 3983.92 L 1962.76 3983.92 M 1963.59 3999.65 L 1813.76 3999.65 M 1811.17 4015.38 L 1964.98 4015.38 M 1968.11 4031.12 L 1807.7 4031.12 M 1802.8 4046.85 L 1972.5 4046.85 M 1977.88 4062.58 L 1796.21 4062.58 M 1788.34 4078.32 L 1985.64 4078.32 M 1994.91 4094.05 L 1778.83 4094.05 M 1766.59 4109.78 L 2006.05 4109.78 M 2019.84 4125.52 L 1751.81 4125.52 M 1733.48 4141.25 L 2037.61 4141.25 M 2060.49 4156.98 L 1709.71 4156.98 M 1674.25 4172.71 L 2095.7 4172.71 M 3119.18 4172.71 L 3522.87 4172.71 M 3487.65 4156.98 L 3154.4 4156.98 M 3177.27 4141.25 L 3464.78 4141.25 M 3447.01 4125.52 L 3195.04 4125.52 M 3208.84 4109.78 L 3433.21 4109.78 M 3422.08 4094.05 L 3219.97 4094.05 M 3229.24 4078.32 L 3412.8 4078.32 M 3405.04 4062.58 L 3237 4062.58 M 3242.39 4046.85 L 3399.66 4046.85 M 3395.28 4031.12 L 3246.77 4031.12 M 3249.9 4015.38 L 3392.15 4015.38 M 3390.75 3999.65 L 3251.29 3999.65 M 3252.13 3983.92 L 3389.92 3983.92 M 3389.92 3968.18 L 3252.13 3968.18 M 3252.13 3952.45 L 3389.92 3952.45 M 3389.92 3936.72 L 3252.13 3936.72 M 3252.13 3920.98 L 3389.92 3920.98 M 3389.92 3905.25 L 3252.13 3905.25 M 3252.13 3889.52 L 3389.92 3889.52 M 3386.94 3873.78 L 3252.13 3873.78 M 3264.81 3858.05 L 3375.38 3858.05 M 4369.31 3058.49 L 4366.58 3053.39 L 4364.9 3047.85 L 4364.33 3042.09 L 4364.33 2589.33 L 4364.9 2583.57 L 4366.58 2578.03 L 4369.31 2572.93 L 4372.98 2568.45 L 4377.45 2564.78 L 4382.56 2562.05 L 4388.1 2560.37 L 4393.86 2559.8 L 4718.66 2559.8 L 4724.42 2560.37 L 4729.96 2562.05 L 4735.07 2564.78 L 4739.54 2568.45 L 4743.21 2572.93 L 4745.94 2578.03 L 4747.62 2583.57 L 4748.19 2589.33 L 4748.19 3042.09 L 4747.62 3047.85 L 4745.94 3053.39 L 4743.21 3058.49 L 4739.54 3062.97 L 4735.07 3066.64 L 4729.96 3069.37 L 4724.42 3071.05 L 4718.66 3071.61 L 4393.86 3071.61 L 4388.1 3071.05 L 4382.56 3069.37 L 4377.45 3066.64 L 4372.98 3062.97 L 4369.31 3058.49 M 4367.79 3055.66 L 4744.73 3055.66 M 4748.19 3039.93 L 4364.33 3039.93 M 4364.33 3024.19 L 4748.19 3024.19 M 4748.19 3008.46 L 4364.33 3008.46 M 4364.33 2992.73 L 4748.19 2992.73 M 4748.19 2977 L 4364.33 2977 M 4364.33 2961.26 L 4748.19 2961.26 M 4748.19 2945.53 L 4364.33 2945.53 M 4364.33 2929.8 L 4748.19 2929.8 M 4748.19 2914.06 L 4364.33 2914.06 M 4364.33 2898.33 L 4748.19 2898.33 M 4748.19 2882.6 L 4364.33 2882.6 M 4364.33 2866.86 L 4748.19 2866.86 M 4748.19 2851.13 L 4364.33 2851.13 M 4364.33 2835.4 L 4748.19 2835.4 M 4748.19 2819.66 L 4364.33 2819.66 M 4364.33 2803.93 L 4748.19 2803.93 M 4748.19 2788.2 L 4364.33 2788.2 M 4364.33 2772.46 L 4748.19 2772.46 M 4748.19 2756.73 L 4364.33 2756.73 M 4364.33 2741 L 4748.19 2741 M 4748.19 2725.27 L 4364.33 2725.27 M 4364.33 2709.53 L 4748.19 2709.53 M 4748.19 2693.8 L 4364.33 2693.8 M 4364.33 2678.07 L 4748.19 2678.07 M 4748.19 2662.33 L 4364.33 2662.33 M 4364.33 2646.6 L 4748.19 2646.6 M 4748.19 2630.87 L 4364.33 2630.87 M 4364.33 2615.13 L 4748.19 2615.13 M 4748.19 2599.4 L 4364.33 2599.4 M 4364.89 2583.67 L 4747.63 2583.67 M 4738.91 2567.93 L 4373.61 2567.93 M 4393.86 2323.58 L 4388.1 2323.02 L 4382.56 2321.34 L 4377.45 2318.61 L 4372.98 2314.93 L 4369.31 2310.46 L 4366.58 2305.35 L 4364.9 2299.82 L 4364.33 2294.06 L 4364.33 1880.67 L 4364.9 1874.91 L 4366.58 1869.37 L 4369.31 1864.26 L 4372.98 1859.79 L 4377.45 1856.12 L 4382.56 1853.39 L 4388.1 1851.71 L 4393.86 1851.14 L 4718.66 1851.14 L 4724.42 1851.71 L 4729.96 1853.39 L 4735.07 1856.12 L 4739.54 1859.79 L 4743.21 1864.26 L 4745.94 1869.37 L 4747.62 1874.91 L 4748.19 1880.67 L 4748.19 2294.06 L 4747.62 2299.82 L 4745.94 2305.35 L 4743.21 2310.46 L 4739.54 2314.93 L 4735.07 2318.61 L 4729.96 2321.34 L 4724.42 2323.02 L 4718.66 2323.58 L 4393.86 2323.58 M 4374.53 2316.2 L 4737.99 2316.2 M 4747.42 2300.47 L 4365.1 2300.47 M 4364.33 2284.74 L 4748.19 2284.74 M 4748.19 2269 L 4364.33 2269 M 4364.33 2253.27 L 4748.19 2253.27 M 4748.19 2237.54 L 4364.33 2237.54 M 4364.33 2221.8 L 4748.19 2221.8 M 4748.19 2206.07 L 4364.33 2206.07 M 4364.33 2190.34 L 4748.19 2190.34 M 4748.19 2174.61 L 4364.33 2174.61 M 4364.33 2158.87 L 4748.19 2158.87 M 4748.19 2143.14 L 4364.33 2143.14 M 4364.33 2127.41 L 4748.19 2127.41 M 4748.19 2111.67 L 4364.33 2111.67 M 4364.33 2095.94 L 4748.19 2095.94 M 4748.19 2080.21 L 4364.33 2080.21 M 4364.33 2064.47 L 4748.19 2064.47 M 4748.19 2048.74 L 4364.33 2048.74 M 4364.33 2033.01 L 4748.19 2033.01 M 4748.19 2017.27 L 4364.33 2017.27 M 4364.33 2001.54 L 4748.19 2001.54 M 4748.19 1985.81 L 4364.33 1985.81 M 4364.33 1970.07 L 4748.19 1970.07 M 4748.19 1954.34 L 4364.33 1954.34 M 4364.33 1938.61 L 4748.19 1938.61 M 4748.19 1922.87 L 4364.33 1922.87 M 4364.33 1907.14 L 4748.19 1907.14 M 4748.19 1891.41 L 4364.33 1891.41 M 4364.82 1875.68 L 4747.7 1875.68 M 4739.67 1859.94 L 4372.85 1859.94 M 4391.63 3071.39 L 4720.89 3071.39 M 4728.5 3889.52 L 4689.13 3889.52 M 4689.13 3905.25 L 4728.5 3905.25 M 4728.5 3920.98 L 4689.13 3920.98 M 4689.13 3936.72 L 4728.5 3936.72 M 4728.5 3952.45 L 4689.13 3952.45 M 4689.13 3968.18 L 4728.5 3968.18 M 4728.5 3983.92 L 4689.13 3983.92 M 4688.3 3999.65 L 4728.5 3999.65 M 4728.5 4015.38 L 4686.91 4015.38 M 4683.78 4031.12 L 4728.5 4031.12 M 4728.5 4046.85 L 4679.39 4046.85 M 4674.01 4062.58 L 4728.5 4062.58 M 4728.5 4078.32 L 4666.25 4078.32 M 4656.98 4094.05 L 4728.5 4094.05 M 4728.5 4109.78 L 4645.84 4109.78 M 4632.05 4125.52 L 4728.5 4125.52 M 4728.5 4141.25 L 4614.28 4141.25 M 4591.4 4156.98 L 4728.31 4156.98 M 4726.75 4172.71 L 4556.18 4172.71"/><use x="4620.24" y="4380.67" xlink:href="#tool-D12-pad-1057"/><use x="1076.93" y="4380.67" xlink:href="#tool-D12-pad-1057"/><use x="1470.63" y="837.36" xlink:href="#tool-D12-pad-1057"/><use x="4620.24" y="837.36" xlink:href="#tool-D12-pad-1057"/><use x="3448.98" y="2609.02" xlink:href="#tool-D13-pad-1058"/><use x="3370.24" y="3396.42" xlink:href="#tool-D13-pad-1058"/><use x="3183.23" y="3396.42" xlink:href="#tool-D13-pad-1058"/><use x="2592.68" y="3396.42" xlink:href="#tool-D13-pad-1058"/><use x="2435.2" y="3396.42" xlink:href="#tool-D13-pad-1058"/><use x="1844.65" y="3396.42" xlink:href="#tool-D13-pad-1058"/><use x="1972.6" y="2609.02" xlink:href="#tool-D13-pad-1058"/><use x="3960.79" y="3396.42" xlink:href="#tool-D13-pad-1058"/><use x="4118.27" y="3396.42" xlink:href="#tool-D13-pad-1058"/><use x="4708.82" y="3396.42" xlink:href="#tool-D13-pad-1058"/><use x="4620.24" y="2992.87" xlink:href="#tool-D14-pad-1059"/><use x="4423.39" y="2992.87" xlink:href="#tool-D14-pad-1059"/><use x="4423.39" y="2677.91" xlink:href="#tool-D14-pad-1059"/><use x="4620.24" y="2677.91" xlink:href="#tool-D14-pad-1059"/><use x="4620.24" y="2205.47" xlink:href="#tool-D14-pad-1059"/><use x="4423.39" y="2205.47" xlink:href="#tool-D14-pad-1059"/><use x="4423.39" y="1890.51" xlink:href="#tool-D14-pad-1059"/><use x="4620.24" y="1890.51" xlink:href="#tool-D14-pad-1059"/><use x="1903.7" y="3908.23" xlink:href="#tool-D14-pad-1059"/><use x="1608.43" y="3908.23" xlink:href="#tool-D14-pad-1059"/><use x="1313.15" y="3908.23" xlink:href="#tool-D14-pad-1059"/><use x="1195.04" y="3534.21" xlink:href="#tool-D14-pad-1059"/><use x="998.19" y="3534.21" xlink:href="#tool-D14-pad-1059"/><use x="998.19" y="3219.25" xlink:href="#tool-D14-pad-1059"/><use x="1195.04" y="3219.25" xlink:href="#tool-D14-pad-1059"/><use x="1195.04" y="2746.81" xlink:href="#tool-D14-pad-1059"/><use x="998.19" y="2746.81" xlink:href="#tool-D14-pad-1059"/><use x="998.19" y="2431.85" xlink:href="#tool-D14-pad-1059"/><use x="1195.04" y="2431.85" xlink:href="#tool-D14-pad-1059"/><use x="919.45" y="3908.23" xlink:href="#tool-D15-pad-1060"/><path stroke-width="98.49" fill="none" d="M 2149.76 3898.78 L 2149.76 3993.27 M 2366.3 3993.27 L 2366.3 3898.78 M 2582.83 3898.78 L 2582.83 3993.27 M 2848.58 3993.27 L 2848.58 3898.78 M 3065.12 3898.78 L 3065.12 3993.27 M 3281.65 3993.27 L 3281.65 3898.78 M 3586.77 3898.78 L 3586.77 3993.27 M 3803.31 3993.27 L 3803.31 3898.78 M 4019.84 3898.78 L 4019.84 3993.27 M 4285.59 3993.27 L 4285.59 3898.78 M 4502.13 3898.78 L 4502.13 3993.27 M 4718.66 3993.27 L 4718.66 3898.78"/><use x="4435.2" y="1648.39" xlink:href="#tool-D17-pad-1062"/><use x="4289.53" y="1648.39" xlink:href="#tool-D17-pad-1062"/><use x="4006.06" y="1648.39" xlink:href="#tool-D17-pad-1062"/><use x="3860.39" y="1648.39" xlink:href="#tool-D17-pad-1062"/><use x="4006.06" y="1049.96" xlink:href="#tool-D17-pad-1062"/><use x="4289.53" y="1049.96" xlink:href="#tool-D17-pad-1062"/><use x="2998.19" y="1648.39" xlink:href="#tool-D17-pad-1062"/><use x="2852.52" y="1648.39" xlink:href="#tool-D17-pad-1062"/><use x="2569.05" y="1648.39" xlink:href="#tool-D17-pad-1062"/><use x="2423.39" y="1648.39" xlink:href="#tool-D17-pad-1062"/><use x="2569.05" y="1049.96" xlink:href="#tool-D17-pad-1062"/><use x="2852.52" y="1049.96" xlink:href="#tool-D17-pad-1062"/><use x="2198.98" y="1030.28" xlink:href="#tool-D18-pad-1063"/><use x="2198.98" y="955.47" xlink:href="#tool-D18-pad-1063"/><use x="2198.98" y="1134.61" xlink:href="#tool-D18-pad-1063"/><use x="2198.98" y="1209.41" xlink:href="#tool-D18-pad-1063"/><use x="2423.39" y="1862.95" xlink:href="#tool-D18-pad-1063"/><use x="2423.39" y="1937.76" xlink:href="#tool-D18-pad-1063"/><use x="2860.39" y="1937.76" xlink:href="#tool-D18-pad-1063"/><use x="2860.39" y="1862.95" xlink:href="#tool-D18-pad-1063"/><use x="3695.04" y="1199.57" xlink:href="#tool-D18-pad-1063"/><use x="3695.04" y="1124.76" xlink:href="#tool-D18-pad-1063"/><use x="3695.04" y="1030.28" xlink:href="#tool-D18-pad-1063"/><use x="3695.04" y="955.47" xlink:href="#tool-D18-pad-1063"/><use x="3860.39" y="1862.95" xlink:href="#tool-D18-pad-1063"/><use x="3860.39" y="1937.76" xlink:href="#tool-D18-pad-1063"/><use x="4132.05" y="1937.76" xlink:href="#tool-D18-pad-1063"/><use x="4132.05" y="1862.95" xlink:href="#tool-D18-pad-1063"/><use x="3506.06" y="1132.64" xlink:href="#tool-D19-pad-1064"/><use x="3431.26" y="1132.64" xlink:href="#tool-D19-pad-1064"/><use x="3431.26" y="768.46" xlink:href="#tool-D19-pad-1064"/><use x="3506.06" y="768.46" xlink:href="#tool-D19-pad-1064"/><use x="1960.79" y="768.46" xlink:href="#tool-D19-pad-1064"/><use x="1885.98" y="768.46" xlink:href="#tool-D19-pad-1064"/><use x="1885.98" y="1132.64" xlink:href="#tool-D19-pad-1064"/><use x="1960.79" y="1132.64" xlink:href="#tool-D19-pad-1064"/><use x="2161.57" y="3642.48" xlink:href="#tool-D19-pad-1064"/><use x="2236.38" y="3642.48" xlink:href="#tool-D19-pad-1064"/><use x="2860.39" y="3642.48" xlink:href="#tool-D19-pad-1064"/><use x="2935.2" y="3642.48" xlink:href="#tool-D19-pad-1064"/><use x="3598.58" y="3652.32" xlink:href="#tool-D19-pad-1064"/><use x="3673.39" y="3652.32" xlink:href="#tool-D19-pad-1064"/><use x="4297.4" y="3652.32" xlink:href="#tool-D19-pad-1064"/><use x="4372.2" y="3652.32" xlink:href="#tool-D19-pad-1064"/><use x="3551.34" y="1374.96" xlink:href="#tool-D20-pad-1065"/><use x="3551.34" y="1324.96" xlink:href="#tool-D20-pad-1065"/><use x="3551.34" y="1274.96" xlink:href="#tool-D20-pad-1065"/><use x="3551.34" y="1224.96" xlink:href="#tool-D20-pad-1065"/><use x="3346.61" y="1224.96" xlink:href="#tool-D20-pad-1065"/><use x="3346.61" y="1274.96" xlink:href="#tool-D20-pad-1065"/><use x="3346.61" y="1324.96" xlink:href="#tool-D20-pad-1065"/><use x="3346.61" y="1374.96" xlink:href="#tool-D20-pad-1065"/><use x="3346.61" y="1010.79" xlink:href="#tool-D20-pad-1065"/><use x="3346.61" y="960.79" xlink:href="#tool-D20-pad-1065"/><use x="3346.61" y="910.79" xlink:href="#tool-D20-pad-1065"/><use x="3346.61" y="860.79" xlink:href="#tool-D20-pad-1065"/><use x="3551.34" y="860.79" xlink:href="#tool-D20-pad-1065"/><use x="3551.34" y="910.79" xlink:href="#tool-D20-pad-1065"/><use x="3551.34" y="960.79" xlink:href="#tool-D20-pad-1065"/><use x="3551.34" y="1010.79" xlink:href="#tool-D20-pad-1065"/><use x="2006.06" y="1010.79" xlink:href="#tool-D20-pad-1065"/><use x="2006.06" y="960.79" xlink:href="#tool-D20-pad-1065"/><use x="2006.06" y="910.79" xlink:href="#tool-D20-pad-1065"/><use x="2006.06" y="860.79" xlink:href="#tool-D20-pad-1065"/><use x="1801.34" y="860.79" xlink:href="#tool-D20-pad-1065"/><use x="1801.34" y="910.79" xlink:href="#tool-D20-pad-1065"/><use x="1801.34" y="960.79" xlink:href="#tool-D20-pad-1065"/><use x="1801.34" y="1010.79" xlink:href="#tool-D20-pad-1065"/><use x="1801.34" y="1224.96" xlink:href="#tool-D20-pad-1065"/><use x="1801.34" y="1274.96" xlink:href="#tool-D20-pad-1065"/><use x="1801.34" y="1324.96" xlink:href="#tool-D20-pad-1065"/><use x="1801.34" y="1374.96" xlink:href="#tool-D20-pad-1065"/><use x="2006.06" y="1374.96" xlink:href="#tool-D20-pad-1065"/><use x="2006.06" y="1324.96" xlink:href="#tool-D20-pad-1065"/><use x="2006.06" y="1274.96" xlink:href="#tool-D20-pad-1065"/><use x="2006.06" y="1224.96" xlink:href="#tool-D20-pad-1065"/><use x="2161.57" y="3750.75" xlink:href="#tool-D21-pad-1066"/><use x="2295.43" y="3750.75" xlink:href="#tool-D21-pad-1066"/><use x="2358.43" y="3750.75" xlink:href="#tool-D21-pad-1066"/><use x="2492.28" y="3750.75" xlink:href="#tool-D21-pad-1066"/><use x="2860.39" y="3750.75" xlink:href="#tool-D21-pad-1066"/><use x="2994.25" y="3750.75" xlink:href="#tool-D21-pad-1066"/><use x="3057.24" y="3750.75" xlink:href="#tool-D21-pad-1066"/><use x="3191.1" y="3750.75" xlink:href="#tool-D21-pad-1066"/><use x="3598.58" y="3750.75" xlink:href="#tool-D21-pad-1066"/><use x="3732.44" y="3750.75" xlink:href="#tool-D21-pad-1066"/><use x="3795.43" y="3750.75" xlink:href="#tool-D21-pad-1066"/><use x="3929.29" y="3750.75" xlink:href="#tool-D21-pad-1066"/><use x="4297.4" y="3750.75" xlink:href="#tool-D21-pad-1066"/><use x="4431.26" y="3750.75" xlink:href="#tool-D21-pad-1066"/><use x="4494.25" y="3750.75" xlink:href="#tool-D21-pad-1066"/><use x="4628.11" y="3750.75" xlink:href="#tool-D21-pad-1066"/><path stroke-width="64" fill="none" d="M 1303.78 1635.39 L 1243.78 1635.39 M 1243.78 1535.39 L 1303.78 1535.39 M 1303.78 1250.75 L 1243.78 1250.75 M 1243.78 1150.75 L 1303.78 1150.75 M 1303.78 1050.75 L 1243.78 1050.75 M 1243.78 950.75 L 1303.78 950.75"/><use x="1549.37" y="1535.39" xlink:href="#tool-D23-pad-1068"/><use x="1549.37" y="1635.39" xlink:href="#tool-D24-pad-1069"/><use x="1116.3" y="758.62" xlink:href="#tool-D25-pad-1070"/><use x="2149.76" y="778.31" xlink:href="#tool-D25-pad-1070"/><use x="3685.2" y="768.46" xlink:href="#tool-D25-pad-1070"/><use x="3990.31" y="916.1" xlink:href="#tool-D26-pad-1071"/><use x="4305.28" y="916.1" xlink:href="#tool-D26-pad-1071"/><use x="2848.58" y="916.1" xlink:href="#tool-D26-pad-1071"/><use x="2572.99" y="916.1" xlink:href="#tool-D26-pad-1071"/><use x="2021.81" y="811.57" xlink:href="#tool-D27-pad-1072"/><use x="1815.12" y="811.57" xlink:href="#tool-D27-pad-1072"/><use x="1815.12" y="1175.75" xlink:href="#tool-D27-pad-1072"/><use x="2021.81" y="1175.75" xlink:href="#tool-D27-pad-1072"/><use x="1776.54" y="1635.39" xlink:href="#tool-D27-pad-1072"/><use x="1421.42" y="1250.75" xlink:href="#tool-D27-pad-1072"/><use x="3360.39" y="1175.75" xlink:href="#tool-D27-pad-1072"/><use x="3567.09" y="1175.75" xlink:href="#tool-D27-pad-1072"/><use x="3567.09" y="811.57" xlink:href="#tool-D27-pad-1072"/><use x="3360.39" y="811.57" xlink:href="#tool-D27-pad-1072"/></g></svg>