<svg xmlns="http://www.w3.org/2000/svg" version="1.1" xmlns:xlink="http://www.w3.org/1999/xlink" width="3.9370100000000003in" height="3.93701in" viewBox="840.71 601.14 3937.01 3937.0099999999998" stroke-linecap="round" stroke-linejoin="round" stroke-width="0" stroke="#000"><g fill="currentColor" stroke="currentColor" transform="translate(0,5139.29) scale(1,-1)"><path stroke-width="0" fill="none" d="M 840.71 601.14 L 840.71 4538.15 L 4777.72 4538.15 L 4777.72 601.14 L 840.71 601.14 M 1401.73 837.36 L 1401.75 839.05 L 1401.81 840.74 L 1401.92 842.43 L 1402.06 844.11 L 1402.25 845.79 L 1402.48 847.47 L 1402.74 849.14 L 1403.05 850.8 L 1403.4 852.46 L 1403.79 854.1 L 1404.23 855.74 L 1404.7 857.36 L 1405.21 858.97 L 1405.76 860.57 L 1406.35 862.16 L 1406.97 863.73 L 1407.64 865.28 L 1408.35 866.82 L 1409.09 868.34 L 1409.87 869.84 L 1410.68 871.32 L 1411.53 872.78 L 1412.42 874.22 L 1413.34 875.64 L 1414.3 877.03 L 1415.29 878.4 L 1416.31 879.75 L 1417.37 881.07 L 1418.46 882.36 L 1419.58 883.63 L 1420.73 884.87 L 1421.91 886.08 L 1423.12 887.26 L 1424.36 888.41 L 1425.63 889.53 L 1426.92 890.62 L 1428.24 891.68 L 1429.59 892.7 L 1430.96 893.69 L 1432.35 894.65 L 1433.77 895.57 L 1435.21 896.46 L 1436.67 897.31 L 1438.15 898.12 L 1439.65 898.9 L 1441.17 899.64 L 1442.71 900.35 L 1444.26 901.02 L 1445.83 901.64 L 1447.42 902.23 L 1449.02 902.78 L 1450.63 903.29 L 1452.25 903.76 L 1453.89 904.2 L 1455.53 904.59 L 1457.19 904.94 L 1458.85 905.25 L 1460.52 905.51 L 1462.2 905.74 L 1463.88 905.93 L 1465.56 906.07 L 1467.25 906.18 L 1468.94 906.24 L 1470.63 906.26 L 1472.32 906.24 L 1474.01 906.18 L 1475.7 906.07 L 1477.38 905.93 L 1479.06 905.74 L 1480.74 905.51 L 1482.41 905.25 L 1484.07 904.94 L 1485.73 904.59 L 1487.37 904.2 L 1489.01 903.76 L 1490.63 903.29 L 1492.24 902.78 L 1493.84 902.23 L 1495.43 901.64 L 1497 901.02 L 1498.55 900.35 L 1500.09 899.64 L 1501.61 898.9 L 1503.11 898.12 L 1504.59 897.31 L 1506.05 896.46 L 1507.49 895.57 L 1508.91 894.65 L 1510.3 893.69 L 1511.67 892.7 L 1513.02 891.68 L 1514.34 890.62 L 1515.63 889.53 L 1516.9 888.41 L 1518.14 887.26 L 1519.35 886.08 L 1520.53 884.87 L 1521.68 883.63 L 1522.8 882.36 L 1523.89 881.07 L 1524.95 879.75 L 1525.97 878.4 L 1526.96 877.03 L 1527.92 875.64 L 1528.84 874.22 L 1529.73 872.78 L 1530.58 871.32 L 1531.39 869.84 L 1532.17 868.34 L 1532.91 866.82 L 1533.62 865.28 L 1534.29 863.73 L 1534.91 862.16 L 1535.5 860.57 L 1536.05 858.97 L 1536.56 857.36 L 1537.03 855.74 L 1537.47 854.1 L 1537.86 852.46 L 1538.21 850.8 L 1538.52 849.14 L 1538.78 847.47 L 1539.01 845.79 L 1539.2 844.11 L 1539.34 842.43 L 1539.45 840.74 L 1539.51 839.05 L 1539.53 837.36 L 1539.51 835.67 L 1539.45 833.98 L 1539.34 832.29 L 1539.2 830.61 L 1539.01 828.93 L 1538.78 827.25 L 1538.52 825.58 L 1538.21 823.92 L 1537.86 822.26 L 1537.47 820.62 L 1537.03 818.98 L 1536.56 817.36 L 1536.05 815.75 L 1535.5 814.15 L 1534.91 812.56 L 1534.29 810.99 L 1533.62 809.44 L 1532.91 807.9 L 1532.17 806.38 L 1531.39 804.88 L 1530.58 803.4 L 1529.73 801.94 L 1528.84 800.5 L 1527.92 799.08 L 1526.96 797.69 L 1525.97 796.32 L 1524.95 794.97 L 1523.89 793.65 L 1522.8 792.36 L 1521.68 791.09 L 1520.53 789.85 L 1519.35 788.64 L 1518.14 787.46 L 1516.9 786.31 L 1515.63 785.19 L 1514.34 784.1 L 1513.02 783.04 L 1511.67 782.02 L 1510.3 781.03 L 1508.91 780.07 L 1507.49 779.15 L 1506.05 778.26 L 1504.59 777.41 L 1503.11 776.6 L 1501.61 775.82 L 1500.09 775.08 L 1498.55 774.37 L 1497 773.7 L 1495.43 773.08 L 1493.84 772.49 L 1492.24 771.94 L 1490.63 771.43 L 1489.01 770.96 L 1487.37 770.52 L 1485.73 770.13 L 1484.07 769.78 L 1482.41 769.47 L 1480.74 769.21 L 1479.06 768.98 L 1477.38 768.79 L 1475.7 768.65 L 1474.01 768.54 L 1472.32 768.48 L 1470.63 768.46 L 1468.94 768.48 L 1467.25 768.54 L 1465.56 768.65 L 1463.88 768.79 L 1462.2 768.98 L 1460.52 769.21 L 1458.85 769.47 L 1457.19 769.78 L 1455.53 770.13 L 1453.89 770.52 L 1452.25 770.96 L 1450.63 771.43 L 1449.02 771.94 L 1447.42 772.49 L 1445.83 773.08 L 1444.26 773.7 L 1442.71 774.37 L 1441.17 775.08 L 1439.65 775.82 L 1438.15 776.6 L 1436.67 777.41 L 1435.21 778.26 L 1433.77 779.15 L 1432.35 780.07 L 1430.96 781.03 L 1429.59 782.02 L 1428.24 783.04 L 1426.92 784.1 L 1425.63 785.19 L 1424.36 786.31 L 1423.12 787.46 L 1421.91 788.64 L 1420.73 789.85 L 1419.58 791.09 L 1418.46 792.36 L 1417.37 793.65 L 1416.31 794.97 L 1415.29 796.32 L 1414.3 797.69 L 1413.34 799.08 L 1412.42 800.5 L 1411.53 801.94 L 1410.68 803.4 L 1409.87 804.88 L 1409.09 806.38 L 1408.35 807.9 L 1407.64 809.44 L 1406.97 810.99 L 1406.35 812.56 L 1405.76 814.15 L 1405.21 815.75 L 1404.7 817.36 L 1404.23 818.98 L 1403.79 820.62 L 1403.4 822.26 L 1403.05 823.92 L 1402.74 825.58 L 1402.48 827.25 L 1402.25 828.93 L 1402.06 830.61 L 1401.92 832.29 L 1401.81 833.98 L 1401.75 835.67 L 1401.73 837.36 M 4551.34 837.36 L 4551.36 839.05 L 4551.42 840.74 L 4551.53 842.43 L 4551.67 844.11 L 4551.86 845.79 L 4552.09 847.47 L 4552.35 849.14 L 4552.66 850.8 L 4553.01 852.46 L 4553.4 854.1 L 4553.84 855.74 L 4554.31 857.36 L 4554.82 858.97 L 4555.37 860.57 L 4555.96 862.16 L 4556.58 863.73 L 4557.25 865.28 L 4557.96 866.82 L 4558.7 868.34 L 4559.48 869.84 L 4560.29 871.32 L 4561.14 872.78 L 4562.03 874.22 L 4562.95 875.64 L 4563.91 877.03 L 4564.9 878.4 L 4565.92 879.75 L 4566.98 881.07 L 4568.07 882.36 L 4569.19 883.63 L 4570.34 884.87 L 4571.52 886.08 L 4572.73 887.26 L 4573.97 888.41 L 4575.24 889.53 L 4576.53 890.62 L 4577.85 891.68 L 4579.2 892.7 L 4580.57 893.69 L 4581.96 894.65 L 4583.38 895.57 L 4584.82 896.46 L 4586.28 897.31 L 4587.76 898.12 L 4589.26 898.9 L 4590.78 899.64 L 4592.32 900.35 L 4593.87 901.02 L 4595.44 901.64 L 4597.03 902.23 L 4598.63 902.78 L 4600.24 903.29 L 4601.86 903.76 L 4603.5 904.2 L 4605.14 904.59 L 4606.8 904.94 L 4608.46 905.25 L 4610.13 905.51 L 4611.81 905.74 L 4613.49 905.93 L 4615.17 906.07 L 4616.86 906.18 L 4618.55 906.24 L 4620.24 906.26 L 4621.93 906.24 L 4623.62 906.18 L 4625.31 906.07 L 4626.99 905.93 L 4628.67 905.74 L 4630.35 905.51 L 4632.02 905.25 L 4633.68 904.94 L 4635.34 904.59 L 4636.98 904.2 L 4638.62 903.76 L 4640.24 903.29 L 4641.85 902.78 L 4643.45 902.23 L 4645.04 901.64 L 4646.61 901.02 L 4648.16 900.35 L 4649.7 899.64 L 4651.22 898.9 L 4652.72 898.12 L 4654.2 897.31 L 4655.66 896.46 L 4657.1 895.57 L 4658.52 894.65 L 4659.91 893.69 L 4661.28 892.7 L 4662.63 891.68 L 4663.95 890.62 L 4665.24 889.53 L 4666.51 888.41 L 4667.75 887.26 L 4668.96 886.08 L 4670.14 884.87 L 4671.29 883.63 L 4672.41 882.36 L 4673.5 881.07 L 4674.56 879.75 L 4675.58 878.4 L 4676.57 877.03 L 4677.53 875.64 L 4678.45 874.22 L 4679.34 872.78 L 4680.19 871.32 L 4681 869.84 L 4681.78 868.34 L 4682.52 866.82 L 4683.23 865.28 L 4683.9 863.73 L 4684.52 862.16 L 4685.11 860.57 L 4685.66 858.97 L 4686.17 857.36 L 4686.64 855.74 L 4687.08 854.1 L 4687.47 852.46 L 4687.82 850.8 L 4688.13 849.14 L 4688.39 847.47 L 4688.62 845.79 L 4688.81 844.11 L 4688.95 842.43 L 4689.06 840.74 L 4689.12 839.05 L 4689.14 837.36 L 4689.12 835.67 L 4689.06 833.98 L 4688.95 832.29 L 4688.81 830.61 L 4688.62 828.93 L 4688.39 827.25 L 4688.13 825.58 L 4687.82 823.92 L 4687.47 822.26 L 4687.08 820.62 L 4686.64 818.98 L 4686.17 817.36 L 4685.66 815.75 L 4685.11 814.15 L 4684.52 812.56 L 4683.9 810.99 L 4683.23 809.44 L 4682.52 807.9 L 4681.78 806.38 L 4681 804.88 L 4680.19 803.4 L 4679.34 801.94 L 4678.45 800.5 L 4677.53 799.08 L 4676.57 797.69 L 4675.58 796.32 L 4674.56 794.97 L 4673.5 793.65 L 4672.41 792.36 L 4671.29 791.09 L 4670.14 789.85 L 4668.96 788.64 L 4667.75 787.46 L 4666.51 786.31 L 4665.24 785.19 L 4663.95 784.1 L 4662.63 783.04 L 4661.28 782.02 L 4659.91 781.03 L 4658.52 780.07 L 4657.1 779.15 L 4655.66 778.26 L 4654.2 777.41 L 4652.72 776.6 L 4651.22 775.82 L 4649.7 775.08 L 4648.16 774.37 L 4646.61 773.7 L 4645.04 773.08 L 4643.45 772.49 L 4641.85 771.94 L 4640.24 771.43 L 4638.62 770.96 L 4636.98 770.52 L 4635.34 770.13 L 4633.68 769.78 L 4632.02 769.47 L 4630.35 769.21 L 4628.67 768.98 L 4626.99 768.79 L 4625.31 768.65 L 4623.62 768.54 L 4621.93 768.48 L 4620.24 768.46 L 4618.55 768.48 L 4616.86 768.54 L 4615.17 768.65 L 4613.49 768.79 L 4611.81 768.98 L 4610.13 769.21 L 4608.46 769.47 L 4606.8 769.78 L 4605.14 770.13 L 4603.5 770.52 L 4601.86 770.96 L 4600.24 771.43 L 4598.63 771.94 L 4597.03 772.49 L 4595.44 773.08 L 4593.87 773.7 L 4592.32 774.37 L 4590.78 775.08 L 4589.26 775.82 L 4587.76 776.6 L 4586.28 777.41 L 4584.82 778.26 L 4583.38 779.15 L 4581.96 780.07 L 4580.57 781.03 L 4579.2 782.02 L 4577.85 783.04 L 4576.53 784.1 L 4575.24 785.19 L 4573.97 786.31 L 4572.73 787.46 L 4571.52 788.64 L 4570.34 789.85 L 4569.19 791.09 L 4568.07 792.36 L 4566.98 793.65 L 4565.92 794.97 L 4564.9 796.32 L 4563.91 797.69 L 4562.95 799.08 L 4562.03 800.5 L 4561.14 801.94 L 4560.29 803.4 L 4559.48 804.88 L 4558.7 806.38 L 4557.96 807.9 L 4557.25 809.44 L 4556.58 810.99 L 4555.96 812.56 L 4555.37 814.15 L 4554.82 815.75 L 4554.31 817.36 L 4553.84 818.98 L 4553.4 820.62 L 4553.01 822.26 L 4552.66 823.92 L 4552.35 825.58 L 4552.09 827.25 L 4551.86 828.93 L 4551.67 830.61 L 4551.53 832.29 L 4551.42 833.98 L 4551.36 835.67 L 4551.34 837.36 M 4551.34 4380.67 L 4551.36 4382.36 L 4551.42 4384.05 L 4551.53 4385.74 L 4551.67 4387.42 L 4551.86 4389.1 L 4552.09 4390.78 L 4552.35 4392.45 L 4552.66 4394.11 L 4553.01 4395.77 L 4553.4 4397.41 L 4553.84 4399.05 L 4554.31 4400.67 L 4554.82 4402.28 L 4555.37 4403.88 L 4555.96 4405.47 L 4556.58 4407.04 L 4557.25 4408.59 L 4557.96 4410.13 L 4558.7 4411.65 L 4559.48 4413.15 L 4560.29 4414.63 L 4561.14 4416.09 L 4562.03 4417.53 L 4562.95 4418.95 L 4563.91 4420.34 L 4564.9 4421.71 L 4565.92 4423.06 L 4566.98 4424.38 L 4568.07 4425.67 L 4569.19 4426.94 L 4570.34 4428.18 L 4571.52 4429.39 L 4572.73 4430.57 L 4573.97 4431.72 L 4575.24 4432.84 L 4576.53 4433.93 L 4577.85 4434.99 L 4579.2 4436.01 L 4580.57 4437 L 4581.96 4437.96 L 4583.38 4438.88 L 4584.82 4439.77 L 4586.28 4440.62 L 4587.76 4441.43 L 4589.26 4442.21 L 4590.78 4442.95 L 4592.32 4443.66 L 4593.87 4444.33 L 4595.44 4444.95 L 4597.03 4445.54 L 4598.63 4446.09 L 4600.24 4446.6 L 4601.86 4447.07 L 4603.5 4447.51 L 4605.14 4447.9 L 4606.8 4448.25 L 4608.46 4448.56 L 4610.13 4448.82 L 4611.81 4449.05 L 4613.49 4449.24 L 4615.17 4449.38 L 4616.86 4449.49 L 4618.55 4449.55 L 4620.24 4449.57 L 4621.93 4449.55 L 4623.62 4449.49 L 4625.31 4449.38 L 4626.99 4449.24 L 4628.67 4449.05 L 4630.35 4448.82 L 4632.02 4448.56 L 4633.68 4448.25 L 4635.34 4447.9 L 4636.98 4447.51 L 4638.62 4447.07 L 4640.24 4446.6 L 4641.85 4446.09 L 4643.45 4445.54 L 4645.04 4444.95 L 4646.61 4444.33 L 4648.16 4443.66 L 4649.7 4442.95 L 4651.22 4442.21 L 4652.72 4441.43 L 4654.2 4440.62 L 4655.66 4439.77 L 4657.1 4438.88 L 4658.52 4437.96 L 4659.91 4437 L 4661.28 4436.01 L 4662.63 4434.99 L 4663.95 4433.93 L 4665.24 4432.84 L 4666.51 4431.72 L 4667.75 4430.57 L 4668.96 4429.39 L 4670.14 4428.18 L 4671.29 4426.94 L 4672.41 4425.67 L 4673.5 4424.38 L 4674.56 4423.06 L 4675.58 4421.71 L 4676.57 4420.34 L 4677.53 4418.95 L 4678.45 4417.53 L 4679.34 4416.09 L 4680.19 4414.63 L 4681 4413.15 L 4681.78 4411.65 L 4682.52 4410.13 L 4683.23 4408.59 L 4683.9 4407.04 L 4684.52 4405.47 L 4685.11 4403.88 L 4685.66 4402.28 L 4686.17 4400.67 L 4686.64 4399.05 L 4687.08 4397.41 L 4687.47 4395.77 L 4687.82 4394.11 L 4688.13 4392.45 L 4688.39 4390.78 L 4688.62 4389.1 L 4688.81 4387.42 L 4688.95 4385.74 L 4689.06 4384.05 L 4689.12 4382.36 L 4689.14 4380.67 L 4689.12 4378.98 L 4689.06 4377.29 L 4688.95 4375.6 L 4688.81 4373.92 L 4688.62 4372.24 L 4688.39 4370.56 L 4688.13 4368.89 L 4687.82 4367.23 L 4687.47 4365.57 L 4687.08 4363.93 L 4686.64 4362.29 L 4686.17 4360.67 L 4685.66 4359.06 L 4685.11 4357.46 L 4684.52 4355.87 L 4683.9 4354.3 L 4683.23 4352.75 L 4682.52 4351.21 L 4681.78 4349.69 L 4681 4348.19 L 4680.19 4346.71 L 4679.34 4345.25 L 4678.45 4343.81 L 4677.53 4342.39 L 4676.57 4341 L 4675.58 4339.63 L 4674.56 4338.28 L 4673.5 4336.96 L 4672.41 4335.67 L 4671.29 4334.4 L 4670.14 4333.16 L 4668.96 4331.95 L 4667.75 4330.77 L 4666.51 4329.62 L 4665.24 4328.5 L 4663.95 4327.41 L 4662.63 4326.35 L 4661.28 4325.33 L 4659.91 4324.34 L 4658.52 4323.38 L 4657.1 4322.46 L 4655.66 4321.57 L 4654.2 4320.72 L 4652.72 4319.91 L 4651.22 4319.13 L 4649.7 4318.39 L 4648.16 4317.68 L 4646.61 4317.01 L 4645.04 4316.39 L 4643.45 4315.8 L 4641.85 4315.25 L 4640.24 4314.74 L 4638.62 4314.27 L 4636.98 4313.83 L 4635.34 4313.44 L 4633.68 4313.09 L 4632.02 4312.78 L 4630.35 4312.52 L 4628.67 4312.29 L 4626.99 4312.1 L 4625.31 4311.96 L 4623.62 4311.85 L 4621.93 4311.79 L 4620.24 4311.77 L 4618.55 4311.79 L 4616.86 4311.85 L 4615.17 4311.96 L 4613.49 4312.1 L 4611.81 4312.29 L 4610.13 4312.52 L 4608.46 4312.78 L 4606.8 4313.09 L 4605.14 4313.44 L 4603.5 4313.83 L 4601.86 4314.27 L 4600.24 4314.74 L 4598.63 4315.25 L 4597.03 4315.8 L 4595.44 4316.39 L 4593.87 4317.01 L 4592.32 4317.68 L 4590.78 4318.39 L 4589.26 4319.13 L 4587.76 4319.91 L 4586.28 4320.72 L 4584.82 4321.57 L 4583.38 4322.46 L 4581.96 4323.38 L 4580.57 4324.34 L 4579.2 4325.33 L 4577.85 4326.35 L 4576.53 4327.41 L 4575.24 4328.5 L 4573.97 4329.62 L 4572.73 4330.77 L 4571.52 4331.95 L 4570.34 4333.16 L 4569.19 4334.4 L 4568.07 4335.67 L 4566.98 4336.96 L 4565.92 4338.28 L 4564.9 4339.63 L 4563.91 4341 L 4562.95 4342.39 L 4562.03 4343.81 L 4561.14 4345.25 L 4560.29 4346.71 L 4559.48 4348.19 L 4558.7 4349.69 L 4557.96 4351.21 L 4557.25 4352.75 L 4556.58 4354.3 L 4555.96 4355.87 L 4555.37 4357.46 L 4554.82 4359.06 L 4554.31 4360.67 L 4553.84 4362.29 L 4553.4 4363.93 L 4553.01 4365.57 L 4552.66 4367.23 L 4552.35 4368.89 L 4552.09 4370.56 L 4551.86 4372.24 L 4551.67 4373.92 L 4551.53 4375.6 L 4551.42 4377.29 L 4551.36 4378.98 L 4551.34 4380.67 M 1008.03 4380.67 L 1008.05 4382.36 L 1008.11 4384.05 L 1008.22 4385.74 L 1008.36 4387.42 L 1008.55 4389.1 L 1008.78 4390.78 L 1009.04 4392.45 L 1009.35 4394.11 L 1009.7 4395.77 L 1010.09 4397.41 L 1010.53 4399.05 L 1011 4400.67 L 1011.51 4402.28 L 1012.06 4403.88 L 1012.65 4405.47 L 1013.27 4407.04 L 1013.94 4408.59 L 1014.65 4410.13 L 1015.39 4411.65 L 1016.17 4413.15 L 1016.98 4414.63 L 1017.83 4416.09 L 1018.72 4417.53 L 1019.64 4418.95 L 1020.6 4420.34 L 1021.59 4421.71 L 1022.61 4423.06 L 1023.67 4424.38 L 1024.76 4425.67 L 1025.88 4426.94 L 1027.03 4428.18 L 1028.21 4429.39 L 1029.42 4430.57 L 1030.66 4431.72 L 1031.93 4432.84 L 1033.22 4433.93 L 1034.54 4434.99 L 1035.89 4436.01 L 1037.26 4437 L 1038.65 4437.96 L 1040.07 4438.88 L 1041.51 4439.77 L 1042.97 4440.62 L 1044.45 4441.43 L 1045.95 4442.21 L 1047.47 4442.95 L 1049.01 4443.66 L 1050.56 4444.33 L 1052.13 4444.95 L 1053.72 4445.54 L 1055.32 4446.09 L 1056.93 4446.6 L 1058.55 4447.07 L 1060.19 4447.51 L 1061.83 4447.9 L 1063.49 4448.25 L 1065.15 4448.56 L 1066.82 4448.82 L 1068.5 4449.05 L 1070.18 4449.24 L 1071.86 4449.38 L 1073.55 4449.49 L 1075.24 4449.55 L 1076.93 4449.57 L 1078.62 4449.55 L 1080.31 4449.49 L 1082 4449.38 L 1083.68 4449.24 L 1085.36 4449.05 L 1087.04 4448.82 L 1088.71 4448.56 L 1090.37 4448.25 L 1092.03 4447.9 L 1093.67 4447.51 L 1095.31 4447.07 L 1096.93 4446.6 L 1098.54 4446.09 L 1100.14 4445.54 L 1101.73 4444.95 L 1103.3 4444.33 L 1104.85 4443.66 L 1106.39 4442.95 L 1107.91 4442.21 L 1109.41 4441.43 L 1110.89 4440.62 L 1112.35 4439.77 L 1113.79 4438.88 L 1115.21 4437.96 L 1116.6 4437 L 1117.97 4436.01 L 1119.32 4434.99 L 1120.64 4433.93 L 1121.93 4432.84 L 1123.2 4431.72 L 1124.44 4430.57 L 1125.65 4429.39 L 1126.83 4428.18 L 1127.98 4426.94 L 1129.1 4425.67 L 1130.19 4424.38 L 1131.25 4423.06 L 1132.27 4421.71 L 1133.26 4420.34 L 1134.22 4418.95 L 1135.14 4417.53 L 1136.03 4416.09 L 1136.88 4414.63 L 1137.69 4413.15 L 1138.47 4411.65 L 1139.21 4410.13 L 1139.92 4408.59 L 1140.59 4407.04 L 1141.21 4405.47 L 1141.8 4403.88 L 1142.35 4402.28 L 1142.86 4400.67 L 1143.33 4399.05 L 1143.77 4397.41 L 1144.16 4395.77 L 1144.51 4394.11 L 1144.82 4392.45 L 1145.08 4390.78 L 1145.31 4389.1 L 1145.5 4387.42 L 1145.64 4385.74 L 1145.75 4384.05 L 1145.81 4382.36 L 1145.83 4380.67 L 1145.81 4378.98 L 1145.75 4377.29 L 1145.64 4375.6 L 1145.5 4373.92 L 1145.31 4372.24 L 1145.08 4370.56 L 1144.82 4368.89 L 1144.51 4367.23 L 1144.16 4365.57 L 1143.77 4363.93 L 1143.33 4362.29 L 1142.86 4360.67 L 1142.35 4359.06 L 1141.8 4357.46 L 1141.21 4355.87 L 1140.59 4354.3 L 1139.92 4352.75 L 1139.21 4351.21 L 1138.47 4349.69 L 1137.69 4348.19 L 1136.88 4346.71 L 1136.03 4345.25 L 1135.14 4343.81 L 1134.22 4342.39 L 1133.26 4341 L 1132.27 4339.63 L 1131.25 4338.28 L 1130.19 4336.96 L 1129.1 4335.67 L 1127.98 4334.4 L 1126.83 4333.16 L 1125.65 4331.95 L 1124.44 4330.77 L 1123.2 4329.62 L 1121.93 4328.5 L 1120.64 4327.41 L 1119.32 4326.35 L 1117.97 4325.33 L 1116.6 4324.34 L 1115.21 4323.38 L 1113.79 4322.46 L 1112.35 4321.57 L 1110.89 4320.72 L 1109.41 4319.91 L 1107.91 4319.13 L 1106.39 4318.39 L 1104.85 4317.68 L 1103.3 4317.01 L 1101.73 4316.39 L 1100.14 4315.8 L 1098.54 4315.25 L 1096.93 4314.74 L 1095.31 4314.27 L 1093.67 4313.83 L 1092.03 4313.44 L 1090.37 4313.09 L 1088.71 4312.78 L 1087.04 4312.52 L 1085.36 4312.29 L 1083.68 4312.1 L 1082 4311.96 L 1080.31 4311.85 L 1078.62 4311.79 L 1076.93 4311.77 L 1075.24 4311.79 L 1073.55 4311.85 L 1071.86 4311.96 L 1070.18 4312.1 L 1068.5 4312.29 L 1066.82 4312.52 L 1065.15 4312.78 L 1063.49 4313.09 L 1061.83 4313.44 L 1060.19 4313.83 L 1058.55 4314.27 L 1056.93 4314.74 L 1055.32 4315.25 L 1053.72 4315.8 L 1052.13 4316.39 L 1050.56 4317.01 L 1049.01 4317.68 L 1047.47 4318.39 L 1045.95 4319.13 L 1044.45 4319.91 L 1042.97 4320.72 L 1041.51 4321.57 L 1040.07 4322.46 L 1038.65 4323.38 L 1037.26 4324.34 L 1035.89 4325.33 L 1034.54 4326.35 L 1033.22 4327.41 L 1031.93 4328.5 L 1030.66 4329.62 L 1029.42 4330.77 L 1028.21 4331.95 L 1027.03 4333.16 L 1025.88 4334.4 L 1024.76 4335.67 L 1023.67 4336.96 L 1022.61 4338.28 L 1021.59 4339.63 L 1020.6 4341 L 1019.64 4342.39 L 1018.72 4343.81 L 1017.83 4345.25 L 1016.98 4346.71 L 1016.17 4348.19 L 1015.39 4349.69 L 1014.65 4351.21 L 1013.94 4352.75 L 1013.27 4354.3 L 1012.65 4355.87 L 1012.06 4357.46 L 1011.51 4359.06 L 1011 4360.67 L 1010.53 4362.29 L 1010.09 4363.93 L 1009.7 4365.57 L 1009.35 4367.23 L 1009.04 4368.89 L 1008.78 4370.56 L 1008.55 4372.24 L 1008.36 4373.92 L 1008.22 4375.6 L 1008.11 4377.29 L 1008.05 4378.98 L 1008.03 4380.67"/><path stroke-width="18" fill="none" d="M 1178.3 2157.19 L 1178.3 2090.39 L 1211.7 2056.99 L 1245.09 2090.39 L 1245.09 2157.19 M 1287.05 2157.19 L 1287.05 2056.99 M 1287.05 2107.09 L 1353.85 2107.09 M 1353.85 2056.99 L 1353.85 2157.19 M 1334.16 1980.02 L 1267.37 1980.02 M 1300.77 1980.02 L 1300.77 1879.83 M 1225.41 1879.83 L 1225.41 1980.02 L 1175.31 1980.02 L 1158.61 1963.32 L 1158.61 1929.92 L 1175.31 1913.23 L 1225.41 1913.23 M 1192.01 1913.23 L 1158.61 1879.83 M 1116.66 1879.83 L 1049.86 1879.83 M 1116.66 1879.83 L 1116.66 1980.02 M 1376.12 1963.32 L 1392.82 1980.02 L 1426.22 1980.02 L 1442.92 1963.32 L 1442.92 1896.53 L 1426.22 1879.83 L 1392.82 1879.83 L 1376.12 1896.53 M 3254.58 1505.81 L 3321.38 1505.81 L 3321.38 1606.01 M 3363.34 1589.31 L 3380.04 1606.01 L 3430.13 1606.01 L 3430.13 1505.81 M 3430.13 1539.21 L 3380.04 1539.21 L 3363.34 1555.91 L 3363.34 1589.31 M 3396.74 1539.21 L 3363.34 1505.81 M 3472.09 1606.01 L 3538.89 1606.01 M 3505.49 1606.01 L 3505.49 1505.81 M 3580.85 1522.51 L 3597.54 1505.81 L 3630.94 1505.81 L 3647.64 1522.51 L 3647.64 1589.31 L 3630.94 1606.01 L 3597.54 1606.01 L 3580.85 1589.31 M 3558.57 1682.98 L 3558.57 1783.17 M 3558.57 1733.07 L 3491.78 1733.07 M 3449.82 1716.38 L 3416.42 1682.98 L 3383.02 1716.38 L 3383.02 1783.17 M 3449.82 1783.17 L 3449.82 1716.38 M 3491.78 1682.98 L 3491.78 1783.17"/><path stroke-width="12" fill="none" d="M 4472.23 2368.95 L 4503.63 2368.95 M 4487.93 2368.95 L 4487.93 2416.05 L 4503.63 2400.35 M 4503.63 2467.38 L 4472.23 2498.77 L 4472.23 2506.62 L 4480.08 2514.47 L 4495.78 2514.47 L 4503.63 2506.62 M 4503.63 2467.38 L 4472.23 2467.38 M 4584.76 2462.7 L 4607.03 2462.7 M 4595.89 2473.83 L 4595.89 2429.3 L 4584.76 2418.17 M 4635 2418.17 L 4635 2462.7 M 4679.53 2462.7 L 4679.53 2429.3 L 4668.4 2418.17 L 4635 2418.17 M 4707.5 2429.3 L 4707.5 2451.56 L 4718.63 2462.7 L 4740.9 2462.7 L 4752.03 2451.56 L 4752.03 2429.3 L 4740.9 2418.17 L 4718.63 2418.17 L 4707.5 2429.3 M 1117.8 2900.45 L 1086.41 2931.85 L 1086.41 2939.69 L 1094.25 2947.54 L 1109.95 2947.54 L 1117.8 2939.69 M 1117.8 2900.45 L 1086.41 2900.45 M 999.4 2960.79 L 988.27 2971.93 L 954.87 2971.93 M 954.87 2983.06 L 954.87 2949.66 L 988.27 2949.66 L 999.4 2960.79 M 988.27 2994.19 L 966 2994.19 L 954.87 2983.06 M 926.9 2983.06 L 926.9 2960.79 L 915.76 2949.66 L 882.37 2949.66 M 882.37 2994.19 L 915.76 2994.19 L 926.9 2983.06 M 1086.41 3018.56 L 1117.8 3018.56 M 1102.1 3018.56 L 1102.1 3065.65 L 1117.8 3049.96"/><path stroke-width="15.75" fill="none" d="M 1086.77 2195.63 L 1106.46 2126.73 L 1076.93 2107.05 L 1106.46 2038.15 L 1096.61 2097.2 L 1126.14 2116.89 L 1086.77 2195.63 M 1088.28 2190.34 L 1089.42 2190.34 M 1092.78 2174.61 L 1097.28 2174.61 M 1097.27 2158.87 L 1105.15 2158.87 M 1101.77 2143.14 L 1113.02 2143.14 M 1106.26 2127.41 L 1120.88 2127.41 M 1118.32 2111.67 L 1083.87 2111.67 M 1081.69 2095.94 L 1096.82 2095.94 M 1099.45 2080.21 L 1088.43 2080.21 M 1095.18 2064.47 L 1102.07 2064.47 M 1101.92 2048.74 L 1104.69 2048.74 M 1119.12 2018.46 L 1162.7 2018.46 M 1202.07 2018.46 L 1245.66 2018.46 M 1285.03 2018.46 L 1328.62 2018.46 M 1367.99 2018.46 L 1411.58 2018.46 M 1431.26 2038.15 L 1401.73 2107.05 L 1431.26 2126.73 L 1411.57 2195.63 L 1450.94 2116.89 L 1421.42 2097.2 L 1431.26 2038.15 M 1429.49 2048.74 L 1426.72 2048.74 M 1426.87 2064.47 L 1419.98 2064.47 M 1424.25 2080.21 L 1413.24 2080.21 M 1406.49 2095.94 L 1421.63 2095.94 M 1408.67 2111.67 L 1443.12 2111.67 M 1445.69 2127.41 L 1431.07 2127.41 M 1426.57 2143.14 L 1437.82 2143.14 M 1429.95 2158.87 L 1422.08 2158.87 M 1422.09 2174.61 L 1417.58 2174.61 M 1414.22 2190.34 L 1413.09 2190.34 M 1450.95 2018.46 L 1494.54 2018.46 M 1533.91 2018.46 L 1577.5 2018.46 M 1616.87 2018.46 L 1660.46 2018.46 M 1699.83 2018.46 L 1743.42 2018.46 M 1882.62 1960.81 L 1912.74 1930.68 M 1940.58 1902.84 L 1970.7 1872.72 M 1998.54 1844.88 L 2028.67 1814.76 M 2056.51 1786.92 L 2086.63 1756.79 M 2114.47 1728.95 L 2144.6 1698.83 M 2172.43 1670.99 L 2202.56 1640.87 M 2230.4 1613.03 L 2260.52 1582.9 M 2288.36 1555.06 L 2318.49 1524.94 M 2457.68 1467.28 L 2506.09 1467.28 M 2545.46 1467.28 L 2593.88 1467.28 M 2633.25 1467.28 L 2681.66 1467.28 M 2721.03 1467.28 L 2769.44 1467.28 M 2808.81 1467.28 L 2857.23 1467.28 M 2896.6 1467.28 L 2945.01 1467.28 M 2984.38 1467.28 L 3032.79 1467.28 M 3171.99 1524.94 L 3188.99 1541.95 M 3216.83 1569.79 L 3233.84 1586.79 M 3291.5 1654.29 L 3261.97 1723.19 L 3291.5 1742.87 L 3271.81 1811.77 L 3311.18 1733.03 L 3281.65 1713.35 L 3291.5 1654.29 M 3291.31 1655.41 L 3291.02 1655.41 M 3288.69 1671.14 L 3284.27 1671.14 M 3286.06 1686.88 L 3277.53 1686.88 M 3283.44 1702.61 L 3270.79 1702.61 M 3264.04 1718.34 L 3289.15 1718.34 M 3278.3 1734.08 L 3310.66 1734.08 M 3302.79 1749.81 L 3289.51 1749.81 M 3285.02 1765.54 L 3294.93 1765.54 M 3287.06 1781.28 L 3280.52 1781.28 M 3279.19 1797.01 L 3276.03 1797.01 M 3373.03 1644.45 L 3413.82 1644.45 M 3453.19 1644.45 L 3493.98 1644.45 M 3533.35 1644.45 L 3574.13 1644.45 M 3648.45 1671.14 L 3652.86 1671.14 M 3655.19 1655.41 L 3655.48 1655.41 M 3655.67 1654.29 L 3626.14 1723.19 L 3655.67 1742.87 L 3635.98 1811.77 L 3675.35 1733.03 L 3645.83 1713.35 L 3655.67 1654.29 M 3650.24 1686.88 L 3641.7 1686.88 M 3647.62 1702.61 L 3634.96 1702.61 M 3628.22 1718.34 L 3653.32 1718.34 M 3642.47 1734.08 L 3674.83 1734.08 M 3666.96 1749.81 L 3653.69 1749.81 M 3649.19 1765.54 L 3659.1 1765.54 M 3651.23 1781.28 L 3644.7 1781.28 M 3643.37 1797.01 L 3640.2 1797.01 M 3713.33 1586.79 L 3730.33 1569.79 M 3758.17 1541.95 L 3775.18 1524.94 M 3914.37 1467.28 L 3965.93 1467.28 M 4005.3 1467.28 L 4056.86 1467.28 M 4096.23 1467.28 L 4147.8 1467.28 M 4187.17 1467.28 L 4238.73 1467.28 M 4278.1 1467.28 L 4329.66 1467.28 M 4369.03 1467.28 L 4420.59 1467.28 M 4559.78 1524.94 L 4581.26 1546.42 M 4609.1 1574.25 L 4630.57 1595.73 M 4630.58 1595.73 L 4633.3 1598.39 L 4636.08 1600.99 L 4638.91 1603.52 L 4641.81 1605.98 L 4644.76 1608.38 L 4647.76 1610.71 L 4650.82 1612.97 L 4653.93 1615.16 L 4657.09 1617.28 L 4660.29 1619.33 L 4663.54 1621.3 L 4666.84 1623.2 M 4703.13 1638.23 L 4706.8 1639.22 L 4710.49 1640.12 L 4714.21 1640.94 L 4717.94 1641.68 L 4721.68 1642.32 L 4725.45 1642.89 L 4729.22 1643.36 L 4733 1643.75 L 4736.79 1644.06 L 4740.59 1644.28 L 4744.39 1644.41 L 4748.19 1644.45 M 4559.78 1524.94 L 4556.35 1521.58 L 4552.83 1518.31 L 4549.23 1515.13 L 4545.56 1512.04 L 4541.82 1509.04 L 4538 1506.13 L 4534.11 1503.31 L 4530.15 1500.59 L 4526.13 1497.96 L 4522.05 1495.44 L 4517.9 1493.02 L 4513.7 1490.69 M 4477.39 1475.65 L 4472.77 1474.32 L 4468.13 1473.11 L 4463.46 1472 L 4458.76 1471.02 L 4454.04 1470.14 L 4449.3 1469.38 L 4444.54 1468.74 L 4439.77 1468.22 L 4434.98 1467.81 L 4430.19 1467.51 L 4425.39 1467.34 L 4420.59 1467.28 M 3914.37 1467.28 L 3909.57 1467.34 L 3904.77 1467.51 L 3899.98 1467.81 L 3895.19 1468.22 L 3890.42 1468.74 L 3885.66 1469.38 L 3880.92 1470.14 L 3876.2 1471.02 L 3871.5 1472 L 3866.83 1473.11 L 3862.19 1474.32 L 3857.57 1475.65 M 3821.26 1490.69 L 3817.06 1493.02 L 3812.91 1495.44 L 3808.83 1497.96 L 3804.81 1500.59 L 3800.85 1503.31 L 3796.96 1506.13 L 3793.14 1509.04 L 3789.4 1512.04 L 3785.73 1515.13 L 3782.13 1518.31 L 3778.61 1521.58 L 3775.18 1524.94 M 3713.32 1586.79 L 3709.89 1590.15 L 3706.37 1593.42 L 3702.77 1596.6 L 3699.1 1599.69 L 3695.36 1602.69 L 3691.54 1605.6 L 3687.65 1608.42 L 3683.69 1611.14 L 3679.67 1613.77 L 3675.59 1616.29 L 3671.44 1618.71 L 3667.24 1621.04 M 3630.93 1636.08 L 3626.31 1637.41 L 3621.67 1638.62 L 3617 1639.73 L 3612.3 1640.71 L 3607.58 1641.59 L 3602.84 1642.35 L 3598.08 1642.99 L 3593.31 1643.51 L 3588.52 1643.92 L 3583.73 1644.22 L 3578.93 1644.39 L 3574.13 1644.45 M 3373.03 1644.45 L 3368.23 1644.39 L 3363.43 1644.22 L 3358.64 1643.92 L 3353.85 1643.51 L 3349.08 1642.99 L 3344.32 1642.35 L 3339.58 1641.59 L 3334.86 1640.71 L 3330.16 1639.73 L 3325.49 1638.62 L 3320.85 1637.41 L 3316.23 1636.08 M 3279.92 1621.04 L 3275.72 1618.71 L 3271.57 1616.29 L 3267.49 1613.77 L 3263.47 1611.14 L 3259.51 1608.42 L 3255.62 1605.6 L 3251.8 1602.69 L 3248.06 1599.69 L 3244.39 1596.6 L 3240.79 1593.42 L 3237.27 1590.15 L 3233.84 1586.79 M 3171.98 1524.94 L 3168.55 1521.58 L 3165.03 1518.31 L 3161.43 1515.13 L 3157.76 1512.04 L 3154.02 1509.04 L 3150.2 1506.13 L 3146.31 1503.31 L 3142.35 1500.59 L 3138.33 1497.96 L 3134.25 1495.44 L 3130.1 1493.02 L 3125.9 1490.69 M 3089.59 1475.65 L 3084.97 1474.32 L 3080.33 1473.11 L 3075.66 1472 L 3070.96 1471.02 L 3066.24 1470.14 L 3061.5 1469.38 L 3056.74 1468.74 L 3051.97 1468.22 L 3047.18 1467.81 L 3042.39 1467.51 L 3037.59 1467.34 L 3032.79 1467.28 M 2457.68 1467.28 L 2452.88 1467.34 L 2448.08 1467.51 L 2443.29 1467.81 L 2438.5 1468.22 L 2433.73 1468.74 L 2428.97 1469.38 L 2424.23 1470.14 L 2419.51 1471.02 L 2414.81 1472 L 2410.14 1473.11 L 2405.5 1474.32 L 2400.88 1475.65 M 2364.57 1490.69 L 2360.37 1493.02 L 2356.22 1495.44 L 2352.14 1497.96 L 2348.12 1500.59 L 2344.16 1503.31 L 2340.27 1506.13 L 2336.45 1509.04 L 2332.71 1512.04 L 2329.04 1515.13 L 2325.44 1518.31 L 2321.92 1521.58 L 2318.49 1524.94 M 1882.61 1960.8 L 1879.18 1964.16 L 1875.66 1967.43 L 1872.06 1970.61 L 1868.39 1973.7 L 1864.65 1976.7 L 1860.83 1979.61 L 1856.94 1982.43 L 1852.98 1985.15 L 1848.96 1987.78 L 1844.88 1990.3 L 1840.73 1992.72 L 1836.53 1995.05 M 1800.22 2010.09 L 1795.6 2011.42 L 1790.96 2012.63 L 1786.29 2013.74 L 1781.59 2014.72 L 1776.87 2015.6 L 1772.13 2016.36 L 1767.37 2017 L 1762.6 2017.52 L 1757.81 2017.93 L 1753.02 2018.23 L 1748.22 2018.4 L 1743.42 2018.46 M 1079.75 2018.46 L 1036.16 2018.46 M 996.79 2018.46 L 953.2 2018.46 M 913.83 2018.46 L 870.24 2018.46 M 909.61 4351.14 L 880.08 4420.04 L 909.61 4439.72 L 889.92 4508.62 L 929.29 4429.88 L 899.76 4410.2 L 909.61 4351.14 M 907.88 4361.51 L 905.16 4361.51 M 905.26 4377.25 L 898.42 4377.25 M 902.63 4392.98 L 891.68 4392.98 M 884.93 4408.71 L 900.01 4408.71 M 886.69 4424.44 L 921.14 4424.44 M 924.14 4440.18 L 909.48 4440.18 M 904.98 4455.91 L 916.28 4455.91 M 908.41 4471.64 L 900.49 4471.64 M 900.54 4487.38 L 895.99 4487.38 M 892.68 4503.11 L 891.5 4503.11 M 4708.82 4420.04 L 4738.35 4351.14 L 4728.5 4410.2 L 4758.03 4429.88 L 4718.66 4508.62 L 4738.35 4439.72 L 4708.82 4420.04 M 4715.43 4424.44 L 4749.88 4424.44 M 4752.88 4440.18 L 4738.22 4440.18 M 4733.72 4455.91 L 4745.02 4455.91 M 4737.15 4471.64 L 4729.23 4471.64 M 4729.28 4487.38 L 4724.73 4487.38 M 4721.42 4503.11 L 4720.24 4503.11 M 4713.67 4408.71 L 4728.75 4408.71 M 4731.37 4392.98 L 4720.42 4392.98 M 4727.16 4377.25 L 4734 4377.25 M 4733.9 4361.51 L 4736.62 4361.51"/></g></svg>