<svg xmlns="http://www.w3.org/2000/svg" version="1.1" xmlns:xlink="http://www.w3.org/1999/xlink" width="3.9370100000000003in" height="3.93701in" viewBox="840.71 601.14 3937.01 3937.0099999999998" stroke-linecap="round" stroke-linejoin="round" stroke-width="0" stroke="#000"><defs><circle cx="0" cy="0" r="29.685" id="tool-D11-pad-1001"/><circle cx="0" cy="0" r="35.435" id="tool-D12-pad-1002"/><rect x="-35.435" y="-35.435" width="70.87" height="70.87" id="tool-D13-pad-1003"/><circle cx="0" cy="0" r="25.75" id="tool-D15-pad-1005"/><polygon points="31.499935966639086,13.047700691265959 13.04770069126596,31.499935966639086 -13.047700691265957,31.499935966639086 -31.499935966639086,13.047700691265963 -31.49993596663909,-13.047700691265955 -13.047700691265979,-31.499935966639075 13.047700691265966,-31.49993596663908 31.499935966639075,-13.04770069126598" id="tool-D17-pad-1007"/><circle cx="0" cy="0" r="31.5" id="tool-D18-pad-1008"/><polygon points="42.4999136057829,17.604040615200105 17.60404061520011,42.4999136057829 -17.604040615200102,42.4999136057829 -42.4999136057829,17.604040615200113 -42.4999136057829,-17.604040615200102 -17.60404061520013,-42.499913605782886 17.604040615200116,-42.49991360578289 42.499913605782886,-17.604040615200134" id="tool-D19-pad-1009"/><circle cx="0" cy="0" r="13.875" id="tool-D21-pad-1011"/><circle cx="0" cy="0" r="23.62" id="tool-D23-pad-1013"/><circle cx="0" cy="0" r="17.81" id="tool-D24-pad-1014"/></defs><g fill="currentColor" stroke="currentColor" transform="translate(0,5139.29) scale(1,-1)"><path stroke-width="0" fill="none" d="M 840.71 601.14 L 840.71 4538.15 L 4777.72 4538.15 L 4777.72 601.14 L 840.71 601.14 M 1401.73 837.36 L 1401.75 839.05 L 1401.81 840.74 L 1401.92 842.43 L 1402.06 844.11 L 1402.25 845.79 L 1402.48 847.47 L 1402.74 849.14 L 1403.05 850.8 L 1403.4 852.46 L 1403.79 854.1 L 1404.23 855.74 L 1404.7 857.36 L 1405.21 858.97 L 1405.76 860.57 L 1406.35 862.16 L 1406.97 863.73 L 1407.64 865.28 L 1408.35 866.82 L 1409.09 868.34 L 1409.87 869.84 L 1410.68 871.32 L 1411.53 872.78 L 1412.42 874.22 L 1413.34 875.64 L 1414.3 877.03 L 1415.29 878.4 L 1416.31 879.75 L 1417.37 881.07 L 1418.46 882.36 L 1419.58 883.63 L 1420.73 884.87 L 1421.91 886.08 L 1423.12 887.26 L 1424.36 888.41 L 1425.63 889.53 L 1426.92 890.62 L 1428.24 891.68 L 1429.59 892.7 L 1430.96 893.69 L 1432.35 894.65 L 1433.77 895.57 L 1435.21 896.46 L 1436.67 897.31 L 1438.15 898.12 L 1439.65 898.9 L 1441.17 899.64 L 1442.71 900.35 L 1444.26 901.02 L 1445.83 901.64 L 1447.42 902.23 L 1449.02 902.78 L 1450.63 903.29 L 1452.25 903.76 L 1453.89 904.2 L 1455.53 904.59 L 1457.19 904.94 L 1458.85 905.25 L 1460.52 905.51 L 1462.2 905.74 L 1463.88 905.93 L 1465.56 906.07 L 1467.25 906.18 L 1468.94 906.24 L 1470.63 906.26 L 1472.32 906.24 L 1474.01 906.18 L 1475.7 906.07 L 1477.38 905.93 L 1479.06 905.74 L 1480.74 905.51 L 1482.41 905.25 L 1484.07 904.94 L 1485.73 904.59 L 1487.37 904.2 L 1489.01 903.76 L 1490.63 903.29 L 1492.24 902.78 L 1493.84 902.23 L 1495.43 901.64 L 1497 901.02 L 1498.55 900.35 L 1500.09 899.64 L 1501.61 898.9 L 1503.11 898.12 L 1504.59 897.31 L 1506.05 896.46 L 1507.49 895.57 L 1508.91 894.65 L 1510.3 893.69 L 1511.67 892.7 L 1513.02 891.68 L 1514.34 890.62 L 1515.63 889.53 L 1516.9 888.41 L 1518.14 887.26 L 1519.35 886.08 L 1520.53 884.87 L 1521.68 883.63 L 1522.8 882.36 L 1523.89 881.07 L 1524.95 879.75 L 1525.97 878.4 L 1526.96 877.03 L 1527.92 875.64 L 1528.84 874.22 L 1529.73 872.78 L 1530.58 871.32 L 1531.39 869.84 L 1532.17 868.34 L 1532.91 866.82 L 1533.62 865.28 L 1534.29 863.73 L 1534.91 862.16 L 1535.5 860.57 L 1536.05 858.97 L 1536.56 857.36 L 1537.03 855.74 L 1537.47 854.1 L 1537.86 852.46 L 1538.21 850.8 L 1538.52 849.14 L 1538.78 847.47 L 1539.01 845.79 L 1539.2 844.11 L 1539.34 842.43 L 1539.45 840.74 L 1539.51 839.05 L 1539.53 837.36 L 1539.51 835.67 L 1539.45 833.98 L 1539.34 832.29 L 1539.2 830.61 L 1539.01 828.93 L 1538.78 827.25 L 1538.52 825.58 L 1538.21 823.92 L 1537.86 822.26 L 1537.47 820.62 L 1537.03 818.98 L 1536.56 817.36 L 1536.05 815.75 L 1535.5 814.15 L 1534.91 812.56 L 1534.29 810.99 L 1533.62 809.44 L 1532.91 807.9 L 1532.17 806.38 L 1531.39 804.88 L 1530.58 803.4 L 1529.73 801.94 L 1528.84 800.5 L 1527.92 799.08 L 1526.96 797.69 L 1525.97 796.32 L 1524.95 794.97 L 1523.89 793.65 L 1522.8 792.36 L 1521.68 791.09 L 1520.53 789.85 L 1519.35 788.64 L 1518.14 787.46 L 1516.9 786.31 L 1515.63 785.19 L 1514.34 784.1 L 1513.02 783.04 L 1511.67 782.02 L 1510.3 781.03 L 1508.91 780.07 L 1507.49 779.15 L 1506.05 778.26 L 1504.59 777.41 L 1503.11 776.6 L 1501.61 775.82 L 1500.09 775.08 L 1498.55 774.37 L 1497 773.7 L 1495.43 773.08 L 1493.84 772.49 L 1492.24 771.94 L 1490.63 771.43 L 1489.01 770.96 L 1487.37 770.52 L 1485.73 770.13 L 1484.07 769.78 L 1482.41 769.47 L 1480.74 769.21 L 1479.06 768.98 L 1477.38 768.79 L 1475.7 768.65 L 1474.01 768.54 L 1472.32 768.48 L 1470.63 768.46 L 1468.94 768.48 L 1467.25 768.54 L 1465.56 768.65 L 1463.88 768.79 L 1462.2 768.98 L 1460.52 769.21 L 1458.85 769.47 L 1457.19 769.78 L 1455.53 770.13 L 1453.89 770.52 L 1452.25 770.96 L 1450.63 771.43 L 1449.02 771.94 L 1447.42 772.49 L 1445.83 773.08 L 1444.26 773.7 L 1442.71 774.37 L 1441.17 775.08 L 1439.65 775.82 L 1438.15 776.6 L 1436.67 777.41 L 1435.21 778.26 L 1433.77 779.15 L 1432.35 780.07 L 1430.96 781.03 L 1429.59 782.02 L 1428.24 783.04 L 1426.92 784.1 L 1425.63 785.19 L 1424.36 786.31 L 1423.12 787.46 L 1421.91 788.64 L 1420.73 789.85 L 1419.58 791.09 L 1418.46 792.36 L 1417.37 793.65 L 1416.31 794.97 L 1415.29 796.32 L 1414.3 797.69 L 1413.34 799.08 L 1412.42 800.5 L 1411.53 801.94 L 1410.68 803.4 L 1409.87 804.88 L 1409.09 806.38 L 1408.35 807.9 L 1407.64 809.44 L 1406.97 810.99 L 1406.35 812.56 L 1405.76 814.15 L 1405.21 815.75 L 1404.7 817.36 L 1404.23 818.98 L 1403.79 820.62 L 1403.4 822.26 L 1403.05 823.92 L 1402.74 825.58 L 1402.48 827.25 L 1402.25 828.93 L 1402.06 830.61 L 1401.92 832.29 L 1401.81 833.98 L 1401.75 835.67 L 1401.73 837.36 M 4551.34 837.36 L 4551.36 839.05 L 4551.42 840.74 L 4551.53 842.43 L 4551.67 844.11 L 4551.86 845.79 L 4552.09 847.47 L 4552.35 849.14 L 4552.66 850.8 L 4553.01 852.46 L 4553.4 854.1 L 4553.84 855.74 L 4554.31 857.36 L 4554.82 858.97 L 4555.37 860.57 L 4555.96 862.16 L 4556.58 863.73 L 4557.25 865.28 L 4557.96 866.82 L 4558.7 868.34 L 4559.48 869.84 L 4560.29 871.32 L 4561.14 872.78 L 4562.03 874.22 L 4562.95 875.64 L 4563.91 877.03 L 4564.9 878.4 L 4565.92 879.75 L 4566.98 881.07 L 4568.07 882.36 L 4569.19 883.63 L 4570.34 884.87 L 4571.52 886.08 L 4572.73 887.26 L 4573.97 888.41 L 4575.24 889.53 L 4576.53 890.62 L 4577.85 891.68 L 4579.2 892.7 L 4580.57 893.69 L 4581.96 894.65 L 4583.38 895.57 L 4584.82 896.46 L 4586.28 897.31 L 4587.76 898.12 L 4589.26 898.9 L 4590.78 899.64 L 4592.32 900.35 L 4593.87 901.02 L 4595.44 901.64 L 4597.03 902.23 L 4598.63 902.78 L 4600.24 903.29 L 4601.86 903.76 L 4603.5 904.2 L 4605.14 904.59 L 4606.8 904.94 L 4608.46 905.25 L 4610.13 905.51 L 4611.81 905.74 L 4613.49 905.93 L 4615.17 906.07 L 4616.86 906.18 L 4618.55 906.24 L 4620.24 906.26 L 4621.93 906.24 L 4623.62 906.18 L 4625.31 906.07 L 4626.99 905.93 L 4628.67 905.74 L 4630.35 905.51 L 4632.02 905.25 L 4633.68 904.94 L 4635.34 904.59 L 4636.98 904.2 L 4638.62 903.76 L 4640.24 903.29 L 4641.85 902.78 L 4643.45 902.23 L 4645.04 901.64 L 4646.61 901.02 L 4648.16 900.35 L 4649.7 899.64 L 4651.22 898.9 L 4652.72 898.12 L 4654.2 897.31 L 4655.66 896.46 L 4657.1 895.57 L 4658.52 894.65 L 4659.91 893.69 L 4661.28 892.7 L 4662.63 891.68 L 4663.95 890.62 L 4665.24 889.53 L 4666.51 888.41 L 4667.75 887.26 L 4668.96 886.08 L 4670.14 884.87 L 4671.29 883.63 L 4672.41 882.36 L 4673.5 881.07 L 4674.56 879.75 L 4675.58 878.4 L 4676.57 877.03 L 4677.53 875.64 L 4678.45 874.22 L 4679.34 872.78 L 4680.19 871.32 L 4681 869.84 L 4681.78 868.34 L 4682.52 866.82 L 4683.23 865.28 L 4683.9 863.73 L 4684.52 862.16 L 4685.11 860.57 L 4685.66 858.97 L 4686.17 857.36 L 4686.64 855.74 L 4687.08 854.1 L 4687.47 852.46 L 4687.82 850.8 L 4688.13 849.14 L 4688.39 847.47 L 4688.62 845.79 L 4688.81 844.11 L 4688.95 842.43 L 4689.06 840.74 L 4689.12 839.05 L 4689.14 837.36 L 4689.12 835.67 L 4689.06 833.98 L 4688.95 832.29 L 4688.81 830.61 L 4688.62 828.93 L 4688.39 827.25 L 4688.13 825.58 L 4687.82 823.92 L 4687.47 822.26 L 4687.08 820.62 L 4686.64 818.98 L 4686.17 817.36 L 4685.66 815.75 L 4685.11 814.15 L 4684.52 812.56 L 4683.9 810.99 L 4683.23 809.44 L 4682.52 807.9 L 4681.78 806.38 L 4681 804.88 L 4680.19 803.4 L 4679.34 801.94 L 4678.45 800.5 L 4677.53 799.08 L 4676.57 797.69 L 4675.58 796.32 L 4674.56 794.97 L 4673.5 793.65 L 4672.41 792.36 L 4671.29 791.09 L 4670.14 789.85 L 4668.96 788.64 L 4667.75 787.46 L 4666.51 786.31 L 4665.24 785.19 L 4663.95 784.1 L 4662.63 783.04 L 4661.28 782.02 L 4659.91 781.03 L 4658.52 780.07 L 4657.1 779.15 L 4655.66 778.26 L 4654.2 777.41 L 4652.72 776.6 L 4651.22 775.82 L 4649.7 775.08 L 4648.16 774.37 L 4646.61 773.7 L 4645.04 773.08 L 4643.45 772.49 L 4641.85 771.94 L 4640.24 771.43 L 4638.62 770.96 L 4636.98 770.52 L 4635.34 770.13 L 4633.68 769.78 L 4632.02 769.47 L 4630.35 769.21 L 4628.67 768.98 L 4626.99 768.79 L 4625.31 768.65 L 4623.62 768.54 L 4621.93 768.48 L 4620.24 768.46 L 4618.55 768.48 L 4616.86 768.54 L 4615.17 768.65 L 4613.49 768.79 L 4611.81 768.98 L 4610.13 769.21 L 4608.46 769.47 L 4606.8 769.78 L 4605.14 770.13 L 4603.5 770.52 L 4601.86 770.96 L 4600.24 771.43 L 4598.63 771.94 L 4597.03 772.49 L 4595.44 773.08 L 4593.87 773.7 L 4592.32 774.37 L 4590.78 775.08 L 4589.26 775.82 L 4587.76 776.6 L 4586.28 777.41 L 4584.82 778.26 L 4583.38 779.15 L 4581.96 780.07 L 4580.57 781.03 L 4579.2 782.02 L 4577.85 783.04 L 4576.53 784.1 L 4575.24 785.19 L 4573.97 786.31 L 4572.73 787.46 L 4571.52 788.64 L 4570.34 789.85 L 4569.19 791.09 L 4568.07 792.36 L 4566.98 793.65 L 4565.92 794.97 L 4564.9 796.32 L 4563.91 797.69 L 4562.95 799.08 L 4562.03 800.5 L 4561.14 801.94 L 4560.29 803.4 L 4559.48 804.88 L 4558.7 806.38 L 4557.96 807.9 L 4557.25 809.44 L 4556.58 810.99 L 4555.96 812.56 L 4555.37 814.15 L 4554.82 815.75 L 4554.31 817.36 L 4553.84 818.98 L 4553.4 820.62 L 4553.01 822.26 L 4552.66 823.92 L 4552.35 825.58 L 4552.09 827.25 L 4551.86 828.93 L 4551.67 830.61 L 4551.53 832.29 L 4551.42 833.98 L 4551.36 835.67 L 4551.34 837.36 M 4551.34 4380.67 L 4551.36 4382.36 L 4551.42 4384.05 L 4551.53 4385.74 L 4551.67 4387.42 L 4551.86 4389.1 L 4552.09 4390.78 L 4552.35 4392.45 L 4552.66 4394.11 L 4553.01 4395.77 L 4553.4 4397.41 L 4553.84 4399.05 L 4554.31 4400.67 L 4554.82 4402.28 L 4555.37 4403.88 L 4555.96 4405.47 L 4556.58 4407.04 L 4557.25 4408.59 L 4557.96 4410.13 L 4558.7 4411.65 L 4559.48 4413.15 L 4560.29 4414.63 L 4561.14 4416.09 L 4562.03 4417.53 L 4562.95 4418.95 L 4563.91 4420.34 L 4564.9 4421.71 L 4565.92 4423.06 L 4566.98 4424.38 L 4568.07 4425.67 L 4569.19 4426.94 L 4570.34 4428.18 L 4571.52 4429.39 L 4572.73 4430.57 L 4573.97 4431.72 L 4575.24 4432.84 L 4576.53 4433.93 L 4577.85 4434.99 L 4579.2 4436.01 L 4580.57 4437 L 4581.96 4437.96 L 4583.38 4438.88 L 4584.82 4439.77 L 4586.28 4440.62 L 4587.76 4441.43 L 4589.26 4442.21 L 4590.78 4442.95 L 4592.32 4443.66 L 4593.87 4444.33 L 4595.44 4444.95 L 4597.03 4445.54 L 4598.63 4446.09 L 4600.24 4446.6 L 4601.86 4447.07 L 4603.5 4447.51 L 4605.14 4447.9 L 4606.8 4448.25 L 4608.46 4448.56 L 4610.13 4448.82 L 4611.81 4449.05 L 4613.49 4449.24 L 4615.17 4449.38 L 4616.86 4449.49 L 4618.55 4449.55 L 4620.24 4449.57 L 4621.93 4449.55 L 4623.62 4449.49 L 4625.31 4449.38 L 4626.99 4449.24 L 4628.67 4449.05 L 4630.35 4448.82 L 4632.02 4448.56 L 4633.68 4448.25 L 4635.34 4447.9 L 4636.98 4447.51 L 4638.62 4447.07 L 4640.24 4446.6 L 4641.85 4446.09 L 4643.45 4445.54 L 4645.04 4444.95 L 4646.61 4444.33 L 4648.16 4443.66 L 4649.7 4442.95 L 4651.22 4442.21 L 4652.72 4441.43 L 4654.2 4440.62 L 4655.66 4439.77 L 4657.1 4438.88 L 4658.52 4437.96 L 4659.91 4437 L 4661.28 4436.01 L 4662.63 4434.99 L 4663.95 4433.93 L 4665.24 4432.84 L 4666.51 4431.72 L 4667.75 4430.57 L 4668.96 4429.39 L 4670.14 4428.18 L 4671.29 4426.94 L 4672.41 4425.67 L 4673.5 4424.38 L 4674.56 4423.06 L 4675.58 4421.71 L 4676.57 4420.34 L 4677.53 4418.95 L 4678.45 4417.53 L 4679.34 4416.09 L 4680.19 4414.63 L 4681 4413.15 L 4681.78 4411.65 L 4682.52 4410.13 L 4683.23 4408.59 L 4683.9 4407.04 L 4684.52 4405.47 L 4685.11 4403.88 L 4685.66 4402.28 L 4686.17 4400.67 L 4686.64 4399.05 L 4687.08 4397.41 L 4687.47 4395.77 L 4687.82 4394.11 L 4688.13 4392.45 L 4688.39 4390.78 L 4688.62 4389.1 L 4688.81 4387.42 L 4688.95 4385.74 L 4689.06 4384.05 L 4689.12 4382.36 L 4689.14 4380.67 L 4689.12 4378.98 L 4689.06 4377.29 L 4688.95 4375.6 L 4688.81 4373.92 L 4688.62 4372.24 L 4688.39 4370.56 L 4688.13 4368.89 L 4687.82 4367.23 L 4687.47 4365.57 L 4687.08 4363.93 L 4686.64 4362.29 L 4686.17 4360.67 L 4685.66 4359.06 L 4685.11 4357.46 L 4684.52 4355.87 L 4683.9 4354.3 L 4683.23 4352.75 L 4682.52 4351.21 L 4681.78 4349.69 L 4681 4348.19 L 4680.19 4346.71 L 4679.34 4345.25 L 4678.45 4343.81 L 4677.53 4342.39 L 4676.57 4341 L 4675.58 4339.63 L 4674.56 4338.28 L 4673.5 4336.96 L 4672.41 4335.67 L 4671.29 4334.4 L 4670.14 4333.16 L 4668.96 4331.95 L 4667.75 4330.77 L 4666.51 4329.62 L 4665.24 4328.5 L 4663.95 4327.41 L 4662.63 4326.35 L 4661.28 4325.33 L 4659.91 4324.34 L 4658.52 4323.38 L 4657.1 4322.46 L 4655.66 4321.57 L 4654.2 4320.72 L 4652.72 4319.91 L 4651.22 4319.13 L 4649.7 4318.39 L 4648.16 4317.68 L 4646.61 4317.01 L 4645.04 4316.39 L 4643.45 4315.8 L 4641.85 4315.25 L 4640.24 4314.74 L 4638.62 4314.27 L 4636.98 4313.83 L 4635.34 4313.44 L 4633.68 4313.09 L 4632.02 4312.78 L 4630.35 4312.52 L 4628.67 4312.29 L 4626.99 4312.1 L 4625.31 4311.96 L 4623.62 4311.85 L 4621.93 4311.79 L 4620.24 4311.77 L 4618.55 4311.79 L 4616.86 4311.85 L 4615.17 4311.96 L 4613.49 4312.1 L 4611.81 4312.29 L 4610.13 4312.52 L 4608.46 4312.78 L 4606.8 4313.09 L 4605.14 4313.44 L 4603.5 4313.83 L 4601.86 4314.27 L 4600.24 4314.74 L 4598.63 4315.25 L 4597.03 4315.8 L 4595.44 4316.39 L 4593.87 4317.01 L 4592.32 4317.68 L 4590.78 4318.39 L 4589.26 4319.13 L 4587.76 4319.91 L 4586.28 4320.72 L 4584.82 4321.57 L 4583.38 4322.46 L 4581.96 4323.38 L 4580.57 4324.34 L 4579.2 4325.33 L 4577.85 4326.35 L 4576.53 4327.41 L 4575.24 4328.5 L 4573.97 4329.62 L 4572.73 4330.77 L 4571.52 4331.95 L 4570.34 4333.16 L 4569.19 4334.4 L 4568.07 4335.67 L 4566.98 4336.96 L 4565.92 4338.28 L 4564.9 4339.63 L 4563.91 4341 L 4562.95 4342.39 L 4562.03 4343.81 L 4561.14 4345.25 L 4560.29 4346.71 L 4559.48 4348.19 L 4558.7 4349.69 L 4557.96 4351.21 L 4557.25 4352.75 L 4556.58 4354.3 L 4555.96 4355.87 L 4555.37 4357.46 L 4554.82 4359.06 L 4554.31 4360.67 L 4553.84 4362.29 L 4553.4 4363.93 L 4553.01 4365.57 L 4552.66 4367.23 L 4552.35 4368.89 L 4552.09 4370.56 L 4551.86 4372.24 L 4551.67 4373.92 L 4551.53 4375.6 L 4551.42 4377.29 L 4551.36 4378.98 L 4551.34 4380.67 M 1008.03 4380.67 L 1008.05 4382.36 L 1008.11 4384.05 L 1008.22 4385.74 L 1008.36 4387.42 L 1008.55 4389.1 L 1008.78 4390.78 L 1009.04 4392.45 L 1009.35 4394.11 L 1009.7 4395.77 L 1010.09 4397.41 L 1010.53 4399.05 L 1011 4400.67 L 1011.51 4402.28 L 1012.06 4403.88 L 1012.65 4405.47 L 1013.27 4407.04 L 1013.94 4408.59 L 1014.65 4410.13 L 1015.39 4411.65 L 1016.17 4413.15 L 1016.98 4414.63 L 1017.83 4416.09 L 1018.72 4417.53 L 1019.64 4418.95 L 1020.6 4420.34 L 1021.59 4421.71 L 1022.61 4423.06 L 1023.67 4424.38 L 1024.76 4425.67 L 1025.88 4426.94 L 1027.03 4428.18 L 1028.21 4429.39 L 1029.42 4430.57 L 1030.66 4431.72 L 1031.93 4432.84 L 1033.22 4433.93 L 1034.54 4434.99 L 1035.89 4436.01 L 1037.26 4437 L 1038.65 4437.96 L 1040.07 4438.88 L 1041.51 4439.77 L 1042.97 4440.62 L 1044.45 4441.43 L 1045.95 4442.21 L 1047.47 4442.95 L 1049.01 4443.66 L 1050.56 4444.33 L 1052.13 4444.95 L 1053.72 4445.54 L 1055.32 4446.09 L 1056.93 4446.6 L 1058.55 4447.07 L 1060.19 4447.51 L 1061.83 4447.9 L 1063.49 4448.25 L 1065.15 4448.56 L 1066.82 4448.82 L 1068.5 4449.05 L 1070.18 4449.24 L 1071.86 4449.38 L 1073.55 4449.49 L 1075.24 4449.55 L 1076.93 4449.57 L 1078.62 4449.55 L 1080.31 4449.49 L 1082 4449.38 L 1083.68 4449.24 L 1085.36 4449.05 L 1087.04 4448.82 L 1088.71 4448.56 L 1090.37 4448.25 L 1092.03 4447.9 L 1093.67 4447.51 L 1095.31 4447.07 L 1096.93 4446.6 L 1098.54 4446.09 L 1100.14 4445.54 L 1101.73 4444.95 L 1103.3 4444.33 L 1104.85 4443.66 L 1106.39 4442.95 L 1107.91 4442.21 L 1109.41 4441.43 L 1110.89 4440.62 L 1112.35 4439.77 L 1113.79 4438.88 L 1115.21 4437.96 L 1116.6 4437 L 1117.97 4436.01 L 1119.32 4434.99 L 1120.64 4433.93 L 1121.93 4432.84 L 1123.2 4431.72 L 1124.44 4430.57 L 1125.65 4429.39 L 1126.83 4428.18 L 1127.98 4426.94 L 1129.1 4425.67 L 1130.19 4424.38 L 1131.25 4423.06 L 1132.27 4421.71 L 1133.26 4420.34 L 1134.22 4418.95 L 1135.14 4417.53 L 1136.03 4416.09 L 1136.88 4414.63 L 1137.69 4413.15 L 1138.47 4411.65 L 1139.21 4410.13 L 1139.92 4408.59 L 1140.59 4407.04 L 1141.21 4405.47 L 1141.8 4403.88 L 1142.35 4402.28 L 1142.86 4400.67 L 1143.33 4399.05 L 1143.77 4397.41 L 1144.16 4395.77 L 1144.51 4394.11 L 1144.82 4392.45 L 1145.08 4390.78 L 1145.31 4389.1 L 1145.5 4387.42 L 1145.64 4385.74 L 1145.75 4384.05 L 1145.81 4382.36 L 1145.83 4380.67 L 1145.81 4378.98 L 1145.75 4377.29 L 1145.64 4375.6 L 1145.5 4373.92 L 1145.31 4372.24 L 1145.08 4370.56 L 1144.82 4368.89 L 1144.51 4367.23 L 1144.16 4365.57 L 1143.77 4363.93 L 1143.33 4362.29 L 1142.86 4360.67 L 1142.35 4359.06 L 1141.8 4357.46 L 1141.21 4355.87 L 1140.59 4354.3 L 1139.92 4352.75 L 1139.21 4351.21 L 1138.47 4349.69 L 1137.69 4348.19 L 1136.88 4346.71 L 1136.03 4345.25 L 1135.14 4343.81 L 1134.22 4342.39 L 1133.26 4341 L 1132.27 4339.63 L 1131.25 4338.28 L 1130.19 4336.96 L 1129.1 4335.67 L 1127.98 4334.4 L 1126.83 4333.16 L 1125.65 4331.95 L 1124.44 4330.77 L 1123.2 4329.62 L 1121.93 4328.5 L 1120.64 4327.41 L 1119.32 4326.35 L 1117.97 4325.33 L 1116.6 4324.34 L 1115.21 4323.38 L 1113.79 4322.46 L 1112.35 4321.57 L 1110.89 4320.72 L 1109.41 4319.91 L 1107.91 4319.13 L 1106.39 4318.39 L 1104.85 4317.68 L 1103.3 4317.01 L 1101.73 4316.39 L 1100.14 4315.8 L 1098.54 4315.25 L 1096.93 4314.74 L 1095.31 4314.27 L 1093.67 4313.83 L 1092.03 4313.44 L 1090.37 4313.09 L 1088.71 4312.78 L 1087.04 4312.52 L 1085.36 4312.29 L 1083.68 4312.1 L 1082 4311.96 L 1080.31 4311.85 L 1078.62 4311.79 L 1076.93 4311.77 L 1075.24 4311.79 L 1073.55 4311.85 L 1071.86 4311.96 L 1070.18 4312.1 L 1068.5 4312.29 L 1066.82 4312.52 L 1065.15 4312.78 L 1063.49 4313.09 L 1061.83 4313.44 L 1060.19 4313.83 L 1058.55 4314.27 L 1056.93 4314.74 L 1055.32 4315.25 L 1053.72 4315.8 L 1052.13 4316.39 L 1050.56 4317.01 L 1049.01 4317.68 L 1047.47 4318.39 L 1045.95 4319.13 L 1044.45 4319.91 L 1042.97 4320.72 L 1041.51 4321.57 L 1040.07 4322.46 L 1038.65 4323.38 L 1037.26 4324.34 L 1035.89 4325.33 L 1034.54 4326.35 L 1033.22 4327.41 L 1031.93 4328.5 L 1030.66 4329.62 L 1029.42 4330.77 L 1028.21 4331.95 L 1027.03 4333.16 L 1025.88 4334.4 L 1024.76 4335.67 L 1023.67 4336.96 L 1022.61 4338.28 L 1021.59 4339.63 L 1020.6 4341 L 1019.64 4342.39 L 1018.72 4343.81 L 1017.83 4345.25 L 1016.98 4346.71 L 1016.17 4348.19 L 1015.39 4349.69 L 1014.65 4351.21 L 1013.94 4352.75 L 1013.27 4354.3 L 1012.65 4355.87 L 1012.06 4357.46 L 1011.51 4359.06 L 1011 4360.67 L 1010.53 4362.29 L 1010.09 4363.93 L 1009.7 4365.57 L 1009.35 4367.23 L 1009.04 4368.89 L 1008.78 4370.56 L 1008.55 4372.24 L 1008.36 4373.92 L 1008.22 4375.6 L 1008.11 4377.29 L 1008.05 4378.98 L 1008.03 4380.67"/><use x="1844.65" y="3396.42" xlink:href="#tool-D11-pad-1001"/><use x="2435.2" y="3396.42" xlink:href="#tool-D11-pad-1001"/><use x="2592.68" y="3396.42" xlink:href="#tool-D11-pad-1001"/><use x="3183.23" y="3396.42" xlink:href="#tool-D11-pad-1001"/><use x="3370.24" y="3396.42" xlink:href="#tool-D11-pad-1001"/><use x="3960.79" y="3396.42" xlink:href="#tool-D11-pad-1001"/><use x="4118.27" y="3396.42" xlink:href="#tool-D11-pad-1001"/><use x="4708.82" y="3396.42" xlink:href="#tool-D11-pad-1001"/><use x="3448.98" y="2609.02" xlink:href="#tool-D11-pad-1001"/><use x="1972.6" y="2609.02" xlink:href="#tool-D11-pad-1001"/><use x="1195.04" y="2746.81" xlink:href="#tool-D12-pad-1002"/><use x="998.19" y="2746.81" xlink:href="#tool-D12-pad-1002"/><use x="998.19" y="2431.85" xlink:href="#tool-D12-pad-1002"/><use x="1195.04" y="2431.85" xlink:href="#tool-D12-pad-1002"/><use x="1195.04" y="3219.25" xlink:href="#tool-D12-pad-1002"/><use x="998.19" y="3219.25" xlink:href="#tool-D12-pad-1002"/><use x="998.19" y="3534.21" xlink:href="#tool-D12-pad-1002"/><use x="1195.04" y="3534.21" xlink:href="#tool-D12-pad-1002"/><use x="1313.15" y="3908.23" xlink:href="#tool-D12-pad-1002"/><use x="1608.43" y="3908.23" xlink:href="#tool-D12-pad-1002"/><use x="1903.7" y="3908.23" xlink:href="#tool-D12-pad-1002"/><use x="4423.39" y="2992.87" xlink:href="#tool-D12-pad-1002"/><use x="4620.24" y="2992.87" xlink:href="#tool-D12-pad-1002"/><use x="4620.24" y="2677.91" xlink:href="#tool-D12-pad-1002"/><use x="4423.39" y="2677.91" xlink:href="#tool-D12-pad-1002"/><use x="4423.39" y="2205.47" xlink:href="#tool-D12-pad-1002"/><use x="4620.24" y="2205.47" xlink:href="#tool-D12-pad-1002"/><use x="4620.24" y="1890.51" xlink:href="#tool-D12-pad-1002"/><use x="4423.39" y="1890.51" xlink:href="#tool-D12-pad-1002"/><use x="919.45" y="3908.23" xlink:href="#tool-D13-pad-1003"/><path stroke-width="94.49" fill="none" d="M 2149.76 3898.78 L 2149.76 3993.27 M 2366.3 3993.27 L 2366.3 3898.78 M 2582.83 3898.78 L 2582.83 3993.27 M 2848.58 3993.27 L 2848.58 3898.78 M 3065.12 3898.78 L 3065.12 3993.27 M 3281.65 3993.27 L 3281.65 3898.78 M 3586.77 3898.78 L 3586.77 3993.27 M 3803.31 3993.27 L 3803.31 3898.78 M 4019.84 3898.78 L 4019.84 3993.27 M 4285.59 3993.27 L 4285.59 3898.78 M 4502.13 3898.78 L 4502.13 3993.27 M 4718.66 3993.27 L 4718.66 3898.78"/><use x="4435.2" y="1648.39" xlink:href="#tool-D15-pad-1005"/><use x="4289.53" y="1648.39" xlink:href="#tool-D15-pad-1005"/><use x="4006.06" y="1648.39" xlink:href="#tool-D15-pad-1005"/><use x="3860.39" y="1648.39" xlink:href="#tool-D15-pad-1005"/><use x="4006.06" y="1049.96" xlink:href="#tool-D15-pad-1005"/><use x="4289.53" y="1049.96" xlink:href="#tool-D15-pad-1005"/><use x="2998.19" y="1648.39" xlink:href="#tool-D15-pad-1005"/><use x="2852.52" y="1648.39" xlink:href="#tool-D15-pad-1005"/><use x="2569.05" y="1648.39" xlink:href="#tool-D15-pad-1005"/><use x="2423.39" y="1648.39" xlink:href="#tool-D15-pad-1005"/><use x="2569.05" y="1049.96" xlink:href="#tool-D15-pad-1005"/><use x="2852.52" y="1049.96" xlink:href="#tool-D15-pad-1005"/><path stroke-width="60" fill="none" d="M 1303.78 1050.75 L 1243.78 1050.75 M 1243.78 1150.75 L 1303.78 1150.75 M 1303.78 1250.75 L 1243.78 1250.75 M 1243.78 1535.39 L 1303.78 1535.39 M 1303.78 1635.39 L 1243.78 1635.39 M 1243.78 950.75 L 1303.78 950.75"/><use x="1549.37" y="1535.39" xlink:href="#tool-D17-pad-1007"/><use x="1549.37" y="1635.39" xlink:href="#tool-D18-pad-1008"/><use x="1116.3" y="758.62" xlink:href="#tool-D19-pad-1009"/><use x="2149.76" y="778.31" xlink:href="#tool-D19-pad-1009"/><use x="3685.2" y="768.46" xlink:href="#tool-D19-pad-1009"/><path stroke-width="19.69" fill="none" d="M 3959.2 1018.65 L 3974.75 1003.1 L 3995.07 994.69 L 4017.06 994.69 L 4037.37 1003.1 L 4052.92 1018.65 L 4061.34 1038.97 L 4061.34 1060.96 L 4052.92 1081.27 L 4037.37 1096.82 L 4017.06 1105.24 L 3995.07 1105.24 L 3974.75 1096.82 L 3959.2 1081.27 L 3950.79 1060.96 L 3950.79 1038.97 L 3959.2 1018.65 M 3963.52 1014.33 L 2895.06 1014.33 M 2899.38 1018.65 L 2907.8 1038.97 L 2907.8 1060.96 L 2899.38 1081.27 L 2883.83 1096.82 L 2863.51 1105.24 L 2841.52 1105.24 L 2821.21 1096.82 L 2805.66 1081.27 L 2797.24 1060.96 L 2797.24 1038.97 L 2805.66 1018.65 L 2821.21 1003.1 L 2841.52 994.69 L 2863.51 994.69 L 2883.83 1003.1 L 2899.38 1018.65 M 2905.74 1034 L 3952.84 1034 M 3950.79 1053.67 L 2907.8 1053.67 M 2902.66 1073.34 L 3955.92 1073.34 M 3970.95 1093.01 L 2887.64 1093.01 M 2817.4 1093.01 L 2604.17 1093.01 M 2600.37 1096.82 L 2580.05 1105.24 L 2558.06 1105.24 L 2537.74 1096.82 L 2522.19 1081.27 L 2513.78 1060.96 L 2513.78 1038.97 L 2522.19 1018.65 L 2537.74 1003.1 L 2558.06 994.69 L 2580.05 994.69 L 2600.37 1003.1 L 2615.92 1018.65 L 2624.33 1038.97 L 2624.33 1060.96 L 2615.92 1081.27 L 2600.37 1096.82 M 2619.2 1073.34 L 2802.38 1073.34 M 2797.24 1053.67 L 2624.33 1053.67 M 2622.28 1034 L 2799.3 1034 M 2809.97 1014.33 L 2611.6 1014.33 M 2526.51 1014.33 L 1351.55 1014.33 M 1354.24 1017.03 L 1355.78 1020.74 L 1364.6 1029.56 L 1370.3 1043.31 L 1370.3 1058.19 L 1364.6 1071.93 L 1355.78 1080.76 L 1354.24 1084.47 L 1337.5 1101.21 L 1315.62 1110.28 L 1231.94 1110.28 L 1210.06 1101.21 L 1193.31 1084.47 L 1184.25 1062.59 L 1184.25 1038.91 L 1193.31 1017.03 L 1210.06 1000.28 L 1231.94 991.22 L 1315.62 991.22 L 1337.5 1000.28 L 1354.24 1017.03 M 1366.44 1034 L 2515.83 1034 M 2513.78 1053.67 L 1370.3 1053.67 M 1363.19 1073.34 L 2518.91 1073.34 M 2533.94 1093.01 L 1345.7 1093.01 M 1323.93 994.66 L 4748.19 994.66 M 4748.19 974.99 L 870.24 974.99 M 870.24 955.32 L 4748.19 955.32 M 4748.19 935.65 L 4640.14 935.65 M 4639.81 935.79 L 4600.66 935.79 L 4564.48 920.8 L 4536.8 893.12 L 4521.81 856.94 L 4521.81 817.78 L 4536.8 781.61 L 4564.48 753.92 L 4600.66 738.94 L 4639.81 738.94 L 4675.99 753.92 L 4703.68 781.61 L 4718.66 817.78 L 4718.66 856.94 L 4703.68 893.12 L 4675.99 920.8 L 4639.81 935.79 M 4600.33 935.65 L 1490.53 935.65 M 1490.21 935.79 L 1451.05 935.79 L 1414.88 920.8 L 1387.19 893.12 L 1372.2 856.94 L 1372.2 817.78 L 1387.19 781.61 L 1414.88 753.92 L 1451.05 738.94 L 1490.21 738.94 L 1526.38 753.92 L 1554.07 781.61 L 1569.05 817.78 L 1569.05 856.94 L 1554.07 893.12 L 1526.38 920.8 L 1490.21 935.79 M 1450.73 935.65 L 870.24 935.65 M 870.24 915.98 L 1410.06 915.98 M 1390.39 896.31 L 870.24 896.31 M 870.24 876.64 L 1380.37 876.64 M 1372.22 856.97 L 870.24 856.97 M 870.24 837.3 L 1372.2 837.3 M 1372.27 817.63 L 870.24 817.63 M 870.24 797.96 L 1380.41 797.96 M 1390.51 778.29 L 870.24 778.29 M 870.24 758.62 L 1410.18 758.62 M 1451.02 738.95 L 870.24 738.95 M 870.24 719.28 L 4748.19 719.28 M 4748.19 699.61 L 870.24 699.61 M 870.24 679.94 L 4748.19 679.94 M 4748.19 660.27 L 870.24 660.27 M 870.24 640.6 L 4748.19 640.6 M 4748.19 630.67 L 870.24 630.67 L 870.24 1693.66 L 870.83 1700.5 L 872.61 1707.13 L 875.51 1713.35 L 879.45 1718.97 L 884.3 1723.82 L 889.92 1727.76 L 896.14 1730.66 L 902.77 1732.43 L 909.61 1733.03 L 1802.48 1733.03 L 1828.17 1731.35 L 1853.43 1726.32 L 1877.81 1718.05 L 1900.9 1706.66 L 1922.31 1692.35 L 1941.67 1675.38 L 2210.22 1406.83 L 2229.58 1389.85 L 2250.99 1375.55 L 2274.08 1364.16 L 2298.46 1355.88 L 2323.72 1350.86 L 2349.41 1349.17 L 3121.09 1349.17 L 3133.4 1350.14 L 3145.42 1353.03 L 3156.83 1357.76 L 3167.37 1364.21 L 3176.76 1372.24 L 3199.54 1395.01 L 3208.93 1403.03 L 3219.47 1409.49 L 3230.88 1414.22 L 3242.9 1417.1 L 3255.21 1418.07 L 3583.68 1418.07 L 3596 1417.1 L 3608.02 1414.22 L 3619.43 1409.49 L 3629.97 1403.03 L 3639.36 1395.01 L 3662.13 1372.24 L 3671.53 1364.21 L 3682.06 1357.76 L 3693.48 1353.03 L 3705.49 1350.14 L 3717.81 1349.17 L 4708.82 1349.17 L 4715.66 1348.58 L 4722.28 1346.8 L 4728.5 1343.9 L 4734.13 1339.96 L 4738.98 1335.11 L 4742.91 1329.49 L 4745.81 1323.27 L 4747.59 1316.64 L 4748.19 1309.8 L 4748.19 630.67 M 4748.19 738.95 L 4639.85 738.95 M 4600.62 738.95 L 1490.24 738.95 M 1531.08 758.62 L 4559.78 758.62 M 4540.11 778.29 L 1550.75 778.29 M 1560.84 797.96 L 4530.02 797.96 M 4521.87 817.63 L 1568.99 817.63 M 1569.05 837.3 L 4521.81 837.3 M 4521.82 856.97 L 1569.04 856.97 M 1560.89 876.64 L 4529.97 876.64 M 4539.99 896.31 L 1550.87 896.31 M 1531.2 915.98 L 4559.66 915.98 M 4680.81 915.98 L 4748.19 915.98 M 4748.19 896.31 L 4700.48 896.31 M 4710.5 876.64 L 4748.19 876.64 M 4748.19 856.97 L 4718.65 856.97 M 4718.66 837.3 L 4748.19 837.3 M 4748.19 817.63 L 4718.6 817.63 M 4710.45 797.96 L 4748.19 797.96 M 4748.19 778.29 L 4700.36 778.29 M 4680.69 758.62 L 4748.19 758.62 M 4748.19 1014.33 L 4332.07 1014.33 M 4336.39 1018.65 L 4344.8 1038.97 L 4344.8 1060.96 L 4336.39 1081.27 L 4320.84 1096.82 L 4300.52 1105.24 L 4278.53 1105.24 L 4258.22 1096.82 L 4242.67 1081.27 L 4234.25 1060.96 L 4234.25 1038.97 L 4242.67 1018.65 L 4258.22 1003.1 L 4278.53 994.69 L 4300.52 994.69 L 4320.84 1003.1 L 4336.39 1018.65 M 4342.75 1034 L 4748.19 1034 M 4748.19 1053.67 L 4344.8 1053.67 M 4339.67 1073.34 L 4748.19 1073.34 M 4748.19 1093.01 L 4324.64 1093.01 M 4254.41 1093.01 L 4041.18 1093.01 M 4056.21 1073.34 L 4239.38 1073.34 M 4234.25 1053.67 L 4061.34 1053.67 M 4059.28 1034 L 4236.31 1034 M 4246.98 1014.33 L 4048.61 1014.33 M 3666.63 1368.4 L 3172.27 1368.4 M 3192.59 1388.07 L 3646.3 1388.07 M 3622.29 1407.74 L 3216.61 1407.74 M 2513.94 1841.3 L 2488.24 1842.98 L 2462.99 1848.01 L 2438.61 1856.28 L 2415.51 1867.67 L 2394.1 1881.98 L 2374.74 1898.96 L 2357.77 1918.31 L 2343.46 1939.72 L 2332.07 1962.82 L 2323.79 1987.2 L 2318.77 2012.46 L 2317.09 2038.15 L 2317.09 2114.56 L 2318.08 2127.25 L 2317.09 2132.64 L 2317.09 3438.32 L 2317.87 3450.35 L 2319.98 3459.1 L 2323.52 3467.66 L 2328.37 3475.57 L 2334.38 3482.61 L 2445.45 3593.68 L 2470.46 3621.66 L 2478.12 3632.47 L 2480.55 3635.24 L 2481.61 3637.38 L 2492.17 3652.27 L 2494.14 3655.83 L 2494.86 3656.65 L 2497.06 3661.1 L 2500.17 3666.73 L 2503.95 3672.39 L 2504.99 3675.46 L 2510.32 3685.11 L 2513.45 3692.67 L 2515.34 3695.48 L 2518.26 3704.11 L 2522.29 3712.28 L 2522.95 3715.6 L 2524.69 3719.78 L 2528.11 3731.68 L 2530.57 3736.66 L 2532.35 3745.6 L 2535.28 3754.22 L 2535.57 3758.79 L 2537.88 3772.35 L 2540.3 3779.48 L 2540.89 3788.57 L 2542.67 3797.5 L 2542.11 3806.13 L 2542.32 3809.86 L 2543.46 3814.14 L 2543.46 3827.77 L 2544.36 3841.38 L 2543.46 3845.86 L 2543.46 3982.46 L 2544.18 3993.35 L 2545.43 3999.63 L 2547.48 4005.69 L 2550.31 4011.43 L 2553.87 4016.75 L 2558.09 4021.56 L 2562.9 4025.78 L 2568.22 4029.33 L 2573.96 4032.16 L 2580.02 4034.22 L 2586.29 4035.47 L 2597.19 4036.18 L 2632.05 4036.18 L 2638.88 4035.58 L 2645.51 4033.81 L 2651.73 4030.91 L 2657.35 4026.97 L 2662.21 4022.12 L 2666.14 4016.5 L 2669.04 4010.28 L 2670.82 4003.65 L 2671.42 3996.81 L 2671.42 3898.39 L 2672.93 3875.26 L 2677.45 3852.53 L 2684.9 3830.59 L 2695.15 3809.8 L 2708.03 3790.53 L 2723.31 3773.11 L 2740.73 3757.83 L 2760 3744.96 L 2780.78 3734.71 L 2802.73 3727.26 L 2825.46 3722.74 L 2848.58 3721.22 L 2871.71 3722.74 L 2894.44 3727.26 L 2916.38 3734.71 L 2937.17 3744.96 L 2956.43 3757.83 L 2973.86 3773.11 L 2989.14 3790.53 L 3002.01 3809.8 L 3012.26 3830.59 L 3019.71 3852.53 L 3024.23 3875.26 L 3025.75 3898.39 L 3025.75 3996.81 L 3026.35 4003.65 L 3028.12 4010.28 L 3031.02 4016.5 L 3034.96 4022.12 L 3039.81 4026.97 L 3045.43 4030.91 L 3051.65 4033.81 L 3058.28 4035.58 L 3065.12 4036.18 L 3071.95 4035.58 L 3078.58 4033.81 L 3084.8 4030.91 L 3090.42 4026.97 L 3095.28 4022.12 L 3099.21 4016.5 L 3102.11 4010.28 L 3103.89 4003.65 L 3104.49 3996.81 L 3104.49 3983.14 L 3103.43 3971.06 L 3104.49 3965.07 L 3104.49 3778.19 L 3103.69 3766.04 L 3103.29 3764.02 L 3101.6 3756.96 L 3098.05 3748.4 L 3093.21 3740.5 L 3087.19 3733.45 L 2966.69 3612.95 L 2951.63 3596.09 L 2938.54 3577.65 L 2927.6 3557.86 L 2918.95 3536.97 L 2912.69 3515.25 L 2910.88 3504.57 L 2910.44 3503.34 L 2910.25 3500.87 L 2908.91 3492.96 L 2908.84 3491.72 L 2908.16 3488.91 L 2908.33 3482.9 L 2907.64 3480.33 L 2907.64 3467.59 L 2906.64 3454.89 L 2907.64 3449.51 L 2907.64 2900.98 L 2906.75 2896.49 L 2907.64 2882.89 L 2907.64 2869.26 L 2908.03 2867.81 L 2908.67 2856.32 L 2908.43 2852.62 L 2909.06 2849.46 L 2909.58 2840.18 L 2915.38 2806.03 L 2924.97 2772.74 L 2938.23 2740.73 L 2954.99 2710.42 L 2975.03 2682.16 L 2998.11 2656.33 L 3263.37 2391.08 L 3282.73 2374.1 L 3304.14 2359.8 L 3327.23 2348.41 L 3351.61 2340.13 L 3376.87 2335.11 L 3402.56 2333.43 L 4718.66 2333.43 L 4725.5 2332.83 L 4732.13 2331.05 L 4738.35 2328.15 L 4743.97 2324.21 L 4748.82 2319.36 L 4752.76 2313.74 L 4755.66 2307.52 L 4757.43 2300.89 L 4758.03 2294.06 L 4758.03 1880.67 L 4757.43 1873.83 L 4755.66 1867.2 L 4752.76 1860.98 L 4748.82 1855.36 L 4743.97 1850.51 L 4738.35 1846.57 L 4732.13 1843.67 L 4725.5 1841.9 L 4718.66 1841.3 L 2513.94 1841.3 M 2430.76 1860.15 L 4752.17 1860.15 M 4757.96 1879.82 L 2397.33 1879.82 M 2374.27 1899.49 L 4758.03 1899.49 M 4758.03 1919.16 L 2357.2 1919.16 M 2344.06 1938.83 L 4758.03 1938.83 M 4758.03 1958.5 L 2334.2 1958.5 M 2326.86 1978.17 L 4758.03 1978.17 M 4758.03 1997.84 L 2321.68 1997.84 M 2318.44 2017.51 L 4758.03 2017.51 M 4758.03 2037.18 L 2317.15 2037.18 M 2317.09 2056.85 L 4758.03 2056.85 M 4758.03 2076.52 L 2317.09 2076.52 M 2317.09 2096.19 L 4758.03 2096.19 M 4758.03 2115.86 L 2317.19 2115.86 M 2317.09 2135.53 L 4758.03 2135.53 M 4758.03 2155.2 L 2317.09 2155.2 M 2317.09 2174.87 L 4758.03 2174.87 M 4758.03 2194.54 L 2317.09 2194.54 M 2317.09 2214.21 L 4758.03 2214.21 M 4758.03 2233.88 L 2317.09 2233.88 M 2317.09 2253.55 L 4758.03 2253.55 M 4758.03 2273.22 L 2317.09 2273.22 M 2317.09 2292.89 L 4758.03 2292.89 M 4753.31 2312.56 L 2317.09 2312.56 M 2317.09 2332.23 L 4727.71 2332.23 M 4718.66 2549.96 L 3703.43 2549.96 L 3712.23 2575.29 L 3718.01 2601.48 L 3720.7 2628.16 L 3720.26 2654.97 L 3716.7 2681.55 L 3710.06 2707.53 L 3700.44 2732.56 L 3687.97 2756.29 L 3672.81 2778.41 L 3655.17 2798.62 L 3350.67 3091.55 L 3348.88 3094.24 L 3345.48 3101.14 L 3345.48 3101.14 L 3383.9 3101.14 L 3395.98 3100.08 L 3401.98 3101.14 L 3490.27 3101.14 L 3497.02 3100.03 L 3508.34 3101.14 L 3519.71 3101.14 L 3523.71 3102.22 L 3526.23 3102.38 L 3531.89 3102.57 L 3536.26 3103.89 L 3540.81 3104.34 L 3543.82 3105.48 L 3550.82 3106.87 L 3565.37 3111.81 L 3565.59 3111.86 L 3565.71 3111.92 L 3571.63 3113.93 L 3591.34 3123.65 L 3609.62 3135.86 L 3626.14 3150.35 L 3923.63 3447.85 L 3924 3448.1 L 3924.7 3448.91 L 3931.26 3455.47 L 3940.22 3465.69 L 3941.28 3466.75 L 3941.51 3467.15 L 3943.08 3468.63 L 3943.73 3469.69 L 3945.75 3472 L 3950.36 3478.89 L 3951.62 3480.37 L 3952.32 3481.82 L 3957.96 3490.27 L 3964.49 3503.51 L 3965.3 3504.82 L 3965.54 3505.63 L 3967.68 3509.98 L 3969.66 3515.81 L 3970.48 3517.32 L 3971.23 3520.43 L 3974.34 3529.61 L 3974.97 3531.12 L 3975.29 3533.52 L 3976.52 3539.73 L 3978.13 3544.27 L 3978.6 3550.16 L 3979.03 3552.35 L 3979.08 3553.1 L 3980.41 3558.61 L 3980.35 3560.77 L 3980.47 3561.21 L 3980.47 3573.93 L 3981.47 3586.61 L 3980.47 3592.01 L 3980.47 3982.46 L 3981.19 3993.35 L 3982.43 3999.63 L 3984.49 4005.69 L 3987.32 4011.43 L 3990.88 4016.75 L 3995.1 4021.56 L 3999.91 4025.78 L 4005.23 4029.33 L 4010.97 4032.16 L 4017.02 4034.22 L 4023.3 4035.47 L 4034.19 4036.18 L 4069.05 4036.18 L 4075.89 4035.58 L 4082.52 4033.81 L 4088.74 4030.91 L 4094.36 4026.97 L 4099.21 4022.12 L 4103.15 4016.5 L 4106.05 4010.28 L 4107.83 4003.65 L 4108.43 3996.81 L 4108.43 3898.39 L 4109.94 3875.26 L 4114.46 3852.53 L 4121.91 3830.59 L 4132.16 3809.8 L 4145.04 3790.53 L 4160.32 3773.11 L 4177.74 3757.83 L 4197.01 3744.96 L 4217.79 3734.71 L 4239.74 3727.26 L 4262.47 3722.74 L 4285.59 3721.22 L 4308.72 3722.74 L 4331.44 3727.26 L 4353.39 3734.71 L 4374.17 3744.96 L 4393.44 3757.83 L 4410.87 3773.11 L 4426.15 3790.53 L 4439.02 3809.8 L 4449.27 3830.59 L 4456.72 3852.53 L 4461.24 3875.26 L 4462.76 3898.39 L 4462.76 3996.81 L 4463.35 4003.65 L 4465.13 4010.28 L 4468.03 4016.5 L 4471.97 4022.12 L 4476.82 4026.97 L 4482.44 4030.91 L 4488.66 4033.81 L 4495.29 4035.58 L 4502.13 4036.18 L 4508.96 4035.58 L 4515.59 4033.81 L 4521.81 4030.91 L 4527.43 4026.97 L 4532.29 4022.12 L 4536.22 4016.5 L 4539.12 4010.28 L 4540.9 4003.65 L 4541.23 3999.82 L 4540.44 3990.75 L 4541.5 3984.76 L 4541.5 3270.68 L 4540.44 3264.68 L 4541.5 3252.61 L 4541.5 3248.78 L 4541.5 3240.48 L 4542.09 3238.25 L 4542.09 3233.65 L 4542.62 3231.7 L 4542.93 3226.94 L 4547.2 3205.47 L 4554.23 3184.75 L 4563.91 3165.12 L 4576.07 3146.92 L 4590.5 3130.46 L 4606.96 3116.03 L 4625.16 3103.87 L 4644.79 3094.19 L 4665.51 3087.16 L 4686.98 3082.89 L 4691.74 3082.58 L 4693.69 3082.05 L 4699.69 3082.05 L 4705.3 3081.69 L 4712.6 3080.4 L 4718.66 3080.93 L 4724.72 3080.4 L 4726.22 3080.66 L 4732.13 3079.08 L 4738.35 3076.18 L 4743.97 3072.25 L 4748.82 3067.39 L 4752.76 3061.77 L 4755.66 3055.55 L 4757.43 3048.92 L 4758.03 3042.09 L 4758.03 2589.33 L 4757.43 2582.49 L 4755.66 2575.87 L 4752.76 2569.65 L 4748.82 2564.02 L 4743.97 2559.17 L 4738.35 2555.24 L 4732.13 2552.33 L 4725.5 2550.56 L 4718.66 2549.96 M 4751.8 2568.28 L 3709.79 2568.28 M 3715.02 2587.95 L 4757.91 2587.95 M 4758.03 2607.62 L 3718.63 2607.62 M 3720.61 2627.29 L 4758.03 2627.29 M 4758.03 2646.96 L 3720.39 2646.96 M 3718.7 2666.63 L 4758.03 2666.63 M 4758.03 2686.3 L 3715.48 2686.3 M 3710.46 2705.97 L 4758.03 2705.97 M 4758.03 2725.64 L 3703.1 2725.64 M 3693.74 2745.31 L 4758.03 2745.31 M 4758.03 2764.98 L 3682.02 2764.98 M 3667.37 2784.65 L 4758.03 2784.65 M 4758.03 2804.32 L 3649.25 2804.32 M 3628.8 2823.99 L 4758.03 2823.99 M 4758.03 2843.66 L 3608.36 2843.66 M 3587.91 2863.33 L 4758.03 2863.33 M 4758.03 2883 L 3567.46 2883 M 3547.02 2902.67 L 4758.03 2902.67 M 4758.03 2922.34 L 3526.57 2922.34 M 3506.12 2942.01 L 4758.03 2942.01 M 4758.03 2961.68 L 3485.68 2961.68 M 3465.23 2981.35 L 4758.03 2981.35 M 4758.03 3001.02 L 3444.78 3001.02 M 3424.34 3020.69 L 4758.03 3020.69 M 4758.03 3040.36 L 3403.89 3040.36 M 3383.44 3060.03 L 4753.57 3060.03 M 4729.82 3079.7 L 3363 3079.7 M 3346.35 3099.37 L 4634.29 3099.37 M 4603.53 3119.04 L 3581.99 3119.04 M 3612.86 3138.71 L 4583.27 3138.71 M 4568.41 3158.38 L 3634.17 3158.38 M 3653.84 3178.05 L 4557.54 3178.05 M 4549.83 3197.72 L 3673.51 3197.72 M 3693.18 3217.39 L 4544.83 3217.39 M 4542.09 3237.06 L 3712.85 3237.06 M 3732.52 3256.73 L 4541.13 3256.73 M 4541.5 3276.4 L 3752.19 3276.4 M 3771.86 3296.07 L 4541.5 3296.07 M 4541.5 3315.74 L 3791.53 3315.74 M 3811.2 3335.41 L 4541.5 3335.41 M 4541.5 3355.08 L 3830.87 3355.08 M 3850.54 3374.75 L 4541.5 3374.75 M 4541.5 3394.42 L 3870.21 3394.42 M 3889.88 3414.09 L 4541.5 3414.09 M 4541.5 3433.76 L 3909.55 3433.76 M 3929.22 3453.43 L 4541.5 3453.43 M 4541.5 3473.1 L 3946.49 3473.1 M 3959.2 3492.77 L 4541.5 3492.77 M 4541.5 3512.44 L 3968.52 3512.44 M 3975.1 3532.11 L 4541.5 3532.11 M 4541.5 3551.78 L 3978.92 3551.78 M 3980.47 3571.45 L 4541.5 3571.45 M 4541.5 3591.12 L 3980.64 3591.12 M 3980.47 3610.79 L 4541.5 3610.79 M 4541.5 3630.46 L 3980.47 3630.46 M 3980.47 3650.13 L 4541.5 3650.13 M 4541.5 3669.8 L 3980.47 3669.8 M 3980.47 3689.47 L 4541.5 3689.47 M 4541.5 3709.14 L 3980.47 3709.14 M 3980.47 3728.82 L 4235.15 3728.82 M 4191.73 3748.49 L 3980.47 3748.49 M 3980.47 3768.16 L 4165.97 3768.16 M 4147.41 3787.83 L 3980.47 3787.83 M 3980.47 3807.5 L 4133.7 3807.5 M 4123.6 3827.17 L 3980.47 3827.17 M 3980.47 3846.84 L 4116.4 3846.84 M 4111.68 3866.51 L 3980.47 3866.51 M 3980.47 3886.18 L 4109.23 3886.18 M 4108.43 3905.85 L 3980.47 3905.85 M 3980.47 3925.52 L 4108.43 3925.52 M 4108.43 3945.19 L 3980.47 3945.19 M 3980.47 3964.86 L 4108.43 3964.86 M 4108.43 3984.53 L 3980.61 3984.53 M 3983.99 4004.2 L 4107.68 4004.2 M 4097.46 4023.87 L 3997.73 4023.87 M 3900.89 4122.22 L 3705.73 4122.22 M 3709.16 4119.2 L 3690.77 4135.33 L 3670.43 4148.92 L 3648.49 4159.74 L 3625.33 4167.6 L 3601.34 4172.38 L 3576.93 4173.98 L 2592.68 4173.98 L 2568.27 4172.38 L 2544.28 4167.6 L 2521.11 4159.74 L 2499.17 4148.92 L 2478.83 4135.33 L 2460.44 4119.2 L 2444.31 4100.81 L 2430.72 4080.47 L 2419.9 4058.53 L 2412.04 4035.37 L 2407.27 4011.38 L 2405.67 3986.97 L 2405.67 3947.6 L 2326.93 3947.6 L 2326.93 3986.97 L 2325.33 4011.38 L 2320.56 4035.37 L 2312.69 4058.53 L 2301.87 4080.47 L 2288.28 4100.81 L 2272.16 4119.2 L 2253.76 4135.33 L 2233.43 4148.92 L 2211.49 4159.74 L 2188.32 4167.6 L 2164.33 4172.38 L 2139.92 4173.98 L 1244.25 4173.98 L 1218.56 4172.29 L 1193.3 4167.27 L 1168.92 4158.99 L 1145.83 4147.6 L 1124.42 4133.3 L 1105.06 4116.32 L 1088.08 4096.96 L 1073.77 4075.55 L 1062.39 4052.46 L 1059.83 4044.93 L 1059.17 4043.78 L 1058.14 4039.95 L 1057.05 4036.74 L 1055.02 4032.39 L 1054.42 4029 L 1054.11 4028.07 L 1052.78 4021.39 L 1050.11 4014.05 L 1049.57 4007.98 L 1048 4002.1 L 1048 3997.5 L 1047.4 3995.27 L 1047.4 3983.14 L 1046.34 3971.06 L 1047.4 3965.07 L 1047.4 3863.53 L 1046.6 3851.35 L 1045.1 3843.81 L 1042.63 3836.53 L 1039.23 3829.64 L 1034.96 3823.25 L 1029.9 3817.47 L 1024.12 3812.4 L 1017.73 3808.13 L 1010.83 3804.73 L 1003.55 3802.26 L 996.02 3800.76 L 983.84 3799.96 L 911.82 3799.96 L 905.82 3801.02 L 902.23 3800.7 L 896.14 3802.33 L 889.92 3805.24 L 884.3 3809.17 L 879.45 3814.02 L 875.51 3819.65 L 872.61 3825.87 L 870.83 3832.49 L 870.24 3839.33 L 870.24 4508.62 L 4758.03 4508.62 L 4758.03 4213.35 L 4757.43 4206.51 L 4755.66 4199.88 L 4752.76 4193.66 L 4748.82 4188.04 L 4743.97 4183.19 L 4738.35 4179.25 L 4732.13 4176.35 L 4725.5 4174.57 L 4718.66 4173.98 L 4029.68 4173.98 L 4005.28 4172.38 L 3981.28 4167.6 L 3958.12 4159.74 L 3936.18 4148.92 L 3915.84 4135.33 L 3897.45 4119.2 L 3881.32 4100.81 L 3867.73 4080.47 L 3856.91 4058.53 L 3849.05 4035.37 L 3844.28 4011.38 L 3842.68 3986.97 L 3842.68 3947.6 L 3763.94 3947.6 L 3763.94 3986.97 L 3762.34 4011.38 L 3757.56 4035.37 L 3749.7 4058.53 L 3738.88 4080.47 L 3725.29 4100.81 L 3709.16 4119.2 M 3723.77 4102.55 L 3882.84 4102.55 M 3869.34 4082.88 L 3737.28 4082.88 M 3747.4 4063.21 L 3859.22 4063.21 M 3851.82 4043.54 L 3754.79 4043.54 M 3763.94 4036.18 L 3842.68 4036.18 L 3842.68 3579.35 L 3842.19 3573.19 L 3840.74 3567.17 L 3838.37 3561.46 L 3835.14 3556.18 L 3831.11 3551.48 L 3529.41 3250.47 L 3523.44 3245.57 L 3516.63 3241.93 L 3509.25 3239.69 L 3501.57 3238.94 L 3389.92 3238.94 L 3383.08 3239.54 L 3376.46 3241.31 L 3370.24 3244.21 L 3364.61 3248.15 L 3359.76 3253 L 3355.83 3258.62 L 3352.93 3264.84 L 3351.15 3271.47 L 3350.55 3278.31 L 3350.55 3419.48 L 3351.31 3427.16 L 3353.55 3434.55 L 3357.19 3441.35 L 3362.08 3447.32 L 3596.61 3681.85 L 3618.45 3683.28 L 3639.92 3687.55 L 3660.65 3694.59 L 3680.28 3704.27 L 3698.47 3716.43 L 3714.93 3730.86 L 3729.36 3747.31 L 3741.52 3765.51 L 3751.2 3785.14 L 3758.24 3805.87 L 3762.51 3827.33 L 3763.94 3849.17 L 3763.94 4036.18 M 3763.94 4023.87 L 3842.68 4023.87 M 3846.76 4023.87 L 3759.85 4023.87 M 3762.81 4004.2 L 3843.81 4004.2 M 3842.68 4004.2 L 3763.94 4004.2 M 3763.94 3984.53 L 3842.68 3984.53 L 3763.94 3984.53 M 3763.94 3964.86 L 3842.68 3964.86 L 3763.94 3964.86 M 3763.94 3945.19 L 3842.68 3945.19 M 3842.68 3925.52 L 3763.94 3925.52 M 3763.94 3905.85 L 3842.68 3905.85 M 3842.68 3886.18 L 3763.94 3886.18 M 3763.94 3866.51 L 3842.68 3866.51 M 3842.68 3846.84 L 3763.78 3846.84 M 3762.47 3827.17 L 3842.68 3827.17 M 3842.68 3807.5 L 3758.56 3807.5 M 3752.11 3787.83 L 3842.68 3787.83 M 3842.68 3768.16 L 3742.82 3768.16 M 3730.14 3748.49 L 3842.68 3748.49 M 3842.68 3728.82 L 3712.6 3728.82 M 3687.58 3709.14 L 3842.68 3709.14 M 3842.68 3689.47 L 3645.59 3689.47 M 3584.57 3669.8 L 3842.68 3669.8 M 3842.68 3650.13 L 3564.9 3650.13 M 3545.23 3630.46 L 3842.68 3630.46 M 3842.68 3610.79 L 3525.56 3610.79 M 3505.89 3591.12 L 3842.68 3591.12 M 3841.77 3571.45 L 3486.22 3571.45 M 3466.55 3551.78 L 3831.37 3551.78 M 3811.7 3532.11 L 3446.88 3532.11 M 3427.21 3512.44 L 3791.98 3512.44 M 3772.27 3492.77 L 3407.54 3492.77 M 3387.87 3473.1 L 3752.55 3473.1 M 3732.84 3453.43 L 3368.2 3453.43 M 3353.31 3433.76 L 3713.12 3433.76 M 3693.41 3414.09 L 3350.55 3414.09 M 3350.55 3394.42 L 3673.69 3394.42 M 3653.98 3374.75 L 3350.55 3374.75 M 3350.55 3355.08 L 3634.26 3355.08 M 3614.54 3335.41 L 3350.55 3335.41 M 3350.55 3315.74 L 3594.83 3315.74 M 3575.11 3296.07 L 3350.55 3296.07 M 3350.72 3276.4 L 3555.4 3276.4 M 3535.68 3256.73 L 3357.15 3256.73 M 3202.91 3256.73 L 3045.43 3256.73 M 3045.43 3237.06 L 3202.91 3237.06 M 3202.91 3217.39 L 3045.43 3217.39 M 3045.43 3197.72 L 3202.91 3197.72 M 3202.91 3178.05 L 3045.43 3178.05 M 3045.43 3158.38 L 3202.91 3158.38 M 3202.91 3138.71 L 3045.43 3138.71 M 3045.43 3119.04 L 3203.21 3119.04 M 3202.91 3123.62 L 3204.6 3097.93 L 3209.62 3072.68 L 3217.9 3048.29 L 3229.29 3025.2 L 3243.59 3003.79 L 3260.57 2984.43 L 3550.78 2694.22 L 3558.8 2684.83 L 3565.26 2674.29 L 3569.99 2662.88 L 3572.87 2650.86 L 3573.84 2638.54 L 3572.87 2626.23 L 3569.99 2614.21 L 3565.26 2602.8 L 3558.8 2592.26 L 3550.78 2582.87 L 3465.28 2497.37 L 3455.89 2489.35 L 3445.35 2482.89 L 3433.94 2478.16 L 3421.92 2475.28 L 3409.61 2474.31 L 3397.29 2475.28 L 3385.27 2478.16 L 3373.86 2482.89 L 3363.32 2489.35 L 3353.93 2497.37 L 3103.09 2748.21 L 3086.11 2767.57 L 3071.81 2788.98 L 3060.42 2812.07 L 3052.14 2836.46 L 3047.12 2861.71 L 3045.43 2887.4 L 3045.43 3462.19 L 3046.4 3474.47 L 3049.27 3486.46 L 3053.97 3497.85 L 3060.39 3508.36 L 3068.38 3517.75 L 3184.85 3634.72 L 3201.76 3654.06 L 3216.02 3675.45 L 3227.36 3698.51 L 3235.6 3722.84 L 3240.61 3748.05 L 3242.28 3773.69 L 3242.28 3977.13 L 3243.18 3987.38 L 3245.84 3997.32 L 3250.2 4006.65 L 3256.1 4015.09 L 3263.38 4022.36 L 3271.81 4028.27 L 3281.14 4032.62 L 3291.08 4035.28 L 3301.34 4036.18 L 3340.71 4036.18 L 3350.96 4035.28 L 3360.91 4032.62 L 3370.24 4028.27 L 3378.67 4022.36 L 3385.95 4015.09 L 3391.85 4006.65 L 3396.2 3997.32 L 3398.87 3987.38 L 3399.76 3977.13 L 3399.76 3737.53 L 3399.01 3729.85 L 3396.77 3722.46 L 3393.13 3715.66 L 3388.23 3709.69 L 3260.57 3582.03 L 3243.59 3562.67 L 3229.29 3541.26 L 3217.9 3518.16 L 3209.62 3493.78 L 3204.6 3468.53 L 3202.91 3442.83 L 3202.91 3123.62 M 3204.5 3099.37 L 3045.43 3099.37 M 3045.43 3079.7 L 3208.22 3079.7 M 3213.91 3060.03 L 3045.43 3060.03 M 3045.43 3040.36 L 3221.81 3040.36 M 3232.3 3020.69 L 3045.43 3020.69 M 3045.43 3001.02 L 3246.02 3001.02 M 3263.65 2981.35 L 3045.43 2981.35 M 3045.43 2961.68 L 3283.32 2961.68 M 3302.99 2942.01 L 3045.43 2942.01 M 3045.43 2922.34 L 3322.66 2922.34 M 3342.33 2902.67 L 3045.43 2902.67 M 3045.72 2883 L 3362 2883 M 3381.67 2863.33 L 3047.01 2863.33 M 3050.71 2843.66 L 3401.34 2843.66 M 3421.01 2823.99 L 3056.37 2823.99 M 3064.24 2804.32 L 3440.68 2804.32 M 3460.35 2784.65 L 3074.7 2784.65 M 3088.38 2764.98 L 3480.02 2764.98 M 3499.69 2745.31 L 3105.99 2745.31 M 3125.66 2725.64 L 3519.36 2725.64 M 3539.03 2705.97 L 3145.33 2705.97 M 3165 2686.3 L 3557.55 2686.3 M 3568.43 2666.63 L 3184.67 2666.63 M 3204.34 2646.96 L 3573.18 2646.96 M 3572.96 2627.29 L 3224.01 2627.29 M 3243.68 2607.62 L 3567.26 2607.62 M 3555.12 2587.95 L 3263.35 2587.95 M 3283.02 2568.28 L 3536.19 2568.28 M 3516.52 2548.61 L 3302.69 2548.61 M 3322.36 2528.94 L 3496.85 2528.94 M 3477.18 2509.27 L 3342.03 2509.27 M 3363.03 2489.6 L 3456.18 2489.6 M 3320.14 2351.9 L 2317.09 2351.9 M 2317.09 2371.57 L 3286.51 2371.57 M 3263.2 2391.24 L 2317.09 2391.24 M 2317.09 2410.91 L 3243.53 2410.91 M 3223.86 2430.59 L 2317.09 2430.59 M 2317.09 2450.26 L 3204.19 2450.26 M 3184.52 2469.93 L 2317.09 2469.93 M 2317.09 2489.6 L 3164.85 2489.6 M 3145.18 2509.27 L 2317.09 2509.27 M 2317.09 2528.94 L 3125.51 2528.94 M 3105.84 2548.61 L 2317.09 2548.61 M 2317.09 2568.28 L 3086.17 2568.28 M 3066.5 2587.95 L 2317.09 2587.95 M 2317.09 2607.62 L 3046.83 2607.62 M 3027.16 2627.29 L 2317.09 2627.29 M 2317.09 2646.96 L 3007.49 2646.96 M 2988.92 2666.63 L 2317.09 2666.63 M 2317.09 2686.3 L 2972.1 2686.3 M 2958.14 2705.97 L 2317.09 2705.97 M 2317.09 2725.64 L 2946.57 2725.64 M 2936.33 2745.31 L 2317.09 2745.31 M 2317.09 2764.98 L 2928.19 2764.98 M 2921.54 2784.65 L 2317.09 2784.65 M 2317.09 2804.32 L 2915.87 2804.32 M 2912.33 2823.99 L 2317.09 2823.99 M 2317.09 2843.66 L 2909.38 2843.66 M 2908.28 2863.33 L 2317.09 2863.33 M 2317.09 2883 L 2907.63 2883 M 2907.64 2902.67 L 2317.09 2902.67 M 2317.09 2922.34 L 2907.64 2922.34 M 2907.64 2942.01 L 2317.09 2942.01 M 2317.09 2961.68 L 2907.64 2961.68 M 2907.64 2981.35 L 2317.09 2981.35 M 2317.09 3001.02 L 2907.64 3001.02 M 2907.64 3020.69 L 2317.09 3020.69 M 2317.09 3040.36 L 2907.64 3040.36 M 2907.64 3060.03 L 2317.09 3060.03 M 2317.09 3079.7 L 2907.64 3079.7 M 2907.64 3099.37 L 2317.09 3099.37 M 2317.09 3119.04 L 2907.64 3119.04 M 2907.64 3138.71 L 2317.09 3138.71 M 2317.09 3158.38 L 2907.64 3158.38 M 2907.64 3178.05 L 2317.09 3178.05 M 2317.09 3197.72 L 2907.64 3197.72 M 2907.64 3217.39 L 2317.09 3217.39 M 2317.09 3237.06 L 2907.64 3237.06 M 2907.64 3256.73 L 2317.09 3256.73 M 2317.09 3276.4 L 2907.64 3276.4 M 2907.64 3296.07 L 2317.09 3296.07 M 2317.09 3315.74 L 2907.64 3315.74 M 2907.64 3335.41 L 2317.09 3335.41 M 2317.09 3355.08 L 2907.64 3355.08 M 2907.64 3374.75 L 2317.09 3374.75 M 2317.09 3394.42 L 2907.64 3394.42 M 2907.64 3414.09 L 2317.09 3414.09 M 2317.09 3433.76 L 2907.64 3433.76 M 2906.91 3453.43 L 2318.62 3453.43 M 2326.86 3473.1 L 2907.64 3473.1 M 2908.9 3492.77 L 2344.54 3492.77 M 2364.21 3512.44 L 2912.22 3512.44 M 2917.55 3532.11 L 2383.89 3532.11 M 2403.56 3551.78 L 2925.09 3551.78 M 2935.12 3571.45 L 2423.23 3571.45 M 2442.9 3591.12 L 2948.1 3591.12 M 2964.76 3610.79 L 2460.75 3610.79 M 2476.7 3630.46 L 2984.2 3630.46 M 3003.87 3650.13 L 2490.66 3650.13 M 2502.22 3669.8 L 3023.54 3669.8 M 3043.21 3689.47 L 2512.13 3689.47 M 2520.75 3709.14 L 3062.88 3709.14 M 3082.56 3728.82 L 2899.03 3728.82 M 2942.45 3748.49 L 3098.09 3748.49 M 3103.83 3768.16 L 2968.21 3768.16 M 2986.76 3787.83 L 3104.49 3787.83 M 3104.49 3807.5 L 3000.47 3807.5 M 3010.57 3827.17 L 3104.49 3827.17 M 3104.49 3846.84 L 3017.78 3846.84 M 3022.49 3866.51 L 3104.49 3866.51 M 3104.49 3886.18 L 3024.95 3886.18 M 3025.75 3905.85 L 3104.49 3905.85 M 3104.49 3925.52 L 3025.75 3925.52 M 3025.75 3945.19 L 3104.49 3945.19 M 3104.49 3964.86 L 3025.75 3964.86 M 3025.75 3984.53 L 3104.49 3984.53 M 3103.74 4004.2 L 3026.49 4004.2 M 3036.71 4023.87 L 3093.53 4023.87 M 3242.93 3984.53 L 3399.12 3984.53 M 3399.76 3964.86 L 3242.28 3964.86 M 3242.28 3945.19 L 3399.76 3945.19 M 3399.76 3925.52 L 3242.28 3925.52 M 3242.28 3905.85 L 3399.76 3905.85 M 3399.76 3886.18 L 3242.28 3886.18 M 3242.28 3866.51 L 3399.76 3866.51 M 3399.76 3846.84 L 3242.28 3846.84 M 3242.28 3827.17 L 3399.76 3827.17 M 3399.76 3807.5 L 3242.28 3807.5 M 3242.28 3787.83 L 3399.76 3787.83 M 3399.76 3768.16 L 3241.92 3768.16 M 3240.63 3748.49 L 3399.76 3748.49 M 3398.69 3728.82 L 3236.79 3728.82 M 3230.96 3709.14 L 3387.69 3709.14 M 3368.02 3689.47 L 3222.92 3689.47 M 3212.25 3669.8 L 3348.35 3669.8 M 3328.68 3650.13 L 3198.33 3650.13 M 3180.61 3630.46 L 3309.01 3630.46 M 3289.34 3610.79 L 3161.03 3610.79 M 3141.44 3591.12 L 3269.67 3591.12 M 3251.3 3571.45 L 3121.85 3571.45 M 3102.27 3551.78 L 3236.32 3551.78 M 3224.78 3532.11 L 3082.68 3532.11 M 3063.86 3512.44 L 3215.96 3512.44 M 3209.42 3492.77 L 3051.87 3492.77 M 3046.29 3473.1 L 3205.51 3473.1 M 3203.61 3453.43 L 3045.43 3453.43 M 3045.43 3433.76 L 3202.91 3433.76 M 3202.91 3414.09 L 3045.43 3414.09 M 3045.43 3394.42 L 3202.91 3394.42 M 3202.91 3374.75 L 3045.43 3374.75 M 3045.43 3355.08 L 3202.91 3355.08 M 3202.91 3335.41 L 3045.43 3335.41 M 3045.43 3315.74 L 3202.91 3315.74 M 3202.91 3296.07 L 3045.43 3296.07 M 3045.43 3276.4 L 3202.91 3276.4 M 2798.14 3728.82 L 2527.29 3728.82 M 2533.33 3748.49 L 2754.72 3748.49 M 2728.96 3768.16 L 2537.17 3768.16 M 2540.85 3787.83 L 2710.4 3787.83 M 2696.69 3807.5 L 2542.18 3807.5 M 2543.46 3827.17 L 2686.59 3827.17 M 2679.39 3846.84 L 2543.46 3846.84 M 2543.46 3866.51 L 2674.67 3866.51 M 2672.22 3886.18 L 2543.46 3886.18 M 2543.46 3905.85 L 2671.42 3905.85 M 2671.42 3925.52 L 2543.46 3925.52 M 2543.46 3945.19 L 2671.42 3945.19 M 2671.42 3964.86 L 2543.46 3964.86 M 2543.6 3984.53 L 2671.42 3984.53 M 2670.67 4004.2 L 2546.98 4004.2 M 2560.72 4023.87 L 2660.46 4023.87 M 2526.47 4161.56 L 2206.13 4161.56 M 2243.95 4141.89 L 2488.65 4141.89 M 2463.88 4122.22 L 2268.72 4122.22 M 2286.76 4102.55 L 2445.84 4102.55 M 2432.33 4082.88 L 2300.27 4082.88 M 2310.39 4063.21 L 2422.21 4063.21 M 2414.81 4043.54 L 2317.78 4043.54 M 2322.84 4023.87 L 2409.75 4023.87 M 2406.8 4004.2 L 2325.8 4004.2 M 2326.93 3986.97 L 2405.67 3986.97 L 2405.67 3832.29 L 2403.99 3806.59 L 2398.96 3781.34 L 2390.68 3756.95 L 2379.3 3733.86 L 2364.99 3712.45 L 2348.01 3693.09 L 2236.95 3582.03 L 2219.97 3562.67 L 2205.66 3541.26 L 2194.28 3518.16 L 2186 3493.78 L 2180.98 3468.53 L 2179.29 3442.83 L 2179.29 2119.98 L 2178.32 2107.66 L 2175.44 2095.65 L 2170.71 2084.23 L 2164.25 2073.7 L 2156.23 2064.3 L 2146.83 2056.28 L 2136.3 2049.82 L 2124.88 2045.09 L 2112.87 2042.21 L 2100.55 2041.24 L 2088.23 2042.21 L 2076.22 2045.09 L 2064.8 2049.82 L 2054.27 2056.28 L 2044.87 2064.3 L 1828.34 2280.84 L 1820.31 2290.23 L 1813.86 2300.77 L 1809.13 2312.18 L 1806.24 2324.2 L 1805.28 2336.51 L 1805.28 2377.23 L 1806.27 2389.91 L 1805.28 2395.3 L 1805.28 3662.17 L 1805.87 3669 L 1807.65 3675.63 L 1810.55 3681.85 L 1814.49 3687.47 L 1819.34 3692.32 L 1824.96 3696.26 L 1831.18 3699.16 L 1837.81 3700.94 L 1844.65 3701.54 L 2117.44 3701.54 L 2143.13 3703.22 L 2168.39 3708.24 L 2192.77 3716.52 L 2215.86 3727.91 L 2237.27 3742.21 L 2253.26 3756.23 L 2257.34 3758.59 L 2289.96 3791.21 L 2313.02 3831.16 L 2324.96 3875.71 L 2324.96 3883.9 L 2325.24 3885.33 L 2326.93 3911.03 L 2326.93 3986.97 M 2326.93 3984.53 L 2405.67 3984.53 L 2326.93 3984.53 M 2326.93 3964.86 L 2405.67 3964.86 L 2326.93 3964.86 M 2326.93 3945.19 L 2405.67 3945.19 M 2405.67 3925.52 L 2326.93 3925.52 M 2326.59 3905.85 L 2405.67 3905.85 M 2405.67 3886.18 L 2325.3 3886.18 M 2322.49 3866.51 L 2405.67 3866.51 M 2405.67 3846.84 L 2317.22 3846.84 M 2310.72 3827.17 L 2405.33 3827.17 M 2404.04 3807.5 L 2299.36 3807.5 M 2286.58 3787.83 L 2400.25 3787.83 M 2394.49 3768.16 L 2266.91 3768.16 M 2244.42 3748.49 L 2386.51 3748.49 M 2375.92 3728.82 L 2217.22 3728.82 M 2171.04 3709.14 L 2362.09 3709.14 M 2344.4 3689.47 L 1816.49 3689.47 M 1806.09 3669.8 L 2324.73 3669.8 M 2305.06 3650.13 L 1805.28 3650.13 M 1805.28 3630.46 L 2285.39 3630.46 M 2265.72 3610.79 L 1805.28 3610.79 M 1805.28 3591.12 L 2246.05 3591.12 M 2227.68 3571.45 L 1805.28 3571.45 M 1805.28 3551.78 L 2212.7 3551.78 M 2201.16 3532.11 L 1805.28 3532.11 M 1805.28 3512.44 L 2192.33 3512.44 M 2185.8 3492.77 L 1805.28 3492.77 M 1805.28 3473.1 L 2181.89 3473.1 M 2179.99 3453.43 L 1805.28 3453.43 M 1805.28 3433.76 L 2179.29 3433.76 M 2179.29 3414.09 L 1805.28 3414.09 M 1805.28 3394.42 L 2179.29 3394.42 M 2179.29 3374.75 L 1805.28 3374.75 M 1805.28 3355.08 L 2179.29 3355.08 M 2179.29 3335.41 L 1805.28 3335.41 M 1805.28 3315.74 L 2179.29 3315.74 M 2179.29 3296.07 L 1805.28 3296.07 M 1805.28 3276.4 L 2179.29 3276.4 M 2179.29 3256.73 L 1805.28 3256.73 M 1805.28 3237.06 L 2179.29 3237.06 M 2179.29 3217.39 L 1805.28 3217.39 M 1805.28 3197.72 L 2179.29 3197.72 M 2179.29 3178.05 L 1805.28 3178.05 M 1805.28 3158.38 L 2179.29 3158.38 M 2179.29 3138.71 L 1805.28 3138.71 M 1805.28 3119.04 L 2179.29 3119.04 M 2179.29 3099.37 L 1805.28 3099.37 M 1805.28 3079.7 L 2179.29 3079.7 M 2179.29 3060.03 L 1805.28 3060.03 M 1805.28 3040.36 L 2179.29 3040.36 M 2179.29 3020.69 L 1805.28 3020.69 M 1805.28 3001.02 L 2179.29 3001.02 M 2179.29 2981.35 L 1805.28 2981.35 M 1805.28 2961.68 L 2179.29 2961.68 M 2179.29 2942.01 L 1805.28 2942.01 M 1805.28 2922.34 L 2179.29 2922.34 M 2179.29 2902.67 L 1805.28 2902.67 M 1805.28 2883 L 2179.29 2883 M 2179.29 2863.33 L 1805.28 2863.33 M 1805.28 2843.66 L 2179.29 2843.66 M 2179.29 2823.99 L 1805.28 2823.99 M 1805.28 2804.32 L 2179.29 2804.32 M 2179.29 2784.65 L 1805.28 2784.65 M 1805.28 2764.98 L 2179.29 2764.98 M 2179.29 2745.31 L 1805.28 2745.31 M 1805.28 2725.64 L 2179.29 2725.64 M 2179.29 2705.97 L 1805.28 2705.97 M 1805.28 2686.3 L 2179.29 2686.3 M 2179.29 2666.63 L 1805.28 2666.63 M 1805.28 2646.96 L 2179.29 2646.96 M 2179.29 2627.29 L 1805.28 2627.29 M 1805.28 2607.62 L 2179.29 2607.62 M 2179.29 2587.95 L 1805.28 2587.95 M 1805.28 2568.28 L 2179.29 2568.28 M 2179.29 2548.61 L 1805.28 2548.61 M 1805.28 2528.94 L 2179.29 2528.94 M 2179.29 2509.27 L 1805.28 2509.27 M 1805.28 2489.6 L 2179.29 2489.6 M 2179.29 2469.93 L 1805.28 2469.93 M 1805.28 2450.26 L 2179.29 2450.26 M 2179.29 2430.59 L 1805.28 2430.59 M 1805.28 2410.91 L 2179.29 2410.91 M 2179.29 2391.24 L 1806.03 2391.24 M 1805.28 2371.57 L 2179.29 2371.57 M 2179.29 2351.9 L 1805.28 2351.9 M 1805.61 2332.23 L 2179.29 2332.23 M 2179.29 2312.56 L 1809.04 2312.56 M 1818.68 2292.89 L 2179.29 2292.89 M 2179.29 2273.22 L 1835.95 2273.22 M 1855.62 2253.55 L 2179.29 2253.55 M 2179.29 2233.88 L 1875.29 2233.88 M 1894.96 2214.21 L 2179.29 2214.21 M 2179.29 2194.54 L 1914.63 2194.54 M 1934.3 2174.87 L 2179.29 2174.87 M 2179.29 2155.2 L 1953.97 2155.2 M 1973.64 2135.53 L 2179.29 2135.53 M 2178.97 2115.86 L 1993.31 2115.86 M 2012.98 2096.19 L 2175.57 2096.19 M 2165.99 2076.52 L 2032.65 2076.52 M 2053.59 2056.85 L 2147.51 2056.85 M 1864.81 1722.46 L 882.94 1722.46 M 871.45 1702.79 L 1906.69 1702.79 M 1932.84 1683.12 L 1800.2 1683.12 M 1806.64 1680.45 L 1787.11 1688.54 L 1765.96 1688.54 L 1746.43 1680.45 L 1742.71 1676.73 L 1594.34 1676.73 L 1583.94 1687.13 L 1561.51 1696.42 L 1537.23 1696.42 L 1514.8 1687.13 L 1504.4 1676.73 L 1346.63 1676.73 L 1337.5 1685.86 L 1315.62 1694.92 L 1231.94 1694.92 L 1210.06 1685.86 L 1193.31 1669.11 L 1184.25 1647.23 L 1184.25 1623.55 L 1193.31 1601.67 L 1210.06 1584.93 L 1231.94 1575.87 L 1315.62 1575.87 L 1337.5 1584.93 L 1346.63 1594.06 L 1504.4 1594.06 L 1514.8 1583.66 L 1537.23 1574.37 L 1561.51 1574.37 L 1583.94 1583.66 L 1594.34 1594.06 L 1742.71 1594.06 L 1746.43 1590.34 L 1765.96 1582.24 L 1787.11 1582.24 L 1806.64 1590.34 L 1821.59 1605.29 L 1829.68 1624.82 L 1829.68 1645.97 L 1821.59 1665.5 L 1806.64 1680.45 M 1822.44 1663.45 L 1953.6 1663.45 M 1973.27 1643.78 L 1829.68 1643.78 M 1829.39 1624.11 L 1992.94 1624.11 M 2012.61 1604.44 L 1820.75 1604.44 M 1793.2 1584.77 L 2032.28 1584.77 M 2051.95 1565.1 L 870.24 1565.1 M 870.24 1584.77 L 1210.45 1584.77 M 1192.17 1604.44 L 870.24 1604.44 M 870.24 1624.11 L 1184.25 1624.11 M 1184.25 1643.78 L 870.24 1643.78 M 870.24 1663.45 L 1190.97 1663.45 M 1207.32 1683.12 L 870.24 1683.12 M 870.24 1545.43 L 2071.62 1545.43 M 2091.29 1525.76 L 870.24 1525.76 M 870.24 1506.09 L 2110.96 1506.09 M 2130.63 1486.42 L 870.24 1486.42 M 870.24 1466.75 L 2150.3 1466.75 M 2169.97 1447.08 L 870.24 1447.08 M 870.24 1427.41 L 2189.64 1427.41 M 2209.31 1407.74 L 870.24 1407.74 M 870.24 1388.07 L 2232.25 1388.07 M 2265.48 1368.4 L 870.24 1368.4 M 870.24 1348.73 L 4713.92 1348.73 M 4743.12 1329.06 L 870.24 1329.06 M 870.24 1309.39 L 1229.79 1309.39 M 1231.94 1310.28 L 1210.06 1301.21 L 1193.31 1284.47 L 1184.25 1262.59 L 1184.25 1238.91 L 1193.31 1217.03 L 1210.06 1200.28 L 1231.94 1191.22 L 1315.62 1191.22 L 1337.5 1200.28 L 1350.56 1213.35 L 1383.65 1213.35 L 1391.31 1205.69 L 1410.84 1197.6 L 1431.99 1197.6 L 1451.52 1205.69 L 1466.48 1220.64 L 1474.57 1240.18 L 1474.57 1261.32 L 1466.48 1280.85 L 1451.52 1295.81 L 1431.99 1303.9 L 1410.84 1303.9 L 1391.31 1295.81 L 1383.65 1288.15 L 1350.56 1288.15 L 1337.5 1301.21 L 1315.62 1310.28 L 1231.94 1310.28 M 1198.56 1289.72 L 870.24 1289.72 M 870.24 1270.05 L 1187.34 1270.05 M 1184.25 1250.38 L 870.24 1250.38 M 870.24 1230.71 L 1187.65 1230.71 M 1199.31 1211.04 L 870.24 1211.04 M 870.24 1191.37 L 1231.59 1191.37 M 1315.97 1191.37 L 4748.19 1191.37 M 4748.19 1211.04 L 1456.87 1211.04 M 1470.64 1230.71 L 4748.19 1230.71 M 4748.19 1250.38 L 1474.57 1250.38 M 1470.95 1270.05 L 4748.19 1270.05 M 4748.19 1289.72 L 1457.61 1289.72 M 1385.22 1289.72 L 1349 1289.72 M 1317.77 1309.39 L 4748.19 1309.39 M 4748.19 1171.7 L 870.24 1171.7 M 870.24 1152.03 L 4748.19 1152.03 M 4748.19 1132.35 L 870.24 1132.35 M 870.24 1112.68 L 4748.19 1112.68 M 4718.66 3219.25 L 4711.82 3219.85 L 4705.2 3221.63 L 4698.98 3224.53 L 4693.35 3228.46 L 4688.5 3233.32 L 4684.57 3238.94 L 4681.67 3245.16 L 4679.89 3251.79 L 4679.29 3258.62 L 4679.29 3996.81 L 4679.89 4003.65 L 4681.67 4010.28 L 4684.57 4016.5 L 4688.5 4022.12 L 4693.35 4026.97 L 4698.98 4030.91 L 4705.2 4033.81 L 4711.82 4035.58 L 4718.66 4036.18 L 4725.5 4035.58 L 4732.13 4033.81 L 4738.35 4030.91 L 4743.97 4026.97 L 4748.82 4022.12 L 4752.76 4016.5 L 4755.66 4010.28 L 4757.43 4003.65 L 4758.03 3996.81 L 4758.03 3258.62 L 4757.43 3251.79 L 4755.66 3245.16 L 4752.76 3238.94 L 4748.82 3233.32 L 4743.97 3228.46 L 4738.35 3224.53 L 4732.13 3221.63 L 4725.5 3219.85 L 4718.66 3219.25 M 4685.88 3237.06 L 4751.44 3237.06 M 4757.87 3256.73 L 4679.46 3256.73 M 4679.29 3276.4 L 4758.03 3276.4 M 4758.03 3296.07 L 4679.29 3296.07 M 4679.29 3315.74 L 4758.03 3315.74 M 4758.03 3335.41 L 4679.29 3335.41 M 4679.29 3355.08 L 4758.03 3355.08 M 4758.03 3374.75 L 4679.29 3374.75 M 4679.29 3394.42 L 4758.03 3394.42 M 4758.03 3414.09 L 4679.29 3414.09 M 4679.29 3433.76 L 4758.03 3433.76 M 4758.03 3453.43 L 4679.29 3453.43 M 4679.29 3473.1 L 4758.03 3473.1 M 4758.03 3492.77 L 4679.29 3492.77 M 4679.29 3512.44 L 4758.03 3512.44 M 4758.03 3532.11 L 4679.29 3532.11 M 4679.29 3551.78 L 4758.03 3551.78 M 4758.03 3571.45 L 4679.29 3571.45 M 4679.29 3591.12 L 4758.03 3591.12 M 4758.03 3610.79 L 4679.29 3610.79 M 4679.29 3630.46 L 4758.03 3630.46 M 4758.03 3650.13 L 4679.29 3650.13 M 4679.29 3669.8 L 4758.03 3669.8 M 4758.03 3689.47 L 4679.29 3689.47 M 4679.29 3709.14 L 4758.03 3709.14 M 4758.03 3728.82 L 4679.29 3728.82 M 4679.29 3748.49 L 4758.03 3748.49 M 4758.03 3768.16 L 4679.29 3768.16 M 4679.29 3787.83 L 4758.03 3787.83 M 4758.03 3807.5 L 4679.29 3807.5 M 4679.29 3827.17 L 4758.03 3827.17 M 4758.03 3846.84 L 4679.29 3846.84 M 4679.29 3866.51 L 4758.03 3866.51 M 4758.03 3886.18 L 4679.29 3886.18 M 4679.29 3905.85 L 4758.03 3905.85 M 4758.03 3925.52 L 4679.29 3925.52 M 4679.29 3945.19 L 4758.03 3945.19 M 4758.03 3964.86 L 4679.29 3964.86 M 4679.29 3984.53 L 4758.03 3984.53 M 4757.29 4004.2 L 4680.04 4004.2 M 4690.25 4023.87 L 4747.07 4023.87 M 4741.17 4181.23 L 870.24 4181.23 M 870.24 4200.9 L 4755.93 4200.9 M 4758.03 4220.57 L 870.24 4220.57 M 870.24 4240.24 L 4758.03 4240.24 M 4758.03 4259.91 L 870.24 4259.91 M 870.24 4279.58 L 4758.03 4279.58 M 4758.03 4299.25 L 4678.01 4299.25 M 4675.99 4297.23 L 4703.68 4324.92 L 4718.66 4361.09 L 4718.66 4400.25 L 4703.68 4436.42 L 4675.99 4464.11 L 4639.81 4479.09 L 4600.66 4479.09 L 4564.48 4464.11 L 4536.8 4436.42 L 4521.81 4400.25 L 4521.81 4361.09 L 4536.8 4324.92 L 4564.48 4297.23 L 4600.66 4282.24 L 4639.81 4282.24 L 4675.99 4297.23 M 4697.68 4318.92 L 4758.03 4318.92 M 4758.03 4338.59 L 4709.34 4338.59 M 4717.49 4358.26 L 4758.03 4358.26 M 4758.03 4377.93 L 4718.66 4377.93 M 4718.66 4397.6 L 4758.03 4397.6 M 4758.03 4417.27 L 4711.61 4417.27 M 4703.16 4436.94 L 4758.03 4436.94 M 4758.03 4456.61 L 4683.49 4456.61 M 4646.61 4476.28 L 4758.03 4476.28 M 4758.03 4495.95 L 870.24 4495.95 M 870.24 4476.28 L 1050.56 4476.28 M 1057.35 4479.09 L 1021.18 4464.11 L 993.49 4436.42 L 978.5 4400.25 L 978.5 4361.09 L 993.49 4324.92 L 1021.18 4297.23 L 1057.35 4282.24 L 1096.51 4282.24 L 1132.68 4297.23 L 1160.37 4324.92 L 1175.35 4361.09 L 1175.35 4400.25 L 1160.37 4436.42 L 1132.68 4464.11 L 1096.51 4479.09 L 1057.35 4479.09 M 1103.3 4476.28 L 4593.87 4476.28 M 4556.98 4456.61 L 1140.18 4456.61 M 1159.85 4436.94 L 4537.31 4436.94 M 4528.86 4417.27 L 1168.3 4417.27 M 1175.35 4397.6 L 4521.81 4397.6 M 4521.81 4377.93 L 1175.35 4377.93 M 1174.18 4358.26 L 4522.98 4358.26 M 4531.13 4338.59 L 1166.03 4338.59 M 1154.37 4318.92 L 4542.79 4318.92 M 4562.46 4299.25 L 1134.7 4299.25 M 1019.15 4299.25 L 870.24 4299.25 M 870.24 4318.92 L 999.48 4318.92 M 987.82 4338.59 L 870.24 4338.59 M 870.24 4358.26 L 979.68 4358.26 M 978.5 4377.93 L 870.24 4377.93 M 870.24 4397.6 L 978.5 4397.6 M 985.56 4417.27 L 870.24 4417.27 M 870.24 4436.94 L 994.01 4436.94 M 1013.68 4456.61 L 870.24 4456.61 M 870.24 4161.56 L 1176.48 4161.56 M 1137.27 4141.89 L 870.24 4141.89 M 870.24 4122.22 L 1111.78 4122.22 M 1092.98 4102.55 L 870.24 4102.55 M 870.24 4082.88 L 1078.67 4082.88 M 1067.69 4063.21 L 870.24 4063.21 M 870.24 4043.54 L 1059.1 4043.54 M 1053.27 4023.87 L 870.24 4023.87 M 870.24 4004.2 L 1048.56 4004.2 M 1047.4 3984.53 L 870.24 3984.53 M 870.24 3964.86 L 1047.4 3964.86 M 1047.4 3945.19 L 870.24 3945.19 M 870.24 3925.52 L 1047.4 3925.52 M 1047.4 3905.85 L 870.24 3905.85 M 870.24 3886.18 L 1047.4 3886.18 M 1047.4 3866.51 L 870.24 3866.51 M 870.24 3846.84 L 1045.71 3846.84 M 1037.58 3827.17 L 872.26 3827.17 M 886.69 3807.5 L 1016.44 3807.5 M 1088.17 3689.47 L 1362.36 3689.47 M 1362.36 3669.8 L 1042.04 3669.8 M 1039.29 3668.87 L 1063.68 3677.15 L 1086.77 3688.54 L 1108.18 3702.84 L 1127.54 3719.82 L 1144.52 3739.18 L 1158.82 3760.59 L 1170.21 3783.68 L 1178.49 3808.07 L 1183.51 3833.32 L 1185.2 3859.02 L 1185.2 3977.13 L 1185.79 3983.96 L 1187.57 3990.59 L 1190.47 3996.81 L 1194.41 4002.43 L 1199.26 4007.29 L 1204.88 4011.22 L 1211.1 4014.12 L 1217.73 4015.9 L 1224.57 4016.5 L 1322.99 4016.5 L 1329.83 4015.9 L 1336.46 4014.12 L 1342.68 4011.22 L 1348.3 4007.29 L 1353.15 4002.43 L 1357.09 3996.81 L 1359.99 3990.59 L 1361.76 3983.96 L 1362.36 3977.13 L 1362.36 3248.78 L 1361.01 3228.22 L 1357 3208.02 L 1350.37 3188.51 L 1341.26 3170.04 L 1329.82 3152.91 L 1316.24 3137.42 L 1300.75 3123.84 L 1283.62 3112.4 L 1265.15 3103.29 L 1245.64 3096.67 L 1225.44 3092.65 L 1204.88 3091.3 L 899.76 3091.3 L 892.93 3091.9 L 886.3 3093.67 L 880.08 3096.57 L 874.46 3100.51 L 869.6 3105.36 L 865.67 3110.98 L 862.77 3117.2 L 860.99 3123.83 L 860.39 3130.67 L 860.39 3622.8 L 860.99 3629.63 L 862.77 3636.26 L 865.67 3642.48 L 869.6 3648.1 L 874.46 3652.95 L 880.08 3656.89 L 886.3 3659.79 L 892.93 3661.57 L 899.76 3662.17 L 988.35 3662.17 L 1014.04 3663.85 L 1039.29 3668.87 M 1115.37 3709.14 L 1362.36 3709.14 M 1362.36 3728.82 L 1135.43 3728.82 M 1150.74 3748.49 L 1362.36 3748.49 M 1362.36 3768.16 L 1162.55 3768.16 M 1171.62 3787.83 L 1362.36 3787.83 M 1362.36 3807.5 L 1178.3 3807.5 M 1182.29 3827.17 L 1362.36 3827.17 M 1362.36 3846.84 L 1184.4 3846.84 M 1185.2 3866.51 L 1362.36 3866.51 M 1362.36 3886.18 L 1185.2 3886.18 M 1185.2 3905.85 L 1362.36 3905.85 M 1362.36 3925.52 L 1185.2 3925.52 M 1185.2 3945.19 L 1362.36 3945.19 M 1362.36 3964.86 L 1185.2 3964.86 M 1185.95 3984.53 L 1361.61 3984.53 M 1351.39 4004.2 L 1196.17 4004.2 M 1510 3977.13 L 1510.6 3983.96 L 1512.37 3990.59 L 1515.27 3996.81 L 1519.21 4002.43 L 1524.06 4007.29 L 1529.68 4011.22 L 1535.9 4014.12 L 1542.53 4015.9 L 1549.37 4016.5 L 1628.11 4016.5 L 1634.95 4015.9 L 1641.58 4014.12 L 1647.8 4011.22 L 1653.42 4007.29 L 1658.27 4002.43 L 1662.21 3996.81 L 1665.11 3990.59 L 1666.88 3983.96 L 1667.48 3977.13 L 1667.48 2382.64 L 1666.51 2370.32 L 1663.63 2358.31 L 1658.9 2346.89 L 1652.44 2336.36 L 1644.42 2326.96 L 1635.02 2318.94 L 1624.49 2312.48 L 1613.07 2307.75 L 1601.06 2304.87 L 1588.74 2303.9 L 899.76 2303.9 L 892.93 2304.5 L 886.3 2306.27 L 880.08 2309.17 L 874.46 2313.11 L 869.6 2317.96 L 865.67 2323.58 L 862.77 2329.8 L 860.99 2336.43 L 860.39 2343.27 L 860.39 2835.39 L 860.99 2842.23 L 862.77 2848.86 L 865.67 2855.08 L 869.6 2860.7 L 874.46 2865.55 L 880.08 2869.49 L 886.3 2872.39 L 892.93 2874.17 L 899.76 2874.76 L 1135.98 2874.76 L 1175.08 2876.81 L 1213.75 2882.94 L 1251.56 2893.07 L 1288.11 2907.1 L 1322.99 2924.87 L 1355.83 2946.19 L 1386.25 2970.83 L 1413.93 2998.51 L 1438.57 3028.94 L 1459.89 3061.77 L 1477.66 3096.65 L 1491.69 3133.2 L 1501.83 3171.02 L 1507.95 3209.68 L 1510 3248.78 L 1510 3977.13 M 1510.75 3984.53 L 1666.73 3984.53 M 1667.48 3964.86 L 1510 3964.86 M 1510 3945.19 L 1667.48 3945.19 M 1667.48 3925.52 L 1510 3925.52 M 1510 3905.85 L 1667.48 3905.85 M 1667.48 3886.18 L 1510 3886.18 M 1510 3866.51 L 1667.48 3866.51 M 1667.48 3846.84 L 1510 3846.84 M 1510 3827.17 L 1667.48 3827.17 M 1667.48 3807.5 L 1510 3807.5 M 1510 3787.83 L 1667.48 3787.83 M 1667.48 3768.16 L 1510 3768.16 M 1510 3748.49 L 1667.48 3748.49 M 1667.48 3728.82 L 1510 3728.82 M 1510 3709.14 L 1667.48 3709.14 M 1667.48 3689.47 L 1510 3689.47 M 1510 3669.8 L 1667.48 3669.8 M 1667.48 3650.13 L 1510 3650.13 M 1510 3630.46 L 1667.48 3630.46 M 1667.48 3610.79 L 1510 3610.79 M 1510 3591.12 L 1667.48 3591.12 M 1667.48 3571.45 L 1510 3571.45 M 1510 3551.78 L 1667.48 3551.78 M 1667.48 3532.11 L 1510 3532.11 M 1510 3512.44 L 1667.48 3512.44 M 1667.48 3492.77 L 1510 3492.77 M 1510 3473.1 L 1667.48 3473.1 M 1667.48 3453.43 L 1510 3453.43 M 1510 3433.76 L 1667.48 3433.76 M 1667.48 3414.09 L 1510 3414.09 M 1510 3394.42 L 1667.48 3394.42 M 1667.48 3374.75 L 1510 3374.75 M 1510 3355.08 L 1667.48 3355.08 M 1667.48 3335.41 L 1510 3335.41 M 1510 3315.74 L 1667.48 3315.74 M 1667.48 3296.07 L 1510 3296.07 M 1510 3276.4 L 1667.48 3276.4 M 1667.48 3256.73 L 1510 3256.73 M 1509.39 3237.06 L 1667.48 3237.06 M 1667.48 3217.39 L 1508.35 3217.39 M 1506.06 3197.72 L 1667.48 3197.72 M 1667.48 3178.05 L 1502.94 3178.05 M 1498.44 3158.38 L 1667.48 3158.38 M 1667.48 3138.71 L 1493.17 3138.71 M 1486.26 3119.04 L 1667.48 3119.04 M 1667.48 3099.37 L 1478.71 3099.37 M 1469.03 3079.7 L 1667.48 3079.7 M 1667.48 3060.03 L 1458.76 3060.03 M 1445.99 3040.36 L 1667.48 3040.36 M 1667.48 3020.69 L 1431.89 3020.69 M 1415.96 3001.02 L 1667.48 3001.02 M 1667.48 2981.35 L 1396.77 2981.35 M 1374.95 2961.68 L 1667.48 2961.68 M 1667.48 2942.01 L 1349.38 2942.01 M 1318.02 2922.34 L 1667.48 2922.34 M 1667.48 2902.67 L 1276.57 2902.67 M 1213.98 2883 L 1667.48 2883 M 1667.48 2863.33 L 872.23 2863.33 M 861.37 2843.66 L 1667.48 2843.66 M 1667.48 2823.99 L 860.39 2823.99 M 860.39 2804.32 L 1667.48 2804.32 M 1667.48 2784.65 L 860.39 2784.65 M 860.39 2764.98 L 1667.48 2764.98 M 1667.48 2745.31 L 860.39 2745.31 M 860.39 2725.64 L 1667.48 2725.64 M 1667.48 2705.97 L 860.39 2705.97 M 860.39 2686.3 L 1667.48 2686.3 M 1667.48 2666.63 L 860.39 2666.63 M 860.39 2646.96 L 1667.48 2646.96 M 1667.48 2627.29 L 860.39 2627.29 M 860.39 2607.62 L 1667.48 2607.62 M 1667.48 2587.95 L 860.39 2587.95 M 860.39 2568.28 L 1667.48 2568.28 M 1667.48 2548.61 L 860.39 2548.61 M 860.39 2528.94 L 1667.48 2528.94 M 1667.48 2509.27 L 860.39 2509.27 M 860.39 2489.6 L 1667.48 2489.6 M 1667.48 2469.93 L 860.39 2469.93 M 860.39 2450.26 L 1667.48 2450.26 M 1667.48 2430.59 L 860.39 2430.59 M 860.39 2410.91 L 1667.48 2410.91 M 1667.48 2391.24 L 860.39 2391.24 M 860.39 2371.57 L 1666.61 2371.57 M 1660.97 2351.9 L 860.39 2351.9 M 862.12 2332.23 L 1648.92 2332.23 M 1624.62 2312.56 L 875.23 2312.56 M 1340.24 1683.12 L 1510.79 1683.12 M 1587.95 1683.12 L 1752.87 1683.12 M 1759.87 1584.77 L 1585.05 1584.77 M 1513.69 1584.77 L 1337.11 1584.77 M 1348.25 1211.04 L 1385.96 1211.04 M 1201.86 1093.01 L 870.24 1093.01 M 870.24 1073.34 L 1188.71 1073.34 M 1184.25 1053.67 L 870.24 1053.67 M 870.24 1034 L 1186.28 1034 M 1196.01 1014.33 L 870.24 1014.33 M 870.24 994.66 L 1223.63 994.66 M 1253.61 3099.37 L 876.09 3099.37 M 862.28 3119.04 L 1293.56 3119.04 M 1317.37 3138.71 L 860.39 3138.71 M 860.39 3158.38 L 1333.47 3158.38 M 1345.21 3178.05 L 860.39 3178.05 M 860.39 3197.72 L 1353.5 3197.72 M 1358.86 3217.39 L 860.39 3217.39 M 860.39 3237.06 L 1361.59 3237.06 M 1362.36 3256.73 L 860.39 3256.73 M 860.39 3276.4 L 1362.36 3276.4 M 1362.36 3296.07 L 860.39 3296.07 M 860.39 3315.74 L 1362.36 3315.74 M 1362.36 3335.41 L 860.39 3335.41 M 860.39 3355.08 L 1362.36 3355.08 M 1362.36 3374.75 L 860.39 3374.75 M 860.39 3394.42 L 1362.36 3394.42 M 1362.36 3414.09 L 860.39 3414.09 M 860.39 3433.76 L 1362.36 3433.76 M 1362.36 3453.43 L 860.39 3453.43 M 860.39 3473.1 L 1362.36 3473.1 M 1362.36 3492.77 L 860.39 3492.77 M 860.39 3512.44 L 1362.36 3512.44 M 1362.36 3532.11 L 860.39 3532.11 M 860.39 3551.78 L 1362.36 3551.78 M 1362.36 3571.45 L 860.39 3571.45 M 860.39 3591.12 L 1362.36 3591.12 M 1362.36 3610.79 L 860.39 3610.79 M 861.21 3630.46 L 1362.36 3630.46 M 1362.36 3650.13 L 871.64 3650.13 M 1520.98 4004.2 L 1656.5 4004.2 M 1805.87 3983.96 L 1805.54 3980.13 L 1806.33 3971.06 L 1805.28 3965.07 L 1805.28 3878.7 L 1805.87 3871.86 L 1807.65 3865.24 L 1810.55 3859.02 L 1814.49 3853.39 L 1819.34 3848.54 L 1824.96 3844.61 L 1831.18 3841.7 L 1837.81 3839.93 L 1841.64 3839.59 L 1850.71 3840.39 L 1856.7 3839.33 L 1933.23 3839.33 L 1940.06 3839.93 L 1946.69 3841.7 L 1952.91 3844.61 L 1958.53 3848.54 L 1963.39 3853.39 L 1967.32 3859.02 L 1970.22 3865.24 L 1972 3871.86 L 1972.6 3878.7 L 1972.6 3977.13 L 1972 3983.96 L 1970.22 3990.59 L 1967.32 3996.81 L 1963.39 4002.43 L 1958.53 4007.29 L 1952.91 4011.22 L 1946.69 4014.12 L 1940.06 4015.9 L 1933.23 4016.5 L 1844.65 4016.5 L 1837.81 4015.9 L 1831.18 4014.12 L 1824.96 4011.22 L 1819.34 4007.29 L 1814.49 4002.43 L 1810.55 3996.81 L 1807.65 3990.59 L 1805.87 3983.96 M 1806.02 3984.53 L 1971.85 3984.53 M 1972.6 3964.86 L 1805.28 3964.86 M 1805.28 3945.19 L 1972.6 3945.19 M 1972.6 3925.52 L 1805.28 3925.52 M 1805.28 3905.85 L 1972.6 3905.85 M 1972.6 3886.18 L 1805.28 3886.18 M 1807.31 3866.51 L 1970.56 3866.51 M 1956.1 3846.84 L 1821.77 3846.84 M 1816.25 4004.2 L 1961.62 4004.2 M 3249.05 4004.2 L 3393 4004.2 M 3376.52 4023.87 L 3265.52 4023.87 M 3643.14 4161.56 L 3963.47 4161.56 M 3925.65 4141.89 L 3680.96 4141.89 M 4336.03 3728.82 L 4541.5 3728.82 M 4541.5 3748.49 L 4379.45 3748.49 M 4405.21 3768.16 L 4541.5 3768.16 M 4541.5 3787.83 L 4423.77 3787.83 M 4437.48 3807.5 L 4541.5 3807.5 M 4541.5 3827.17 L 4447.58 3827.17 M 4454.79 3846.84 L 4541.5 3846.84 M 4541.5 3866.51 L 4459.5 3866.51 M 4461.96 3886.18 L 4541.5 3886.18 M 4541.5 3905.85 L 4462.76 3905.85 M 4462.76 3925.52 L 4541.5 3925.52 M 4541.5 3945.19 L 4462.76 3945.19 M 4462.76 3964.86 L 4541.5 3964.86 M 4541.5 3984.53 L 4462.76 3984.53 M 4463.5 4004.2 L 4540.75 4004.2 M 4530.54 4023.87 L 4473.72 4023.87"/><use x="4718.66" y="3780.28" xlink:href="#tool-D21-pad-1011"/><use x="4718.66" y="3701.54" xlink:href="#tool-D21-pad-1011"/><use x="4718.66" y="3622.8" xlink:href="#tool-D21-pad-1011"/><use x="4718.66" y="3544.06" xlink:href="#tool-D21-pad-1011"/><use x="4718.66" y="3465.31" xlink:href="#tool-D21-pad-1011"/><use x="4718.66" y="3327.52" xlink:href="#tool-D21-pad-1011"/><use x="4718.66" y="3248.78" xlink:href="#tool-D21-pad-1011"/><use x="4728.5" y="3051.93" xlink:href="#tool-D21-pad-1011"/><use x="4698.98" y="2933.82" xlink:href="#tool-D21-pad-1011"/><use x="4728.5" y="2835.39" xlink:href="#tool-D21-pad-1011"/><use x="4630.08" y="2835.39" xlink:href="#tool-D21-pad-1011"/><use x="4571.02" y="2746.81" xlink:href="#tool-D21-pad-1011"/><use x="4521.81" y="2835.39" xlink:href="#tool-D21-pad-1011"/><use x="4571.02" y="2923.98" xlink:href="#tool-D21-pad-1011"/><use x="4452.91" y="2914.13" xlink:href="#tool-D21-pad-1011"/><use x="4384.02" y="2835.39" xlink:href="#tool-D21-pad-1011"/><use x="4452.91" y="2756.65" xlink:href="#tool-D21-pad-1011"/><use x="4384.02" y="2618.86" xlink:href="#tool-D21-pad-1011"/><use x="4472.6" y="2579.49" xlink:href="#tool-D21-pad-1011"/><use x="4561.18" y="2618.86" xlink:href="#tool-D21-pad-1011"/><use x="4649.76" y="2579.49" xlink:href="#tool-D21-pad-1011"/><use x="4728.5" y="2618.86" xlink:href="#tool-D21-pad-1011"/><use x="4698.98" y="2736.97" xlink:href="#tool-D21-pad-1011"/><use x="4521.81" y="3051.93" xlink:href="#tool-D21-pad-1011"/><use x="4384.02" y="3051.93" xlink:href="#tool-D21-pad-1011"/><use x="4039.53" y="3317.68" xlink:href="#tool-D21-pad-1011"/><use x="4039.53" y="3416.1" xlink:href="#tool-D21-pad-1011"/><use x="4000.16" y="3504.69" xlink:href="#tool-D21-pad-1011"/><use x="4069.05" y="3593.27" xlink:href="#tool-D21-pad-1011"/><use x="3990.31" y="3652.32" xlink:href="#tool-D21-pad-1011"/><use x="4078.9" y="3691.69" xlink:href="#tool-D21-pad-1011"/><use x="4010" y="3750.75" xlink:href="#tool-D21-pad-1011"/><use x="4078.9" y="3829.49" xlink:href="#tool-D21-pad-1011"/><use x="4118.27" y="3494.84" xlink:href="#tool-D21-pad-1011"/><use x="3882.05" y="3366.89" xlink:href="#tool-D21-pad-1011"/><use x="3842.68" y="3288.15" xlink:href="#tool-D21-pad-1011"/><use x="3941.1" y="3288.15" xlink:href="#tool-D21-pad-1011"/><use x="3370.24" y="3731.06" xlink:href="#tool-D21-pad-1011"/><use x="3271.81" y="3721.22" xlink:href="#tool-D21-pad-1011"/><use x="3261.97" y="3809.8" xlink:href="#tool-D21-pad-1011"/><use x="3370.24" y="3829.49" xlink:href="#tool-D21-pad-1011"/><use x="3370.24" y="3908.23" xlink:href="#tool-D21-pad-1011"/><use x="3370.24" y="3986.97" xlink:href="#tool-D21-pad-1011"/><use x="3252.13" y="3622.8" xlink:href="#tool-D21-pad-1011"/><use x="3153.7" y="3563.74" xlink:href="#tool-D21-pad-1011"/><use x="3173.39" y="3475.16" xlink:href="#tool-D21-pad-1011"/><use x="3074.96" y="3425.94" xlink:href="#tool-D21-pad-1011"/><use x="3074.96" y="3288.15" xlink:href="#tool-D21-pad-1011"/><use x="3173.39" y="3219.25" xlink:href="#tool-D21-pad-1011"/><use x="3074.96" y="3150.35" xlink:href="#tool-D21-pad-1011"/><use x="3173.39" y="3081.46" xlink:href="#tool-D21-pad-1011"/><use x="3074.96" y="3012.56" xlink:href="#tool-D21-pad-1011"/><use x="3143.86" y="2933.82" xlink:href="#tool-D21-pad-1011"/><use x="3252.13" y="2953.5" xlink:href="#tool-D21-pad-1011"/><use x="3330.87" y="2874.76" xlink:href="#tool-D21-pad-1011"/><use x="3409.61" y="2796.02" xlink:href="#tool-D21-pad-1011"/><use x="3488.35" y="2717.28" xlink:href="#tool-D21-pad-1011"/><use x="3389.92" y="2687.76" xlink:href="#tool-D21-pad-1011"/><use x="3291.5" y="2756.65" xlink:href="#tool-D21-pad-1011"/><use x="3242.28" y="2648.39" xlink:href="#tool-D21-pad-1011"/><use x="3321.02" y="2569.65" xlink:href="#tool-D21-pad-1011"/><use x="3409.61" y="2500.75" xlink:href="#tool-D21-pad-1011"/><use x="3547.4" y="2628.7" xlink:href="#tool-D21-pad-1011"/><use x="3202.91" y="2845.24" xlink:href="#tool-D21-pad-1011"/><use x="3153.7" y="2736.97" xlink:href="#tool-D21-pad-1011"/><use x="3074.96" y="2855.08" xlink:href="#tool-D21-pad-1011"/><use x="2582.83" y="3219.25" xlink:href="#tool-D21-pad-1011"/><use x="2504.09" y="3297.99" xlink:href="#tool-D21-pad-1011"/><use x="2425.35" y="3219.25" xlink:href="#tool-D21-pad-1011"/><use x="2346.61" y="3297.99" xlink:href="#tool-D21-pad-1011"/><use x="2346.61" y="3455.47" xlink:href="#tool-D21-pad-1011"/><use x="2425.35" y="3534.21" xlink:href="#tool-D21-pad-1011"/><use x="2504.09" y="3455.47" xlink:href="#tool-D21-pad-1011"/><use x="2582.83" y="3534.21" xlink:href="#tool-D21-pad-1011"/><use x="2661.57" y="3612.95" xlink:href="#tool-D21-pad-1011"/><use x="2582.83" y="3691.69" xlink:href="#tool-D21-pad-1011"/><use x="2513.94" y="3622.8" xlink:href="#tool-D21-pad-1011"/><use x="2582.83" y="3809.8" xlink:href="#tool-D21-pad-1011"/><use x="2661.57" y="3770.43" xlink:href="#tool-D21-pad-1011"/><use x="2661.57" y="3455.47" xlink:href="#tool-D21-pad-1011"/><use x="2661.57" y="3297.99" xlink:href="#tool-D21-pad-1011"/><use x="2149.76" y="2864.92" xlink:href="#tool-D21-pad-1011"/><use x="2071.02" y="2805.87" xlink:href="#tool-D21-pad-1011"/><use x="1992.28" y="2727.13" xlink:href="#tool-D21-pad-1011"/><use x="1913.54" y="2805.87" xlink:href="#tool-D21-pad-1011"/><use x="1874.17" y="2884.61" xlink:href="#tool-D21-pad-1011"/><use x="1913.54" y="2963.35" xlink:href="#tool-D21-pad-1011"/><use x="1992.28" y="3042.09" xlink:href="#tool-D21-pad-1011"/><use x="2071.02" y="2963.35" xlink:href="#tool-D21-pad-1011"/><use x="1992.28" y="2884.61" xlink:href="#tool-D21-pad-1011"/><use x="1834.8" y="3042.09" xlink:href="#tool-D21-pad-1011"/><use x="1913.54" y="3120.83" xlink:href="#tool-D21-pad-1011"/><use x="1992.28" y="3199.57" xlink:href="#tool-D21-pad-1011"/><use x="1913.54" y="3278.31" xlink:href="#tool-D21-pad-1011"/><use x="1992.28" y="3357.05" xlink:href="#tool-D21-pad-1011"/><use x="1913.54" y="3435.79" xlink:href="#tool-D21-pad-1011"/><use x="1834.8" y="3514.53" xlink:href="#tool-D21-pad-1011"/><use x="1913.54" y="3593.27" xlink:href="#tool-D21-pad-1011"/><use x="1992.28" y="3514.53" xlink:href="#tool-D21-pad-1011"/><use x="1992.28" y="3672.01" xlink:href="#tool-D21-pad-1011"/><use x="1834.8" y="3672.01" xlink:href="#tool-D21-pad-1011"/><use x="1637.95" y="3672.01" xlink:href="#tool-D21-pad-1011"/><use x="1539.53" y="3750.75" xlink:href="#tool-D21-pad-1011"/><use x="1637.95" y="3829.49" xlink:href="#tool-D21-pad-1011"/><use x="1539.53" y="3868.86" xlink:href="#tool-D21-pad-1011"/><use x="1539.53" y="3986.97" xlink:href="#tool-D21-pad-1011"/><use x="1637.95" y="3986.97" xlink:href="#tool-D21-pad-1011"/><use x="1834.8" y="3986.97" xlink:href="#tool-D21-pad-1011"/><use x="1943.07" y="3986.97" xlink:href="#tool-D21-pad-1011"/><use x="1943.07" y="3868.86" xlink:href="#tool-D21-pad-1011"/><use x="1834.8" y="3868.86" xlink:href="#tool-D21-pad-1011"/><use x="1539.53" y="3593.27" xlink:href="#tool-D21-pad-1011"/><use x="1637.95" y="3514.53" xlink:href="#tool-D21-pad-1011"/><use x="1539.53" y="3435.79" xlink:href="#tool-D21-pad-1011"/><use x="1637.95" y="3357.05" xlink:href="#tool-D21-pad-1011"/><use x="1539.53" y="3278.31" xlink:href="#tool-D21-pad-1011"/><use x="1618.27" y="3179.88" xlink:href="#tool-D21-pad-1011"/><use x="1539.53" y="3120.83" xlink:href="#tool-D21-pad-1011"/><use x="1618.27" y="3051.93" xlink:href="#tool-D21-pad-1011"/><use x="1569.05" y="2983.03" xlink:href="#tool-D21-pad-1011"/><use x="1500.16" y="2943.66" xlink:href="#tool-D21-pad-1011"/><use x="1460.79" y="3022.4" xlink:href="#tool-D21-pad-1011"/><use x="1382.05" y="2943.66" xlink:href="#tool-D21-pad-1011"/><use x="1431.26" y="2825.55" xlink:href="#tool-D21-pad-1011"/><use x="1500.16" y="2766.5" xlink:href="#tool-D21-pad-1011"/><use x="1559.21" y="2855.08" xlink:href="#tool-D21-pad-1011"/><use x="1639.92" y="2925.94" xlink:href="#tool-D21-pad-1011"/><use x="1637.95" y="2727.13" xlink:href="#tool-D21-pad-1011"/><use x="1559.21" y="2648.39" xlink:href="#tool-D21-pad-1011"/><use x="1637.95" y="2569.65" xlink:href="#tool-D21-pad-1011"/><use x="1559.21" y="2490.91" xlink:href="#tool-D21-pad-1011"/><use x="1637.95" y="2412.17" xlink:href="#tool-D21-pad-1011"/><use x="1559.21" y="2333.43" xlink:href="#tool-D21-pad-1011"/><use x="1480.47" y="2412.17" xlink:href="#tool-D21-pad-1011"/><use x="1401.73" y="2490.91" xlink:href="#tool-D21-pad-1011"/><use x="1322.99" y="2412.17" xlink:href="#tool-D21-pad-1011"/><use x="1263.94" y="2481.06" xlink:href="#tool-D21-pad-1011"/><use x="1175.35" y="2530.28" xlink:href="#tool-D21-pad-1011"/><use x="1244.25" y="2589.33" xlink:href="#tool-D21-pad-1011"/><use x="1175.35" y="2648.39" xlink:href="#tool-D21-pad-1011"/><use x="1096.61" y="2707.44" xlink:href="#tool-D21-pad-1011"/><use x="998.19" y="2658.23" xlink:href="#tool-D21-pad-1011"/><use x="889.92" y="2589.33" xlink:href="#tool-D21-pad-1011"/><use x="998.19" y="2520.43" xlink:href="#tool-D21-pad-1011"/><use x="889.92" y="2461.38" xlink:href="#tool-D21-pad-1011"/><use x="889.92" y="2333.43" xlink:href="#tool-D21-pad-1011"/><use x="1096.61" y="2333.43" xlink:href="#tool-D21-pad-1011"/><use x="1096.61" y="2481.06" xlink:href="#tool-D21-pad-1011"/><use x="1096.61" y="2589.33" xlink:href="#tool-D21-pad-1011"/><use x="1283.62" y="2687.76" xlink:href="#tool-D21-pad-1011"/><use x="1342.68" y="2766.5" xlink:href="#tool-D21-pad-1011"/><use x="1263.94" y="2845.24" xlink:href="#tool-D21-pad-1011"/><use x="1096.61" y="2845.24" xlink:href="#tool-D21-pad-1011"/><use x="889.92" y="2845.24" xlink:href="#tool-D21-pad-1011"/><use x="889.92" y="2717.28" xlink:href="#tool-D21-pad-1011"/><use x="1322.99" y="2569.65" xlink:href="#tool-D21-pad-1011"/><use x="1421.42" y="2668.07" xlink:href="#tool-D21-pad-1011"/><use x="1480.47" y="2569.65" xlink:href="#tool-D21-pad-1011"/><use x="1401.73" y="2333.43" xlink:href="#tool-D21-pad-1011"/><use x="1263.94" y="2333.43" xlink:href="#tool-D21-pad-1011"/><use x="1834.8" y="2412.17" xlink:href="#tool-D21-pad-1011"/><use x="1913.54" y="2343.27" xlink:href="#tool-D21-pad-1011"/><use x="2002.13" y="2264.53" xlink:href="#tool-D21-pad-1011"/><use x="2071.02" y="2333.43" xlink:href="#tool-D21-pad-1011"/><use x="1992.28" y="2412.17" xlink:href="#tool-D21-pad-1011"/><use x="1913.54" y="2490.91" xlink:href="#tool-D21-pad-1011"/><use x="1834.8" y="2569.65" xlink:href="#tool-D21-pad-1011"/><use x="1913.54" y="2648.39" xlink:href="#tool-D21-pad-1011"/><use x="1834.8" y="2727.13" xlink:href="#tool-D21-pad-1011"/><use x="2071.02" y="2648.39" xlink:href="#tool-D21-pad-1011"/><use x="2149.76" y="2727.13" xlink:href="#tool-D21-pad-1011"/><use x="2149.76" y="2569.65" xlink:href="#tool-D21-pad-1011"/><use x="2071.02" y="2490.91" xlink:href="#tool-D21-pad-1011"/><use x="2149.76" y="2412.17" xlink:href="#tool-D21-pad-1011"/><use x="2149.76" y="2254.69" xlink:href="#tool-D21-pad-1011"/><use x="2090.71" y="2175.94" xlink:href="#tool-D21-pad-1011"/><use x="1992.28" y="2156.26" xlink:href="#tool-D21-pad-1011"/><use x="1903.7" y="2244.84" xlink:href="#tool-D21-pad-1011"/><use x="2120.24" y="2077.52" xlink:href="#tool-D21-pad-1011"/><use x="1293.46" y="3160.2" xlink:href="#tool-D21-pad-1011"/><use x="1273.78" y="3258.62" xlink:href="#tool-D21-pad-1011"/><use x="1332.83" y="3337.36" xlink:href="#tool-D21-pad-1011"/><use x="1254.09" y="3376.73" xlink:href="#tool-D21-pad-1011"/><use x="1332.83" y="3445.63" xlink:href="#tool-D21-pad-1011"/><use x="1273.78" y="3485" xlink:href="#tool-D21-pad-1011"/><use x="1185.2" y="3445.63" xlink:href="#tool-D21-pad-1011"/><use x="1096.61" y="3485" xlink:href="#tool-D21-pad-1011"/><use x="998.19" y="3445.63" xlink:href="#tool-D21-pad-1011"/><use x="889.92" y="3504.69" xlink:href="#tool-D21-pad-1011"/><use x="889.92" y="3376.73" xlink:href="#tool-D21-pad-1011"/><use x="998.19" y="3307.83" xlink:href="#tool-D21-pad-1011"/><use x="889.92" y="3248.78" xlink:href="#tool-D21-pad-1011"/><use x="889.92" y="3120.83" xlink:href="#tool-D21-pad-1011"/><use x="1047.4" y="3120.83" xlink:href="#tool-D21-pad-1011"/><use x="1185.2" y="3120.83" xlink:href="#tool-D21-pad-1011"/><use x="1096.61" y="3268.46" xlink:href="#tool-D21-pad-1011"/><use x="1185.2" y="3307.83" xlink:href="#tool-D21-pad-1011"/><use x="1096.61" y="3376.73" xlink:href="#tool-D21-pad-1011"/><use x="1116.3" y="3593.27" xlink:href="#tool-D21-pad-1011"/><use x="1145.83" y="3691.69" xlink:href="#tool-D21-pad-1011"/><use x="1244.25" y="3721.22" xlink:href="#tool-D21-pad-1011"/><use x="1332.83" y="3750.75" xlink:href="#tool-D21-pad-1011"/><use x="1214.72" y="3829.49" xlink:href="#tool-D21-pad-1011"/><use x="1214.72" y="3986.97" xlink:href="#tool-D21-pad-1011"/><use x="1008.03" y="3986.97" xlink:href="#tool-D21-pad-1011"/><use x="909.61" y="3986.97" xlink:href="#tool-D21-pad-1011"/><use x="909.61" y="3829.49" xlink:href="#tool-D21-pad-1011"/><use x="1008.03" y="3829.49" xlink:href="#tool-D21-pad-1011"/><use x="998.19" y="3622.8" xlink:href="#tool-D21-pad-1011"/><use x="889.92" y="3632.64" xlink:href="#tool-D21-pad-1011"/><use x="1254.09" y="3622.8" xlink:href="#tool-D21-pad-1011"/><use x="1332.83" y="3593.27" xlink:href="#tool-D21-pad-1011"/><use x="1834.8" y="3199.57" xlink:href="#tool-D21-pad-1011"/><use x="4384.02" y="2303.9" xlink:href="#tool-D21-pad-1011"/><use x="4561.18" y="2303.9" xlink:href="#tool-D21-pad-1011"/><use x="4521.81" y="2175.94" xlink:href="#tool-D21-pad-1011"/><use x="4413.54" y="2107.05" xlink:href="#tool-D21-pad-1011"/><use x="4413.54" y="1988.94" xlink:href="#tool-D21-pad-1011"/><use x="4521.81" y="2047.99" xlink:href="#tool-D21-pad-1011"/><use x="4630.08" y="1988.94" xlink:href="#tool-D21-pad-1011"/><use x="4728.5" y="2047.99" xlink:href="#tool-D21-pad-1011"/><use x="4630.08" y="2107.05" xlink:href="#tool-D21-pad-1011"/><use x="4728.5" y="2175.94" xlink:href="#tool-D21-pad-1011"/><use x="4728.5" y="2303.9" xlink:href="#tool-D21-pad-1011"/><use x="4728.5" y="1870.83" xlink:href="#tool-D21-pad-1011"/><use x="4521.81" y="1870.83" xlink:href="#tool-D21-pad-1011"/><path stroke-width="15.75" fill="none" d="M 1421.42 1250.75 L 1273.78 1250.75 M 1273.78 1050.75 L 1332.9 1050.75"/><use x="1421.42" y="1250.75" xlink:href="#tool-D23-pad-1013"/><use x="1815.12" y="1175.75" xlink:href="#tool-D23-pad-1013"/><use x="2021.81" y="1175.75" xlink:href="#tool-D23-pad-1013"/><use x="2021.81" y="811.57" xlink:href="#tool-D23-pad-1013"/><use x="1815.12" y="811.57" xlink:href="#tool-D23-pad-1013"/><use x="1776.54" y="1635.39" xlink:href="#tool-D23-pad-1013"/><use x="3360.39" y="1175.75" xlink:href="#tool-D23-pad-1013"/><use x="3567.09" y="1175.75" xlink:href="#tool-D23-pad-1013"/><use x="3567.09" y="811.57" xlink:href="#tool-D23-pad-1013"/><use x="3360.39" y="811.57" xlink:href="#tool-D23-pad-1013"/><use x="3183.23" y="985" xlink:href="#tool-D24-pad-1014"/><use x="2897.8" y="866.89" xlink:href="#tool-D24-pad-1014"/><use x="2789.53" y="994.84" xlink:href="#tool-D24-pad-1014"/><use x="2897.8" y="1103.11" xlink:href="#tool-D24-pad-1014"/><use x="2681.26" y="1103.11" xlink:href="#tool-D24-pad-1014"/><use x="2632.05" y="1014.53" xlink:href="#tool-D24-pad-1014"/><use x="2513.94" y="1004.69" xlink:href="#tool-D24-pad-1014"/><use x="2513.94" y="1152.32" xlink:href="#tool-D24-pad-1014"/><use x="2267.87" y="1152.32" xlink:href="#tool-D24-pad-1014"/><use x="2267.87" y="1014.53" xlink:href="#tool-D24-pad-1014"/><use x="2523.78" y="866.89" xlink:href="#tool-D24-pad-1014"/><use x="2513.94" y="719.25" xlink:href="#tool-D24-pad-1014"/><use x="2927.32" y="738.94" xlink:href="#tool-D24-pad-1014"/><use x="2976.54" y="650.35" xlink:href="#tool-D24-pad-1014"/><use x="3183.23" y="1260.59" xlink:href="#tool-D24-pad-1014"/><use x="3635.98" y="1382.44" xlink:href="#tool-D24-pad-1014"/><use x="3763.94" y="1162.17" xlink:href="#tool-D24-pad-1014"/><use x="3763.94" y="1014.53" xlink:href="#tool-D24-pad-1014"/><use x="3941.1" y="1014.53" xlink:href="#tool-D24-pad-1014"/><use x="4059.21" y="1004.69" xlink:href="#tool-D24-pad-1014"/><use x="4108.43" y="1103.11" xlink:href="#tool-D24-pad-1014"/><use x="4246.22" y="994.84" xlink:href="#tool-D24-pad-1014"/><use x="4344.65" y="1093.27" xlink:href="#tool-D24-pad-1014"/><use x="4354.49" y="866.89" xlink:href="#tool-D24-pad-1014"/><use x="4187.17" y="699.57" xlink:href="#tool-D24-pad-1014"/><use x="3990.31" y="857.05" xlink:href="#tool-D24-pad-1014"/><use x="3941.1" y="1152.32" xlink:href="#tool-D24-pad-1014"/><use x="4206.85" y="1339.33" xlink:href="#tool-D24-pad-1014"/><use x="4718.66" y="1319.65" xlink:href="#tool-D24-pad-1014"/><use x="4728.5" y="650.35" xlink:href="#tool-D24-pad-1014"/><use x="1933.23" y="1549.76" xlink:href="#tool-D24-pad-1014"/><use x="1824.96" y="1559.61" xlink:href="#tool-D24-pad-1014"/><use x="1893.86" y="1677.72" xlink:href="#tool-D24-pad-1014"/><use x="1382.05" y="1299.96" xlink:href="#tool-D24-pad-1014"/><use x="1382.05" y="1201.54" xlink:href="#tool-D24-pad-1014"/><use x="1490.31" y="1250.75" xlink:href="#tool-D24-pad-1014"/><use x="968.66" y="949.37" xlink:href="#tool-D24-pad-1014"/><use x="919.45" y="1480.87" xlink:href="#tool-D24-pad-1014"/><use x="1746.22" y="644.25" xlink:href="#tool-D24-pad-1014"/><path stroke-width="23.62" fill="none" d="M 1776.54 1635.39 L 1549.37 1635.39 L 1273.78 1635.39"/></g></svg>