<svg xmlns="http://www.w3.org/2000/svg" version="1.1" xmlns:xlink="http://www.w3.org/1999/xlink" width="3.9370100000000003in" height="3.93701in" viewBox="840.71 601.14 3937.01 3937.0099999999998" stroke-linecap="round" stroke-linejoin="round" stroke-width="0" stroke="#000"><defs><circle cx="0" cy="0" r="70.9" id="tool-D12-pad-1023"/><circle cx="0" cy="0" r="31.685" id="tool-D13-pad-1024"/><circle cx="0" cy="0" r="37.435" id="tool-D14-pad-1025"/><rect x="-37.435" y="-37.435" width="74.87" height="74.87" id="tool-D15-pad-1026"/><circle cx="0" cy="0" r="27.75" id="tool-D17-pad-1028"/><polygon points="33.499931901028866,13.876126131981259 13.87612613198126,33.499931901028866 -13.876126131981255,33.499931901028866 -33.499931901028866,13.876126131981263 -33.49993190102887,-13.876126131981254 -13.876126131981279,-33.49993190102886 13.876126131981266,-33.499931901028866 33.49993190102886,-13.87612613198128" id="tool-D19-pad-1030"/><circle cx="0" cy="0" r="33.5" id="tool-D20-pad-1031"/><polygon points="44.49990954017267,18.432466055915402 18.432466055915405,44.49990954017267 -18.4324660559154,44.49990954017267 -44.49990954017267,18.43246605591541 -44.49990954017268,-18.4324660559154 -18.43246605591543,-44.499909540172666 18.432466055915413,-44.499909540172666 44.499909540172666,-18.43246605591543" id="tool-D21-pad-1032"/><circle cx="0" cy="0" r="25.62" id="tool-D22-pad-1033"/></defs><g fill="currentColor" stroke="currentColor" transform="translate(0,5139.29) scale(1,-1)"><path stroke-width="0" fill="none" d="M 840.71 601.14 L 840.71 4538.15 L 4777.72 4538.15 L 4777.72 601.14 L 840.71 601.14 M 1401.73 837.36 L 1401.75 839.05 L 1401.81 840.74 L 1401.92 842.43 L 1402.06 844.11 L 1402.25 845.79 L 1402.48 847.47 L 1402.74 849.14 L 1403.05 850.8 L 1403.4 852.46 L 1403.79 854.1 L 1404.23 855.74 L 1404.7 857.36 L 1405.21 858.97 L 1405.76 860.57 L 1406.35 862.16 L 1406.97 863.73 L 1407.64 865.28 L 1408.35 866.82 L 1409.09 868.34 L 1409.87 869.84 L 1410.68 871.32 L 1411.53 872.78 L 1412.42 874.22 L 1413.34 875.64 L 1414.3 877.03 L 1415.29 878.4 L 1416.31 879.75 L 1417.37 881.07 L 1418.46 882.36 L 1419.58 883.63 L 1420.73 884.87 L 1421.91 886.08 L 1423.12 887.26 L 1424.36 888.41 L 1425.63 889.53 L 1426.92 890.62 L 1428.24 891.68 L 1429.59 892.7 L 1430.96 893.69 L 1432.35 894.65 L 1433.77 895.57 L 1435.21 896.46 L 1436.67 897.31 L 1438.15 898.12 L 1439.65 898.9 L 1441.17 899.64 L 1442.71 900.35 L 1444.26 901.02 L 1445.83 901.64 L 1447.42 902.23 L 1449.02 902.78 L 1450.63 903.29 L 1452.25 903.76 L 1453.89 904.2 L 1455.53 904.59 L 1457.19 904.94 L 1458.85 905.25 L 1460.52 905.51 L 1462.2 905.74 L 1463.88 905.93 L 1465.56 906.07 L 1467.25 906.18 L 1468.94 906.24 L 1470.63 906.26 L 1472.32 906.24 L 1474.01 906.18 L 1475.7 906.07 L 1477.38 905.93 L 1479.06 905.74 L 1480.74 905.51 L 1482.41 905.25 L 1484.07 904.94 L 1485.73 904.59 L 1487.37 904.2 L 1489.01 903.76 L 1490.63 903.29 L 1492.24 902.78 L 1493.84 902.23 L 1495.43 901.64 L 1497 901.02 L 1498.55 900.35 L 1500.09 899.64 L 1501.61 898.9 L 1503.11 898.12 L 1504.59 897.31 L 1506.05 896.46 L 1507.49 895.57 L 1508.91 894.65 L 1510.3 893.69 L 1511.67 892.7 L 1513.02 891.68 L 1514.34 890.62 L 1515.63 889.53 L 1516.9 888.41 L 1518.14 887.26 L 1519.35 886.08 L 1520.53 884.87 L 1521.68 883.63 L 1522.8 882.36 L 1523.89 881.07 L 1524.95 879.75 L 1525.97 878.4 L 1526.96 877.03 L 1527.92 875.64 L 1528.84 874.22 L 1529.73 872.78 L 1530.58 871.32 L 1531.39 869.84 L 1532.17 868.34 L 1532.91 866.82 L 1533.62 865.28 L 1534.29 863.73 L 1534.91 862.16 L 1535.5 860.57 L 1536.05 858.97 L 1536.56 857.36 L 1537.03 855.74 L 1537.47 854.1 L 1537.86 852.46 L 1538.21 850.8 L 1538.52 849.14 L 1538.78 847.47 L 1539.01 845.79 L 1539.2 844.11 L 1539.34 842.43 L 1539.45 840.74 L 1539.51 839.05 L 1539.53 837.36 L 1539.51 835.67 L 1539.45 833.98 L 1539.34 832.29 L 1539.2 830.61 L 1539.01 828.93 L 1538.78 827.25 L 1538.52 825.58 L 1538.21 823.92 L 1537.86 822.26 L 1537.47 820.62 L 1537.03 818.98 L 1536.56 817.36 L 1536.05 815.75 L 1535.5 814.15 L 1534.91 812.56 L 1534.29 810.99 L 1533.62 809.44 L 1532.91 807.9 L 1532.17 806.38 L 1531.39 804.88 L 1530.58 803.4 L 1529.73 801.94 L 1528.84 800.5 L 1527.92 799.08 L 1526.96 797.69 L 1525.97 796.32 L 1524.95 794.97 L 1523.89 793.65 L 1522.8 792.36 L 1521.68 791.09 L 1520.53 789.85 L 1519.35 788.64 L 1518.14 787.46 L 1516.9 786.31 L 1515.63 785.19 L 1514.34 784.1 L 1513.02 783.04 L 1511.67 782.02 L 1510.3 781.03 L 1508.91 780.07 L 1507.49 779.15 L 1506.05 778.26 L 1504.59 777.41 L 1503.11 776.6 L 1501.61 775.82 L 1500.09 775.08 L 1498.55 774.37 L 1497 773.7 L 1495.43 773.08 L 1493.84 772.49 L 1492.24 771.94 L 1490.63 771.43 L 1489.01 770.96 L 1487.37 770.52 L 1485.73 770.13 L 1484.07 769.78 L 1482.41 769.47 L 1480.74 769.21 L 1479.06 768.98 L 1477.38 768.79 L 1475.7 768.65 L 1474.01 768.54 L 1472.32 768.48 L 1470.63 768.46 L 1468.94 768.48 L 1467.25 768.54 L 1465.56 768.65 L 1463.88 768.79 L 1462.2 768.98 L 1460.52 769.21 L 1458.85 769.47 L 1457.19 769.78 L 1455.53 770.13 L 1453.89 770.52 L 1452.25 770.96 L 1450.63 771.43 L 1449.02 771.94 L 1447.42 772.49 L 1445.83 773.08 L 1444.26 773.7 L 1442.71 774.37 L 1441.17 775.08 L 1439.65 775.82 L 1438.15 776.6 L 1436.67 777.41 L 1435.21 778.26 L 1433.77 779.15 L 1432.35 780.07 L 1430.96 781.03 L 1429.59 782.02 L 1428.24 783.04 L 1426.92 784.1 L 1425.63 785.19 L 1424.36 786.31 L 1423.12 787.46 L 1421.91 788.64 L 1420.73 789.85 L 1419.58 791.09 L 1418.46 792.36 L 1417.37 793.65 L 1416.31 794.97 L 1415.29 796.32 L 1414.3 797.69 L 1413.34 799.08 L 1412.42 800.5 L 1411.53 801.94 L 1410.68 803.4 L 1409.87 804.88 L 1409.09 806.38 L 1408.35 807.9 L 1407.64 809.44 L 1406.97 810.99 L 1406.35 812.56 L 1405.76 814.15 L 1405.21 815.75 L 1404.7 817.36 L 1404.23 818.98 L 1403.79 820.62 L 1403.4 822.26 L 1403.05 823.92 L 1402.74 825.58 L 1402.48 827.25 L 1402.25 828.93 L 1402.06 830.61 L 1401.92 832.29 L 1401.81 833.98 L 1401.75 835.67 L 1401.73 837.36 M 4551.34 837.36 L 4551.36 839.05 L 4551.42 840.74 L 4551.53 842.43 L 4551.67 844.11 L 4551.86 845.79 L 4552.09 847.47 L 4552.35 849.14 L 4552.66 850.8 L 4553.01 852.46 L 4553.4 854.1 L 4553.84 855.74 L 4554.31 857.36 L 4554.82 858.97 L 4555.37 860.57 L 4555.96 862.16 L 4556.58 863.73 L 4557.25 865.28 L 4557.96 866.82 L 4558.7 868.34 L 4559.48 869.84 L 4560.29 871.32 L 4561.14 872.78 L 4562.03 874.22 L 4562.95 875.64 L 4563.91 877.03 L 4564.9 878.4 L 4565.92 879.75 L 4566.98 881.07 L 4568.07 882.36 L 4569.19 883.63 L 4570.34 884.87 L 4571.52 886.08 L 4572.73 887.26 L 4573.97 888.41 L 4575.24 889.53 L 4576.53 890.62 L 4577.85 891.68 L 4579.2 892.7 L 4580.57 893.69 L 4581.96 894.65 L 4583.38 895.57 L 4584.82 896.46 L 4586.28 897.31 L 4587.76 898.12 L 4589.26 898.9 L 4590.78 899.64 L 4592.32 900.35 L 4593.87 901.02 L 4595.44 901.64 L 4597.03 902.23 L 4598.63 902.78 L 4600.24 903.29 L 4601.86 903.76 L 4603.5 904.2 L 4605.14 904.59 L 4606.8 904.94 L 4608.46 905.25 L 4610.13 905.51 L 4611.81 905.74 L 4613.49 905.93 L 4615.17 906.07 L 4616.86 906.18 L 4618.55 906.24 L 4620.24 906.26 L 4621.93 906.24 L 4623.62 906.18 L 4625.31 906.07 L 4626.99 905.93 L 4628.67 905.74 L 4630.35 905.51 L 4632.02 905.25 L 4633.68 904.94 L 4635.34 904.59 L 4636.98 904.2 L 4638.62 903.76 L 4640.24 903.29 L 4641.85 902.78 L 4643.45 902.23 L 4645.04 901.64 L 4646.61 901.02 L 4648.16 900.35 L 4649.7 899.64 L 4651.22 898.9 L 4652.72 898.12 L 4654.2 897.31 L 4655.66 896.46 L 4657.1 895.57 L 4658.52 894.65 L 4659.91 893.69 L 4661.28 892.7 L 4662.63 891.68 L 4663.95 890.62 L 4665.24 889.53 L 4666.51 888.41 L 4667.75 887.26 L 4668.96 886.08 L 4670.14 884.87 L 4671.29 883.63 L 4672.41 882.36 L 4673.5 881.07 L 4674.56 879.75 L 4675.58 878.4 L 4676.57 877.03 L 4677.53 875.64 L 4678.45 874.22 L 4679.34 872.78 L 4680.19 871.32 L 4681 869.84 L 4681.78 868.34 L 4682.52 866.82 L 4683.23 865.28 L 4683.9 863.73 L 4684.52 862.16 L 4685.11 860.57 L 4685.66 858.97 L 4686.17 857.36 L 4686.64 855.74 L 4687.08 854.1 L 4687.47 852.46 L 4687.82 850.8 L 4688.13 849.14 L 4688.39 847.47 L 4688.62 845.79 L 4688.81 844.11 L 4688.95 842.43 L 4689.06 840.74 L 4689.12 839.05 L 4689.14 837.36 L 4689.12 835.67 L 4689.06 833.98 L 4688.95 832.29 L 4688.81 830.61 L 4688.62 828.93 L 4688.39 827.25 L 4688.13 825.58 L 4687.82 823.92 L 4687.47 822.26 L 4687.08 820.62 L 4686.64 818.98 L 4686.17 817.36 L 4685.66 815.75 L 4685.11 814.15 L 4684.52 812.56 L 4683.9 810.99 L 4683.23 809.44 L 4682.52 807.9 L 4681.78 806.38 L 4681 804.88 L 4680.19 803.4 L 4679.34 801.94 L 4678.45 800.5 L 4677.53 799.08 L 4676.57 797.69 L 4675.58 796.32 L 4674.56 794.97 L 4673.5 793.65 L 4672.41 792.36 L 4671.29 791.09 L 4670.14 789.85 L 4668.96 788.64 L 4667.75 787.46 L 4666.51 786.31 L 4665.24 785.19 L 4663.95 784.1 L 4662.63 783.04 L 4661.28 782.02 L 4659.91 781.03 L 4658.52 780.07 L 4657.1 779.15 L 4655.66 778.26 L 4654.2 777.41 L 4652.72 776.6 L 4651.22 775.82 L 4649.7 775.08 L 4648.16 774.37 L 4646.61 773.7 L 4645.04 773.08 L 4643.45 772.49 L 4641.85 771.94 L 4640.24 771.43 L 4638.62 770.96 L 4636.98 770.52 L 4635.34 770.13 L 4633.68 769.78 L 4632.02 769.47 L 4630.35 769.21 L 4628.67 768.98 L 4626.99 768.79 L 4625.31 768.65 L 4623.62 768.54 L 4621.93 768.48 L 4620.24 768.46 L 4618.55 768.48 L 4616.86 768.54 L 4615.17 768.65 L 4613.49 768.79 L 4611.81 768.98 L 4610.13 769.21 L 4608.46 769.47 L 4606.8 769.78 L 4605.14 770.13 L 4603.5 770.52 L 4601.86 770.96 L 4600.24 771.43 L 4598.63 771.94 L 4597.03 772.49 L 4595.44 773.08 L 4593.87 773.7 L 4592.32 774.37 L 4590.78 775.08 L 4589.26 775.82 L 4587.76 776.6 L 4586.28 777.41 L 4584.82 778.26 L 4583.38 779.15 L 4581.96 780.07 L 4580.57 781.03 L 4579.2 782.02 L 4577.85 783.04 L 4576.53 784.1 L 4575.24 785.19 L 4573.97 786.31 L 4572.73 787.46 L 4571.52 788.64 L 4570.34 789.85 L 4569.19 791.09 L 4568.07 792.36 L 4566.98 793.65 L 4565.92 794.97 L 4564.9 796.32 L 4563.91 797.69 L 4562.95 799.08 L 4562.03 800.5 L 4561.14 801.94 L 4560.29 803.4 L 4559.48 804.88 L 4558.7 806.38 L 4557.96 807.9 L 4557.25 809.44 L 4556.58 810.99 L 4555.96 812.56 L 4555.37 814.15 L 4554.82 815.75 L 4554.31 817.36 L 4553.84 818.98 L 4553.4 820.62 L 4553.01 822.26 L 4552.66 823.92 L 4552.35 825.58 L 4552.09 827.25 L 4551.86 828.93 L 4551.67 830.61 L 4551.53 832.29 L 4551.42 833.98 L 4551.36 835.67 L 4551.34 837.36 M 4551.34 4380.67 L 4551.36 4382.36 L 4551.42 4384.05 L 4551.53 4385.74 L 4551.67 4387.42 L 4551.86 4389.1 L 4552.09 4390.78 L 4552.35 4392.45 L 4552.66 4394.11 L 4553.01 4395.77 L 4553.4 4397.41 L 4553.84 4399.05 L 4554.31 4400.67 L 4554.82 4402.28 L 4555.37 4403.88 L 4555.96 4405.47 L 4556.58 4407.04 L 4557.25 4408.59 L 4557.96 4410.13 L 4558.7 4411.65 L 4559.48 4413.15 L 4560.29 4414.63 L 4561.14 4416.09 L 4562.03 4417.53 L 4562.95 4418.95 L 4563.91 4420.34 L 4564.9 4421.71 L 4565.92 4423.06 L 4566.98 4424.38 L 4568.07 4425.67 L 4569.19 4426.94 L 4570.34 4428.18 L 4571.52 4429.39 L 4572.73 4430.57 L 4573.97 4431.72 L 4575.24 4432.84 L 4576.53 4433.93 L 4577.85 4434.99 L 4579.2 4436.01 L 4580.57 4437 L 4581.96 4437.96 L 4583.38 4438.88 L 4584.82 4439.77 L 4586.28 4440.62 L 4587.76 4441.43 L 4589.26 4442.21 L 4590.78 4442.95 L 4592.32 4443.66 L 4593.87 4444.33 L 4595.44 4444.95 L 4597.03 4445.54 L 4598.63 4446.09 L 4600.24 4446.6 L 4601.86 4447.07 L 4603.5 4447.51 L 4605.14 4447.9 L 4606.8 4448.25 L 4608.46 4448.56 L 4610.13 4448.82 L 4611.81 4449.05 L 4613.49 4449.24 L 4615.17 4449.38 L 4616.86 4449.49 L 4618.55 4449.55 L 4620.24 4449.57 L 4621.93 4449.55 L 4623.62 4449.49 L 4625.31 4449.38 L 4626.99 4449.24 L 4628.67 4449.05 L 4630.35 4448.82 L 4632.02 4448.56 L 4633.68 4448.25 L 4635.34 4447.9 L 4636.98 4447.51 L 4638.62 4447.07 L 4640.24 4446.6 L 4641.85 4446.09 L 4643.45 4445.54 L 4645.04 4444.95 L 4646.61 4444.33 L 4648.16 4443.66 L 4649.7 4442.95 L 4651.22 4442.21 L 4652.72 4441.43 L 4654.2 4440.62 L 4655.66 4439.77 L 4657.1 4438.88 L 4658.52 4437.96 L 4659.91 4437 L 4661.28 4436.01 L 4662.63 4434.99 L 4663.95 4433.93 L 4665.24 4432.84 L 4666.51 4431.72 L 4667.75 4430.57 L 4668.96 4429.39 L 4670.14 4428.18 L 4671.29 4426.94 L 4672.41 4425.67 L 4673.5 4424.38 L 4674.56 4423.06 L 4675.58 4421.71 L 4676.57 4420.34 L 4677.53 4418.95 L 4678.45 4417.53 L 4679.34 4416.09 L 4680.19 4414.63 L 4681 4413.15 L 4681.78 4411.65 L 4682.52 4410.13 L 4683.23 4408.59 L 4683.9 4407.04 L 4684.52 4405.47 L 4685.11 4403.88 L 4685.66 4402.28 L 4686.17 4400.67 L 4686.64 4399.05 L 4687.08 4397.41 L 4687.47 4395.77 L 4687.82 4394.11 L 4688.13 4392.45 L 4688.39 4390.78 L 4688.62 4389.1 L 4688.81 4387.42 L 4688.95 4385.74 L 4689.06 4384.05 L 4689.12 4382.36 L 4689.14 4380.67 L 4689.12 4378.98 L 4689.06 4377.29 L 4688.95 4375.6 L 4688.81 4373.92 L 4688.62 4372.24 L 4688.39 4370.56 L 4688.13 4368.89 L 4687.82 4367.23 L 4687.47 4365.57 L 4687.08 4363.93 L 4686.64 4362.29 L 4686.17 4360.67 L 4685.66 4359.06 L 4685.11 4357.46 L 4684.52 4355.87 L 4683.9 4354.3 L 4683.23 4352.75 L 4682.52 4351.21 L 4681.78 4349.69 L 4681 4348.19 L 4680.19 4346.71 L 4679.34 4345.25 L 4678.45 4343.81 L 4677.53 4342.39 L 4676.57 4341 L 4675.58 4339.63 L 4674.56 4338.28 L 4673.5 4336.96 L 4672.41 4335.67 L 4671.29 4334.4 L 4670.14 4333.16 L 4668.96 4331.95 L 4667.75 4330.77 L 4666.51 4329.62 L 4665.24 4328.5 L 4663.95 4327.41 L 4662.63 4326.35 L 4661.28 4325.33 L 4659.91 4324.34 L 4658.52 4323.38 L 4657.1 4322.46 L 4655.66 4321.57 L 4654.2 4320.72 L 4652.72 4319.91 L 4651.22 4319.13 L 4649.7 4318.39 L 4648.16 4317.68 L 4646.61 4317.01 L 4645.04 4316.39 L 4643.45 4315.8 L 4641.85 4315.25 L 4640.24 4314.74 L 4638.62 4314.27 L 4636.98 4313.83 L 4635.34 4313.44 L 4633.68 4313.09 L 4632.02 4312.78 L 4630.35 4312.52 L 4628.67 4312.29 L 4626.99 4312.1 L 4625.31 4311.96 L 4623.62 4311.85 L 4621.93 4311.79 L 4620.24 4311.77 L 4618.55 4311.79 L 4616.86 4311.85 L 4615.17 4311.96 L 4613.49 4312.1 L 4611.81 4312.29 L 4610.13 4312.52 L 4608.46 4312.78 L 4606.8 4313.09 L 4605.14 4313.44 L 4603.5 4313.83 L 4601.86 4314.27 L 4600.24 4314.74 L 4598.63 4315.25 L 4597.03 4315.8 L 4595.44 4316.39 L 4593.87 4317.01 L 4592.32 4317.68 L 4590.78 4318.39 L 4589.26 4319.13 L 4587.76 4319.91 L 4586.28 4320.72 L 4584.82 4321.57 L 4583.38 4322.46 L 4581.96 4323.38 L 4580.57 4324.34 L 4579.2 4325.33 L 4577.85 4326.35 L 4576.53 4327.41 L 4575.24 4328.5 L 4573.97 4329.62 L 4572.73 4330.77 L 4571.52 4331.95 L 4570.34 4333.16 L 4569.19 4334.4 L 4568.07 4335.67 L 4566.98 4336.96 L 4565.92 4338.28 L 4564.9 4339.63 L 4563.91 4341 L 4562.95 4342.39 L 4562.03 4343.81 L 4561.14 4345.25 L 4560.29 4346.71 L 4559.48 4348.19 L 4558.7 4349.69 L 4557.96 4351.21 L 4557.25 4352.75 L 4556.58 4354.3 L 4555.96 4355.87 L 4555.37 4357.46 L 4554.82 4359.06 L 4554.31 4360.67 L 4553.84 4362.29 L 4553.4 4363.93 L 4553.01 4365.57 L 4552.66 4367.23 L 4552.35 4368.89 L 4552.09 4370.56 L 4551.86 4372.24 L 4551.67 4373.92 L 4551.53 4375.6 L 4551.42 4377.29 L 4551.36 4378.98 L 4551.34 4380.67 M 1008.03 4380.67 L 1008.05 4382.36 L 1008.11 4384.05 L 1008.22 4385.74 L 1008.36 4387.42 L 1008.55 4389.1 L 1008.78 4390.78 L 1009.04 4392.45 L 1009.35 4394.11 L 1009.7 4395.77 L 1010.09 4397.41 L 1010.53 4399.05 L 1011 4400.67 L 1011.51 4402.28 L 1012.06 4403.88 L 1012.65 4405.47 L 1013.27 4407.04 L 1013.94 4408.59 L 1014.65 4410.13 L 1015.39 4411.65 L 1016.17 4413.15 L 1016.98 4414.63 L 1017.83 4416.09 L 1018.72 4417.53 L 1019.64 4418.95 L 1020.6 4420.34 L 1021.59 4421.71 L 1022.61 4423.06 L 1023.67 4424.38 L 1024.76 4425.67 L 1025.88 4426.94 L 1027.03 4428.18 L 1028.21 4429.39 L 1029.42 4430.57 L 1030.66 4431.72 L 1031.93 4432.84 L 1033.22 4433.93 L 1034.54 4434.99 L 1035.89 4436.01 L 1037.26 4437 L 1038.65 4437.96 L 1040.07 4438.88 L 1041.51 4439.77 L 1042.97 4440.62 L 1044.45 4441.43 L 1045.95 4442.21 L 1047.47 4442.95 L 1049.01 4443.66 L 1050.56 4444.33 L 1052.13 4444.95 L 1053.72 4445.54 L 1055.32 4446.09 L 1056.93 4446.6 L 1058.55 4447.07 L 1060.19 4447.51 L 1061.83 4447.9 L 1063.49 4448.25 L 1065.15 4448.56 L 1066.82 4448.82 L 1068.5 4449.05 L 1070.18 4449.24 L 1071.86 4449.38 L 1073.55 4449.49 L 1075.24 4449.55 L 1076.93 4449.57 L 1078.62 4449.55 L 1080.31 4449.49 L 1082 4449.38 L 1083.68 4449.24 L 1085.36 4449.05 L 1087.04 4448.82 L 1088.71 4448.56 L 1090.37 4448.25 L 1092.03 4447.9 L 1093.67 4447.51 L 1095.31 4447.07 L 1096.93 4446.6 L 1098.54 4446.09 L 1100.14 4445.54 L 1101.73 4444.95 L 1103.3 4444.33 L 1104.85 4443.66 L 1106.39 4442.95 L 1107.91 4442.21 L 1109.41 4441.43 L 1110.89 4440.62 L 1112.35 4439.77 L 1113.79 4438.88 L 1115.21 4437.96 L 1116.6 4437 L 1117.97 4436.01 L 1119.32 4434.99 L 1120.64 4433.93 L 1121.93 4432.84 L 1123.2 4431.72 L 1124.44 4430.57 L 1125.65 4429.39 L 1126.83 4428.18 L 1127.98 4426.94 L 1129.1 4425.67 L 1130.19 4424.38 L 1131.25 4423.06 L 1132.27 4421.71 L 1133.26 4420.34 L 1134.22 4418.95 L 1135.14 4417.53 L 1136.03 4416.09 L 1136.88 4414.63 L 1137.69 4413.15 L 1138.47 4411.65 L 1139.21 4410.13 L 1139.92 4408.59 L 1140.59 4407.04 L 1141.21 4405.47 L 1141.8 4403.88 L 1142.35 4402.28 L 1142.86 4400.67 L 1143.33 4399.05 L 1143.77 4397.41 L 1144.16 4395.77 L 1144.51 4394.11 L 1144.82 4392.45 L 1145.08 4390.78 L 1145.31 4389.1 L 1145.5 4387.42 L 1145.64 4385.74 L 1145.75 4384.05 L 1145.81 4382.36 L 1145.83 4380.67 L 1145.81 4378.98 L 1145.75 4377.29 L 1145.64 4375.6 L 1145.5 4373.92 L 1145.31 4372.24 L 1145.08 4370.56 L 1144.82 4368.89 L 1144.51 4367.23 L 1144.16 4365.57 L 1143.77 4363.93 L 1143.33 4362.29 L 1142.86 4360.67 L 1142.35 4359.06 L 1141.8 4357.46 L 1141.21 4355.87 L 1140.59 4354.3 L 1139.92 4352.75 L 1139.21 4351.21 L 1138.47 4349.69 L 1137.69 4348.19 L 1136.88 4346.71 L 1136.03 4345.25 L 1135.14 4343.81 L 1134.22 4342.39 L 1133.26 4341 L 1132.27 4339.63 L 1131.25 4338.28 L 1130.19 4336.96 L 1129.1 4335.67 L 1127.98 4334.4 L 1126.83 4333.16 L 1125.65 4331.95 L 1124.44 4330.77 L 1123.2 4329.62 L 1121.93 4328.5 L 1120.64 4327.41 L 1119.32 4326.35 L 1117.97 4325.33 L 1116.6 4324.34 L 1115.21 4323.38 L 1113.79 4322.46 L 1112.35 4321.57 L 1110.89 4320.72 L 1109.41 4319.91 L 1107.91 4319.13 L 1106.39 4318.39 L 1104.85 4317.68 L 1103.3 4317.01 L 1101.73 4316.39 L 1100.14 4315.8 L 1098.54 4315.25 L 1096.93 4314.74 L 1095.31 4314.27 L 1093.67 4313.83 L 1092.03 4313.44 L 1090.37 4313.09 L 1088.71 4312.78 L 1087.04 4312.52 L 1085.36 4312.29 L 1083.68 4312.1 L 1082 4311.96 L 1080.31 4311.85 L 1078.62 4311.79 L 1076.93 4311.77 L 1075.24 4311.79 L 1073.55 4311.85 L 1071.86 4311.96 L 1070.18 4312.1 L 1068.5 4312.29 L 1066.82 4312.52 L 1065.15 4312.78 L 1063.49 4313.09 L 1061.83 4313.44 L 1060.19 4313.83 L 1058.55 4314.27 L 1056.93 4314.74 L 1055.32 4315.25 L 1053.72 4315.8 L 1052.13 4316.39 L 1050.56 4317.01 L 1049.01 4317.68 L 1047.47 4318.39 L 1045.95 4319.13 L 1044.45 4319.91 L 1042.97 4320.72 L 1041.51 4321.57 L 1040.07 4322.46 L 1038.65 4323.38 L 1037.26 4324.34 L 1035.89 4325.33 L 1034.54 4326.35 L 1033.22 4327.41 L 1031.93 4328.5 L 1030.66 4329.62 L 1029.42 4330.77 L 1028.21 4331.95 L 1027.03 4333.16 L 1025.88 4334.4 L 1024.76 4335.67 L 1023.67 4336.96 L 1022.61 4338.28 L 1021.59 4339.63 L 1020.6 4341 L 1019.64 4342.39 L 1018.72 4343.81 L 1017.83 4345.25 L 1016.98 4346.71 L 1016.17 4348.19 L 1015.39 4349.69 L 1014.65 4351.21 L 1013.94 4352.75 L 1013.27 4354.3 L 1012.65 4355.87 L 1012.06 4357.46 L 1011.51 4359.06 L 1011 4360.67 L 1010.53 4362.29 L 1010.09 4363.93 L 1009.7 4365.57 L 1009.35 4367.23 L 1009.04 4368.89 L 1008.78 4370.56 L 1008.55 4372.24 L 1008.36 4373.92 L 1008.22 4375.6 L 1008.11 4377.29 L 1008.05 4378.98 L 1008.03 4380.67"/><path stroke-width="15.75" fill="none" d="M 971.96 4312.59 L 959.95 4317.56 L 947.31 4320.59 L 934.36 4321.61 L 909.61 4321.61 L 905.23 4321.12 L 901.07 4319.66 L 897.33 4317.32 L 894.22 4314.2 L 891.87 4310.47 L 890.41 4306.31 L 889.92 4301.93 L 889.92 3849.17 L 890.52 3842.34 L 892.3 3835.71 L 895.2 3829.49 L 899.13 3823.87 L 903.98 3819.01 L 909.61 3815.08 L 915.83 3812.18 L 922.45 3810.4 L 929.29 3809.8 L 988.35 3809.8 L 997.67 3811.48 L 1006.56 3814.75 L 1014.75 3819.52 L 1021.99 3825.63 L 1028.06 3832.91 L 1032.77 3841.13 L 1035.98 3850.05 L 1037.59 3859.38 L 1037.56 3868.86 L 1037.56 3977.13 L 1039.07 4002.04 L 1043.57 4026.59 L 1050.99 4050.42 L 1061.23 4073.18 L 1074.15 4094.54 L 1089.54 4114.19 L 1107.19 4131.84 L 1126.84 4147.23 L 1148.2 4160.14 L 1170.96 4170.39 L 1194.79 4177.81 L 1219.34 4182.31 L 1244.25 4183.82 L 2139.92 4183.82 L 2165.62 4182.13 L 2190.87 4177.11 L 2215.25 4168.83 L 2238.35 4157.45 L 2259.76 4143.14 L 2279.12 4126.16 L 2296.09 4106.8 L 2310.4 4085.39 L 2321.79 4062.3 L 2330.06 4037.92 L 2335.09 4012.66 L 2336.77 3986.97 L 2336.77 3915.1 L 2335.47 3891.96 L 2331.59 3869.11 L 2325.17 3846.84 L 2316.3 3825.42 L 2305.09 3805.14 L 2291.68 3786.23 L 2276.23 3768.95 L 2259.52 3752.23 L 2242.23 3736.79 L 2223.33 3723.37 L 2203.04 3712.16 L 2181.63 3703.29 L 2159.35 3696.88 L 2136.5 3692.99 L 2113.36 3691.69 L 1844.65 3691.69 L 1838.88 3691.13 L 1833.35 3689.45 L 1828.24 3686.72 L 1823.77 3683.04 L 1820.09 3678.57 L 1817.37 3673.47 L 1815.69 3667.93 L 1815.12 3662.17 L 1815.12 2342.28 L 1815.97 2331.5 L 1818.49 2320.99 L 1822.63 2311 L 1828.28 2301.78 L 1835.3 2293.56 L 2051.83 2077.03 L 2060.68 2069.55 L 2070.66 2063.67 L 2081.48 2059.54 L 2092.84 2057.28 L 2104.41 2056.95 L 2115.88 2058.57 L 2126.92 2062.09 L 2137.21 2067.41 L 2146.46 2074.37 L 2154.42 2082.79 L 2160.85 2092.42 L 2165.58 2102.99 L 2168.48 2114.2 L 2169.45 2125.74 L 2169.45 3438.76 L 2170.75 3461.9 L 2174.63 3484.75 L 2181.05 3507.02 L 2189.92 3528.44 L 2201.13 3548.72 L 2214.54 3567.63 L 2229.99 3584.91 L 2341.05 3695.97 L 2357.18 3714.37 L 2370.77 3734.71 L 2381.59 3756.64 L 2389.45 3779.81 L 2394.23 3803.8 L 2395.83 3828.21 L 2395.83 3986.97 L 2397.51 4012.66 L 2402.53 4037.92 L 2410.81 4062.3 L 2422.2 4085.39 L 2436.51 4106.8 L 2453.48 4126.16 L 2472.84 4143.14 L 2494.25 4157.45 L 2517.35 4168.83 L 2541.73 4177.11 L 2566.98 4182.13 L 2592.68 4183.82 L 3576.93 4183.82 L 3602.62 4182.13 L 3627.88 4177.11 L 3652.26 4168.83 L 3675.35 4157.45 L 3696.76 4143.14 L 3716.12 4126.16 L 3733.1 4106.8 L 3747.41 4085.39 L 3758.8 4062.3 L 3767.07 4037.92 L 3772.1 4012.66 L 3773.78 3986.97 L 3773.78 3849.17 L 3772.26 3826.05 L 3767.74 3803.32 L 3760.29 3781.37 L 3750.04 3760.59 L 3737.17 3741.32 L 3721.89 3723.9 L 3704.47 3708.62 L 3685.2 3695.74 L 3664.41 3685.49 L 3642.47 3678.04 L 3619.74 3673.52 L 3596.61 3672.01 L 3369.04 3444.44 L 3365.37 3439.96 L 3362.64 3434.86 L 3360.96 3429.32 L 3360.39 3423.56 L 3360.39 3278.31 L 3360.96 3272.55 L 3362.64 3267.01 L 3365.37 3261.9 L 3369.04 3257.43 L 3373.52 3253.76 L 3378.62 3251.03 L 3384.16 3249.35 L 3389.92 3248.78 L 3505.64 3248.78 L 3511.4 3249.35 L 3516.94 3251.03 L 3522.05 3253.76 L 3526.52 3257.43 L 3824.19 3555.09 L 3827.86 3559.57 L 3830.59 3564.67 L 3832.27 3570.21 L 3832.83 3575.97 L 3832.83 3986.97 L 3834.52 4012.66 L 3839.54 4037.92 L 3847.82 4062.3 L 3859.21 4085.39 L 3873.51 4106.8 L 3890.49 4126.16 L 3909.85 4143.14 L 3931.26 4157.45 L 3954.35 4168.83 L 3978.74 4177.11 L 4003.99 4182.13 L 4029.68 4183.82 L 4689.13 4183.82 L 4695.97 4184.42 L 4702.6 4186.19 L 4708.82 4189.09 L 4714.44 4193.03 L 4719.29 4197.88 L 4723.23 4203.5 L 4726.13 4209.72 L 4727.91 4216.35 L 4728.5 4223.19 L 4727.91 4230.03 L 4726.13 4236.65 L 4723.23 4242.87 L 4719.29 4248.5 L 4714.44 4253.35 L 4708.82 4257.28 L 4702.6 4260.18 L 4695.97 4261.96 L 4689.13 4262.56 L 4620.24 4262.56 L 4603.43 4263.76 L 4586.96 4267.34 L 4571.17 4273.23 L 4556.38 4281.31 L 4542.89 4291.41 L 4530.97 4303.32 L 4520.88 4316.81 L 4512.8 4331.6 L 4506.91 4347.39 L 4503.33 4363.86 L 4502.13 4380.67 L 4502.13 4449.57 L 4501.53 4456.4 L 4499.75 4463.03 L 4496.85 4469.25 L 4492.91 4474.87 L 4488.06 4479.73 L 4482.44 4483.66 L 4476.22 4486.56 L 4469.59 4488.34 L 4462.76 4488.94 L 1234.41 4488.94 L 1227.57 4488.34 L 1220.94 4486.56 L 1214.72 4483.66 L 1209.1 4479.73 L 1204.25 4474.87 L 1200.31 4469.25 L 1197.41 4463.03 L 1195.64 4456.4 L 1195.04 4449.57 L 1195.04 4380.67 L 1193.84 4363.86 L 1190.25 4347.39 L 1184.37 4331.6 L 1176.29 4316.81 L 1166.19 4303.32 L 1154.27 4291.41 L 1140.78 4281.31 L 1125.99 4273.23 L 1110.2 4267.34 L 1093.74 4263.76 L 1076.93 4262.56 L 1061.42 4263.58 L 1046.18 4266.61 L 1031.46 4271.6 L 1017.52 4278.48 L 1004.6 4287.11 L 992.92 4297.36 L 983.04 4305.8 L 971.96 4312.59 M 967.79 4314.31 L 894.33 4314.31 M 889.92 4298.58 L 991.49 4298.58 M 1010.98 4282.85 L 889.92 4282.85 M 889.92 4267.11 L 1044.69 4267.11 M 1109.15 4267.11 L 4588.02 4267.11 M 4554.33 4282.85 L 1142.84 4282.85 M 1161.45 4298.58 L 4535.72 4298.58 M 4522.75 4314.31 L 1174.42 4314.31 M 1183.51 4330.05 L 4513.65 4330.05 M 4507.51 4345.78 L 1189.65 4345.78 M 1193.33 4361.51 L 4503.84 4361.51 M 4502.37 4377.25 L 1194.79 4377.25 M 1195.04 4392.98 L 4502.13 4392.98 M 4502.13 4408.71 L 1195.04 4408.71 M 1195.04 4424.44 L 4502.13 4424.44 M 4502.13 4440.18 L 1195.04 4440.18 M 1195.59 4455.91 L 4501.57 4455.91 M 4495.18 4471.64 L 1201.99 4471.64 M 1223.98 4487.38 L 4473.18 4487.38 M 4716.41 4251.38 L 889.92 4251.38 M 889.92 4235.65 L 4726.4 4235.65 M 4728.22 4219.91 L 889.92 4219.91 M 889.92 4204.18 L 4723.54 4204.18 M 4707.43 4188.45 L 889.92 4188.45 M 889.92 4172.71 L 1178.43 4172.71 M 1142.97 4156.98 L 889.92 4156.98 M 889.92 4141.25 L 1119.2 4141.25 M 1100.87 4125.52 L 889.92 4125.52 M 889.92 4109.78 L 1086.09 4109.78 M 1073.85 4094.05 L 889.92 4094.05 M 889.92 4078.32 L 1064.34 4078.32 M 1056.46 4062.58 L 889.92 4062.58 M 889.92 4046.85 L 1049.88 4046.85 M 1044.98 4031.12 L 889.92 4031.12 M 889.92 4015.38 L 1041.51 4015.38 M 1038.92 3999.65 L 889.92 3999.65 M 889.92 3983.92 L 1037.97 3983.92 M 1037.56 3968.18 L 889.92 3968.18 M 889.92 3952.45 L 1037.56 3952.45 M 1037.56 3936.72 L 889.92 3936.72 M 889.92 3920.98 L 1037.56 3920.98 M 1037.56 3905.25 L 889.92 3905.25 M 889.92 3889.52 L 1037.56 3889.52 M 1037.56 3873.78 L 889.92 3873.78 M 889.92 3858.05 L 1037.36 3858.05 M 1033.19 3842.32 L 890.52 3842.32 M 897.23 3826.59 L 1022.79 3826.59 M 994.18 3810.85 L 920.77 3810.85 M 1037.81 3658.33 L 1061.64 3665.75 L 1084.4 3676 L 1105.76 3688.91 L 1125.41 3704.3 L 1143.06 3721.95 L 1158.45 3741.6 L 1171.36 3762.96 L 1181.61 3785.72 L 1189.03 3809.55 L 1193.53 3834.1 L 1195.04 3859.02 L 1195.04 3967.28 L 1195.64 3974.12 L 1197.41 3980.75 L 1200.31 3986.97 L 1204.25 3992.59 L 1209.1 3997.44 L 1214.72 4001.38 L 1220.94 4004.28 L 1227.57 4006.06 L 1234.41 4006.65 L 1313.15 4006.65 L 1319.99 4006.06 L 1326.61 4004.28 L 1332.83 4001.38 L 1338.46 3997.44 L 1343.31 3992.59 L 1347.24 3986.97 L 1350.15 3980.75 L 1351.92 3974.12 L 1352.52 3967.28 L 1352.52 3248.78 L 1351.26 3229.51 L 1347.49 3210.57 L 1341.28 3192.28 L 1332.74 3174.96 L 1322.01 3158.9 L 1309.28 3144.38 L 1294.76 3131.65 L 1278.7 3120.92 L 1261.38 3112.38 L 1243.09 3106.17 L 1224.15 3102.4 L 1204.88 3101.14 L 909.61 3101.14 L 902.77 3101.74 L 896.14 3103.52 L 889.92 3106.42 L 884.3 3110.35 L 879.45 3115.21 L 875.51 3120.83 L 872.61 3127.05 L 870.83 3133.68 L 870.24 3140.51 L 870.24 3612.95 L 870.83 3619.79 L 872.61 3626.42 L 875.51 3632.64 L 879.45 3638.26 L 884.3 3643.11 L 889.92 3647.05 L 896.14 3649.95 L 902.77 3651.72 L 909.61 3652.32 L 988.35 3652.32 L 1013.26 3653.83 L 1037.81 3658.33 M 1008.15 3653.52 L 1352.52 3653.52 M 1352.52 3637.79 L 879.12 3637.79 M 871.44 3622.05 L 1352.52 3622.05 M 1352.52 3606.32 L 870.24 3606.32 M 870.24 3590.59 L 1352.52 3590.59 M 1352.52 3574.85 L 870.24 3574.85 M 870.24 3559.12 L 1352.52 3559.12 M 1352.52 3543.39 L 870.24 3543.39 M 870.24 3527.66 L 1352.52 3527.66 M 1352.52 3511.92 L 870.24 3511.92 M 870.24 3496.19 L 1352.52 3496.19 M 1352.52 3480.46 L 870.24 3480.46 M 870.24 3464.72 L 1352.52 3464.72 M 1352.52 3448.99 L 870.24 3448.99 M 870.24 3433.26 L 1352.52 3433.26 M 1352.52 3417.52 L 870.24 3417.52 M 870.24 3401.79 L 1352.52 3401.79 M 1352.52 3386.06 L 870.24 3386.06 M 870.24 3370.32 L 1352.52 3370.32 M 1352.52 3354.59 L 870.24 3354.59 M 870.24 3338.86 L 1352.52 3338.86 M 1352.52 3323.12 L 870.24 3323.12 M 870.24 3307.39 L 1352.52 3307.39 M 1352.52 3291.66 L 870.24 3291.66 M 870.24 3275.93 L 1352.52 3275.93 M 1352.52 3260.19 L 870.24 3260.19 M 870.24 3244.46 L 1352.24 3244.46 M 1351.1 3228.73 L 870.24 3228.73 M 870.24 3212.99 L 1347.97 3212.99 M 1342.97 3197.26 L 870.24 3197.26 M 870.24 3181.53 L 1335.98 3181.53 M 1326.61 3165.79 L 870.24 3165.79 M 870.24 3150.06 L 1314.26 3150.06 M 1297.81 3134.33 L 870.78 3134.33 M 877.07 3118.59 L 1273.98 3118.59 M 1226.44 3102.86 L 898.59 3102.86 M 909.61 2864.92 L 902.77 2864.32 L 896.14 2862.55 L 889.92 2859.65 L 884.3 2855.71 L 879.45 2850.86 L 875.51 2845.24 L 872.61 2839.02 L 870.83 2832.39 L 870.24 2825.55 L 870.24 2353.11 L 870.83 2346.27 L 872.61 2339.64 L 875.51 2333.43 L 879.45 2327.8 L 884.3 2322.95 L 889.92 2319.01 L 896.14 2316.11 L 902.77 2314.34 L 909.61 2313.74 L 1578.9 2313.74 L 1591.22 2314.71 L 1603.23 2317.59 L 1614.64 2322.32 L 1625.18 2328.78 L 1634.58 2336.8 L 1642.6 2346.2 L 1649.06 2356.73 L 1653.78 2368.15 L 1656.67 2380.16 L 1657.64 2392.48 L 1657.64 3967.28 L 1657.04 3974.12 L 1655.26 3980.75 L 1652.36 3986.97 L 1648.43 3992.59 L 1643.57 3997.44 L 1637.95 4001.38 L 1631.73 4004.28 L 1625.1 4006.06 L 1618.27 4006.65 L 1559.21 4006.65 L 1552.38 4006.06 L 1545.75 4004.28 L 1539.53 4001.38 L 1533.91 3997.44 L 1529.05 3992.59 L 1525.12 3986.97 L 1522.22 3980.75 L 1520.44 3974.12 L 1519.84 3967.28 L 1519.84 3248.78 L 1517.74 3208.66 L 1511.45 3168.97 L 1501.05 3130.16 L 1486.66 3092.65 L 1468.42 3056.85 L 1446.53 3023.15 L 1421.25 2991.93 L 1392.84 2963.52 L 1361.61 2938.23 L 1327.91 2916.35 L 1292.11 2898.11 L 1254.6 2883.71 L 1215.79 2873.31 L 1176.11 2867.02 L 1135.98 2864.92 L 909.61 2864.92 M 879.72 2851.13 L 1657.64 2851.13 M 1657.64 2835.4 L 871.64 2835.4 M 870.24 2819.66 L 1657.64 2819.66 M 1657.64 2803.93 L 870.24 2803.93 M 870.24 2788.2 L 1657.64 2788.2 M 1657.64 2772.46 L 870.24 2772.46 M 870.24 2756.73 L 1657.64 2756.73 M 1657.64 2741 L 870.24 2741 M 870.24 2725.27 L 1657.64 2725.27 M 1657.64 2709.53 L 870.24 2709.53 M 870.24 2693.8 L 1657.64 2693.8 M 1657.64 2678.07 L 870.24 2678.07 M 870.24 2662.33 L 1657.64 2662.33 M 1657.64 2646.6 L 870.24 2646.6 M 870.24 2630.87 L 1657.64 2630.87 M 1657.64 2615.13 L 870.24 2615.13 M 870.24 2599.4 L 1657.64 2599.4 M 1657.64 2583.67 L 870.24 2583.67 M 870.24 2567.93 L 1657.64 2567.93 M 1657.64 2552.2 L 870.24 2552.2 M 870.24 2536.47 L 1657.64 2536.47 M 1657.64 2520.73 L 870.24 2520.73 M 870.24 2505 L 1657.64 2505 M 1657.64 2489.27 L 870.24 2489.27 M 870.24 2473.53 L 1657.64 2473.53 M 1657.64 2457.8 L 870.24 2457.8 M 870.24 2442.07 L 1657.64 2442.07 M 1657.64 2426.34 L 870.24 2426.34 M 870.24 2410.6 L 1657.64 2410.6 M 1657.64 2394.87 L 870.24 2394.87 M 870.24 2379.14 L 1656.42 2379.14 M 1651.82 2363.4 L 870.24 2363.4 M 870.71 2347.67 L 1643.5 2347.67 M 1628.88 2331.94 L 876.55 2331.94 M 895.95 2316.2 L 1597.44 2316.2 M 1815.93 2331.94 L 2169.45 2331.94 M 2169.45 2347.67 L 1815.12 2347.67 M 1815.12 2363.4 L 2169.45 2363.4 M 2169.45 2379.14 L 1815.12 2379.14 M 1815.12 2394.87 L 2169.45 2394.87 M 2169.45 2410.6 L 1815.12 2410.6 M 1815.12 2426.34 L 2169.45 2426.34 M 2169.45 2442.07 L 1815.12 2442.07 M 1815.12 2457.8 L 2169.45 2457.8 M 2169.45 2473.53 L 1815.12 2473.53 M 1815.12 2489.27 L 2169.45 2489.27 M 2169.45 2505 L 1815.12 2505 M 1815.12 2520.73 L 2169.45 2520.73 M 2169.45 2536.47 L 1815.12 2536.47 M 1815.12 2552.2 L 2169.45 2552.2 M 2169.45 2567.93 L 1815.12 2567.93 M 1815.12 2583.67 L 2169.45 2583.67 M 2169.45 2599.4 L 1815.12 2599.4 M 1815.12 2615.13 L 2169.45 2615.13 M 2169.45 2630.87 L 1815.12 2630.87 M 1815.12 2646.6 L 2169.45 2646.6 M 2169.45 2662.33 L 1815.12 2662.33 M 1815.12 2678.07 L 2169.45 2678.07 M 2169.45 2693.8 L 1815.12 2693.8 M 1815.12 2709.53 L 2169.45 2709.53 M 2169.45 2725.27 L 1815.12 2725.27 M 1815.12 2741 L 2169.45 2741 M 2169.45 2756.73 L 1815.12 2756.73 M 1815.12 2772.46 L 2169.45 2772.46 M 2169.45 2788.2 L 1815.12 2788.2 M 1815.12 2803.93 L 2169.45 2803.93 M 2169.45 2819.66 L 1815.12 2819.66 M 1815.12 2835.4 L 2169.45 2835.4 M 2169.45 2851.13 L 1815.12 2851.13 M 1815.12 2866.86 L 2169.45 2866.86 M 2169.45 2882.6 L 1815.12 2882.6 M 1815.12 2898.33 L 2169.45 2898.33 M 2169.45 2914.06 L 1815.12 2914.06 M 1815.12 2929.8 L 2169.45 2929.8 M 2169.45 2945.53 L 1815.12 2945.53 M 1815.12 2961.26 L 2169.45 2961.26 M 2169.45 2977 L 1815.12 2977 M 1815.12 2992.73 L 2169.45 2992.73 M 2169.45 3008.46 L 1815.12 3008.46 M 1815.12 3024.19 L 2169.45 3024.19 M 2169.45 3039.93 L 1815.12 3039.93 M 1815.12 3055.66 L 2169.45 3055.66 M 2169.45 3071.39 L 1815.12 3071.39 M 1815.12 3087.13 L 2169.45 3087.13 M 2169.45 3102.86 L 1815.12 3102.86 M 1815.12 3118.59 L 2169.45 3118.59 M 2169.45 3134.33 L 1815.12 3134.33 M 1815.12 3150.06 L 2169.45 3150.06 M 2169.45 3165.79 L 1815.12 3165.79 M 1815.12 3181.53 L 2169.45 3181.53 M 2169.45 3197.26 L 1815.12 3197.26 M 1815.12 3212.99 L 2169.45 3212.99 M 2169.45 3228.73 L 1815.12 3228.73 M 1815.12 3244.46 L 2169.45 3244.46 M 2169.45 3260.19 L 1815.12 3260.19 M 1815.12 3275.93 L 2169.45 3275.93 M 2169.45 3291.66 L 1815.12 3291.66 M 1815.12 3307.39 L 2169.45 3307.39 M 2169.45 3323.12 L 1815.12 3323.12 M 1815.12 3338.86 L 2169.45 3338.86 M 2169.45 3354.59 L 1815.12 3354.59 M 1815.12 3370.32 L 2169.45 3370.32 M 2169.45 3386.06 L 1815.12 3386.06 M 1815.12 3401.79 L 2169.45 3401.79 M 2169.45 3417.52 L 1815.12 3417.52 M 1815.12 3433.26 L 2169.45 3433.26 M 2170.02 3448.99 L 1815.12 3448.99 M 1815.12 3464.72 L 2171.23 3464.72 M 2173.9 3480.46 L 1815.12 3480.46 M 1815.12 3496.19 L 2177.93 3496.19 M 2183.08 3511.92 L 1815.12 3511.92 M 1815.12 3527.66 L 2189.59 3527.66 M 2198.18 3543.39 L 1815.12 3543.39 M 1815.12 3559.12 L 2208.51 3559.12 M 2221 3574.85 L 1815.12 3574.85 M 1815.12 3590.59 L 2235.67 3590.59 M 2251.4 3606.32 L 1815.12 3606.32 M 1815.12 3622.05 L 2267.13 3622.05 M 2282.87 3637.79 L 1815.12 3637.79 M 1815.12 3653.52 L 2298.6 3653.52 M 2314.33 3669.25 L 1816.09 3669.25 M 1826.13 3684.99 L 2330.07 3684.99 M 2345.21 3700.72 L 2172.7 3700.72 M 2210.81 3716.45 L 2358.58 3716.45 M 2369.09 3732.19 L 2235.75 3732.19 M 2254.69 3747.92 L 2377.29 3747.92 M 2383.97 3763.65 L 2270.94 3763.65 M 2285.56 3779.39 L 2389.31 3779.39 M 2392.5 3795.12 L 2297.98 3795.12 M 2308.25 3810.85 L 2394.69 3810.85 M 2395.72 3826.59 L 2316.78 3826.59 M 2323.3 3842.32 L 2395.83 3842.32 M 2395.83 3858.05 L 2328.4 3858.05 M 2332.38 3873.78 L 2395.83 3873.78 M 2395.83 3889.52 L 2335.06 3889.52 M 2336.22 3905.25 L 2395.83 3905.25 M 2395.83 3920.98 L 2336.77 3920.98 M 2336.77 3936.72 L 2395.83 3936.72 M 2395.83 3952.45 L 2336.77 3952.45 M 2336.77 3968.18 L 2395.83 3968.18 M 2395.83 3983.92 L 2336.77 3983.92 M 2335.94 3999.65 L 2396.66 3999.65 M 2398.05 4015.38 L 2334.55 4015.38 M 2331.42 4031.12 L 2401.18 4031.12 M 2405.57 4046.85 L 2327.03 4046.85 M 2321.65 4062.58 L 2410.95 4062.58 M 2418.71 4078.32 L 2313.89 4078.32 M 2304.62 4094.05 L 2427.98 4094.05 M 2439.12 4109.78 L 2293.48 4109.78 M 2279.68 4125.52 L 2452.91 4125.52 M 2470.68 4141.25 L 2261.91 4141.25 M 2239.04 4156.98 L 2493.56 4156.98 M 2528.78 4172.71 L 2203.82 4172.71 M 1957.78 3993.53 L 1960.51 3988.43 L 1962.19 3982.89 L 1962.76 3977.13 L 1962.76 3878.7 L 1962.19 3872.94 L 1960.51 3867.4 L 1957.78 3862.3 L 1954.11 3857.82 L 1949.63 3854.15 L 1944.53 3851.42 L 1938.99 3849.74 L 1933.23 3849.17 L 1844.65 3849.17 L 1838.88 3849.74 L 1833.35 3851.42 L 1828.24 3854.15 L 1823.77 3857.82 L 1820.09 3862.3 L 1817.37 3867.4 L 1815.69 3872.94 L 1815.12 3878.7 L 1815.12 3977.13 L 1815.69 3982.89 L 1817.37 3988.43 L 1820.09 3993.53 L 1823.77 3998.01 L 1828.24 4001.68 L 1833.35 4004.41 L 1838.88 4006.09 L 1844.65 4006.65 L 1933.23 4006.65 L 1938.99 4006.09 L 1944.53 4004.41 L 1949.63 4001.68 L 1954.11 3998.01 L 1957.78 3993.53 M 1952.1 3999.65 L 1825.77 3999.65 M 1816 3983.92 L 1961.88 3983.92 M 1962.76 3968.18 L 1815.12 3968.18 M 1815.12 3952.45 L 1962.76 3952.45 M 1962.76 3936.72 L 1815.12 3936.72 M 1815.12 3920.98 L 1962.76 3920.98 M 1962.76 3905.25 L 1815.12 3905.25 M 1815.12 3889.52 L 1962.76 3889.52 M 1962.27 3873.78 L 1815.6 3873.78 M 1823.58 3858.05 L 1954.3 3858.05 M 1657.64 3858.05 L 1519.84 3858.05 M 1519.84 3842.32 L 1657.64 3842.32 M 1657.64 3826.59 L 1519.84 3826.59 M 1519.84 3810.85 L 1657.64 3810.85 M 1657.64 3795.12 L 1519.84 3795.12 M 1519.84 3779.39 L 1657.64 3779.39 M 1657.64 3763.65 L 1519.84 3763.65 M 1519.84 3747.92 L 1657.64 3747.92 M 1657.64 3732.19 L 1519.84 3732.19 M 1519.84 3716.45 L 1657.64 3716.45 M 1657.64 3700.72 L 1519.84 3700.72 M 1519.84 3684.99 L 1657.64 3684.99 M 1657.64 3669.25 L 1519.84 3669.25 M 1519.84 3653.52 L 1657.64 3653.52 M 1657.64 3637.79 L 1519.84 3637.79 M 1519.84 3622.05 L 1657.64 3622.05 M 1657.64 3606.32 L 1519.84 3606.32 M 1519.84 3590.59 L 1657.64 3590.59 M 1657.64 3574.85 L 1519.84 3574.85 M 1519.84 3559.12 L 1657.64 3559.12 M 1657.64 3543.39 L 1519.84 3543.39 M 1519.84 3527.66 L 1657.64 3527.66 M 1657.64 3511.92 L 1519.84 3511.92 M 1519.84 3496.19 L 1657.64 3496.19 M 1657.64 3480.46 L 1519.84 3480.46 M 1519.84 3464.72 L 1657.64 3464.72 M 1657.64 3448.99 L 1519.84 3448.99 M 1519.84 3433.26 L 1657.64 3433.26 M 1657.64 3417.52 L 1519.84 3417.52 M 1519.84 3401.79 L 1657.64 3401.79 M 1657.64 3386.06 L 1519.84 3386.06 M 1519.84 3370.32 L 1657.64 3370.32 M 1657.64 3354.59 L 1519.84 3354.59 M 1519.84 3338.86 L 1657.64 3338.86 M 1657.64 3323.12 L 1519.84 3323.12 M 1519.84 3307.39 L 1657.64 3307.39 M 1657.64 3291.66 L 1519.84 3291.66 M 1519.84 3275.93 L 1657.64 3275.93 M 1657.64 3260.19 L 1519.84 3260.19 M 1519.62 3244.46 L 1657.64 3244.46 M 1657.64 3228.73 L 1518.79 3228.73 M 1517.97 3212.99 L 1657.64 3212.99 M 1657.64 3197.26 L 1515.93 3197.26 M 1513.44 3181.53 L 1657.64 3181.53 M 1657.64 3165.79 L 1510.6 3165.79 M 1506.39 3150.06 L 1657.64 3150.06 M 1657.64 3134.33 L 1502.17 3134.33 M 1496.61 3118.59 L 1657.64 3118.59 M 1657.64 3102.86 L 1490.58 3102.86 M 1483.84 3087.13 L 1657.64 3087.13 M 1657.64 3071.39 L 1475.83 3071.39 M 1467.64 3055.66 L 1657.64 3055.66 M 1657.64 3039.93 L 1457.43 3039.93 M 1447.21 3024.19 L 1657.64 3024.19 M 1657.64 3008.46 L 1434.63 3008.46 M 1421.89 2992.73 L 1657.64 2992.73 M 1657.64 2977 L 1406.31 2977 M 1390.05 2961.26 L 1657.64 2961.26 M 1657.64 2945.53 L 1370.62 2945.53 M 1348.62 2929.8 L 1657.64 2929.8 M 1657.64 2914.06 L 1323.43 2914.06 M 1292.55 2898.33 L 1657.64 2898.33 M 1657.64 2882.6 L 1250.45 2882.6 M 1173.04 2866.86 L 1657.64 2866.86 M 1820.47 2316.2 L 2169.45 2316.2 M 2169.45 2300.47 L 1829.4 2300.47 M 1844.12 2284.74 L 2169.45 2284.74 M 2169.45 2269 L 1859.85 2269 M 1875.59 2253.27 L 2169.45 2253.27 M 2169.45 2237.54 L 1891.32 2237.54 M 1907.05 2221.8 L 2169.45 2221.8 M 2169.45 2206.07 L 1922.79 2206.07 M 1938.52 2190.34 L 2169.45 2190.34 M 2169.45 2174.61 L 1954.25 2174.61 M 1969.99 2158.87 L 2169.45 2158.87 M 2169.45 2143.14 L 1985.72 2143.14 M 2001.45 2127.41 L 2169.45 2127.41 M 2167.82 2111.67 L 2017.19 2111.67 M 2032.92 2095.94 L 2162.43 2095.94 M 2151.98 2080.21 L 2048.65 2080.21 M 2069.29 2064.47 L 2131.53 2064.47 M 2326.93 2064.47 L 4748.19 2064.47 M 4748.19 2048.74 L 2326.93 2048.74 M 2326.93 2038.15 L 2328.53 2013.74 L 2333.3 1989.75 L 2341.16 1966.58 L 2351.98 1944.65 L 2365.57 1924.31 L 2381.7 1905.92 L 2400.09 1889.79 L 2420.43 1876.2 L 2442.37 1865.38 L 2465.54 1857.51 L 2489.53 1852.74 L 2513.94 1851.14 L 4708.82 1851.14 L 4715.66 1851.74 L 4722.28 1853.52 L 4728.5 1856.42 L 4734.13 1860.35 L 4738.98 1865.21 L 4742.91 1870.83 L 4745.81 1877.05 L 4747.59 1883.68 L 4748.19 1890.51 L 4748.19 2294.06 L 4747.62 2299.82 L 4745.94 2305.35 L 4743.21 2310.46 L 4739.54 2314.93 L 4735.07 2318.61 L 4729.96 2321.34 L 4724.42 2323.02 L 4718.66 2323.58 L 3402.56 2323.58 L 3376.87 2325.27 L 3351.61 2330.29 L 3327.23 2338.57 L 3304.14 2349.96 L 3282.73 2364.26 L 3263.37 2381.24 L 2988.27 2646.49 L 2965.19 2672.32 L 2945.14 2700.57 L 2928.39 2730.89 L 2915.13 2762.9 L 2905.54 2796.18 L 2899.74 2830.33 L 2897.8 2864.92 L 2897.8 3470.38 L 2899.06 3492.96 L 2902.85 3515.25 L 2909.11 3536.97 L 2917.76 3557.86 L 2928.7 3577.65 L 2941.78 3596.09 L 2956.85 3612.95 L 3077.35 3733.45 L 3083.37 3740.5 L 3088.21 3748.4 L 3091.76 3756.96 L 3093.92 3765.97 L 3094.65 3775.21 L 3094.65 3996.81 L 3094.08 4002.57 L 3092.4 4008.11 L 3089.67 4013.22 L 3086 4017.69 L 3081.52 4021.36 L 3076.42 4024.09 L 3070.88 4025.77 L 3065.12 4026.34 L 3059.36 4025.77 L 3053.82 4024.09 L 3048.71 4021.36 L 3044.24 4017.69 L 3040.57 4013.22 L 3037.84 4008.11 L 3036.16 4002.57 L 3035.59 3996.81 L 3035.59 3888.54 L 3034.07 3865.42 L 3029.55 3842.69 L 3022.1 3820.75 L 3011.85 3799.96 L 2998.98 3780.69 L 2983.7 3763.27 L 2966.28 3747.99 L 2947.01 3735.11 L 2926.22 3724.86 L 2904.28 3717.41 L 2881.55 3712.89 L 2858.43 3711.38 L 2833.93 3711.69 L 2809.69 3715.2 L 2786.11 3721.85 L 2763.6 3731.51 L 2742.55 3744.03 L 2723.31 3759.19 L 2706.21 3776.73 L 2691.55 3796.36 L 2679.58 3817.73 L 2670.49 3840.48 L 2664.46 3864.22 L 2661.57 3888.54 L 2661.57 3986.97 L 2660.98 3993.8 L 2659.2 4000.43 L 2656.3 4006.65 L 2652.36 4012.28 L 2647.51 4017.13 L 2641.89 4021.06 L 2635.67 4023.96 L 2629.04 4025.74 L 2622.2 4026.34 L 2592.68 4026.34 L 2585.84 4025.74 L 2579.21 4023.96 L 2572.99 4021.06 L 2567.37 4017.13 L 2562.52 4012.28 L 2558.58 4006.65 L 2555.68 4000.43 L 2553.91 3993.8 L 2553.31 3986.97 L 2553.31 3834.38 L 2551.14 3795.81 L 2544.67 3757.73 L 2533.98 3720.61 L 2519.19 3684.92 L 2500.51 3651.11 L 2478.15 3619.6 L 2452.41 3590.79 L 2344.23 3482.61 L 2338.21 3475.57 L 2333.37 3467.66 L 2329.82 3459.1 L 2327.66 3450.09 L 2326.93 3440.85 L 2326.93 2038.15 M 2327.27 2033.01 L 4748.19 2033.01 M 4748.19 2017.27 L 2328.3 2017.27 M 2330.96 2001.54 L 4748.19 2001.54 M 4748.19 1985.81 L 2334.64 1985.81 M 2339.98 1970.07 L 4748.19 1970.07 M 4748.19 1954.34 L 2347.2 1954.34 M 2356.02 1938.61 L 4748.19 1938.61 M 4748.19 1922.87 L 2366.83 1922.87 M 2380.63 1907.14 L 4748.19 1907.14 M 4748.19 1891.41 L 2398.24 1891.41 M 2421.49 1875.68 L 4745.18 1875.68 M 4733.54 1859.94 L 2458.38 1859.94 M 2326.93 2080.21 L 4748.19 2080.21 M 4748.19 2095.94 L 2326.93 2095.94 M 2326.93 2111.67 L 4748.19 2111.67 M 4748.19 2127.41 L 2326.93 2127.41 M 2326.93 2143.14 L 4748.19 2143.14 M 4748.19 2158.87 L 2326.93 2158.87 M 2326.93 2174.61 L 4748.19 2174.61 M 4748.19 2190.34 L 2326.93 2190.34 M 2326.93 2206.07 L 4748.19 2206.07 M 4748.19 2221.8 L 2326.93 2221.8 M 2326.93 2237.54 L 4748.19 2237.54 M 4748.19 2253.27 L 2326.93 2253.27 M 2326.93 2269 L 4748.19 2269 M 4748.19 2284.74 L 2326.93 2284.74 M 2326.93 2300.47 L 4747.42 2300.47 M 4737.99 2316.2 L 2326.93 2316.2 M 2326.93 2331.94 L 3346.76 2331.94 M 3308.77 2347.67 L 2326.93 2347.67 M 2326.93 2363.4 L 3284.01 2363.4 M 3265.77 2379.14 L 2326.93 2379.14 M 2326.93 2394.87 L 3249.23 2394.87 M 3232.91 2410.6 L 2326.93 2410.6 M 2326.93 2426.34 L 3216.6 2426.34 M 3200.28 2442.07 L 2326.93 2442.07 M 2326.93 2457.8 L 3183.96 2457.8 M 3167.65 2473.53 L 2326.93 2473.53 M 2326.93 2489.27 L 3151.33 2489.27 M 3135.01 2505 L 2326.93 2505 M 2326.93 2520.73 L 3118.7 2520.73 M 3102.38 2536.47 L 2326.93 2536.47 M 2326.93 2552.2 L 3086.06 2552.2 M 3069.75 2567.93 L 2326.93 2567.93 M 2326.93 2583.67 L 3053.43 2583.67 M 3037.11 2599.4 L 2326.93 2599.4 M 2326.93 2615.13 L 3020.79 2615.13 M 3004.48 2630.87 L 2326.93 2630.87 M 2326.93 2646.6 L 2988.18 2646.6 M 2974.12 2662.33 L 2326.93 2662.33 M 2326.93 2678.07 L 2961.11 2678.07 M 2949.95 2693.8 L 2326.93 2693.8 M 2326.93 2709.53 L 2940.19 2709.53 M 2931.5 2725.27 L 2326.93 2725.27 M 2326.93 2741 L 2924.2 2741 M 2917.68 2756.73 L 2326.93 2756.73 M 2326.93 2772.46 L 2912.37 2772.46 M 2907.84 2788.2 L 2326.93 2788.2 M 2326.93 2803.93 L 2904.22 2803.93 M 2901.55 2819.66 L 2326.93 2819.66 M 2326.93 2835.4 L 2899.45 2835.4 M 2898.57 2851.13 L 2326.93 2851.13 M 2326.93 2866.86 L 2897.8 2866.86 M 2897.8 2882.6 L 2326.93 2882.6 M 2326.93 2898.33 L 2897.8 2898.33 M 2897.8 2914.06 L 2326.93 2914.06 M 2326.93 2929.8 L 2897.8 2929.8 M 2897.8 2945.53 L 2326.93 2945.53 M 2326.93 2961.26 L 2897.8 2961.26 M 2897.8 2977 L 2326.93 2977 M 2326.93 2992.73 L 2897.8 2992.73 M 2897.8 3008.46 L 2326.93 3008.46 M 2326.93 3024.19 L 2897.8 3024.19 M 2897.8 3039.93 L 2326.93 3039.93 M 2326.93 3055.66 L 2897.8 3055.66 M 2897.8 3071.39 L 2326.93 3071.39 M 2326.93 3087.13 L 2897.8 3087.13 M 2897.8 3102.86 L 2326.93 3102.86 M 2326.93 3118.59 L 2897.8 3118.59 M 2897.8 3134.33 L 2326.93 3134.33 M 2326.93 3150.06 L 2897.8 3150.06 M 2897.8 3165.79 L 2326.93 3165.79 M 2326.93 3181.53 L 2897.8 3181.53 M 2897.8 3197.26 L 2326.93 3197.26 M 2326.93 3212.99 L 2897.8 3212.99 M 2897.8 3228.73 L 2326.93 3228.73 M 2326.93 3244.46 L 2897.8 3244.46 M 2897.8 3260.19 L 2326.93 3260.19 M 2326.93 3275.93 L 2897.8 3275.93 M 2897.8 3291.66 L 2326.93 3291.66 M 2326.93 3307.39 L 2897.8 3307.39 M 2897.8 3323.12 L 2326.93 3323.12 M 2326.93 3338.86 L 2897.8 3338.86 M 2897.8 3354.59 L 2326.93 3354.59 M 2326.93 3370.32 L 2897.8 3370.32 M 2897.8 3386.06 L 2326.93 3386.06 M 2326.93 3401.79 L 2897.8 3401.79 M 2897.8 3417.52 L 2326.93 3417.52 M 2326.93 3433.26 L 2897.8 3433.26 M 2897.8 3448.99 L 2327.57 3448.99 M 2332.15 3464.72 L 2897.8 3464.72 M 2898.36 3480.46 L 2342.38 3480.46 M 2357.8 3496.19 L 2899.61 3496.19 M 2902.29 3511.92 L 2373.54 3511.92 M 2389.27 3527.66 L 2906.43 3527.66 M 2911.77 3543.39 L 2405 3543.39 M 2420.74 3559.12 L 2918.46 3559.12 M 2927.15 3574.85 L 2436.47 3574.85 M 2452.2 3590.59 L 2937.88 3590.59 M 2950.92 3606.32 L 2466.28 3606.32 M 2479.89 3622.05 L 2965.95 3622.05 M 2981.69 3637.79 L 2491.06 3637.79 M 2501.84 3653.52 L 2997.42 3653.52 M 3013.15 3669.25 L 2510.54 3669.25 M 2519.22 3684.99 L 3028.88 3684.99 M 3044.62 3700.72 L 2525.74 3700.72 M 2532.25 3716.45 L 2805.25 3716.45 M 2762.47 3732.19 L 2537.31 3732.19 M 2541.84 3747.92 L 2737.61 3747.92 M 2718.96 3763.65 L 2545.68 3763.65 M 2548.35 3779.39 L 2704.23 3779.39 M 2692.48 3795.12 L 2551.02 3795.12 M 2551.99 3810.85 L 2683.43 3810.85 M 2676.04 3826.59 L 2552.87 3826.59 M 2553.31 3842.32 L 2670.03 3842.32 M 2666.03 3858.05 L 2553.31 3858.05 M 2553.31 3873.78 L 2663.32 3873.78 M 2661.57 3889.52 L 2553.31 3889.52 M 2553.31 3905.25 L 2661.57 3905.25 M 2661.57 3920.98 L 2553.31 3920.98 M 2553.31 3936.72 L 2661.57 3936.72 M 2661.57 3952.45 L 2553.31 3952.45 M 2553.31 3968.18 L 2661.57 3968.18 M 2661.57 3983.92 L 2553.31 3983.92 M 2555.47 3999.65 L 2659.41 3999.65 M 2649.26 4015.38 L 2565.63 4015.38 M 2899.45 3716.45 L 3060.35 3716.45 M 3076.08 3732.19 L 2941.07 3732.19 M 2966.17 3747.92 L 3087.91 3747.92 M 3093.36 3763.65 L 2984.04 3763.65 M 2997.83 3779.39 L 3094.65 3779.39 M 3094.65 3795.12 L 3008.62 3795.12 M 3017.23 3810.85 L 3094.65 3810.85 M 3094.65 3826.59 L 3024.09 3826.59 M 3029.43 3842.32 L 3094.65 3842.32 M 3094.65 3858.05 L 3032.61 3858.05 M 3034.62 3873.78 L 3094.65 3873.78 M 3094.65 3889.52 L 3035.59 3889.52 M 3035.59 3905.25 L 3094.65 3905.25 M 3094.65 3920.98 L 3035.59 3920.98 M 3035.59 3936.72 L 3094.65 3936.72 M 3094.65 3952.45 L 3035.59 3952.45 M 3035.59 3968.18 L 3094.65 3968.18 M 3094.65 3983.92 L 3035.59 3983.92 M 3035.87 3999.65 L 3094.37 3999.65 M 3087.89 4015.38 L 3042.35 4015.38 M 3253.02 3977.54 L 3255.69 3987.48 L 3260.04 3996.81 L 3265.94 4005.24 L 3273.22 4012.52 L 3281.65 4018.43 L 3290.98 4022.78 L 3300.93 4025.44 L 3311.18 4026.34 L 3330.87 4026.34 L 3341.12 4025.44 L 3351.06 4022.78 L 3360.39 4018.43 L 3368.83 4012.52 L 3376.1 4005.24 L 3382.01 3996.81 L 3386.36 3987.48 L 3389.02 3977.54 L 3389.92 3967.28 L 3389.92 3737.53 L 3389.16 3729.85 L 3386.92 3722.46 L 3383.29 3715.66 L 3378.39 3709.69 L 3250.73 3582.03 L 3233.75 3562.67 L 3219.44 3541.26 L 3208.06 3518.16 L 3199.78 3493.78 L 3194.75 3468.53 L 3193.07 3442.83 L 3193.07 3123.62 L 3194.75 3097.93 L 3199.78 3072.68 L 3208.06 3048.29 L 3219.44 3025.2 L 3233.75 3003.79 L 3250.73 2984.43 L 3547.9 2687.26 L 3554.92 2679.04 L 3560.57 2669.82 L 3564.7 2659.83 L 3567.23 2649.32 L 3568.08 2638.54 L 3567.23 2627.77 L 3564.7 2617.25 L 3560.57 2607.26 L 3554.92 2598.05 L 3547.9 2589.83 L 3465.28 2507.21 L 3455.89 2499.19 L 3445.35 2492.73 L 3433.94 2488 L 3421.92 2485.12 L 3409.61 2484.15 L 3397.29 2485.12 L 3385.27 2488 L 3373.86 2492.73 L 3363.32 2499.19 L 3353.93 2507.21 L 3112.93 2748.21 L 3095.95 2767.57 L 3081.65 2788.98 L 3070.26 2812.07 L 3061.98 2836.46 L 3056.96 2861.71 L 3055.28 2887.4 L 3055.28 3462.23 L 3056.24 3474.54 L 3059.13 3486.56 L 3063.86 3497.97 L 3070.31 3508.51 L 3078.34 3517.91 L 3194.47 3634.04 L 3211.45 3653.4 L 3225.75 3674.81 L 3237.14 3697.9 L 3245.42 3722.28 L 3250.44 3747.54 L 3252.13 3773.23 L 3252.13 3967.28 L 3253.02 3977.54 M 3254.73 3983.92 L 3387.31 3983.92 M 3389.84 3968.18 L 3252.2 3968.18 M 3252.13 3952.45 L 3389.92 3952.45 M 3389.92 3936.72 L 3252.13 3936.72 M 3252.13 3920.98 L 3389.92 3920.98 M 3389.92 3905.25 L 3252.13 3905.25 M 3252.13 3889.52 L 3389.92 3889.52 M 3389.92 3873.78 L 3252.13 3873.78 M 3252.13 3858.05 L 3389.92 3858.05 M 3389.92 3842.32 L 3252.13 3842.32 M 3252.13 3826.59 L 3389.92 3826.59 M 3389.92 3810.85 L 3252.13 3810.85 M 3252.13 3795.12 L 3389.92 3795.12 M 3389.92 3779.39 L 3252.13 3779.39 M 3251.5 3763.65 L 3389.92 3763.65 M 3389.92 3747.92 L 3250.47 3747.92 M 3247.39 3732.19 L 3389.4 3732.19 M 3383.71 3716.45 L 3243.44 3716.45 M 3238.1 3700.72 L 3369.42 3700.72 M 3353.69 3684.99 L 3230.77 3684.99 M 3222.04 3669.25 L 3337.95 3669.25 M 3322.22 3653.52 L 3211.53 3653.52 M 3197.76 3637.79 L 3306.49 3637.79 M 3290.76 3622.05 L 3182.49 3622.05 M 3166.75 3606.32 L 3275.02 3606.32 M 3259.29 3590.59 L 3151.02 3590.59 M 3135.29 3574.85 L 3244.44 3574.85 M 3231.38 3559.12 L 3119.55 3559.12 M 3103.82 3543.39 L 3220.87 3543.39 M 3212.74 3527.66 L 3088.09 3527.66 M 3073.23 3511.92 L 3205.94 3511.92 M 3200.6 3496.19 L 3063.12 3496.19 M 3057.66 3480.46 L 3197.13 3480.46 M 3194.51 3464.72 L 3055.47 3464.72 M 3055.28 3448.99 L 3193.47 3448.99 M 3193.07 3433.26 L 3055.28 3433.26 M 3055.28 3417.52 L 3193.07 3417.52 M 3193.07 3401.79 L 3055.28 3401.79 M 3055.28 3386.06 L 3193.07 3386.06 M 3193.07 3370.32 L 3055.28 3370.32 M 3055.28 3354.59 L 3193.07 3354.59 M 3193.07 3338.86 L 3055.28 3338.86 M 3055.28 3323.12 L 3193.07 3323.12 M 3193.07 3307.39 L 3055.28 3307.39 M 3055.28 3291.66 L 3193.07 3291.66 M 3193.07 3275.93 L 3055.28 3275.93 M 3055.28 3260.19 L 3193.07 3260.19 M 3193.07 3244.46 L 3055.28 3244.46 M 3055.28 3228.73 L 3193.07 3228.73 M 3193.07 3212.99 L 3055.28 3212.99 M 3055.28 3197.26 L 3193.07 3197.26 M 3193.07 3181.53 L 3055.28 3181.53 M 3055.28 3165.79 L 3193.07 3165.79 M 3193.07 3150.06 L 3055.28 3150.06 M 3055.28 3134.33 L 3193.07 3134.33 M 3193.4 3118.59 L 3055.28 3118.59 M 3055.28 3102.86 L 3194.43 3102.86 M 3196.9 3087.13 L 3055.28 3087.13 M 3055.28 3071.39 L 3200.21 3071.39 M 3205.55 3055.66 L 3055.28 3055.66 M 3055.28 3039.93 L 3212.18 3039.93 M 3220.11 3024.19 L 3055.28 3024.19 M 3055.28 3008.46 L 3230.63 3008.46 M 3243.45 2992.73 L 3055.28 2992.73 M 3055.28 2977 L 3258.16 2977 M 3273.9 2961.26 L 3055.28 2961.26 M 3055.28 2945.53 L 3289.63 2945.53 M 3305.36 2929.8 L 3055.28 2929.8 M 3055.28 2914.06 L 3321.09 2914.06 M 3336.83 2898.33 L 3055.28 2898.33 M 3055.59 2882.6 L 3352.56 2882.6 M 3368.29 2866.86 L 3056.62 2866.86 M 3059.06 2851.13 L 3384.03 2851.13 M 3399.76 2835.4 L 3062.34 2835.4 M 3067.68 2819.66 L 3415.49 2819.66 M 3431.23 2803.93 L 3074.28 2803.93 M 3082.17 2788.2 L 3446.96 2788.2 M 3462.69 2772.46 L 3092.68 2772.46 M 3105.46 2756.73 L 3478.43 2756.73 M 3494.16 2741 L 3120.14 2741 M 3135.88 2725.27 L 3509.89 2725.27 M 3525.63 2709.53 L 3151.61 2709.53 M 3167.34 2693.8 L 3541.36 2693.8 M 3555.51 2678.07 L 3183.08 2678.07 M 3198.81 2662.33 L 3563.67 2662.33 M 3567.44 2646.6 L 3214.54 2646.6 M 3230.28 2630.87 L 3567.47 2630.87 M 3563.83 2615.13 L 3246.01 2615.13 M 3261.74 2599.4 L 3555.75 2599.4 M 3541.74 2583.67 L 3277.47 2583.67 M 3293.21 2567.93 L 3526 2567.93 M 3510.27 2552.2 L 3308.94 2552.2 M 3324.67 2536.47 L 3494.54 2536.47 M 3478.8 2520.73 L 3340.41 2520.73 M 3356.52 2505 L 3462.69 2505 M 3436.99 2489.27 L 3382.22 2489.27 M 3713.27 2559.8 L 3721.17 2585.66 L 3725.99 2612.26 L 3727.69 2639.24 L 3726.22 2666.23 L 3721.62 2692.87 L 3713.94 2718.79 L 3703.3 2743.64 L 3689.82 2767.07 L 3673.71 2788.78 L 3655.17 2808.46 L 3360.39 3091.3 L 3507.33 3091.3 L 3529.26 3092.74 L 3550.82 3097.02 L 3571.63 3104.09 L 3591.34 3113.81 L 3609.62 3126.02 L 3626.14 3140.51 L 3941.6 3455.97 L 3955.94 3472.33 L 3968.03 3490.42 L 3977.65 3509.93 L 3984.65 3530.53 L 3988.89 3551.87 L 3990.31 3573.58 L 3990.31 3977.13 L 3991.06 3985.67 L 3993.28 3993.96 L 3996.91 4001.73 L 4001.83 4008.76 L 4007.89 4014.83 L 4014.92 4019.75 L 4022.7 4023.37 L 4030.98 4025.59 L 4039.53 4026.34 L 4059.21 4026.34 L 4066.05 4025.74 L 4072.68 4023.96 L 4078.9 4021.06 L 4084.52 4017.13 L 4089.37 4012.28 L 4093.31 4006.65 L 4096.21 4000.43 L 4097.98 3993.8 L 4098.58 3986.97 L 4098.58 3898.39 L 4100.18 3873.98 L 4104.95 3849.98 L 4112.82 3826.82 L 4123.64 3804.88 L 4137.23 3784.54 L 4153.36 3766.15 L 4171.75 3750.02 L 4192.09 3736.43 L 4214.03 3725.61 L 4237.19 3717.75 L 4261.18 3712.98 L 4285.59 3711.38 L 4310 3712.98 L 4333.99 3717.75 L 4357.16 3725.61 L 4379.09 3736.43 L 4399.43 3750.02 L 4417.82 3766.15 L 4433.95 3784.54 L 4447.54 3804.88 L 4458.36 3826.82 L 4466.23 3849.98 L 4471 3873.98 L 4472.6 3898.39 L 4472.6 3996.81 L 4473.17 4002.57 L 4474.85 4008.11 L 4477.57 4013.22 L 4481.25 4017.69 L 4485.72 4021.36 L 4490.83 4024.09 L 4496.37 4025.77 L 4502.13 4026.34 L 4507.89 4025.77 L 4513.43 4024.09 L 4518.53 4021.36 L 4523.01 4017.69 L 4526.68 4013.22 L 4529.41 4008.11 L 4531.09 4002.57 L 4531.65 3996.81 L 4531.65 3248.78 L 4533.17 3225.65 L 4537.69 3202.93 L 4545.14 3180.98 L 4555.39 3160.2 L 4568.26 3140.93 L 4583.54 3123.5 L 4600.97 3108.22 L 4620.24 3095.35 L 4641.02 3085.1 L 4662.97 3077.65 L 4685.69 3073.13 L 4708.82 3071.61 L 4715.66 3071.02 L 4722.28 3069.24 L 4728.5 3066.34 L 4734.13 3062.4 L 4738.98 3057.55 L 4742.91 3051.93 L 4745.81 3045.71 L 4747.59 3039.08 L 4748.19 3032.24 L 4748.19 2599.17 L 4747.59 2592.34 L 4745.81 2585.71 L 4742.91 2579.49 L 4738.98 2573.87 L 4734.13 2569.01 L 4728.5 2565.08 L 4722.28 2562.18 L 4715.66 2560.4 L 4708.82 2559.8 L 3713.27 2559.8 M 3715.75 2567.93 L 4732.58 2567.93 M 4744.86 2583.67 L 3720.56 2583.67 M 3723.66 2599.4 L 4748.19 2599.4 M 4748.19 2615.13 L 3726.17 2615.13 M 3727.16 2630.87 L 4748.19 2630.87 M 4748.19 2646.6 L 3727.29 2646.6 M 3726.43 2662.33 L 4748.19 2662.33 M 4748.19 2678.07 L 3724.18 2678.07 M 3721.34 2693.8 L 4748.19 2693.8 M 4748.19 2709.53 L 3716.68 2709.53 M 3711.17 2725.27 L 4748.19 2725.27 M 4748.19 2741 L 3704.43 2741 M 3695.77 2756.73 L 4748.19 2756.73 M 4748.19 2772.46 L 3685.82 2772.46 M 3674.14 2788.2 L 4748.19 2788.2 M 4748.19 2803.93 L 3659.44 2803.93 M 3643.5 2819.66 L 4748.19 2819.66 M 4748.19 2835.4 L 3627.1 2835.4 M 3610.7 2851.13 L 4748.19 2851.13 M 4748.19 2866.86 L 3594.3 2866.86 M 3577.91 2882.6 L 4748.19 2882.6 M 4748.19 2898.33 L 3561.51 2898.33 M 3545.11 2914.06 L 4748.19 2914.06 M 4748.19 2929.8 L 3528.72 2929.8 M 3512.32 2945.53 L 4748.19 2945.53 M 4748.19 2961.26 L 3495.92 2961.26 M 3479.52 2977 L 4748.19 2977 M 4748.19 2992.73 L 3463.13 2992.73 M 3446.73 3008.46 L 4748.19 3008.46 M 4748.19 3024.19 L 3430.33 3024.19 M 3413.93 3039.93 L 4747.36 3039.93 M 4740.3 3055.66 L 3397.54 3055.66 M 3381.14 3071.39 L 4711.33 3071.39 M 4636.91 3087.13 L 3364.74 3087.13 M 3366.77 3260.19 L 3529.29 3260.19 M 3545.02 3275.93 L 3360.63 3275.93 M 3360.39 3291.66 L 3560.75 3291.66 M 3576.49 3307.39 L 3360.39 3307.39 M 3360.39 3323.12 L 3592.22 3323.12 M 3607.95 3338.86 L 3360.39 3338.86 M 3360.39 3354.59 L 3623.69 3354.59 M 3639.42 3370.32 L 3360.39 3370.32 M 3360.39 3386.06 L 3655.15 3386.06 M 3670.88 3401.79 L 3360.39 3401.79 M 3360.39 3417.52 L 3686.62 3417.52 M 3702.35 3433.26 L 3362.16 3433.26 M 3373.6 3448.99 L 3718.08 3448.99 M 3733.82 3464.72 L 3389.33 3464.72 M 3405.06 3480.46 L 3749.55 3480.46 M 3765.28 3496.19 L 3420.8 3496.19 M 3436.53 3511.92 L 3781.02 3511.92 M 3796.75 3527.66 L 3452.26 3527.66 M 3467.99 3543.39 L 3812.48 3543.39 M 3827.49 3559.12 L 3483.73 3559.12 M 3499.46 3574.85 L 3832.72 3574.85 M 3832.83 3590.59 L 3515.19 3590.59 M 3530.93 3606.32 L 3832.83 3606.32 M 3832.83 3622.05 L 3546.66 3622.05 M 3562.39 3637.79 L 3832.83 3637.79 M 3832.83 3653.52 L 3578.13 3653.52 M 3593.86 3669.25 L 3832.83 3669.25 M 3832.83 3684.99 L 3662.92 3684.99 M 3692.64 3700.72 L 3832.83 3700.72 M 3832.83 3716.45 L 3713.4 3716.45 M 3729.16 3732.19 L 3832.83 3732.19 M 3832.83 3747.92 L 3741.58 3747.92 M 3751.55 3763.65 L 3832.83 3763.65 M 3832.83 3779.39 L 3759.31 3779.39 M 3764.96 3795.12 L 3832.83 3795.12 M 3832.83 3810.85 L 3769.24 3810.85 M 3772.3 3826.59 L 3832.83 3826.59 M 3832.83 3842.32 L 3773.33 3842.32 M 3773.78 3858.05 L 3832.83 3858.05 M 3832.83 3873.78 L 3773.78 3873.78 M 3773.78 3889.52 L 3832.83 3889.52 M 3832.83 3905.25 L 3773.78 3905.25 M 3773.78 3920.98 L 3832.83 3920.98 M 3832.83 3936.72 L 3773.78 3936.72 M 3773.78 3952.45 L 3832.83 3952.45 M 3832.83 3968.18 L 3773.78 3968.18 M 3773.78 3983.92 L 3832.83 3983.92 M 3833.67 3999.65 L 3772.95 3999.65 M 3771.55 4015.38 L 3835.06 4015.38 M 3838.19 4031.12 L 3768.42 4031.12 M 3764.04 4046.85 L 3842.57 4046.85 M 3847.96 4062.58 L 3758.66 4062.58 M 3750.9 4078.32 L 3855.72 4078.32 M 3864.99 4094.05 L 3741.62 4094.05 M 3730.49 4109.78 L 3876.13 4109.78 M 3889.92 4125.52 L 3716.69 4125.52 M 3698.92 4141.25 L 3907.69 4141.25 M 3930.56 4156.98 L 3676.05 4156.98 M 3640.83 4172.71 L 3965.78 4172.71 M 4008.69 4015.38 L 4086.26 4015.38 M 4096.42 3999.65 L 3995.94 3999.65 M 3990.91 3983.92 L 4098.58 3983.92 M 4098.58 3968.18 L 3990.31 3968.18 M 3990.31 3952.45 L 4098.58 3952.45 M 4098.58 3936.72 L 3990.31 3936.72 M 3990.31 3920.98 L 4098.58 3920.98 M 4098.58 3905.25 L 3990.31 3905.25 M 3990.31 3889.52 L 4099.16 3889.52 M 4100.22 3873.78 L 3990.31 3873.78 M 3990.31 3858.05 L 4103.35 3858.05 M 4107.56 3842.32 L 3990.31 3842.32 M 3990.31 3826.59 L 4112.93 3826.59 M 4120.69 3810.85 L 3990.31 3810.85 M 3990.31 3795.12 L 4130.16 3795.12 M 4141.75 3779.39 L 3990.31 3779.39 M 3990.31 3763.65 L 4156.2 3763.65 M 4174.89 3747.92 L 3990.31 3747.92 M 3990.31 3732.19 L 4200.7 3732.19 M 4243.71 3716.45 L 3990.31 3716.45 M 3990.31 3700.72 L 4531.65 3700.72 M 4531.65 3684.99 L 3990.31 3684.99 M 3990.31 3669.25 L 4531.65 3669.25 M 4531.65 3653.52 L 3990.31 3653.52 M 3990.31 3637.79 L 4531.65 3637.79 M 4531.65 3622.05 L 3990.31 3622.05 M 3990.31 3606.32 L 4531.65 3606.32 M 4531.65 3590.59 L 3990.31 3590.59 M 3990.31 3574.85 L 4531.65 3574.85 M 4531.65 3559.12 L 3989.37 3559.12 M 3987.2 3543.39 L 4531.65 3543.39 M 4531.65 3527.66 L 3983.67 3527.66 M 3978.33 3511.92 L 4531.65 3511.92 M 4531.65 3496.19 L 3970.88 3496.19 M 3961.38 3480.46 L 4531.65 3480.46 M 4531.65 3464.72 L 3949.28 3464.72 M 3934.62 3448.99 L 4531.65 3448.99 M 4531.65 3433.26 L 3918.89 3433.26 M 3903.15 3417.52 L 4531.65 3417.52 M 4531.65 3401.79 L 3887.42 3401.79 M 3871.69 3386.06 L 4531.65 3386.06 M 4531.65 3370.32 L 3855.95 3370.32 M 3840.22 3354.59 L 4531.65 3354.59 M 4531.65 3338.86 L 3824.49 3338.86 M 3808.75 3323.12 L 4531.65 3323.12 M 4531.65 3307.39 L 3793.02 3307.39 M 3777.29 3291.66 L 4531.65 3291.66 M 4531.65 3275.93 L 3761.55 3275.93 M 3745.82 3260.19 L 4531.65 3260.19 M 4531.94 3244.46 L 3730.09 3244.46 M 3714.36 3228.73 L 4532.97 3228.73 M 4535.69 3212.99 L 3698.62 3212.99 M 3682.89 3197.26 L 4539.61 3197.26 M 4544.95 3181.53 L 3667.16 3181.53 M 3651.42 3165.79 L 4552.63 3165.79 M 4562.16 3150.06 L 3635.69 3150.06 M 3619.09 3134.33 L 4574.05 3134.33 M 4589.14 3118.59 L 3598.5 3118.59 M 3568.01 3102.86 L 4609 3102.86 M 4702.26 3234.07 L 4697.78 3237.74 L 4694.11 3242.22 L 4691.38 3247.32 L 4689.7 3252.86 L 4689.13 3258.62 L 4689.13 4006.65 L 4689.7 4012.41 L 4691.38 4017.95 L 4694.11 4023.06 L 4697.78 4027.53 L 4702.26 4031.2 L 4707.36 4033.93 L 4712.9 4035.61 L 4718.66 4036.18 L 4724.42 4035.61 L 4729.96 4033.93 L 4735.07 4031.2 L 4739.54 4027.53 L 4743.21 4023.06 L 4745.94 4017.95 L 4747.62 4012.41 L 4748.19 4006.65 L 4748.19 3258.62 L 4747.62 3252.86 L 4745.94 3247.32 L 4743.21 3242.22 L 4739.54 3237.74 L 4735.07 3234.07 L 4729.96 3231.34 L 4724.42 3229.66 L 4718.66 3229.09 L 4712.9 3229.66 L 4707.36 3231.34 L 4702.26 3234.07 M 4692.91 3244.46 L 4744.41 3244.46 M 4748.19 3260.19 L 4689.13 3260.19 M 4689.13 3275.93 L 4748.19 3275.93 M 4748.19 3291.66 L 4689.13 3291.66 M 4689.13 3307.39 L 4748.19 3307.39 M 4748.19 3323.12 L 4689.13 3323.12 M 4689.13 3338.86 L 4748.19 3338.86 M 4748.19 3354.59 L 4689.13 3354.59 M 4689.13 3370.32 L 4748.19 3370.32 M 4748.19 3386.06 L 4689.13 3386.06 M 4689.13 3401.79 L 4748.19 3401.79 M 4748.19 3417.52 L 4689.13 3417.52 M 4689.13 3433.26 L 4748.19 3433.26 M 4748.19 3448.99 L 4689.13 3448.99 M 4689.13 3464.72 L 4748.19 3464.72 M 4748.19 3480.46 L 4689.13 3480.46 M 4689.13 3496.19 L 4748.19 3496.19 M 4748.19 3511.92 L 4689.13 3511.92 M 4689.13 3527.66 L 4748.19 3527.66 M 4748.19 3543.39 L 4689.13 3543.39 M 4689.13 3559.12 L 4748.19 3559.12 M 4748.19 3574.85 L 4689.13 3574.85 M 4689.13 3590.59 L 4748.19 3590.59 M 4748.19 3606.32 L 4689.13 3606.32 M 4689.13 3622.05 L 4748.19 3622.05 M 4748.19 3637.79 L 4689.13 3637.79 M 4689.13 3653.52 L 4748.19 3653.52 M 4748.19 3669.25 L 4689.13 3669.25 M 4689.13 3684.99 L 4748.19 3684.99 M 4748.19 3700.72 L 4689.13 3700.72 M 4689.13 3716.45 L 4748.19 3716.45 M 4748.19 3732.19 L 4689.13 3732.19 M 4689.13 3747.92 L 4748.19 3747.92 M 4748.19 3763.65 L 4689.13 3763.65 M 4689.13 3779.39 L 4748.19 3779.39 M 4748.19 3795.12 L 4689.13 3795.12 M 4689.13 3810.85 L 4748.19 3810.85 M 4748.19 3826.59 L 4689.13 3826.59 M 4689.13 3842.32 L 4748.19 3842.32 M 4748.19 3858.05 L 4689.13 3858.05 M 4689.13 3873.78 L 4748.19 3873.78 M 4748.19 3889.52 L 4689.13 3889.52 M 4689.13 3905.25 L 4748.19 3905.25 M 4748.19 3920.98 L 4689.13 3920.98 M 4689.13 3936.72 L 4748.19 3936.72 M 4748.19 3952.45 L 4689.13 3952.45 M 4689.13 3968.18 L 4748.19 3968.18 M 4748.19 3983.92 L 4689.13 3983.92 M 4689.13 3999.65 L 4748.19 3999.65 M 4746.72 4015.38 L 4690.6 4015.38 M 4702.15 4031.12 L 4735.17 4031.12 M 4531.37 3999.65 L 4472.88 3999.65 M 4472.6 3983.92 L 4531.65 3983.92 M 4531.65 3968.18 L 4472.6 3968.18 M 4472.6 3952.45 L 4531.65 3952.45 M 4531.65 3936.72 L 4472.6 3936.72 M 4472.6 3920.98 L 4531.65 3920.98 M 4531.65 3905.25 L 4472.6 3905.25 M 4472.02 3889.52 L 4531.65 3889.52 M 4531.65 3873.78 L 4470.96 3873.78 M 4467.83 3858.05 L 4531.65 3858.05 M 4531.65 3842.32 L 4463.62 3842.32 M 4458.25 3826.59 L 4531.65 3826.59 M 4531.65 3810.85 L 4450.49 3810.85 M 4441.02 3795.12 L 4531.65 3795.12 M 4531.65 3779.39 L 4429.43 3779.39 M 4414.98 3763.65 L 4531.65 3763.65 M 4531.65 3747.92 L 4396.29 3747.92 M 4370.48 3732.19 L 4531.65 3732.19 M 4531.65 3716.45 L 4327.47 3716.45 M 4479.35 4015.38 L 4524.9 4015.38 M 3380.02 3999.65 L 3262.03 3999.65 M 3277.31 4015.38 L 3364.74 4015.38 M 1657.56 3968.18 L 1519.92 3968.18 M 1519.84 3952.45 L 1657.64 3952.45 M 1657.64 3936.72 L 1519.84 3936.72 M 1519.84 3920.98 L 1657.64 3920.98 M 1657.64 3905.25 L 1519.84 3905.25 M 1519.84 3889.52 L 1657.64 3889.52 M 1657.64 3873.78 L 1519.84 3873.78 M 1523.69 3983.92 L 1653.79 3983.92 M 1640.42 3999.65 L 1537.06 3999.65 M 1352.44 3968.18 L 1195.12 3968.18 M 1195.04 3952.45 L 1352.52 3952.45 M 1352.52 3936.72 L 1195.04 3936.72 M 1195.04 3920.98 L 1352.52 3920.98 M 1352.52 3905.25 L 1195.04 3905.25 M 1195.04 3889.52 L 1352.52 3889.52 M 1352.52 3873.78 L 1195.04 3873.78 M 1194.98 3858.05 L 1352.52 3858.05 M 1352.52 3842.32 L 1194.03 3842.32 M 1192.15 3826.59 L 1352.52 3826.59 M 1352.52 3810.85 L 1189.27 3810.85 M 1184.54 3795.12 L 1352.52 3795.12 M 1352.52 3779.39 L 1178.76 3779.39 M 1171.68 3763.65 L 1352.52 3763.65 M 1352.52 3747.92 L 1162.27 3747.92 M 1151.08 3732.19 L 1352.52 3732.19 M 1352.52 3716.45 L 1137.56 3716.45 M 1120.83 3700.72 L 1352.52 3700.72 M 1352.52 3684.99 L 1099.27 3684.99 M 1069.42 3669.25 L 1352.52 3669.25 M 1348.67 3983.92 L 1198.89 3983.92 M 1212.25 3999.65 L 1335.3 3999.65"/><use x="1076.93" y="4380.67" xlink:href="#tool-D12-pad-1023"/><use x="4620.24" y="4380.67" xlink:href="#tool-D12-pad-1023"/><use x="4620.24" y="837.36" xlink:href="#tool-D12-pad-1023"/><use x="1470.63" y="837.36" xlink:href="#tool-D12-pad-1023"/><use x="1972.6" y="2609.02" xlink:href="#tool-D13-pad-1024"/><use x="1844.65" y="3396.42" xlink:href="#tool-D13-pad-1024"/><use x="2435.2" y="3396.42" xlink:href="#tool-D13-pad-1024"/><use x="2592.68" y="3396.42" xlink:href="#tool-D13-pad-1024"/><use x="3183.23" y="3396.42" xlink:href="#tool-D13-pad-1024"/><use x="3370.24" y="3396.42" xlink:href="#tool-D13-pad-1024"/><use x="3960.79" y="3396.42" xlink:href="#tool-D13-pad-1024"/><use x="4118.27" y="3396.42" xlink:href="#tool-D13-pad-1024"/><use x="4708.82" y="3396.42" xlink:href="#tool-D13-pad-1024"/><use x="3448.98" y="2609.02" xlink:href="#tool-D13-pad-1024"/><use x="4423.39" y="2677.91" xlink:href="#tool-D14-pad-1025"/><use x="4620.24" y="2677.91" xlink:href="#tool-D14-pad-1025"/><use x="4620.24" y="2992.87" xlink:href="#tool-D14-pad-1025"/><use x="4423.39" y="2992.87" xlink:href="#tool-D14-pad-1025"/><use x="4423.39" y="2205.47" xlink:href="#tool-D14-pad-1025"/><use x="4620.24" y="2205.47" xlink:href="#tool-D14-pad-1025"/><use x="4620.24" y="1890.51" xlink:href="#tool-D14-pad-1025"/><use x="4423.39" y="1890.51" xlink:href="#tool-D14-pad-1025"/><use x="1903.7" y="3908.23" xlink:href="#tool-D14-pad-1025"/><use x="1608.43" y="3908.23" xlink:href="#tool-D14-pad-1025"/><use x="1313.15" y="3908.23" xlink:href="#tool-D14-pad-1025"/><use x="1195.04" y="3534.21" xlink:href="#tool-D14-pad-1025"/><use x="998.19" y="3534.21" xlink:href="#tool-D14-pad-1025"/><use x="998.19" y="3219.25" xlink:href="#tool-D14-pad-1025"/><use x="1195.04" y="3219.25" xlink:href="#tool-D14-pad-1025"/><use x="1195.04" y="2746.81" xlink:href="#tool-D14-pad-1025"/><use x="998.19" y="2746.81" xlink:href="#tool-D14-pad-1025"/><use x="998.19" y="2431.85" xlink:href="#tool-D14-pad-1025"/><use x="1195.04" y="2431.85" xlink:href="#tool-D14-pad-1025"/><use x="919.45" y="3908.23" xlink:href="#tool-D15-pad-1026"/><path stroke-width="98.49" fill="none" d="M 2149.76 3898.78 L 2149.76 3993.27 M 2366.3 3993.27 L 2366.3 3898.78 M 2582.83 3898.78 L 2582.83 3993.27 M 2848.58 3993.27 L 2848.58 3898.78 M 3065.12 3898.78 L 3065.12 3993.27 M 3281.65 3993.27 L 3281.65 3898.78 M 3586.77 3898.78 L 3586.77 3993.27 M 3803.31 3993.27 L 3803.31 3898.78 M 4019.84 3898.78 L 4019.84 3993.27 M 4285.59 3993.27 L 4285.59 3898.78 M 4502.13 3898.78 L 4502.13 3993.27 M 4718.66 3993.27 L 4718.66 3898.78"/><use x="4435.2" y="1648.39" xlink:href="#tool-D17-pad-1028"/><use x="4289.53" y="1648.39" xlink:href="#tool-D17-pad-1028"/><use x="4006.06" y="1648.39" xlink:href="#tool-D17-pad-1028"/><use x="3860.39" y="1648.39" xlink:href="#tool-D17-pad-1028"/><use x="4006.06" y="1049.96" xlink:href="#tool-D17-pad-1028"/><use x="4289.53" y="1049.96" xlink:href="#tool-D17-pad-1028"/><use x="2998.19" y="1648.39" xlink:href="#tool-D17-pad-1028"/><use x="2852.52" y="1648.39" xlink:href="#tool-D17-pad-1028"/><use x="2569.05" y="1648.39" xlink:href="#tool-D17-pad-1028"/><use x="2423.39" y="1648.39" xlink:href="#tool-D17-pad-1028"/><use x="2569.05" y="1049.96" xlink:href="#tool-D17-pad-1028"/><use x="2852.52" y="1049.96" xlink:href="#tool-D17-pad-1028"/><path stroke-width="64" fill="none" d="M 1303.78 1050.75 L 1243.78 1050.75 M 1243.78 1150.75 L 1303.78 1150.75 M 1303.78 1250.75 L 1243.78 1250.75 M 1243.78 1535.39 L 1303.78 1535.39 M 1303.78 1635.39 L 1243.78 1635.39 M 1243.78 950.75 L 1303.78 950.75"/><use x="1549.37" y="1535.39" xlink:href="#tool-D19-pad-1030"/><use x="1549.37" y="1635.39" xlink:href="#tool-D20-pad-1031"/><use x="1116.3" y="758.62" xlink:href="#tool-D21-pad-1032"/><use x="2149.76" y="778.31" xlink:href="#tool-D21-pad-1032"/><use x="3685.2" y="768.46" xlink:href="#tool-D21-pad-1032"/><use x="3567.09" y="811.57" xlink:href="#tool-D22-pad-1033"/><use x="3360.39" y="811.57" xlink:href="#tool-D22-pad-1033"/><use x="3360.39" y="1175.75" xlink:href="#tool-D22-pad-1033"/><use x="3567.09" y="1175.75" xlink:href="#tool-D22-pad-1033"/><use x="2021.81" y="1175.75" xlink:href="#tool-D22-pad-1033"/><use x="1815.12" y="1175.75" xlink:href="#tool-D22-pad-1033"/><use x="1815.12" y="811.57" xlink:href="#tool-D22-pad-1033"/><use x="2021.81" y="811.57" xlink:href="#tool-D22-pad-1033"/><use x="1421.42" y="1250.75" xlink:href="#tool-D22-pad-1033"/><use x="1776.54" y="1635.39" xlink:href="#tool-D22-pad-1033"/></g></svg>