<svg xmlns="http://www.w3.org/2000/svg" version="1.1" xmlns:xlink="http://www.w3.org/1999/xlink" width="3.8681499999999995in" height="3.8170999999999995in" viewBox="882.05 632.5 3868.1499999999996 3817.0999999999995" stroke-linecap="round" stroke-linejoin="round" stroke-width="0" stroke="#000"><defs><circle cx="0" cy="0" r="7.85" id="tool-T1-pad-1000"/><circle cx="0" cy="0" r="11.8" id="tool-T2-pad-1001"/><circle cx="0" cy="0" r="15.75" id="tool-T3-pad-1002"/><circle cx="0" cy="0" r="16" id="tool-T4-pad-1003"/><circle cx="0" cy="0" r="19.7" id="tool-T5-pad-1004"/><circle cx="0" cy="0" r="20" id="tool-T6-pad-1005"/><circle cx="0" cy="0" r="23.6" id="tool-T7-pad-1006"/><circle cx="0" cy="0" r="26" id="tool-T8-pad-1007"/><circle cx="0" cy="0" r="31.5" id="tool-T9-pad-1008"/><circle cx="0" cy="0" r="68.9" id="tool-T10-pad-1009"/></defs><g fill="currentColor" stroke="currentColor" transform="translate(0,5082.099999999999) scale(1,-1)"><use x="1008" y="3987" xlink:href="#tool-T1-pad-1000"/><use x="909.6" y="3987" xlink:href="#tool-T1-pad-1000"/><use x="909.6" y="3829.5" xlink:href="#tool-T1-pad-1000"/><use x="1008" y="3829.5" xlink:href="#tool-T1-pad-1000"/><use x="1145.8" y="3691.7" xlink:href="#tool-T1-pad-1000"/><use x="1244.3" y="3721.2" xlink:href="#tool-T1-pad-1000"/><use x="1332.8" y="3750.7" xlink:href="#tool-T1-pad-1000"/><use x="1214.7" y="3829.5" xlink:href="#tool-T1-pad-1000"/><use x="1214.7" y="3987" xlink:href="#tool-T1-pad-1000"/><use x="1539.5" y="3987" xlink:href="#tool-T1-pad-1000"/><use x="1638" y="3987" xlink:href="#tool-T1-pad-1000"/><use x="1539.5" y="3868.9" xlink:href="#tool-T1-pad-1000"/><use x="1638" y="3829.5" xlink:href="#tool-T1-pad-1000"/><use x="1539.5" y="3750.7" xlink:href="#tool-T1-pad-1000"/><use x="1638" y="3672" xlink:href="#tool-T1-pad-1000"/><use x="1539.5" y="3593.3" xlink:href="#tool-T1-pad-1000"/><use x="1638" y="3514.5" xlink:href="#tool-T1-pad-1000"/><use x="1539.5" y="3435.8" xlink:href="#tool-T1-pad-1000"/><use x="1638" y="3357" xlink:href="#tool-T1-pad-1000"/><use x="1539.5" y="3278.3" xlink:href="#tool-T1-pad-1000"/><use x="1618.3" y="3179.9" xlink:href="#tool-T1-pad-1000"/><use x="1539.5" y="3120.8" xlink:href="#tool-T1-pad-1000"/><use x="1618.3" y="3051.9" xlink:href="#tool-T1-pad-1000"/><use x="1569.1" y="2983" xlink:href="#tool-T1-pad-1000"/><use x="1500.2" y="2943.7" xlink:href="#tool-T1-pad-1000"/><use x="1460.8" y="3022.4" xlink:href="#tool-T1-pad-1000"/><use x="1382" y="2943.7" xlink:href="#tool-T1-pad-1000"/><use x="1431.3" y="2825.6" xlink:href="#tool-T1-pad-1000"/><use x="1500.2" y="2766.5" xlink:href="#tool-T1-pad-1000"/><use x="1559.2" y="2855.1" xlink:href="#tool-T1-pad-1000"/><use x="1639.9" y="2925.9" xlink:href="#tool-T1-pad-1000"/><use x="1834.8" y="3042.1" xlink:href="#tool-T1-pad-1000"/><use x="1913.5" y="3120.8" xlink:href="#tool-T1-pad-1000"/><use x="1992.3" y="3199.6" xlink:href="#tool-T1-pad-1000"/><use x="1913.5" y="3278.3" xlink:href="#tool-T1-pad-1000"/><use x="1992.3" y="3357" xlink:href="#tool-T1-pad-1000"/><use x="1913.5" y="3435.8" xlink:href="#tool-T1-pad-1000"/><use x="1834.8" y="3514.5" xlink:href="#tool-T1-pad-1000"/><use x="1913.5" y="3593.3" xlink:href="#tool-T1-pad-1000"/><use x="1992.3" y="3514.5" xlink:href="#tool-T1-pad-1000"/><use x="1992.3" y="3672" xlink:href="#tool-T1-pad-1000"/><use x="1834.8" y="3672" xlink:href="#tool-T1-pad-1000"/><use x="1834.8" y="3868.9" xlink:href="#tool-T1-pad-1000"/><use x="1943.1" y="3868.9" xlink:href="#tool-T1-pad-1000"/><use x="1943.1" y="3987" xlink:href="#tool-T1-pad-1000"/><use x="1834.8" y="3987" xlink:href="#tool-T1-pad-1000"/><use x="1332.8" y="3593.3" xlink:href="#tool-T1-pad-1000"/><use x="1254.1" y="3622.8" xlink:href="#tool-T1-pad-1000"/><use x="1273.8" y="3485" xlink:href="#tool-T1-pad-1000"/><use x="1332.8" y="3445.6" xlink:href="#tool-T1-pad-1000"/><use x="1254.1" y="3376.7" xlink:href="#tool-T1-pad-1000"/><use x="1332.8" y="3337.4" xlink:href="#tool-T1-pad-1000"/><use x="1273.8" y="3258.6" xlink:href="#tool-T1-pad-1000"/><use x="1293.5" y="3160.2" xlink:href="#tool-T1-pad-1000"/><use x="1185.2" y="3120.8" xlink:href="#tool-T1-pad-1000"/><use x="1047.4" y="3120.8" xlink:href="#tool-T1-pad-1000"/><use x="889.9" y="3120.8" xlink:href="#tool-T1-pad-1000"/><use x="889.9" y="3248.8" xlink:href="#tool-T1-pad-1000"/><use x="998.2" y="3307.8" xlink:href="#tool-T1-pad-1000"/><use x="1096.6" y="3268.5" xlink:href="#tool-T1-pad-1000"/><use x="1185.2" y="3307.8" xlink:href="#tool-T1-pad-1000"/><use x="1096.6" y="3376.7" xlink:href="#tool-T1-pad-1000"/><use x="1185.2" y="3445.6" xlink:href="#tool-T1-pad-1000"/><use x="1096.6" y="3485" xlink:href="#tool-T1-pad-1000"/><use x="998.2" y="3445.6" xlink:href="#tool-T1-pad-1000"/><use x="889.9" y="3504.7" xlink:href="#tool-T1-pad-1000"/><use x="889.9" y="3376.7" xlink:href="#tool-T1-pad-1000"/><use x="1116.3" y="3593.3" xlink:href="#tool-T1-pad-1000"/><use x="998.2" y="3622.8" xlink:href="#tool-T1-pad-1000"/><use x="889.9" y="3632.6" xlink:href="#tool-T1-pad-1000"/><use x="1834.8" y="3199.6" xlink:href="#tool-T1-pad-1000"/><use x="1992.3" y="3042.1" xlink:href="#tool-T1-pad-1000"/><use x="2071" y="2963.3" xlink:href="#tool-T1-pad-1000"/><use x="1992.3" y="2884.6" xlink:href="#tool-T1-pad-1000"/><use x="2071" y="2805.9" xlink:href="#tool-T1-pad-1000"/><use x="1992.3" y="2727.1" xlink:href="#tool-T1-pad-1000"/><use x="1913.5" y="2805.9" xlink:href="#tool-T1-pad-1000"/><use x="1874.2" y="2884.6" xlink:href="#tool-T1-pad-1000"/><use x="1913.5" y="2963.3" xlink:href="#tool-T1-pad-1000"/><use x="2149.8" y="2864.9" xlink:href="#tool-T1-pad-1000"/><use x="2149.8" y="2727.1" xlink:href="#tool-T1-pad-1000"/><use x="2071" y="2648.4" xlink:href="#tool-T1-pad-1000"/><use x="2149.8" y="2569.6" xlink:href="#tool-T1-pad-1000"/><use x="2071" y="2490.9" xlink:href="#tool-T1-pad-1000"/><use x="1992.3" y="2412.2" xlink:href="#tool-T1-pad-1000"/><use x="1913.5" y="2490.9" xlink:href="#tool-T1-pad-1000"/><use x="1834.8" y="2412.2" xlink:href="#tool-T1-pad-1000"/><use x="1913.5" y="2343.3" xlink:href="#tool-T1-pad-1000"/><use x="2002.1" y="2264.5" xlink:href="#tool-T1-pad-1000"/><use x="2071" y="2333.4" xlink:href="#tool-T1-pad-1000"/><use x="2149.8" y="2254.7" xlink:href="#tool-T1-pad-1000"/><use x="2090.7" y="2175.9" xlink:href="#tool-T1-pad-1000"/><use x="1992.3" y="2156.3" xlink:href="#tool-T1-pad-1000"/><use x="1903.7" y="2244.8" xlink:href="#tool-T1-pad-1000"/><use x="2120.2" y="2077.5" xlink:href="#tool-T1-pad-1000"/><use x="2149.8" y="2412.2" xlink:href="#tool-T1-pad-1000"/><use x="1913.5" y="2648.4" xlink:href="#tool-T1-pad-1000"/><use x="1834.8" y="2727.1" xlink:href="#tool-T1-pad-1000"/><use x="1834.8" y="2569.6" xlink:href="#tool-T1-pad-1000"/><use x="1638" y="2569.6" xlink:href="#tool-T1-pad-1000"/><use x="1559.2" y="2648.4" xlink:href="#tool-T1-pad-1000"/><use x="1638" y="2727.1" xlink:href="#tool-T1-pad-1000"/><use x="1480.5" y="2569.6" xlink:href="#tool-T1-pad-1000"/><use x="1559.2" y="2490.9" xlink:href="#tool-T1-pad-1000"/><use x="1638" y="2412.2" xlink:href="#tool-T1-pad-1000"/><use x="1559.2" y="2333.4" xlink:href="#tool-T1-pad-1000"/><use x="1480.5" y="2412.2" xlink:href="#tool-T1-pad-1000"/><use x="1401.7" y="2490.9" xlink:href="#tool-T1-pad-1000"/><use x="1323" y="2412.2" xlink:href="#tool-T1-pad-1000"/><use x="1263.9" y="2481.1" xlink:href="#tool-T1-pad-1000"/><use x="1175.4" y="2530.3" xlink:href="#tool-T1-pad-1000"/><use x="1244.3" y="2589.3" xlink:href="#tool-T1-pad-1000"/><use x="1175.4" y="2648.4" xlink:href="#tool-T1-pad-1000"/><use x="1096.6" y="2707.4" xlink:href="#tool-T1-pad-1000"/><use x="998.2" y="2658.2" xlink:href="#tool-T1-pad-1000"/><use x="889.9" y="2589.3" xlink:href="#tool-T1-pad-1000"/><use x="998.2" y="2520.4" xlink:href="#tool-T1-pad-1000"/><use x="889.9" y="2461.4" xlink:href="#tool-T1-pad-1000"/><use x="889.9" y="2333.4" xlink:href="#tool-T1-pad-1000"/><use x="1096.6" y="2333.4" xlink:href="#tool-T1-pad-1000"/><use x="1096.6" y="2481.1" xlink:href="#tool-T1-pad-1000"/><use x="1096.6" y="2589.3" xlink:href="#tool-T1-pad-1000"/><use x="1283.6" y="2687.8" xlink:href="#tool-T1-pad-1000"/><use x="1342.7" y="2766.5" xlink:href="#tool-T1-pad-1000"/><use x="1263.9" y="2845.2" xlink:href="#tool-T1-pad-1000"/><use x="1096.6" y="2845.2" xlink:href="#tool-T1-pad-1000"/><use x="889.9" y="2845.2" xlink:href="#tool-T1-pad-1000"/><use x="889.9" y="2717.3" xlink:href="#tool-T1-pad-1000"/><use x="1323" y="2569.6" xlink:href="#tool-T1-pad-1000"/><use x="1421.4" y="2668.1" xlink:href="#tool-T1-pad-1000"/><use x="1401.7" y="2333.4" xlink:href="#tool-T1-pad-1000"/><use x="1263.9" y="2333.4" xlink:href="#tool-T1-pad-1000"/><use x="2346.6" y="3298" xlink:href="#tool-T1-pad-1000"/><use x="2425.4" y="3219.3" xlink:href="#tool-T1-pad-1000"/><use x="2504.1" y="3298" xlink:href="#tool-T1-pad-1000"/><use x="2582.8" y="3219.3" xlink:href="#tool-T1-pad-1000"/><use x="2661.6" y="3298" xlink:href="#tool-T1-pad-1000"/><use x="2661.6" y="3455.5" xlink:href="#tool-T1-pad-1000"/><use x="2582.8" y="3534.2" xlink:href="#tool-T1-pad-1000"/><use x="2661.6" y="3613" xlink:href="#tool-T1-pad-1000"/><use x="2582.8" y="3691.7" xlink:href="#tool-T1-pad-1000"/><use x="2513.9" y="3622.8" xlink:href="#tool-T1-pad-1000"/><use x="2425.4" y="3534.2" xlink:href="#tool-T1-pad-1000"/><use x="2504.1" y="3455.5" xlink:href="#tool-T1-pad-1000"/><use x="2346.6" y="3455.5" xlink:href="#tool-T1-pad-1000"/><use x="2582.8" y="3809.8" xlink:href="#tool-T1-pad-1000"/><use x="2661.6" y="3770.4" xlink:href="#tool-T1-pad-1000"/><use x="3075" y="3425.9" xlink:href="#tool-T1-pad-1000"/><use x="3173.4" y="3475.2" xlink:href="#tool-T1-pad-1000"/><use x="3153.7" y="3563.7" xlink:href="#tool-T1-pad-1000"/><use x="3252.1" y="3622.8" xlink:href="#tool-T1-pad-1000"/><use x="3271.8" y="3721.2" xlink:href="#tool-T1-pad-1000"/><use x="3262" y="3809.8" xlink:href="#tool-T1-pad-1000"/><use x="3370.2" y="3829.5" xlink:href="#tool-T1-pad-1000"/><use x="3370.2" y="3908.2" xlink:href="#tool-T1-pad-1000"/><use x="3370.2" y="3987" xlink:href="#tool-T1-pad-1000"/><use x="3370.2" y="3731.1" xlink:href="#tool-T1-pad-1000"/><use x="3075" y="3288.1" xlink:href="#tool-T1-pad-1000"/><use x="3173.4" y="3219.3" xlink:href="#tool-T1-pad-1000"/><use x="3075" y="3150.4" xlink:href="#tool-T1-pad-1000"/><use x="3173.4" y="3081.5" xlink:href="#tool-T1-pad-1000"/><use x="3075" y="3012.6" xlink:href="#tool-T1-pad-1000"/><use x="3143.9" y="2933.8" xlink:href="#tool-T1-pad-1000"/><use x="3252.1" y="2953.5" xlink:href="#tool-T1-pad-1000"/><use x="3330.9" y="2874.8" xlink:href="#tool-T1-pad-1000"/><use x="3409.6" y="2796" xlink:href="#tool-T1-pad-1000"/><use x="3488.3" y="2717.3" xlink:href="#tool-T1-pad-1000"/><use x="3389.9" y="2687.8" xlink:href="#tool-T1-pad-1000"/><use x="3291.5" y="2756.7" xlink:href="#tool-T1-pad-1000"/><use x="3242.3" y="2648.4" xlink:href="#tool-T1-pad-1000"/><use x="3321" y="2569.6" xlink:href="#tool-T1-pad-1000"/><use x="3409.6" y="2500.7" xlink:href="#tool-T1-pad-1000"/><use x="3547.4" y="2628.7" xlink:href="#tool-T1-pad-1000"/><use x="3202.9" y="2845.2" xlink:href="#tool-T1-pad-1000"/><use x="3153.7" y="2737" xlink:href="#tool-T1-pad-1000"/><use x="3075" y="2855.1" xlink:href="#tool-T1-pad-1000"/><use x="3842.7" y="3288.1" xlink:href="#tool-T1-pad-1000"/><use x="3882" y="3366.9" xlink:href="#tool-T1-pad-1000"/><use x="3941.1" y="3288.1" xlink:href="#tool-T1-pad-1000"/><use x="4039.5" y="3317.7" xlink:href="#tool-T1-pad-1000"/><use x="4039.5" y="3416.1" xlink:href="#tool-T1-pad-1000"/><use x="4000.2" y="3504.7" xlink:href="#tool-T1-pad-1000"/><use x="4069.1" y="3593.3" xlink:href="#tool-T1-pad-1000"/><use x="3990.3" y="3652.3" xlink:href="#tool-T1-pad-1000"/><use x="4078.9" y="3691.7" xlink:href="#tool-T1-pad-1000"/><use x="4010" y="3750.7" xlink:href="#tool-T1-pad-1000"/><use x="4078.9" y="3829.5" xlink:href="#tool-T1-pad-1000"/><use x="4118.3" y="3494.8" xlink:href="#tool-T1-pad-1000"/><use x="4384" y="3051.9" xlink:href="#tool-T1-pad-1000"/><use x="4452.9" y="2914.1" xlink:href="#tool-T1-pad-1000"/><use x="4384" y="2835.4" xlink:href="#tool-T1-pad-1000"/><use x="4452.9" y="2756.7" xlink:href="#tool-T1-pad-1000"/><use x="4521.8" y="2835.4" xlink:href="#tool-T1-pad-1000"/><use x="4571" y="2924" xlink:href="#tool-T1-pad-1000"/><use x="4630.1" y="2835.4" xlink:href="#tool-T1-pad-1000"/><use x="4728.5" y="2835.4" xlink:href="#tool-T1-pad-1000"/><use x="4699" y="2933.8" xlink:href="#tool-T1-pad-1000"/><use x="4728.5" y="3051.9" xlink:href="#tool-T1-pad-1000"/><use x="4521.8" y="3051.9" xlink:href="#tool-T1-pad-1000"/><use x="4718.7" y="3248.8" xlink:href="#tool-T1-pad-1000"/><use x="4718.7" y="3327.5" xlink:href="#tool-T1-pad-1000"/><use x="4718.7" y="3465.3" xlink:href="#tool-T1-pad-1000"/><use x="4718.7" y="3544.1" xlink:href="#tool-T1-pad-1000"/><use x="4718.7" y="3622.8" xlink:href="#tool-T1-pad-1000"/><use x="4718.7" y="3701.5" xlink:href="#tool-T1-pad-1000"/><use x="4718.7" y="3780.3" xlink:href="#tool-T1-pad-1000"/><use x="4571" y="2746.8" xlink:href="#tool-T1-pad-1000"/><use x="4561.2" y="2618.9" xlink:href="#tool-T1-pad-1000"/><use x="4472.6" y="2579.5" xlink:href="#tool-T1-pad-1000"/><use x="4384" y="2618.9" xlink:href="#tool-T1-pad-1000"/><use x="4649.8" y="2579.5" xlink:href="#tool-T1-pad-1000"/><use x="4728.5" y="2618.9" xlink:href="#tool-T1-pad-1000"/><use x="4699" y="2737" xlink:href="#tool-T1-pad-1000"/><use x="4728.5" y="2303.9" xlink:href="#tool-T1-pad-1000"/><use x="4728.5" y="2175.9" xlink:href="#tool-T1-pad-1000"/><use x="4630.1" y="2107" xlink:href="#tool-T1-pad-1000"/><use x="4728.5" y="2048" xlink:href="#tool-T1-pad-1000"/><use x="4630.1" y="1988.9" xlink:href="#tool-T1-pad-1000"/><use x="4521.8" y="2048" xlink:href="#tool-T1-pad-1000"/><use x="4413.5" y="2107" xlink:href="#tool-T1-pad-1000"/><use x="4413.5" y="1988.9" xlink:href="#tool-T1-pad-1000"/><use x="4521.8" y="1870.8" xlink:href="#tool-T1-pad-1000"/><use x="4728.5" y="1870.8" xlink:href="#tool-T1-pad-1000"/><use x="4521.8" y="2175.9" xlink:href="#tool-T1-pad-1000"/><use x="4561.2" y="2303.9" xlink:href="#tool-T1-pad-1000"/><use x="4384" y="2303.9" xlink:href="#tool-T1-pad-1000"/><use x="968.7" y="949.4" xlink:href="#tool-T2-pad-1001"/><use x="1382" y="1201.5" xlink:href="#tool-T2-pad-1001"/><use x="1382" y="1300" xlink:href="#tool-T2-pad-1001"/><use x="1490.3" y="1250.7" xlink:href="#tool-T2-pad-1001"/><use x="1825" y="1559.6" xlink:href="#tool-T2-pad-1001"/><use x="1933.2" y="1549.8" xlink:href="#tool-T2-pad-1001"/><use x="1893.9" y="1677.7" xlink:href="#tool-T2-pad-1001"/><use x="2267.9" y="1152.3" xlink:href="#tool-T2-pad-1001"/><use x="2267.9" y="1014.5" xlink:href="#tool-T2-pad-1001"/><use x="2513.9" y="1004.7" xlink:href="#tool-T2-pad-1001"/><use x="2632" y="1014.5" xlink:href="#tool-T2-pad-1001"/><use x="2681.3" y="1103.1" xlink:href="#tool-T2-pad-1001"/><use x="2789.5" y="994.8" xlink:href="#tool-T2-pad-1001"/><use x="2897.8" y="1103.1" xlink:href="#tool-T2-pad-1001"/><use x="2897.8" y="866.9" xlink:href="#tool-T2-pad-1001"/><use x="2927.3" y="738.9" xlink:href="#tool-T2-pad-1001"/><use x="2976.5" y="650.4" xlink:href="#tool-T2-pad-1001"/><use x="3183.2" y="985" xlink:href="#tool-T2-pad-1001"/><use x="3183.2" y="1260.6" xlink:href="#tool-T2-pad-1001"/><use x="3636" y="1382.4" xlink:href="#tool-T2-pad-1001"/><use x="3763.9" y="1162.2" xlink:href="#tool-T2-pad-1001"/><use x="3763.9" y="1014.5" xlink:href="#tool-T2-pad-1001"/><use x="3941.1" y="1014.5" xlink:href="#tool-T2-pad-1001"/><use x="4059.2" y="1004.7" xlink:href="#tool-T2-pad-1001"/><use x="4108.4" y="1103.1" xlink:href="#tool-T2-pad-1001"/><use x="4246.2" y="994.8" xlink:href="#tool-T2-pad-1001"/><use x="4344.6" y="1093.3" xlink:href="#tool-T2-pad-1001"/><use x="4354.5" y="866.9" xlink:href="#tool-T2-pad-1001"/><use x="4187.2" y="699.6" xlink:href="#tool-T2-pad-1001"/><use x="3990.3" y="857" xlink:href="#tool-T2-pad-1001"/><use x="3941.1" y="1152.3" xlink:href="#tool-T2-pad-1001"/><use x="4206.9" y="1339.3" xlink:href="#tool-T2-pad-1001"/><use x="4718.7" y="1319.6" xlink:href="#tool-T2-pad-1001"/><use x="4728.5" y="650.4" xlink:href="#tool-T2-pad-1001"/><use x="2523.8" y="866.9" xlink:href="#tool-T2-pad-1001"/><use x="2513.9" y="719.3" xlink:href="#tool-T2-pad-1001"/><use x="2513.9" y="1152.3" xlink:href="#tool-T2-pad-1001"/><use x="1746.2" y="644.3" xlink:href="#tool-T2-pad-1001"/><use x="919.4" y="1480.9" xlink:href="#tool-T2-pad-1001"/><use x="1776.5" y="1635.4" xlink:href="#tool-T3-pad-1002"/><use x="1421.4" y="1250.7" xlink:href="#tool-T3-pad-1002"/><use x="1815.1" y="1175.7" xlink:href="#tool-T3-pad-1002"/><use x="2021.8" y="1175.7" xlink:href="#tool-T3-pad-1002"/><use x="2021.8" y="811.6" xlink:href="#tool-T3-pad-1002"/><use x="1815.1" y="811.6" xlink:href="#tool-T3-pad-1002"/><use x="2423.4" y="1648.4" xlink:href="#tool-T3-pad-1002"/><use x="2569.1" y="1648.4" xlink:href="#tool-T3-pad-1002"/><use x="2852.5" y="1648.4" xlink:href="#tool-T3-pad-1002"/><use x="2998.2" y="1648.4" xlink:href="#tool-T3-pad-1002"/><use x="3360.4" y="1175.7" xlink:href="#tool-T3-pad-1002"/><use x="3567.1" y="1175.7" xlink:href="#tool-T3-pad-1002"/><use x="3567.1" y="811.6" xlink:href="#tool-T3-pad-1002"/><use x="3360.4" y="811.6" xlink:href="#tool-T3-pad-1002"/><use x="2852.5" y="1050" xlink:href="#tool-T3-pad-1002"/><use x="2569.1" y="1050" xlink:href="#tool-T3-pad-1002"/><use x="3860.4" y="1648.4" xlink:href="#tool-T3-pad-1002"/><use x="4006.1" y="1648.4" xlink:href="#tool-T3-pad-1002"/><use x="4289.5" y="1648.4" xlink:href="#tool-T3-pad-1002"/><use x="4435.2" y="1648.4" xlink:href="#tool-T3-pad-1002"/><use x="4289.5" y="1050" xlink:href="#tool-T3-pad-1002"/><use x="4006.1" y="1050" xlink:href="#tool-T3-pad-1002"/><use x="1549.4" y="1635.4" xlink:href="#tool-T4-pad-1003"/><use x="1549.4" y="1535.4" xlink:href="#tool-T4-pad-1003"/><use x="1844.6" y="3396.4" xlink:href="#tool-T5-pad-1004"/><use x="2435.2" y="3396.4" xlink:href="#tool-T5-pad-1004"/><use x="2592.7" y="3396.4" xlink:href="#tool-T5-pad-1004"/><use x="3183.2" y="3396.4" xlink:href="#tool-T5-pad-1004"/><use x="3370.2" y="3396.4" xlink:href="#tool-T5-pad-1004"/><use x="3960.8" y="3396.4" xlink:href="#tool-T5-pad-1004"/><use x="4118.3" y="3396.4" xlink:href="#tool-T5-pad-1004"/><use x="4708.8" y="3396.4" xlink:href="#tool-T5-pad-1004"/><use x="3449" y="2609" xlink:href="#tool-T5-pad-1004"/><use x="1972.6" y="2609" xlink:href="#tool-T5-pad-1004"/><use x="1273.8" y="950.7" xlink:href="#tool-T6-pad-1005"/><use x="1273.8" y="1050.7" xlink:href="#tool-T6-pad-1005"/><use x="1273.8" y="1150.7" xlink:href="#tool-T6-pad-1005"/><use x="1273.8" y="1250.7" xlink:href="#tool-T6-pad-1005"/><use x="1273.8" y="1535.4" xlink:href="#tool-T6-pad-1005"/><use x="1273.8" y="1635.4" xlink:href="#tool-T6-pad-1005"/><use x="919.4" y="3908.2" xlink:href="#tool-T7-pad-1006"/><use x="998.2" y="3534.2" xlink:href="#tool-T7-pad-1006"/><use x="1195" y="3534.2" xlink:href="#tool-T7-pad-1006"/><use x="1195" y="3219.3" xlink:href="#tool-T7-pad-1006"/><use x="998.2" y="3219.3" xlink:href="#tool-T7-pad-1006"/><use x="998.2" y="2746.8" xlink:href="#tool-T7-pad-1006"/><use x="1195" y="2746.8" xlink:href="#tool-T7-pad-1006"/><use x="1195" y="2431.9" xlink:href="#tool-T7-pad-1006"/><use x="998.2" y="2431.9" xlink:href="#tool-T7-pad-1006"/><use x="1313.1" y="3908.2" xlink:href="#tool-T7-pad-1006"/><use x="1608.4" y="3908.2" xlink:href="#tool-T7-pad-1006"/><use x="1903.7" y="3908.2" xlink:href="#tool-T7-pad-1006"/><use x="4423.4" y="2992.9" xlink:href="#tool-T7-pad-1006"/><use x="4620.2" y="2992.9" xlink:href="#tool-T7-pad-1006"/><use x="4620.2" y="2677.9" xlink:href="#tool-T7-pad-1006"/><use x="4423.4" y="2677.9" xlink:href="#tool-T7-pad-1006"/><use x="4423.4" y="2205.5" xlink:href="#tool-T7-pad-1006"/><use x="4620.2" y="2205.5" xlink:href="#tool-T7-pad-1006"/><use x="4620.2" y="1890.5" xlink:href="#tool-T7-pad-1006"/><use x="4423.4" y="1890.5" xlink:href="#tool-T7-pad-1006"/><use x="3685.2" y="768.5" xlink:href="#tool-T8-pad-1007"/><use x="2149.8" y="778.3" xlink:href="#tool-T8-pad-1007"/><use x="1116.3" y="758.6" xlink:href="#tool-T8-pad-1007"/><use x="4502.1" y="3946" xlink:href="#tool-T9-pad-1008"/><use x="4285.6" y="3946" xlink:href="#tool-T9-pad-1008"/><use x="4019.8" y="3946" xlink:href="#tool-T9-pad-1008"/><use x="3803.3" y="3946" xlink:href="#tool-T9-pad-1008"/><use x="3586.8" y="3946" xlink:href="#tool-T9-pad-1008"/><use x="3281.7" y="3946" xlink:href="#tool-T9-pad-1008"/><use x="3065.1" y="3946" xlink:href="#tool-T9-pad-1008"/><use x="2848.6" y="3946" xlink:href="#tool-T9-pad-1008"/><use x="2582.8" y="3946" xlink:href="#tool-T9-pad-1008"/><use x="2366.3" y="3946" xlink:href="#tool-T9-pad-1008"/><use x="2149.8" y="3946" xlink:href="#tool-T9-pad-1008"/><use x="4718.7" y="3946" xlink:href="#tool-T9-pad-1008"/><use x="1076.9" y="4380.7" xlink:href="#tool-T10-pad-1009"/><use x="4620.2" y="4380.7" xlink:href="#tool-T10-pad-1009"/><use x="4620.2" y="837.4" xlink:href="#tool-T10-pad-1009"/><use x="1470.6" y="837.4" xlink:href="#tool-T10-pad-1009"/></g></svg>